%FSLAX23Y23*%
%MOIN*%
G70*
G01*
G75*
G04 Layer_Color=55807*
%ADD10C,0.008*%
%ADD11C,0.010*%
%ADD12R,0.032X0.032*%
%ADD13R,0.100X0.022*%
%ADD14R,0.126X0.022*%
%ADD15R,0.100X0.012*%
%ADD16R,0.126X0.012*%
%ADD17R,0.021X0.037*%
%ADD18R,0.071X0.079*%
%ADD19R,0.037X0.021*%
%ADD20R,0.079X0.071*%
%ADD21R,0.036X0.046*%
%ADD22R,0.036X0.043*%
%ADD23R,0.010X0.053*%
%ADD24R,0.053X0.010*%
%ADD25O,0.053X0.010*%
%ADD26O,0.010X0.053*%
%ADD27R,0.102X0.040*%
%ADD28R,0.059X0.040*%
%ADD29O,0.138X0.094*%
%ADD30R,0.038X0.045*%
%ADD31R,0.045X0.038*%
%ADD32R,0.050X0.060*%
%ADD33R,0.060X0.050*%
%ADD34C,0.060*%
%ADD35R,0.032X0.032*%
%ADD36R,0.040X0.037*%
%ADD37P,0.027X8X22.5*%
%ADD38R,0.067X0.025*%
%ADD39O,0.067X0.025*%
%ADD40O,0.075X0.024*%
%ADD41R,0.075X0.024*%
%ADD42O,0.094X0.138*%
%ADD43R,0.040X0.059*%
%ADD44R,0.040X0.102*%
%ADD45R,0.049X0.012*%
%ADD46O,0.009X0.039*%
%ADD47O,0.039X0.009*%
%ADD48R,0.039X0.009*%
%ADD49C,0.040*%
%ADD50C,0.020*%
%ADD51C,0.012*%
%ADD52C,0.022*%
%ADD53C,0.030*%
%ADD54C,0.015*%
%ADD55C,0.011*%
%ADD56C,0.050*%
%ADD57C,0.023*%
%ADD58R,0.130X0.028*%
%ADD59R,0.070X0.070*%
%ADD60C,0.070*%
%ADD61C,0.028*%
%ADD62O,0.063X0.039*%
%ADD63O,0.083X0.039*%
%ADD64R,0.055X0.055*%
%ADD65C,0.055*%
%ADD66R,0.060X0.060*%
%ADD67O,0.060X0.070*%
%ADD68R,0.060X0.070*%
%ADD69R,0.060X0.060*%
%ADD70C,0.071*%
%ADD71R,0.071X0.071*%
%ADD72C,0.100*%
%ADD73R,0.070X0.070*%
%ADD74C,0.120*%
%ADD75O,0.070X0.060*%
%ADD76R,0.065X0.065*%
%ADD77C,0.025*%
%ADD78C,0.020*%
%ADD79C,0.050*%
%ADD80C,0.040*%
%ADD81C,0.030*%
%ADD82C,0.035*%
%ADD83C,0.015*%
%ADD84C,0.028*%
%ADD85C,0.039*%
%ADD86C,0.001*%
%ADD87C,0.005*%
%ADD88C,0.004*%
%ADD89C,0.006*%
%ADD90C,0.000*%
%ADD91C,0.004*%
%ADD92C,0.001*%
%ADD93C,0.003*%
%ADD94C,0.008*%
%ADD95C,0.006*%
%ADD96C,0.006*%
%ADD97C,0.007*%
%ADD98R,0.055X0.017*%
%ADD99R,0.027X0.092*%
%ADD100R,0.017X0.055*%
%ADD101R,0.092X0.027*%
%ADD102R,0.092X0.027*%
%ADD103R,0.077X0.021*%
%ADD104R,0.021X0.077*%
G36*
X1617Y696D02*
X1618Y696D01*
X1618Y696D01*
X1619Y696D01*
X1620Y696D01*
X1621Y695D01*
X1621Y695D01*
X1621Y695D01*
X1621Y695D01*
X1622Y694D01*
X1622Y694D01*
X1622Y693D01*
X1623Y692D01*
X1623Y692D01*
X1623Y691D01*
Y690D01*
Y690D01*
X1623Y690D01*
X1623Y689D01*
X1623Y689D01*
X1623Y688D01*
X1622Y688D01*
X1622Y687D01*
X1622Y687D01*
X1622Y686D01*
X1619Y673D01*
X1613D01*
X1616Y686D01*
Y686D01*
X1616Y686D01*
Y686D01*
X1616Y686D01*
X1616Y687D01*
X1616Y687D01*
X1616Y688D01*
X1616Y689D01*
X1616Y689D01*
X1616Y689D01*
Y689D01*
Y690D01*
Y690D01*
X1616Y690D01*
X1616Y690D01*
X1616Y690D01*
X1616Y691D01*
X1616Y691D01*
X1616Y691D01*
X1616Y691D01*
X1616Y691D01*
X1615Y692D01*
X1615Y692D01*
X1615Y692D01*
X1615Y692D01*
X1614Y692D01*
X1614Y692D01*
X1614D01*
X1613Y692D01*
X1613Y692D01*
X1612Y692D01*
X1612Y692D01*
X1611Y691D01*
X1611Y691D01*
X1611Y691D01*
X1610Y691D01*
X1610Y690D01*
X1610Y690D01*
X1609Y690D01*
X1609Y689D01*
X1608Y689D01*
X1608Y688D01*
X1608Y688D01*
X1608Y688D01*
X1608Y687D01*
X1608Y687D01*
X1608Y687D01*
X1607Y686D01*
X1607Y686D01*
X1607Y685D01*
X1607Y685D01*
X1607Y684D01*
X1607Y684D01*
X1607Y683D01*
X1606Y682D01*
X1604Y673D01*
X1598D01*
X1603Y696D01*
X1609D01*
X1608Y693D01*
X1608D01*
X1608Y693D01*
X1609Y693D01*
X1609Y694D01*
X1610Y694D01*
X1610Y694D01*
X1611Y695D01*
X1612Y695D01*
X1613Y696D01*
X1613Y696D01*
X1613Y696D01*
X1613Y696D01*
X1614Y696D01*
X1614Y696D01*
X1615Y696D01*
X1616Y696D01*
X1617Y697D01*
X1617D01*
X1617Y696D01*
D02*
G37*
G36*
X1365Y696D02*
X1365Y696D01*
X1366Y696D01*
X1367Y696D01*
X1367Y696D01*
X1368Y695D01*
X1368Y695D01*
X1368Y695D01*
X1368Y694D01*
X1369Y694D01*
X1369Y693D01*
X1369Y693D01*
X1369Y692D01*
X1369Y691D01*
Y691D01*
Y691D01*
X1369Y691D01*
X1369Y690D01*
X1369Y690D01*
X1369Y689D01*
X1369Y688D01*
X1369Y687D01*
X1366Y673D01*
X1360D01*
X1363Y687D01*
Y687D01*
X1363Y687D01*
Y687D01*
X1363Y687D01*
X1363Y688D01*
X1363Y688D01*
X1363Y689D01*
X1363Y689D01*
X1363Y690D01*
Y690D01*
Y690D01*
Y690D01*
Y690D01*
X1363Y690D01*
X1363Y690D01*
X1363Y691D01*
X1363Y691D01*
X1363Y691D01*
X1362Y692D01*
X1362Y692D01*
X1362Y692D01*
X1362Y692D01*
X1362Y692D01*
X1362Y692D01*
X1361Y692D01*
X1361Y692D01*
X1361D01*
X1360Y692D01*
X1360Y692D01*
X1359Y692D01*
X1359Y691D01*
X1358Y691D01*
X1358Y691D01*
X1357Y690D01*
X1357Y690D01*
X1357Y690D01*
X1357Y689D01*
X1356Y689D01*
X1356Y689D01*
X1356Y689D01*
X1356Y689D01*
X1356Y688D01*
X1356Y688D01*
X1356Y688D01*
X1355Y687D01*
X1355Y687D01*
X1355Y686D01*
X1355Y686D01*
X1355Y685D01*
X1354Y684D01*
X1354Y683D01*
X1352Y673D01*
X1346D01*
X1349Y687D01*
Y687D01*
X1349Y687D01*
X1349Y687D01*
X1349Y688D01*
X1349Y688D01*
X1349Y689D01*
X1349Y689D01*
X1349Y690D01*
Y690D01*
Y690D01*
Y690D01*
X1349Y690D01*
X1349Y690D01*
X1349Y691D01*
X1349Y691D01*
X1349Y691D01*
X1349Y692D01*
X1349Y692D01*
X1348Y692D01*
X1348Y692D01*
X1348Y692D01*
X1348Y692D01*
X1347Y692D01*
X1347Y692D01*
X1347D01*
X1347Y692D01*
X1346Y692D01*
X1346Y692D01*
X1346Y692D01*
X1345Y692D01*
X1345Y691D01*
X1345Y691D01*
X1345Y691D01*
X1344Y691D01*
X1344Y691D01*
X1344Y691D01*
X1344Y690D01*
X1343Y690D01*
X1343Y690D01*
X1343Y690D01*
X1343Y690D01*
X1343Y689D01*
X1342Y689D01*
X1342Y689D01*
X1342Y688D01*
X1342Y688D01*
X1341Y687D01*
Y687D01*
X1341Y687D01*
X1341Y687D01*
X1341Y686D01*
X1341Y686D01*
X1341Y685D01*
X1341Y684D01*
X1341Y684D01*
X1341Y683D01*
X1338Y673D01*
X1332D01*
X1337Y696D01*
X1343D01*
X1342Y693D01*
X1342Y693D01*
X1342Y693D01*
X1343Y694D01*
X1343Y694D01*
X1343Y694D01*
X1344Y694D01*
X1344Y695D01*
X1345Y695D01*
X1346Y695D01*
X1347Y696D01*
X1348Y696D01*
X1348Y696D01*
X1349Y696D01*
X1350Y697D01*
X1350D01*
X1351Y696D01*
X1351Y696D01*
X1352Y696D01*
X1352Y696D01*
X1353Y696D01*
X1354Y695D01*
X1354Y695D01*
X1354Y695D01*
X1354Y695D01*
X1354Y695D01*
X1355Y694D01*
X1355Y694D01*
X1355Y693D01*
X1355Y692D01*
X1356Y693D01*
X1356Y693D01*
X1356Y693D01*
X1356Y693D01*
X1357Y694D01*
X1357Y694D01*
X1358Y695D01*
X1359Y695D01*
X1359D01*
X1359Y695D01*
X1359Y695D01*
X1359Y696D01*
X1360Y696D01*
X1360Y696D01*
X1361Y696D01*
X1362Y696D01*
X1363Y696D01*
X1364Y697D01*
X1364D01*
X1365Y696D01*
D02*
G37*
G36*
X1575Y673D02*
X1569D01*
X1568Y688D01*
X1561Y673D01*
X1555D01*
X1552Y696D01*
X1558D01*
X1560Y680D01*
X1567Y696D01*
X1572D01*
X1573Y680D01*
X1580Y696D01*
X1587D01*
X1575Y673D01*
D02*
G37*
G36*
X1469Y798D02*
X1470Y798D01*
X1471Y798D01*
X1472Y798D01*
X1473Y797D01*
X1476Y797D01*
X1478Y796D01*
X1479Y795D01*
X1480Y795D01*
X1482Y794D01*
X1483Y793D01*
X1484Y792D01*
X1484Y791D01*
X1485Y791D01*
X1485Y791D01*
X1485Y790D01*
X1486Y790D01*
X1486Y789D01*
X1487Y788D01*
X1488Y787D01*
X1488Y786D01*
X1489Y784D01*
X1489Y783D01*
X1490Y781D01*
X1490Y779D01*
X1490Y777D01*
X1491Y775D01*
X1491Y773D01*
Y773D01*
Y773D01*
Y772D01*
Y771D01*
X1491Y770D01*
X1490Y768D01*
X1490Y766D01*
X1490Y763D01*
X1450D01*
Y763D01*
Y762D01*
X1450Y762D01*
Y761D01*
Y761D01*
Y761D01*
Y760D01*
X1450Y759D01*
X1451Y758D01*
X1451Y757D01*
X1451Y755D01*
X1452Y753D01*
X1453Y752D01*
X1453Y752D01*
X1454Y751D01*
X1455Y751D01*
X1456Y750D01*
X1457Y750D01*
X1458Y749D01*
X1460Y749D01*
X1462Y749D01*
X1462D01*
X1463Y749D01*
X1464Y749D01*
X1464Y749D01*
X1466Y750D01*
X1467Y750D01*
X1468Y751D01*
X1469Y751D01*
X1470Y752D01*
X1471Y753D01*
X1472Y754D01*
X1473Y755D01*
X1474Y757D01*
X1488Y754D01*
Y754D01*
X1488Y754D01*
X1487Y754D01*
X1487Y753D01*
X1487Y752D01*
X1486Y751D01*
X1485Y749D01*
X1483Y747D01*
X1481Y745D01*
X1479Y743D01*
X1477Y741D01*
X1477D01*
X1476Y741D01*
X1476Y741D01*
X1476Y741D01*
X1475Y741D01*
X1474Y740D01*
X1472Y739D01*
X1470Y739D01*
X1467Y738D01*
X1465Y738D01*
X1461Y737D01*
X1460D01*
X1459Y737D01*
X1458Y738D01*
X1457Y738D01*
X1456Y738D01*
X1455Y738D01*
X1452Y739D01*
X1450Y740D01*
X1448Y740D01*
X1447Y741D01*
X1445Y742D01*
X1444Y743D01*
X1442Y745D01*
X1442Y745D01*
X1442Y745D01*
X1442Y746D01*
X1441Y746D01*
X1441Y747D01*
X1440Y748D01*
X1439Y749D01*
X1439Y750D01*
X1438Y751D01*
X1437Y753D01*
X1437Y754D01*
X1436Y756D01*
X1436Y758D01*
X1435Y760D01*
X1435Y762D01*
X1435Y764D01*
Y764D01*
Y765D01*
Y765D01*
X1435Y766D01*
X1435Y767D01*
X1435Y769D01*
X1436Y770D01*
X1436Y771D01*
X1437Y775D01*
X1437Y776D01*
X1438Y778D01*
X1439Y780D01*
X1439Y782D01*
X1441Y784D01*
X1442Y786D01*
X1442Y786D01*
X1442Y786D01*
X1443Y787D01*
X1443Y788D01*
X1444Y788D01*
X1445Y790D01*
X1447Y791D01*
X1448Y792D01*
X1450Y793D01*
X1452Y794D01*
X1454Y795D01*
X1456Y796D01*
X1459Y797D01*
X1461Y798D01*
X1464Y798D01*
X1467Y798D01*
X1468D01*
X1469Y798D01*
D02*
G37*
G36*
X1528D02*
X1529Y798D01*
X1531Y797D01*
X1532Y797D01*
X1534Y796D01*
X1536Y795D01*
X1536Y795D01*
X1537Y794D01*
X1538Y794D01*
X1539Y793D01*
X1540Y792D01*
X1541Y790D01*
X1542Y789D01*
X1543Y787D01*
X1546Y797D01*
X1560D01*
X1551Y748D01*
Y748D01*
X1551Y748D01*
X1551Y747D01*
X1551Y746D01*
X1550Y746D01*
X1550Y744D01*
X1549Y742D01*
X1549Y739D01*
X1548Y737D01*
X1547Y734D01*
X1547Y733D01*
X1547Y732D01*
X1547Y732D01*
X1546Y731D01*
X1546Y730D01*
X1546Y729D01*
X1545Y728D01*
X1544Y726D01*
X1544Y725D01*
X1543Y724D01*
X1543Y724D01*
X1542Y724D01*
X1542Y723D01*
X1541Y722D01*
X1540Y721D01*
X1539Y721D01*
X1538Y720D01*
X1537Y719D01*
X1537Y719D01*
X1537Y719D01*
X1536Y718D01*
X1535Y718D01*
X1534Y717D01*
X1532Y717D01*
X1531Y717D01*
X1529Y716D01*
X1529D01*
X1528Y716D01*
X1527Y716D01*
X1526Y716D01*
X1525Y716D01*
X1523Y715D01*
X1521Y715D01*
X1518D01*
X1517Y715D01*
X1516D01*
X1515Y715D01*
X1514Y716D01*
X1512Y716D01*
X1509Y716D01*
X1506Y717D01*
X1503Y718D01*
X1502Y719D01*
X1501Y720D01*
X1500D01*
X1500Y720D01*
X1500Y720D01*
X1499Y721D01*
X1497Y723D01*
X1497Y724D01*
X1496Y725D01*
X1496Y726D01*
X1495Y727D01*
X1495Y729D01*
X1495Y730D01*
X1494Y732D01*
X1494Y734D01*
Y734D01*
Y734D01*
Y735D01*
X1494Y736D01*
X1511Y733D01*
Y733D01*
Y733D01*
Y732D01*
X1511Y732D01*
X1511Y731D01*
X1512Y730D01*
X1512Y730D01*
X1512Y729D01*
X1512Y729D01*
X1513Y728D01*
X1514Y727D01*
X1515D01*
X1515Y727D01*
X1515Y727D01*
X1516Y727D01*
X1517Y727D01*
X1517Y727D01*
X1518Y726D01*
X1520D01*
X1521Y727D01*
X1522Y727D01*
X1524Y727D01*
X1525Y727D01*
X1527Y728D01*
X1528Y729D01*
X1528Y729D01*
X1528Y729D01*
X1529Y729D01*
X1529Y730D01*
X1530Y730D01*
X1531Y731D01*
X1531Y732D01*
X1532Y733D01*
Y734D01*
X1532Y734D01*
X1532Y734D01*
X1532Y735D01*
X1533Y737D01*
X1533Y738D01*
X1534Y740D01*
X1534Y743D01*
X1535Y745D01*
X1535Y745D01*
X1534Y745D01*
X1534Y745D01*
X1533Y744D01*
X1532Y744D01*
X1532Y743D01*
X1530Y743D01*
X1529Y742D01*
X1527Y741D01*
X1524Y740D01*
X1522Y739D01*
X1520Y739D01*
X1519Y739D01*
X1517Y739D01*
X1516D01*
X1516Y739D01*
X1515Y739D01*
X1514Y739D01*
X1512Y739D01*
X1510Y740D01*
X1508Y741D01*
X1506Y742D01*
X1505Y743D01*
X1504Y743D01*
X1503Y745D01*
Y745D01*
X1503Y745D01*
X1503Y745D01*
X1502Y746D01*
X1502Y746D01*
X1501Y747D01*
X1501Y748D01*
X1500Y749D01*
X1500Y750D01*
X1499Y751D01*
X1499Y753D01*
X1498Y754D01*
X1498Y756D01*
X1498Y758D01*
X1498Y760D01*
X1498Y762D01*
Y762D01*
Y763D01*
Y763D01*
X1498Y764D01*
Y765D01*
X1498Y766D01*
X1498Y767D01*
X1498Y768D01*
X1499Y771D01*
X1499Y774D01*
X1500Y778D01*
X1501Y781D01*
Y781D01*
X1502Y781D01*
X1502Y782D01*
X1502Y782D01*
X1502Y783D01*
X1503Y784D01*
X1504Y786D01*
X1506Y788D01*
X1507Y790D01*
X1509Y792D01*
X1512Y794D01*
X1512D01*
X1512Y794D01*
X1512Y794D01*
X1513Y794D01*
X1514Y795D01*
X1514Y795D01*
X1516Y796D01*
X1518Y797D01*
X1520Y797D01*
X1523Y798D01*
X1525Y798D01*
X1526D01*
X1528Y798D01*
D02*
G37*
G36*
X1597Y699D02*
X1591D01*
X1592Y705D01*
X1599D01*
X1597Y699D01*
D02*
G37*
G36*
X1471Y671D02*
Y671D01*
X1471Y670D01*
X1470Y670D01*
X1470Y670D01*
X1470Y670D01*
X1470Y669D01*
X1469Y668D01*
X1469Y667D01*
X1468Y667D01*
X1468Y666D01*
X1468Y666D01*
X1468Y666D01*
X1467Y666D01*
X1467Y665D01*
X1467Y665D01*
X1466Y665D01*
X1466Y664D01*
X1465Y664D01*
X1465Y664D01*
X1465Y664D01*
X1465Y664D01*
X1464Y664D01*
X1464Y664D01*
X1463Y664D01*
X1463Y663D01*
X1462Y663D01*
X1462D01*
X1461Y663D01*
X1461Y664D01*
X1460Y664D01*
X1459Y664D01*
X1458Y664D01*
X1458Y664D01*
X1458Y669D01*
X1458D01*
X1458Y669D01*
X1458Y669D01*
X1459Y669D01*
X1459Y669D01*
X1459Y668D01*
X1460Y668D01*
X1460D01*
X1461Y668D01*
X1461Y669D01*
X1461Y669D01*
X1462Y669D01*
X1462Y669D01*
X1462Y669D01*
X1463Y670D01*
X1463Y670D01*
X1463Y670D01*
X1464Y671D01*
X1464Y671D01*
X1465Y672D01*
X1465Y673D01*
X1461Y696D01*
X1467D01*
X1469Y684D01*
Y684D01*
X1469Y684D01*
Y684D01*
X1469Y684D01*
X1469Y683D01*
X1469Y683D01*
X1469Y682D01*
X1469Y681D01*
X1469Y680D01*
X1469Y679D01*
X1469Y679D01*
Y678D01*
X1469Y678D01*
X1470Y679D01*
X1470Y679D01*
X1470Y679D01*
X1470Y680D01*
X1470Y680D01*
X1470Y681D01*
X1471Y682D01*
X1471Y683D01*
X1472Y684D01*
X1473Y686D01*
X1478Y696D01*
X1485D01*
X1471Y671D01*
D02*
G37*
G36*
X1386Y696D02*
X1386D01*
X1387Y696D01*
X1388Y696D01*
X1389Y696D01*
X1390Y696D01*
X1391Y695D01*
X1391Y695D01*
X1392Y695D01*
X1392D01*
X1392Y695D01*
X1392Y694D01*
X1393Y694D01*
X1393Y693D01*
X1393Y693D01*
X1394Y692D01*
X1394Y691D01*
X1394Y691D01*
Y690D01*
Y690D01*
Y690D01*
Y690D01*
X1394Y690D01*
Y689D01*
X1394Y689D01*
X1394Y688D01*
Y688D01*
X1394Y688D01*
X1394Y688D01*
Y687D01*
X1394Y687D01*
X1394Y687D01*
X1393Y687D01*
X1393Y686D01*
X1393Y686D01*
X1393Y685D01*
X1393Y684D01*
X1393Y684D01*
X1393Y683D01*
X1393Y682D01*
Y682D01*
X1392Y682D01*
X1392Y682D01*
X1392Y681D01*
X1392Y681D01*
X1392Y681D01*
X1392Y680D01*
X1392Y679D01*
X1392Y678D01*
X1392Y677D01*
X1392Y676D01*
Y676D01*
Y676D01*
Y676D01*
X1392Y676D01*
Y675D01*
X1392Y675D01*
X1392Y674D01*
X1392Y673D01*
X1392Y673D01*
X1386D01*
Y673D01*
X1386Y673D01*
X1386Y673D01*
X1386Y674D01*
X1386Y674D01*
X1386Y674D01*
X1386Y675D01*
X1386Y675D01*
X1385Y675D01*
X1385Y675D01*
X1385Y675D01*
X1384Y674D01*
X1384Y674D01*
X1383Y673D01*
X1382Y673D01*
X1382Y673D01*
X1382Y673D01*
X1382Y673D01*
X1381Y673D01*
X1381Y673D01*
X1380Y672D01*
X1380Y672D01*
X1379Y672D01*
X1379D01*
X1378Y672D01*
X1378Y672D01*
X1377Y672D01*
X1376Y673D01*
X1376Y673D01*
X1375Y673D01*
X1374Y674D01*
X1374Y674D01*
X1374Y674D01*
X1373Y675D01*
X1373Y675D01*
X1373Y676D01*
X1373Y677D01*
X1372Y678D01*
X1372Y679D01*
Y679D01*
Y679D01*
Y679D01*
X1372Y680D01*
Y680D01*
X1372Y680D01*
X1373Y681D01*
X1373Y682D01*
X1373Y683D01*
X1374Y684D01*
X1374Y684D01*
X1374Y684D01*
X1374Y684D01*
X1374Y684D01*
X1375Y684D01*
X1375Y685D01*
X1375Y685D01*
X1375Y685D01*
X1376Y685D01*
X1376Y685D01*
X1376Y686D01*
X1377Y686D01*
X1378Y686D01*
X1378Y686D01*
X1379Y686D01*
X1380Y686D01*
X1381Y687D01*
X1382Y687D01*
X1382D01*
X1382Y687D01*
X1382D01*
X1383Y687D01*
X1383Y687D01*
X1384Y687D01*
X1385Y687D01*
X1386Y687D01*
X1387Y687D01*
X1387Y687D01*
X1387Y688D01*
X1388Y688D01*
Y688D01*
X1388Y688D01*
X1388Y688D01*
X1388Y688D01*
X1388Y689D01*
X1388Y689D01*
Y690D01*
Y690D01*
Y690D01*
X1388Y690D01*
X1388Y690D01*
X1388Y691D01*
X1388Y691D01*
X1387Y691D01*
X1387Y691D01*
X1387Y691D01*
X1387Y691D01*
X1387Y692D01*
X1387Y692D01*
X1386Y692D01*
X1386Y692D01*
X1385Y692D01*
X1385Y692D01*
X1385D01*
X1384Y692D01*
X1384Y692D01*
X1383Y692D01*
X1383Y692D01*
X1383Y692D01*
X1382Y691D01*
X1382Y691D01*
X1382Y691D01*
X1382Y691D01*
X1382Y691D01*
X1381Y691D01*
X1381Y690D01*
X1381Y690D01*
X1381Y689D01*
X1375Y690D01*
Y690D01*
X1375Y690D01*
X1375Y690D01*
X1375Y690D01*
X1375Y691D01*
X1376Y692D01*
X1376Y692D01*
X1377Y693D01*
X1377Y694D01*
X1378Y695D01*
X1378D01*
X1378Y695D01*
X1379Y695D01*
X1379Y695D01*
X1379Y695D01*
X1379Y695D01*
X1380Y695D01*
X1380Y696D01*
X1381Y696D01*
X1381Y696D01*
X1382Y696D01*
X1382Y696D01*
X1384Y696D01*
X1385Y697D01*
X1386D01*
X1386Y696D01*
D02*
G37*
G36*
X1499D02*
X1499Y696D01*
X1500Y696D01*
X1500Y696D01*
X1501Y696D01*
X1502Y696D01*
X1503Y696D01*
X1504Y695D01*
X1504Y695D01*
X1505Y695D01*
X1505Y694D01*
X1506Y694D01*
X1506Y694D01*
X1506Y694D01*
X1506Y693D01*
X1506Y693D01*
X1507Y693D01*
X1507Y693D01*
X1507Y692D01*
X1507Y692D01*
X1508Y691D01*
X1508Y691D01*
X1508Y690D01*
X1508Y689D01*
X1509Y689D01*
X1509Y688D01*
X1509Y687D01*
X1509Y686D01*
Y686D01*
Y686D01*
Y685D01*
X1509Y685D01*
X1509Y685D01*
X1509Y684D01*
X1509Y683D01*
X1508Y683D01*
X1508Y682D01*
X1508Y681D01*
X1508Y680D01*
X1507Y680D01*
X1507Y679D01*
X1506Y678D01*
X1506Y677D01*
X1505Y676D01*
X1505Y676D01*
X1505Y676D01*
X1505Y676D01*
X1505Y676D01*
X1504Y675D01*
X1504Y675D01*
X1503Y675D01*
X1503Y674D01*
X1502Y674D01*
X1501Y674D01*
X1501Y673D01*
X1500Y673D01*
X1499Y673D01*
X1498Y672D01*
X1497Y672D01*
X1496Y672D01*
X1495D01*
X1495Y672D01*
X1494Y672D01*
X1494Y672D01*
X1493Y673D01*
X1492Y673D01*
X1491Y673D01*
X1490Y674D01*
X1490D01*
X1490Y674D01*
X1490Y674D01*
X1489Y674D01*
X1489Y674D01*
X1488Y675D01*
X1488Y675D01*
X1487Y676D01*
X1487Y676D01*
X1486Y677D01*
Y677D01*
X1486Y677D01*
X1486Y677D01*
X1486Y678D01*
X1486Y678D01*
X1485Y679D01*
X1485Y680D01*
X1485Y680D01*
X1485Y681D01*
X1485Y682D01*
Y682D01*
Y683D01*
X1485Y683D01*
Y683D01*
X1485Y684D01*
X1485Y685D01*
X1485Y685D01*
X1485Y686D01*
X1485Y687D01*
X1486Y688D01*
X1486Y689D01*
X1486Y689D01*
X1487Y690D01*
X1487Y691D01*
X1488Y692D01*
X1488Y693D01*
X1488Y693D01*
X1489Y693D01*
X1489Y693D01*
X1489Y693D01*
X1489Y694D01*
X1490Y694D01*
X1490Y694D01*
X1491Y695D01*
X1492Y695D01*
X1492Y695D01*
X1493Y696D01*
X1494Y696D01*
X1495Y696D01*
X1496Y696D01*
X1497Y696D01*
X1498Y697D01*
X1499D01*
X1499Y696D01*
D02*
G37*
G36*
X1436D02*
X1437Y696D01*
X1437Y696D01*
X1437Y696D01*
X1438Y696D01*
X1439Y696D01*
X1440Y696D01*
X1440Y695D01*
X1441Y695D01*
X1441Y695D01*
X1442Y694D01*
X1442Y694D01*
X1442Y694D01*
X1442Y694D01*
X1442Y694D01*
X1443Y693D01*
X1443Y693D01*
X1443Y693D01*
X1443Y692D01*
X1444Y692D01*
X1444Y692D01*
X1444Y691D01*
X1444Y690D01*
X1444Y690D01*
X1445Y689D01*
X1445Y688D01*
X1445Y687D01*
X1445Y687D01*
Y686D01*
Y686D01*
Y686D01*
Y686D01*
X1445Y685D01*
X1445Y685D01*
X1445Y684D01*
X1444Y682D01*
X1429D01*
Y682D01*
Y682D01*
X1429Y682D01*
Y682D01*
Y682D01*
Y682D01*
Y681D01*
X1429Y681D01*
X1429Y681D01*
X1429Y680D01*
X1429Y679D01*
X1429Y679D01*
X1430Y678D01*
X1430Y678D01*
X1430Y678D01*
X1430Y678D01*
X1431Y677D01*
X1431Y677D01*
X1432Y677D01*
X1432Y677D01*
X1433Y677D01*
X1433D01*
X1434Y677D01*
X1434Y677D01*
X1434Y677D01*
X1435Y677D01*
X1435Y677D01*
X1436Y678D01*
X1436Y678D01*
X1437Y678D01*
X1437Y678D01*
X1437Y679D01*
X1438Y679D01*
X1438Y680D01*
X1444Y679D01*
Y679D01*
X1444Y679D01*
X1443Y679D01*
X1443Y678D01*
X1443Y678D01*
X1443Y678D01*
X1442Y677D01*
X1442Y676D01*
X1441Y675D01*
X1440Y675D01*
X1439Y674D01*
X1439D01*
X1439Y674D01*
X1439Y674D01*
X1439Y674D01*
X1438Y674D01*
X1438Y673D01*
X1437Y673D01*
X1437Y673D01*
X1435Y673D01*
X1434Y672D01*
X1433Y672D01*
X1433D01*
X1432Y672D01*
X1432Y672D01*
X1431Y672D01*
X1431Y672D01*
X1430Y673D01*
X1429Y673D01*
X1429Y673D01*
X1428Y673D01*
X1427Y674D01*
X1427Y674D01*
X1426Y675D01*
X1425Y675D01*
X1425Y675D01*
X1425Y675D01*
X1425Y676D01*
X1425Y676D01*
X1425Y676D01*
X1425Y676D01*
X1424Y677D01*
X1424Y677D01*
X1424Y678D01*
X1423Y678D01*
X1423Y679D01*
X1423Y680D01*
X1423Y680D01*
X1423Y681D01*
X1423Y682D01*
X1423Y683D01*
Y683D01*
Y683D01*
Y683D01*
X1423Y684D01*
X1423Y684D01*
X1423Y685D01*
X1423Y685D01*
X1423Y686D01*
X1423Y687D01*
X1423Y688D01*
X1424Y689D01*
X1424Y689D01*
X1424Y690D01*
X1425Y691D01*
X1425Y692D01*
X1425Y692D01*
X1425Y692D01*
X1426Y692D01*
X1426Y692D01*
X1426Y693D01*
X1427Y693D01*
X1427Y694D01*
X1428Y694D01*
X1429Y695D01*
X1429Y695D01*
X1430Y695D01*
X1431Y696D01*
X1432Y696D01*
X1433Y696D01*
X1434Y696D01*
X1435Y697D01*
X1436D01*
X1436Y696D01*
D02*
G37*
G36*
X1531Y673D02*
X1525D01*
X1526Y676D01*
X1526Y676D01*
X1526Y676D01*
X1525Y675D01*
X1525Y675D01*
X1525Y675D01*
X1524Y675D01*
X1524Y674D01*
X1524Y674D01*
X1523Y674D01*
X1522Y673D01*
X1521Y673D01*
X1520Y673D01*
X1520Y672D01*
X1519Y672D01*
X1518Y672D01*
X1518D01*
X1518Y672D01*
X1517Y672D01*
X1517Y672D01*
X1516Y673D01*
X1515Y673D01*
X1515Y673D01*
X1514Y674D01*
X1514Y674D01*
X1514Y674D01*
X1514Y675D01*
X1513Y675D01*
X1513Y676D01*
X1513Y676D01*
X1513Y677D01*
X1513Y678D01*
Y678D01*
Y679D01*
X1513Y679D01*
X1513Y679D01*
X1513Y680D01*
X1513Y680D01*
X1513Y681D01*
X1513Y681D01*
X1513Y682D01*
X1513Y682D01*
X1513Y683D01*
X1516Y696D01*
X1523D01*
X1519Y682D01*
Y682D01*
Y682D01*
X1519Y682D01*
X1519Y681D01*
X1519Y681D01*
X1519Y680D01*
X1519Y680D01*
X1519Y679D01*
X1519Y679D01*
Y679D01*
Y679D01*
X1519Y679D01*
X1519Y679D01*
X1519Y678D01*
X1519Y678D01*
X1520Y677D01*
X1520Y677D01*
X1520Y677D01*
X1520Y677D01*
X1520Y677D01*
X1520Y677D01*
X1521Y677D01*
X1521Y677D01*
X1521Y677D01*
X1522D01*
X1522Y677D01*
X1522Y677D01*
X1523Y677D01*
X1523D01*
X1523Y677D01*
X1523Y677D01*
X1523Y677D01*
X1524Y678D01*
X1524Y678D01*
X1524Y678D01*
X1524Y678D01*
X1524Y678D01*
X1525Y678D01*
X1525Y679D01*
X1526Y680D01*
X1526Y680D01*
X1526Y680D01*
X1526Y680D01*
X1526Y680D01*
X1526Y681D01*
X1526Y681D01*
X1527Y681D01*
X1527Y682D01*
Y682D01*
X1527Y682D01*
X1527Y682D01*
X1527Y683D01*
X1527Y683D01*
X1527Y684D01*
X1527Y684D01*
X1528Y685D01*
X1530Y696D01*
X1536D01*
X1531Y673D01*
D02*
G37*
G36*
X1592D02*
X1586D01*
X1591Y696D01*
X1597D01*
X1592Y673D01*
D02*
G37*
G36*
X1406Y688D02*
X1414Y696D01*
X1423D01*
X1413Y688D01*
X1418Y673D01*
X1412D01*
X1409Y684D01*
X1404Y680D01*
X1403Y673D01*
X1397D01*
X1403Y705D01*
X1410D01*
X1406Y688D01*
D02*
G37*
G36*
X1599Y798D02*
X1600D01*
X1601Y798D01*
X1603Y798D01*
X1606Y797D01*
X1609Y796D01*
X1611Y795D01*
X1612Y794D01*
X1613Y794D01*
X1613D01*
X1614Y793D01*
X1614Y793D01*
X1615Y792D01*
X1616Y791D01*
X1617Y789D01*
X1618Y787D01*
X1619Y785D01*
X1619Y784D01*
Y783D01*
Y782D01*
Y782D01*
Y782D01*
X1619Y781D01*
Y780D01*
X1619Y779D01*
X1618Y777D01*
Y777D01*
X1618Y776D01*
X1618Y776D01*
Y775D01*
X1618Y775D01*
X1618Y774D01*
X1617Y773D01*
X1617Y772D01*
X1617Y771D01*
X1617Y769D01*
X1616Y768D01*
X1616Y766D01*
X1615Y764D01*
X1615Y762D01*
Y761D01*
X1615Y761D01*
X1615Y761D01*
X1615Y760D01*
X1615Y759D01*
X1614Y758D01*
X1614Y756D01*
X1613Y753D01*
X1613Y751D01*
X1613Y749D01*
X1613Y748D01*
Y747D01*
Y747D01*
Y746D01*
X1613Y746D01*
Y745D01*
X1613Y743D01*
X1613Y742D01*
X1614Y740D01*
X1614Y739D01*
X1599D01*
Y739D01*
X1599Y739D01*
X1599Y740D01*
X1598Y741D01*
X1598Y742D01*
X1598Y743D01*
X1598Y745D01*
X1598Y745D01*
X1597Y745D01*
X1596Y744D01*
X1595Y743D01*
X1594Y742D01*
X1593Y741D01*
X1591Y740D01*
X1590Y739D01*
X1590Y739D01*
X1589Y739D01*
X1588Y739D01*
X1587Y738D01*
X1586Y738D01*
X1584Y738D01*
X1582Y737D01*
X1581Y737D01*
X1580D01*
X1580Y737D01*
X1578Y738D01*
X1577Y738D01*
X1575Y738D01*
X1573Y739D01*
X1571Y740D01*
X1569Y742D01*
X1569Y742D01*
X1568Y743D01*
X1567Y744D01*
X1567Y745D01*
X1566Y747D01*
X1565Y749D01*
X1564Y752D01*
X1564Y754D01*
Y754D01*
Y755D01*
Y755D01*
X1564Y756D01*
Y756D01*
X1564Y757D01*
X1565Y759D01*
X1565Y761D01*
X1566Y763D01*
X1568Y766D01*
X1568Y767D01*
X1569Y768D01*
X1569Y768D01*
X1570Y768D01*
X1570Y768D01*
X1570Y768D01*
X1571Y769D01*
X1572Y769D01*
X1573Y770D01*
X1574Y770D01*
X1575Y771D01*
X1576Y771D01*
X1578Y772D01*
X1579Y772D01*
X1581Y773D01*
X1583Y773D01*
X1585Y773D01*
X1588Y774D01*
X1588D01*
X1589Y774D01*
X1590D01*
X1590Y774D01*
X1591Y774D01*
X1594Y774D01*
X1596Y774D01*
X1599Y775D01*
X1600Y775D01*
X1601Y775D01*
X1602Y776D01*
X1603Y776D01*
Y776D01*
X1603Y776D01*
X1603Y777D01*
X1603Y778D01*
X1604Y779D01*
X1604Y780D01*
Y781D01*
Y781D01*
Y782D01*
X1604Y782D01*
X1604Y782D01*
X1603Y783D01*
X1603Y784D01*
X1602Y785D01*
X1602Y785D01*
X1602Y785D01*
X1601Y785D01*
X1601Y786D01*
X1600Y786D01*
X1599Y786D01*
X1598Y787D01*
X1597Y787D01*
X1596Y787D01*
X1595D01*
X1594Y787D01*
X1593Y787D01*
X1592Y787D01*
X1591Y786D01*
X1590Y786D01*
X1589Y785D01*
X1589Y785D01*
X1589Y785D01*
X1588Y785D01*
X1588Y784D01*
X1587Y783D01*
X1587Y782D01*
X1586Y782D01*
X1586Y780D01*
X1570Y782D01*
Y782D01*
X1571Y782D01*
X1571Y782D01*
X1571Y783D01*
X1572Y784D01*
X1573Y786D01*
X1574Y788D01*
X1575Y790D01*
X1577Y792D01*
X1579Y794D01*
X1580D01*
X1580Y794D01*
X1580Y794D01*
X1581Y794D01*
X1581Y795D01*
X1582Y795D01*
X1583Y796D01*
X1584Y796D01*
X1585Y796D01*
X1587Y797D01*
X1588Y797D01*
X1590Y797D01*
X1593Y798D01*
X1597Y798D01*
X1598D01*
X1599Y798D01*
D02*
G37*
G36*
X2957Y958D02*
X2957Y958D01*
X2957Y957D01*
X2957Y957D01*
X2957Y956D01*
X2956Y955D01*
X2956Y954D01*
X2954Y953D01*
X2954Y953D01*
X2954Y952D01*
X2954Y952D01*
X2953Y951D01*
X2953Y951D01*
X2952Y950D01*
X2950Y949D01*
X3001D01*
Y943D01*
X2950D01*
X2951Y943D01*
X2951Y942D01*
X2951Y942D01*
X2952Y942D01*
X2952Y941D01*
X2953Y940D01*
X2954Y939D01*
X2954Y939D01*
X2955Y938D01*
X2955Y938D01*
X2955Y937D01*
X2956Y936D01*
X2956Y936D01*
X2957Y935D01*
X2957Y934D01*
X2953Y931D01*
Y931D01*
X2953Y932D01*
X2952Y932D01*
X2952Y933D01*
X2952Y933D01*
X2951Y934D01*
X2950Y936D01*
X2950Y936D01*
X2950Y936D01*
X2950Y937D01*
X2949Y937D01*
X2949Y938D01*
X2948Y938D01*
X2946Y940D01*
X2946Y940D01*
X2946Y940D01*
X2946Y940D01*
X2945Y941D01*
X2944Y941D01*
X2944Y942D01*
X2942Y942D01*
X2942D01*
X2941Y943D01*
X2941Y943D01*
X2940Y943D01*
X2940Y943D01*
X2939Y943D01*
X2938Y943D01*
X2937Y943D01*
Y948D01*
X2937D01*
X2938Y948D01*
X2938D01*
X2939Y948D01*
X2940Y948D01*
X2941Y949D01*
X2942Y949D01*
X2942D01*
X2942Y949D01*
X2943Y949D01*
X2943Y950D01*
X2944Y950D01*
X2945Y950D01*
X2946Y952D01*
X2947Y952D01*
X2947Y952D01*
X2947Y952D01*
X2948Y953D01*
X2948Y953D01*
X2949Y954D01*
X2950Y956D01*
X2950Y956D01*
X2950Y956D01*
X2951Y956D01*
X2951Y957D01*
X2952Y958D01*
X2952Y958D01*
X2953Y960D01*
X2957Y958D01*
D02*
G37*
G36*
X1742Y805D02*
X1727D01*
X1730Y819D01*
X1745D01*
X1742Y805D01*
D02*
G37*
G36*
X1792Y798D02*
X1793Y798D01*
X1795Y798D01*
X1797Y797D01*
X1798Y796D01*
X1800Y795D01*
X1802Y794D01*
X1802Y794D01*
X1803Y793D01*
X1803Y792D01*
X1804Y791D01*
X1805Y790D01*
X1805Y788D01*
X1806Y786D01*
X1806Y783D01*
Y783D01*
Y783D01*
X1806Y782D01*
X1806Y780D01*
X1806Y779D01*
X1805Y777D01*
X1805Y776D01*
X1805Y774D01*
X1804Y773D01*
X1804Y772D01*
X1797Y739D01*
X1781D01*
X1789Y772D01*
Y772D01*
X1789Y772D01*
Y772D01*
X1789Y773D01*
X1789Y774D01*
X1789Y776D01*
X1790Y777D01*
X1790Y779D01*
X1790Y780D01*
X1790Y780D01*
Y780D01*
Y781D01*
Y781D01*
X1790Y782D01*
X1790Y782D01*
X1790Y783D01*
X1789Y784D01*
X1789Y785D01*
X1788Y785D01*
X1788Y785D01*
X1788Y785D01*
X1788Y786D01*
X1787Y786D01*
X1786Y786D01*
X1786Y787D01*
X1784Y787D01*
X1783Y787D01*
X1783D01*
X1782Y787D01*
X1781Y787D01*
X1780Y786D01*
X1779Y786D01*
X1777Y785D01*
X1776Y784D01*
X1775Y784D01*
X1775Y783D01*
X1774Y783D01*
X1773Y782D01*
X1772Y781D01*
X1771Y780D01*
X1770Y778D01*
X1769Y776D01*
X1769Y776D01*
X1769Y776D01*
X1768Y775D01*
X1768Y774D01*
X1768Y773D01*
X1767Y773D01*
X1767Y772D01*
X1767Y770D01*
X1766Y769D01*
X1766Y768D01*
X1766Y766D01*
X1765Y764D01*
X1765Y763D01*
X1760Y739D01*
X1744D01*
X1756Y797D01*
X1771D01*
X1770Y789D01*
X1770D01*
X1770Y790D01*
X1771Y790D01*
X1772Y791D01*
X1773Y792D01*
X1775Y793D01*
X1777Y794D01*
X1778Y795D01*
X1780Y796D01*
X1781Y796D01*
X1781Y796D01*
X1782Y797D01*
X1783Y797D01*
X1785Y797D01*
X1787Y798D01*
X1789Y798D01*
X1790Y798D01*
X1791D01*
X1792Y798D01*
D02*
G37*
G36*
X2987Y1089D02*
X2987Y1088D01*
X2988Y1088D01*
X2988Y1087D01*
X2988Y1087D01*
X2989Y1086D01*
X2990Y1084D01*
X2990Y1084D01*
X2990Y1084D01*
X2991Y1083D01*
X2991Y1083D01*
X2992Y1082D01*
X2992Y1082D01*
X2994Y1080D01*
X2994Y1080D01*
X2994Y1080D01*
X2994Y1080D01*
X2995Y1079D01*
X2996Y1079D01*
X2996Y1079D01*
X2998Y1078D01*
X2998D01*
X2999Y1077D01*
X2999Y1077D01*
X3000Y1077D01*
X3000Y1077D01*
X3001Y1077D01*
X3002Y1077D01*
X3003Y1077D01*
Y1072D01*
X3003D01*
X3002Y1072D01*
X3002D01*
X3001Y1072D01*
X3000Y1072D01*
X2999Y1071D01*
X2998Y1071D01*
X2998D01*
X2998Y1071D01*
X2997Y1071D01*
X2997Y1070D01*
X2996Y1070D01*
X2995Y1070D01*
X2994Y1068D01*
X2994Y1068D01*
X2993Y1068D01*
X2993Y1068D01*
X2992Y1067D01*
X2992Y1067D01*
X2991Y1066D01*
X2990Y1064D01*
X2990Y1064D01*
X2990Y1064D01*
X2989Y1064D01*
X2989Y1063D01*
X2988Y1062D01*
X2988Y1062D01*
X2987Y1060D01*
X2983Y1062D01*
X2983Y1062D01*
X2983Y1063D01*
X2983Y1063D01*
X2983Y1064D01*
X2984Y1065D01*
X2984Y1066D01*
X2986Y1067D01*
X2986Y1067D01*
X2986Y1068D01*
X2986Y1068D01*
X2987Y1069D01*
X2987Y1069D01*
X2988Y1070D01*
X2990Y1071D01*
X2939D01*
Y1077D01*
X2990D01*
X2989Y1077D01*
X2989Y1078D01*
X2989Y1078D01*
X2988Y1078D01*
X2988Y1079D01*
X2987Y1080D01*
X2986Y1081D01*
X2986Y1081D01*
X2985Y1082D01*
X2985Y1082D01*
X2985Y1083D01*
X2984Y1084D01*
X2984Y1084D01*
X2983Y1085D01*
X2983Y1086D01*
X2987Y1089D01*
Y1089D01*
D02*
G37*
G36*
X2614Y1059D02*
X2568Y1035D01*
X2569Y1049D01*
X2519D01*
Y1069D01*
X2569D01*
X2568Y1085D01*
X2614Y1059D01*
D02*
G37*
G36*
X2566Y957D02*
X2616D01*
Y937D01*
X2566D01*
X2568Y921D01*
X2521Y947D01*
X2568Y971D01*
X2566Y957D01*
D02*
G37*
G36*
X2887Y334D02*
X2903Y336D01*
X2877Y264D01*
X2853Y336D01*
X2867Y334D01*
Y394D01*
X2887D01*
Y334D01*
D02*
G37*
G36*
X1687Y739D02*
X1672D01*
X1669Y776D01*
X1651Y739D01*
X1637D01*
X1630Y797D01*
X1643D01*
X1647Y758D01*
X1665Y797D01*
X1680D01*
X1682Y758D01*
X1700Y797D01*
X1715D01*
X1687Y739D01*
D02*
G37*
G36*
X1728D02*
X1713D01*
X1725Y797D01*
X1741D01*
X1728Y739D01*
D02*
G37*
G36*
X1414Y798D02*
X1416Y798D01*
X1418Y797D01*
X1419Y797D01*
X1421Y796D01*
X1423Y794D01*
X1423Y794D01*
X1423Y794D01*
X1424Y793D01*
X1425Y792D01*
X1425Y790D01*
X1426Y789D01*
X1427Y787D01*
X1427Y785D01*
Y784D01*
Y784D01*
X1427Y783D01*
X1426Y782D01*
X1426Y781D01*
X1426Y779D01*
X1426Y777D01*
X1425Y774D01*
X1417Y739D01*
X1402D01*
X1409Y774D01*
Y774D01*
X1409Y774D01*
Y775D01*
X1410Y775D01*
X1410Y776D01*
X1410Y778D01*
X1410Y779D01*
X1411Y780D01*
X1411Y781D01*
Y781D01*
Y782D01*
Y782D01*
Y782D01*
X1411Y782D01*
X1411Y783D01*
X1410Y784D01*
X1410Y785D01*
X1409Y785D01*
X1409Y786D01*
X1409Y786D01*
X1409Y786D01*
X1408Y786D01*
X1408Y787D01*
X1407Y787D01*
X1406Y787D01*
X1405Y787D01*
X1404D01*
X1404Y787D01*
X1403Y787D01*
X1401Y786D01*
X1400Y785D01*
X1398Y784D01*
X1397Y784D01*
X1396Y783D01*
X1395Y782D01*
X1394Y781D01*
X1394Y780D01*
X1394Y780D01*
X1394Y780D01*
X1394Y779D01*
X1393Y779D01*
X1393Y778D01*
X1392Y777D01*
X1392Y776D01*
X1391Y775D01*
X1391Y774D01*
X1391Y772D01*
X1390Y771D01*
X1389Y769D01*
X1389Y767D01*
X1389Y765D01*
X1383Y739D01*
X1367D01*
X1375Y774D01*
Y774D01*
X1375Y774D01*
X1375Y775D01*
X1375Y776D01*
X1375Y777D01*
X1376Y778D01*
X1376Y780D01*
X1376Y781D01*
Y782D01*
Y782D01*
Y782D01*
X1376Y782D01*
X1376Y783D01*
X1375Y784D01*
X1375Y785D01*
X1374Y785D01*
X1374Y786D01*
X1374Y786D01*
X1374Y786D01*
X1373Y786D01*
X1373Y787D01*
X1372Y787D01*
X1371Y787D01*
X1370Y787D01*
X1370D01*
X1369Y787D01*
X1369Y787D01*
X1368Y787D01*
X1367Y786D01*
X1366Y786D01*
X1365Y785D01*
X1365Y785D01*
X1364Y785D01*
X1364Y785D01*
X1363Y784D01*
X1362Y784D01*
X1362Y783D01*
X1361Y782D01*
X1360Y781D01*
X1360Y781D01*
X1360Y781D01*
X1359Y780D01*
X1359Y779D01*
X1358Y778D01*
X1358Y777D01*
X1357Y776D01*
X1357Y774D01*
Y774D01*
X1356Y774D01*
X1356Y773D01*
X1356Y773D01*
X1356Y771D01*
X1355Y770D01*
X1355Y768D01*
X1355Y767D01*
X1354Y765D01*
X1349Y739D01*
X1333D01*
X1345Y797D01*
X1360D01*
X1359Y790D01*
X1359Y790D01*
X1359Y790D01*
X1359Y791D01*
X1360Y791D01*
X1361Y792D01*
X1362Y793D01*
X1363Y793D01*
X1364Y794D01*
X1367Y796D01*
X1370Y797D01*
X1372Y797D01*
X1373Y798D01*
X1375Y798D01*
X1377Y798D01*
X1378D01*
X1379Y798D01*
X1381Y798D01*
X1382Y797D01*
X1384Y797D01*
X1386Y796D01*
X1387Y795D01*
X1387Y795D01*
X1388Y795D01*
X1388Y794D01*
X1389Y793D01*
X1390Y792D01*
X1390Y791D01*
X1391Y790D01*
X1392Y788D01*
X1392Y788D01*
X1392Y789D01*
X1393Y789D01*
X1394Y790D01*
X1395Y792D01*
X1396Y793D01*
X1398Y794D01*
X1400Y795D01*
X1400D01*
X1400Y795D01*
X1401Y795D01*
X1401Y796D01*
X1402Y796D01*
X1404Y797D01*
X1405Y797D01*
X1408Y798D01*
X1410Y798D01*
X1412Y798D01*
X1413D01*
X1414Y798D01*
D02*
G37*
%LPC*%
G36*
X1528Y787D02*
X1528D01*
X1527Y787D01*
X1526Y787D01*
X1524Y786D01*
X1523Y786D01*
X1522Y785D01*
X1520Y784D01*
X1520Y783D01*
X1520Y783D01*
X1519Y782D01*
X1518Y781D01*
X1517Y780D01*
X1517Y778D01*
X1516Y776D01*
X1515Y773D01*
X1515Y773D01*
X1514Y772D01*
X1514Y771D01*
X1514Y770D01*
X1514Y769D01*
X1513Y767D01*
X1513Y765D01*
X1513Y764D01*
Y764D01*
Y763D01*
Y763D01*
Y763D01*
X1513Y761D01*
X1513Y760D01*
X1514Y758D01*
X1514Y757D01*
X1515Y755D01*
X1516Y754D01*
X1516Y754D01*
X1516Y753D01*
X1517Y753D01*
X1518Y752D01*
X1519Y751D01*
X1520Y751D01*
X1522Y750D01*
X1523Y750D01*
X1524D01*
X1525Y750D01*
X1526Y751D01*
X1527Y751D01*
X1529Y752D01*
X1530Y752D01*
X1531Y753D01*
X1532Y753D01*
X1532Y754D01*
X1533Y755D01*
X1534Y756D01*
X1535Y757D01*
X1536Y758D01*
X1537Y760D01*
X1537Y762D01*
Y762D01*
X1538Y762D01*
X1538Y763D01*
X1538Y763D01*
X1538Y764D01*
X1539Y766D01*
X1539Y767D01*
X1539Y769D01*
X1539Y771D01*
X1540Y773D01*
Y773D01*
Y773D01*
Y774D01*
Y774D01*
X1539Y775D01*
X1539Y777D01*
X1539Y778D01*
X1538Y780D01*
X1537Y782D01*
X1536Y783D01*
X1536Y783D01*
X1535Y784D01*
X1535Y784D01*
X1534Y785D01*
X1533Y786D01*
X1531Y786D01*
X1530Y787D01*
X1528Y787D01*
D02*
G37*
G36*
X1601Y766D02*
X1601D01*
X1600Y766D01*
X1600D01*
X1600Y766D01*
X1598Y765D01*
X1597Y765D01*
X1597D01*
X1596Y765D01*
X1596D01*
X1595Y765D01*
X1594Y765D01*
X1593Y765D01*
X1590Y764D01*
X1588Y763D01*
X1585Y763D01*
X1584Y762D01*
X1583Y762D01*
X1582Y761D01*
X1581Y761D01*
X1581Y761D01*
X1581Y761D01*
X1581Y760D01*
X1580Y760D01*
X1580Y759D01*
X1579Y758D01*
X1579Y757D01*
X1579Y756D01*
Y755D01*
Y755D01*
X1579Y755D01*
X1579Y754D01*
X1579Y753D01*
X1580Y752D01*
X1580Y752D01*
X1581Y751D01*
X1581Y751D01*
X1581Y751D01*
X1582Y750D01*
X1582Y750D01*
X1583Y750D01*
X1584Y749D01*
X1585Y749D01*
X1586Y749D01*
X1587D01*
X1587Y749D01*
X1588Y749D01*
X1589Y749D01*
X1590Y750D01*
X1591Y750D01*
X1593Y751D01*
X1593Y751D01*
X1593Y751D01*
X1594Y751D01*
X1595Y752D01*
X1595Y753D01*
X1596Y753D01*
X1597Y754D01*
X1597Y755D01*
X1598Y755D01*
X1598Y756D01*
X1598Y756D01*
X1598Y757D01*
X1599Y759D01*
X1599Y760D01*
X1600Y762D01*
X1600Y764D01*
X1601Y766D01*
D02*
G37*
G36*
X1387Y684D02*
X1387D01*
X1387Y684D01*
X1387D01*
X1386Y684D01*
X1386Y683D01*
X1385Y683D01*
X1385D01*
X1385Y683D01*
X1385D01*
X1385Y683D01*
X1384Y683D01*
X1384Y683D01*
X1383Y683D01*
X1382Y683D01*
X1381Y682D01*
X1380Y682D01*
X1380Y682D01*
X1379Y682D01*
X1379Y682D01*
X1379Y682D01*
X1379Y682D01*
X1379Y681D01*
X1379Y681D01*
X1378Y681D01*
X1378Y680D01*
X1378Y680D01*
X1378Y680D01*
Y679D01*
Y679D01*
X1378Y679D01*
X1378Y679D01*
X1378Y679D01*
X1378Y678D01*
X1379Y678D01*
X1379Y678D01*
X1379Y678D01*
X1379Y678D01*
X1379Y677D01*
X1379Y677D01*
X1380Y677D01*
X1380Y677D01*
X1381Y677D01*
X1381Y677D01*
X1381D01*
X1381Y677D01*
X1382Y677D01*
X1382Y677D01*
X1383Y677D01*
X1383Y677D01*
X1384Y678D01*
X1384Y678D01*
X1384Y678D01*
X1384Y678D01*
X1384Y678D01*
X1385Y678D01*
X1385Y679D01*
X1385Y679D01*
X1385Y679D01*
X1386Y679D01*
X1386Y680D01*
X1386Y680D01*
X1386Y680D01*
X1386Y681D01*
X1386Y681D01*
X1386Y682D01*
X1387Y683D01*
X1387Y684D01*
D02*
G37*
G36*
X1498Y692D02*
X1498D01*
X1497Y692D01*
X1497Y692D01*
X1496Y692D01*
X1496Y691D01*
X1495Y691D01*
X1494Y691D01*
X1494Y690D01*
X1494Y690D01*
X1494Y690D01*
X1494Y690D01*
X1493Y689D01*
X1493Y688D01*
X1492Y688D01*
X1492Y687D01*
Y687D01*
X1492Y687D01*
X1492Y687D01*
X1492Y686D01*
X1492Y686D01*
X1492Y685D01*
X1491Y685D01*
X1491Y684D01*
X1491Y683D01*
X1491Y682D01*
Y682D01*
Y682D01*
Y682D01*
Y682D01*
X1491Y682D01*
X1491Y681D01*
X1491Y680D01*
X1492Y680D01*
X1492Y679D01*
X1492Y679D01*
X1492Y678D01*
X1493Y678D01*
X1493Y678D01*
X1493Y678D01*
X1494Y678D01*
X1494Y677D01*
X1495Y677D01*
X1496Y677D01*
X1496D01*
X1496Y677D01*
X1497Y677D01*
X1497Y677D01*
X1498Y678D01*
X1499Y678D01*
X1499Y679D01*
X1500Y679D01*
X1500Y679D01*
X1500Y679D01*
X1500Y679D01*
X1500Y680D01*
X1501Y680D01*
X1501Y680D01*
X1501Y681D01*
X1501Y681D01*
X1501Y681D01*
X1502Y682D01*
X1502Y682D01*
X1502Y683D01*
X1502Y684D01*
X1503Y685D01*
X1503Y686D01*
X1503Y687D01*
Y687D01*
Y687D01*
Y687D01*
X1503Y688D01*
X1502Y688D01*
X1502Y689D01*
X1502Y689D01*
X1502Y690D01*
X1501Y690D01*
X1501Y690D01*
X1501Y691D01*
X1501Y691D01*
X1500Y691D01*
X1500Y691D01*
X1499Y692D01*
X1499Y692D01*
X1498Y692D01*
D02*
G37*
G36*
X1466Y787D02*
X1465D01*
X1464Y787D01*
X1463Y787D01*
X1461Y786D01*
X1460Y785D01*
X1458Y785D01*
X1457Y783D01*
X1457Y783D01*
X1456Y783D01*
X1456Y782D01*
X1455Y780D01*
X1454Y779D01*
X1453Y777D01*
X1452Y775D01*
X1452Y773D01*
X1476D01*
Y773D01*
Y773D01*
Y774D01*
Y774D01*
Y774D01*
Y774D01*
Y775D01*
Y775D01*
X1476Y776D01*
X1476Y778D01*
X1476Y779D01*
X1475Y781D01*
X1474Y782D01*
X1473Y784D01*
X1473Y784D01*
X1473Y784D01*
X1472Y785D01*
X1471Y785D01*
X1470Y786D01*
X1469Y787D01*
X1467Y787D01*
X1466Y787D01*
D02*
G37*
G36*
X1435Y692D02*
X1434D01*
X1434Y692D01*
X1434Y692D01*
X1433Y692D01*
X1432Y691D01*
X1432Y691D01*
X1431Y691D01*
X1431Y691D01*
X1431Y690D01*
X1431Y690D01*
X1430Y689D01*
X1430Y689D01*
X1430Y688D01*
X1429Y687D01*
X1429Y686D01*
X1439D01*
Y686D01*
Y687D01*
Y687D01*
Y687D01*
Y687D01*
Y687D01*
Y687D01*
Y687D01*
X1439Y688D01*
X1439Y688D01*
X1439Y689D01*
X1439Y690D01*
X1438Y690D01*
X1438Y691D01*
X1438Y691D01*
X1438Y691D01*
X1437Y691D01*
X1437Y691D01*
X1437Y692D01*
X1436Y692D01*
X1435Y692D01*
X1435Y692D01*
D02*
G37*
%LPD*%
D10*
X3315Y1153D02*
G03*
X3315Y1153I-15J0D01*
G01*
X4016Y1932D02*
G03*
X4016Y2011I-26J39D01*
G01*
X3864D02*
G03*
X3864Y1932I26J-39D01*
G01*
X3808Y991D02*
G03*
X3863Y991I28J22D01*
G01*
Y1109D02*
G03*
X3808Y1109I-28J-22D01*
G01*
X3812Y1182D02*
G03*
X3812Y1261I-26J39D01*
G01*
X3659D02*
G03*
X3659Y1182I26J-39D01*
G01*
X3293Y1329D02*
G03*
X3293Y1384I-22J28D01*
G01*
X3175D02*
G03*
X3175Y1329I22J-28D01*
G01*
X3519Y1567D02*
G03*
X3441Y1567I-39J-26D01*
G01*
Y1415D02*
G03*
X3519Y1415I39J26D01*
G01*
X3589Y1329D02*
G03*
X3589Y1384I-22J28D01*
G01*
X3471D02*
G03*
X3471Y1329I22J-28D01*
G01*
X3439D02*
G03*
X3439Y1384I-22J28D01*
G01*
X3321D02*
G03*
X3321Y1329I22J-28D01*
G01*
X3424Y1566D02*
G03*
X3346Y1566I-39J-26D01*
G01*
Y1414D02*
G03*
X3424Y1414I39J26D01*
G01*
X4016Y2232D02*
G03*
X4016Y2311I-26J39D01*
G01*
X3864D02*
G03*
X3864Y2232I26J-39D01*
G01*
X3628Y991D02*
G03*
X3683Y991I28J22D01*
G01*
Y1109D02*
G03*
X3628Y1109I-28J-22D01*
G01*
X3999Y1354D02*
G03*
X3999Y1409I-22J28D01*
G01*
X3881D02*
G03*
X3881Y1354I22J-28D01*
G01*
X3665Y556D02*
G03*
X3586Y556I-39J-26D01*
G01*
Y404D02*
G03*
X3665Y404I39J26D01*
G01*
X1125Y1873D02*
G03*
X1125Y1925I-14J26D01*
G01*
X1035Y1925D02*
G03*
X1035Y1873I15J-26D01*
G01*
X1590Y1873D02*
G03*
X1590Y1925I-14J26D01*
G01*
X1500Y1925D02*
G03*
X1500Y1873I15J-26D01*
G01*
X1369Y1584D02*
G03*
X1421Y1584I26J14D01*
G01*
X1421Y1674D02*
G03*
X1369Y1674I-26J-15D01*
G01*
X1229Y1584D02*
G03*
X1281Y1584I26J14D01*
G01*
X1281Y1674D02*
G03*
X1229Y1674I-26J-15D01*
G01*
X1069Y1449D02*
G03*
X1121Y1449I26J15D01*
G01*
X1121Y1538D02*
G03*
X1069Y1538I-26J-14D01*
G01*
X1134Y1449D02*
G03*
X1186Y1449I26J15D01*
G01*
X1186Y1538D02*
G03*
X1134Y1538I-26J-14D01*
G01*
X1200Y1125D02*
G03*
X1200Y1073I15J-26D01*
G01*
X1290Y1073D02*
G03*
X1290Y1125I-14J26D01*
G01*
X1200Y1060D02*
G03*
X1200Y1008I15J-26D01*
G01*
X1290Y1008D02*
G03*
X1290Y1060I-14J26D01*
G01*
X1389Y1094D02*
G03*
X1441Y1094I26J15D01*
G01*
X1441Y1183D02*
G03*
X1389Y1183I-26J-14D01*
G01*
X1319Y1335D02*
X1371D01*
Y1223D02*
Y1335D01*
X1319Y1223D02*
X1371D01*
X1319D02*
Y1335D01*
X1249Y1223D02*
X1301D01*
X1249D02*
Y1335D01*
X1301D01*
Y1223D02*
Y1335D01*
X1389Y1335D02*
X1441D01*
Y1223D02*
Y1335D01*
X1389Y1223D02*
X1441D01*
X1389D02*
Y1335D01*
X3067Y1427D02*
X3193D01*
Y1577D01*
X3067D02*
X3193D01*
X3067Y1427D02*
Y1577D01*
X3677Y1591D02*
X3803D01*
Y1740D01*
X3677D02*
X3803D01*
X3677Y1591D02*
Y1740D01*
X3537Y1591D02*
X3663D01*
Y1740D01*
X3537D02*
X3663D01*
X3537Y1591D02*
Y1740D01*
X3815Y1427D02*
Y1577D01*
X3941D01*
Y1427D02*
Y1577D01*
X3815Y1427D02*
X3941D01*
X3961Y2011D02*
X4016D01*
X3961Y1932D02*
X4016D01*
X3864D02*
X3919D01*
X3864Y2011D02*
X3919D01*
X3756Y1261D02*
X3812D01*
X3756Y1182D02*
X3812D01*
X3659D02*
X3715D01*
X3659Y1261D02*
X3715D01*
X3441Y1512D02*
Y1567D01*
X3519Y1512D02*
Y1567D01*
Y1415D02*
Y1470D01*
X3441Y1415D02*
Y1470D01*
X3346Y1511D02*
Y1566D01*
X3424Y1511D02*
Y1566D01*
Y1414D02*
Y1469D01*
X3346Y1414D02*
Y1469D01*
X3961Y2311D02*
X4016D01*
X3961Y2232D02*
X4016D01*
X3864D02*
X3919D01*
X3864Y2311D02*
X3919D01*
X3363Y1590D02*
Y1739D01*
X3238Y1590D02*
X3363D01*
X3238D02*
Y1739D01*
X3363D01*
X3586Y501D02*
Y556D01*
X3665Y501D02*
Y556D01*
Y404D02*
Y459D01*
X3586Y404D02*
Y459D01*
X2304Y2284D02*
X2416D01*
X2304Y2233D02*
Y2284D01*
Y2233D02*
X2416D01*
Y2284D01*
X919Y1685D02*
X971D01*
Y1573D02*
Y1685D01*
X919Y1573D02*
X971D01*
X919D02*
Y1685D01*
X844D02*
X896D01*
Y1573D02*
Y1685D01*
X844Y1573D02*
X896D01*
X844D02*
Y1685D01*
X659D02*
X711D01*
Y1573D02*
Y1685D01*
X659Y1573D02*
X711D01*
X659D02*
Y1685D01*
X679Y1953D02*
Y2004D01*
X791D01*
Y1953D02*
Y2004D01*
X679Y1953D02*
X791D01*
X1136Y1783D02*
Y1834D01*
X1024Y1783D02*
X1136D01*
X1024D02*
Y1834D01*
X1136D01*
X1035Y1925D02*
X1125D01*
X1035Y1873D02*
X1125D01*
X1500Y1925D02*
X1590D01*
X1500Y1873D02*
X1590D01*
X1489Y1783D02*
Y1834D01*
X1601D01*
Y1783D02*
Y1834D01*
X1489Y1783D02*
X1601D01*
X1489Y1718D02*
Y1769D01*
X1601D01*
Y1718D02*
Y1769D01*
X1489Y1718D02*
X1601D01*
X1421Y1584D02*
Y1674D01*
X1369Y1584D02*
Y1674D01*
X1299Y1685D02*
X1351D01*
Y1573D02*
Y1685D01*
X1299Y1573D02*
X1351D01*
X1299D02*
Y1685D01*
X1281Y1584D02*
Y1674D01*
X1229Y1584D02*
Y1674D01*
X1154Y1685D02*
X1206D01*
Y1573D02*
Y1685D01*
X1154Y1573D02*
X1206D01*
X1154D02*
Y1685D01*
X1301Y903D02*
Y954D01*
X1189Y903D02*
X1301D01*
X1189D02*
Y954D01*
X1301D01*
X2109Y493D02*
X2221D01*
Y544D01*
X2109D02*
X2221D01*
X2109Y493D02*
Y544D01*
X1121Y1449D02*
Y1538D01*
X1069Y1449D02*
Y1538D01*
X1186Y1449D02*
Y1538D01*
X1134Y1449D02*
Y1538D01*
X1200Y1073D02*
X1290D01*
X1200Y1125D02*
X1290D01*
X1200Y1008D02*
X1290D01*
X1200Y1060D02*
X1290D01*
X584Y1685D02*
X636D01*
Y1573D02*
Y1685D01*
X584Y1573D02*
X636D01*
X584D02*
Y1685D01*
X2109Y414D02*
X2221D01*
X2109Y363D02*
Y414D01*
Y363D02*
X2221D01*
Y414D01*
X1319Y1195D02*
X1371D01*
Y1083D02*
Y1195D01*
X1319Y1083D02*
X1371D01*
X1319D02*
Y1195D01*
X1189Y1194D02*
X1301D01*
X1189Y1143D02*
Y1194D01*
Y1143D02*
X1301D01*
Y1194D01*
X2109Y284D02*
X2221D01*
X2109Y233D02*
Y284D01*
Y233D02*
X2221D01*
Y284D01*
X2109Y154D02*
X2221D01*
X2109Y103D02*
Y154D01*
Y103D02*
X2221D01*
Y154D01*
X1441Y1094D02*
Y1183D01*
X1389Y1094D02*
Y1183D01*
X1041Y1314D02*
X1062D01*
Y1335D01*
X932Y1326D02*
Y1340D01*
Y1326D02*
X946D01*
X932Y1444D02*
X946D01*
X932Y1430D02*
Y1444D01*
X1050Y1430D02*
Y1444D01*
X1036D02*
X1050D01*
Y1326D02*
Y1340D01*
X1036Y1326D02*
X1050D01*
X2856Y247D02*
Y213D01*
X2854Y206D01*
X2852Y204D01*
X2848Y202D01*
X2844D01*
X2839Y204D01*
X2837Y206D01*
X2835Y213D01*
Y217D01*
X2872Y247D02*
X2896D01*
X2883Y230D01*
X2889D01*
X2894Y228D01*
X2896Y225D01*
X2898Y219D01*
Y215D01*
X2896Y208D01*
X2892Y204D01*
X2885Y202D01*
X2879D01*
X2872Y204D01*
X2870Y206D01*
X2868Y210D01*
X2827Y170D02*
X2823Y168D01*
X2819Y164D01*
X2817Y160D01*
X2816Y155D01*
Y145D01*
X2817Y140D01*
X2819Y136D01*
X2823Y132D01*
X2827Y130D01*
X2835D01*
X2838Y132D01*
X2842Y136D01*
X2844Y140D01*
X2846Y145D01*
Y155D01*
X2844Y160D01*
X2842Y164D01*
X2838Y168D01*
X2835Y170D01*
X2827D01*
X2855Y157D02*
Y117D01*
Y151D02*
X2859Y155D01*
X2863Y157D01*
X2869D01*
X2873Y155D01*
X2876Y151D01*
X2878Y145D01*
Y141D01*
X2876Y136D01*
X2873Y132D01*
X2869Y130D01*
X2863D01*
X2859Y132D01*
X2855Y136D01*
X2887Y145D02*
X2910D01*
Y149D01*
X2908Y153D01*
X2906Y155D01*
X2902Y157D01*
X2896D01*
X2893Y155D01*
X2889Y151D01*
X2887Y145D01*
Y141D01*
X2889Y136D01*
X2893Y132D01*
X2896Y130D01*
X2902D01*
X2906Y132D01*
X2910Y136D01*
X2918Y157D02*
Y130D01*
Y149D02*
X2924Y155D01*
X2928Y157D01*
X2933D01*
X2937Y155D01*
X2939Y149D01*
Y130D01*
X2981Y170D02*
Y130D01*
Y170D02*
X2994D01*
X3000Y168D01*
X3004Y164D01*
X3006Y160D01*
X3008Y155D01*
Y145D01*
X3006Y140D01*
X3004Y136D01*
X3000Y132D01*
X2994Y130D01*
X2981D01*
X3020Y170D02*
X3022Y168D01*
X3024Y170D01*
X3022Y172D01*
X3020Y170D01*
X3022Y157D02*
Y130D01*
X3052Y151D02*
X3050Y155D01*
X3045Y157D01*
X3039D01*
X3033Y155D01*
X3031Y151D01*
X3033Y147D01*
X3037Y145D01*
X3047Y143D01*
X3050Y141D01*
X3052Y138D01*
Y136D01*
X3050Y132D01*
X3045Y130D01*
X3039D01*
X3033Y132D01*
X3031Y136D01*
X3084Y157D02*
Y130D01*
Y151D02*
X3080Y155D01*
X3076Y157D01*
X3070D01*
X3066Y155D01*
X3063Y151D01*
X3061Y145D01*
Y141D01*
X3063Y136D01*
X3066Y132D01*
X3070Y130D01*
X3076D01*
X3080Y132D01*
X3084Y136D01*
X3094Y170D02*
Y130D01*
Y151D02*
X3098Y155D01*
X3102Y157D01*
X3108D01*
X3111Y155D01*
X3115Y151D01*
X3117Y145D01*
Y141D01*
X3115Y136D01*
X3111Y132D01*
X3108Y130D01*
X3102D01*
X3098Y132D01*
X3094Y136D01*
X3126Y170D02*
Y130D01*
X3134Y145D02*
X3157D01*
Y149D01*
X3155Y153D01*
X3153Y155D01*
X3149Y157D01*
X3144D01*
X3140Y155D01*
X3136Y151D01*
X3134Y145D01*
Y141D01*
X3136Y136D01*
X3140Y132D01*
X3144Y130D01*
X3149D01*
X3153Y132D01*
X3157Y136D01*
X3197Y170D02*
X3212Y130D01*
X3227Y170D02*
X3212Y130D01*
X3261Y160D02*
X3259Y164D01*
X3255Y168D01*
X3251Y170D01*
X3244D01*
X3240Y168D01*
X3236Y164D01*
X3234Y160D01*
X3232Y155D01*
Y145D01*
X3234Y140D01*
X3236Y136D01*
X3240Y132D01*
X3244Y130D01*
X3251D01*
X3255Y132D01*
X3259Y136D01*
X3261Y140D01*
X3272Y149D02*
X3289D01*
X3295Y151D01*
X3297Y153D01*
X3299Y157D01*
Y162D01*
X3297Y166D01*
X3295Y168D01*
X3289Y170D01*
X3272D01*
Y130D01*
X3310Y134D02*
X3308Y132D01*
X3310Y130D01*
X3312Y132D01*
X3310Y134D01*
X2842Y69D02*
X2838Y73D01*
X2833Y75D01*
X2825D01*
X2819Y73D01*
X2816Y69D01*
Y65D01*
X2817Y62D01*
X2819Y60D01*
X2823Y58D01*
X2835Y54D01*
X2838Y52D01*
X2840Y50D01*
X2842Y46D01*
Y41D01*
X2838Y37D01*
X2833Y35D01*
X2825D01*
X2819Y37D01*
X2816Y41D01*
X2851Y75D02*
Y35D01*
Y54D02*
X2857Y60D01*
X2861Y62D01*
X2866D01*
X2870Y60D01*
X2872Y54D01*
Y35D01*
X2892Y62D02*
X2888Y60D01*
X2885Y56D01*
X2883Y50D01*
Y46D01*
X2885Y41D01*
X2888Y37D01*
X2892Y35D01*
X2898D01*
X2902Y37D01*
X2905Y41D01*
X2907Y46D01*
Y50D01*
X2905Y56D01*
X2902Y60D01*
X2898Y62D01*
X2892D01*
X2916D02*
Y35D01*
Y50D02*
X2918Y56D01*
X2922Y60D01*
X2926Y62D01*
X2931D01*
X2941Y75D02*
Y43D01*
X2943Y37D01*
X2946Y35D01*
X2950D01*
X2935Y62D02*
X2948D01*
X3012Y75D02*
X2987D01*
Y35D01*
X3012D01*
X2987Y56D02*
X3003D01*
X3019Y62D02*
Y35D01*
Y54D02*
X3024Y60D01*
X3028Y62D01*
X3034D01*
X3038Y60D01*
X3040Y54D01*
Y35D01*
X3073Y62D02*
Y35D01*
Y56D02*
X3069Y60D01*
X3065Y62D01*
X3060D01*
X3056Y60D01*
X3052Y56D01*
X3050Y50D01*
Y46D01*
X3052Y41D01*
X3056Y37D01*
X3060Y35D01*
X3065D01*
X3069Y37D01*
X3073Y41D01*
X3084Y75D02*
Y35D01*
Y56D02*
X3088Y60D01*
X3091Y62D01*
X3097D01*
X3101Y60D01*
X3105Y56D01*
X3107Y50D01*
Y46D01*
X3105Y41D01*
X3101Y37D01*
X3097Y35D01*
X3091D01*
X3088Y37D01*
X3084Y41D01*
X3115Y75D02*
Y35D01*
X3124Y50D02*
X3146D01*
Y54D01*
X3144Y58D01*
X3143Y60D01*
X3139Y62D01*
X3133D01*
X3129Y60D01*
X3125Y56D01*
X3124Y50D01*
Y46D01*
X3125Y41D01*
X3129Y37D01*
X3133Y35D01*
X3139D01*
X3143Y37D01*
X3146Y41D01*
X3186Y75D02*
X3202Y35D01*
X3217Y75D02*
X3202Y35D01*
X3251Y65D02*
X3249Y69D01*
X3245Y73D01*
X3241Y75D01*
X3233D01*
X3230Y73D01*
X3226Y69D01*
X3224Y65D01*
X3222Y60D01*
Y50D01*
X3224Y45D01*
X3226Y41D01*
X3230Y37D01*
X3233Y35D01*
X3241D01*
X3245Y37D01*
X3249Y41D01*
X3251Y45D01*
X3262Y54D02*
X3279D01*
X3285Y56D01*
X3287Y58D01*
X3288Y62D01*
Y67D01*
X3287Y71D01*
X3285Y73D01*
X3279Y75D01*
X3262D01*
Y35D01*
X3299Y39D02*
X3297Y37D01*
X3299Y35D01*
X3301Y37D01*
X3299Y39D01*
X2870Y2299D02*
X2866Y2303D01*
X2859Y2305D01*
X2851D01*
X2844Y2303D01*
X2840Y2299D01*
Y2294D01*
X2842Y2290D01*
X2844Y2288D01*
X2849Y2286D01*
X2861Y2281D01*
X2866Y2279D01*
X2868Y2277D01*
X2870Y2273D01*
Y2266D01*
X2866Y2262D01*
X2859Y2260D01*
X2851D01*
X2844Y2262D01*
X2840Y2266D01*
X2880Y2305D02*
X2891Y2260D01*
X2902Y2305D02*
X2891Y2260D01*
X2902Y2305D02*
X2912Y2260D01*
X2923Y2305D02*
X2912Y2260D01*
X2932Y2296D02*
X2936Y2299D01*
X2943Y2305D01*
Y2260D01*
X3000Y2290D02*
Y2260D01*
Y2281D02*
X3007Y2288D01*
X3011Y2290D01*
X3017D01*
X3022Y2288D01*
X3024Y2281D01*
Y2260D01*
Y2281D02*
X3030Y2288D01*
X3035Y2290D01*
X3041D01*
X3045Y2288D01*
X3047Y2281D01*
Y2260D01*
X3062Y2290D02*
Y2269D01*
X3064Y2262D01*
X3068Y2260D01*
X3074D01*
X3079Y2262D01*
X3085Y2269D01*
Y2290D02*
Y2260D01*
X3120Y2284D02*
X3118Y2288D01*
X3112Y2290D01*
X3105D01*
X3099Y2288D01*
X3097Y2284D01*
X3099Y2279D01*
X3103Y2277D01*
X3114Y2275D01*
X3118Y2273D01*
X3120Y2269D01*
Y2266D01*
X3118Y2262D01*
X3112Y2260D01*
X3105D01*
X3099Y2262D01*
X3097Y2266D01*
X3136Y2305D02*
Y2269D01*
X3138Y2262D01*
X3143Y2260D01*
X3147D01*
X3130Y2290D02*
X3145D01*
X3189Y2305D02*
Y2260D01*
Y2284D02*
X3193Y2288D01*
X3197Y2290D01*
X3204D01*
X3208Y2288D01*
X3212Y2284D01*
X3215Y2277D01*
Y2273D01*
X3212Y2266D01*
X3208Y2262D01*
X3204Y2260D01*
X3197D01*
X3193Y2262D01*
X3189Y2266D01*
X3224Y2277D02*
X3250D01*
Y2281D01*
X3248Y2286D01*
X3246Y2288D01*
X3241Y2290D01*
X3235D01*
X3231Y2288D01*
X3226Y2284D01*
X3224Y2277D01*
Y2273D01*
X3226Y2266D01*
X3231Y2262D01*
X3235Y2260D01*
X3241D01*
X3246Y2262D01*
X3250Y2266D01*
X3306Y2290D02*
X3301Y2288D01*
X3297Y2284D01*
X3295Y2277D01*
Y2273D01*
X3297Y2266D01*
X3301Y2262D01*
X3306Y2260D01*
X3312D01*
X3316Y2262D01*
X3321Y2266D01*
X3323Y2273D01*
Y2277D01*
X3321Y2284D01*
X3316Y2288D01*
X3312Y2290D01*
X3306D01*
X3350Y2305D02*
X3345D01*
X3341Y2303D01*
X3339Y2296D01*
Y2260D01*
X3333Y2290D02*
X3348D01*
X3373Y2305D02*
X3369D01*
X3365Y2303D01*
X3363Y2296D01*
Y2260D01*
X3356Y2290D02*
X3371D01*
X3382Y2264D02*
X3380Y2262D01*
X3382Y2260D01*
X3384Y2262D01*
X3382Y2264D01*
X2840Y2380D02*
X2851Y2335D01*
X2861Y2380D02*
X2851Y2335D01*
X2861Y2380D02*
X2872Y2335D01*
X2883Y2380D02*
X2872Y2335D01*
X2892Y2380D02*
Y2335D01*
Y2356D02*
X2898Y2363D01*
X2903Y2365D01*
X2909D01*
X2913Y2363D01*
X2915Y2356D01*
Y2335D01*
X2927Y2352D02*
X2953D01*
Y2356D01*
X2951Y2361D01*
X2949Y2363D01*
X2944Y2365D01*
X2938D01*
X2934Y2363D01*
X2929Y2359D01*
X2927Y2352D01*
Y2348D01*
X2929Y2341D01*
X2934Y2337D01*
X2938Y2335D01*
X2944D01*
X2949Y2337D01*
X2953Y2341D01*
X2963Y2365D02*
Y2335D01*
Y2356D02*
X2969Y2363D01*
X2973Y2365D01*
X2980D01*
X2984Y2363D01*
X2986Y2356D01*
Y2335D01*
X3055Y2380D02*
Y2346D01*
X3053Y2339D01*
X3050Y2337D01*
X3046Y2335D01*
X3042D01*
X3038Y2337D01*
X3035Y2339D01*
X3033Y2346D01*
Y2350D01*
X3066Y2371D02*
X3071Y2374D01*
X3077Y2380D01*
Y2335D01*
X3125Y2374D02*
X3123Y2378D01*
X3116Y2380D01*
X3112D01*
X3106Y2378D01*
X3101Y2371D01*
X3099Y2361D01*
Y2350D01*
X3101Y2341D01*
X3106Y2337D01*
X3112Y2335D01*
X3114D01*
X3121Y2337D01*
X3125Y2341D01*
X3127Y2348D01*
Y2350D01*
X3125Y2356D01*
X3121Y2361D01*
X3114Y2363D01*
X3112D01*
X3106Y2361D01*
X3101Y2356D01*
X3099Y2350D01*
X3185Y2380D02*
X3181Y2378D01*
X3177Y2374D01*
X3174Y2369D01*
X3172Y2363D01*
Y2352D01*
X3174Y2346D01*
X3177Y2341D01*
X3181Y2337D01*
X3185Y2335D01*
X3194D01*
X3198Y2337D01*
X3202Y2341D01*
X3204Y2346D01*
X3207Y2352D01*
Y2363D01*
X3204Y2369D01*
X3202Y2374D01*
X3198Y2378D01*
X3194Y2380D01*
X3185D01*
X3217Y2365D02*
Y2320D01*
Y2359D02*
X3221Y2363D01*
X3226Y2365D01*
X3232D01*
X3236Y2363D01*
X3241Y2359D01*
X3243Y2352D01*
Y2348D01*
X3241Y2341D01*
X3236Y2337D01*
X3232Y2335D01*
X3226D01*
X3221Y2337D01*
X3217Y2341D01*
X3252Y2352D02*
X3278D01*
Y2356D01*
X3276Y2361D01*
X3274Y2363D01*
X3270Y2365D01*
X3263D01*
X3259Y2363D01*
X3255Y2359D01*
X3252Y2352D01*
Y2348D01*
X3255Y2341D01*
X3259Y2337D01*
X3263Y2335D01*
X3270D01*
X3274Y2337D01*
X3278Y2341D01*
X3288Y2365D02*
Y2335D01*
Y2356D02*
X3294Y2363D01*
X3299Y2365D01*
X3305D01*
X3309Y2363D01*
X3311Y2356D01*
Y2335D01*
X3327Y2337D02*
X3325Y2335D01*
X3323Y2337D01*
X3325Y2339D01*
X3327Y2337D01*
Y2333D01*
X3325Y2329D01*
X3323Y2326D01*
X2945Y1861D02*
X2964D01*
X2971Y1864D01*
X2973Y1866D01*
X2975Y1870D01*
Y1876D01*
X2973Y1881D01*
X2971Y1883D01*
X2964Y1885D01*
X2945D01*
Y1840D01*
X2996Y1870D02*
X2992Y1868D01*
X2987Y1864D01*
X2985Y1857D01*
Y1853D01*
X2987Y1846D01*
X2992Y1842D01*
X2996Y1840D01*
X3002D01*
X3007Y1842D01*
X3011Y1846D01*
X3013Y1853D01*
Y1857D01*
X3011Y1864D01*
X3007Y1868D01*
X3002Y1870D01*
X2996D01*
X3023D02*
X3031Y1840D01*
X3040Y1870D02*
X3031Y1840D01*
X3040Y1870D02*
X3049Y1840D01*
X3057Y1870D02*
X3049Y1840D01*
X3068Y1857D02*
X3093D01*
Y1861D01*
X3091Y1866D01*
X3089Y1868D01*
X3085Y1870D01*
X3078D01*
X3074Y1868D01*
X3070Y1864D01*
X3068Y1857D01*
Y1853D01*
X3070Y1846D01*
X3074Y1842D01*
X3078Y1840D01*
X3085D01*
X3089Y1842D01*
X3093Y1846D01*
X3103Y1870D02*
Y1840D01*
Y1857D02*
X3105Y1864D01*
X3109Y1868D01*
X3114Y1870D01*
X3120D01*
X3172Y1885D02*
X3168Y1883D01*
X3164Y1879D01*
X3162Y1874D01*
X3159Y1868D01*
Y1857D01*
X3162Y1851D01*
X3164Y1846D01*
X3168Y1842D01*
X3172Y1840D01*
X3181D01*
X3185Y1842D01*
X3189Y1846D01*
X3192Y1851D01*
X3194Y1857D01*
Y1868D01*
X3192Y1874D01*
X3189Y1879D01*
X3185Y1883D01*
X3181Y1885D01*
X3172D01*
X3221D02*
X3217D01*
X3213Y1883D01*
X3211Y1876D01*
Y1840D01*
X3204Y1870D02*
X3219D01*
X3245Y1885D02*
X3241D01*
X3236Y1883D01*
X3234Y1876D01*
Y1840D01*
X3228Y1870D02*
X3243D01*
X3375Y1866D02*
X3394D01*
X3401Y1869D01*
X3403Y1871D01*
X3405Y1875D01*
Y1881D01*
X3403Y1886D01*
X3401Y1888D01*
X3394Y1890D01*
X3375D01*
Y1845D01*
X3426Y1875D02*
X3422Y1873D01*
X3417Y1869D01*
X3415Y1862D01*
Y1858D01*
X3417Y1851D01*
X3422Y1847D01*
X3426Y1845D01*
X3432D01*
X3437Y1847D01*
X3441Y1851D01*
X3443Y1858D01*
Y1862D01*
X3441Y1869D01*
X3437Y1873D01*
X3432Y1875D01*
X3426D01*
X3453D02*
X3461Y1845D01*
X3470Y1875D02*
X3461Y1845D01*
X3470Y1875D02*
X3479Y1845D01*
X3487Y1875D02*
X3479Y1845D01*
X3498Y1862D02*
X3523D01*
Y1866D01*
X3521Y1871D01*
X3519Y1873D01*
X3515Y1875D01*
X3508D01*
X3504Y1873D01*
X3500Y1869D01*
X3498Y1862D01*
Y1858D01*
X3500Y1851D01*
X3504Y1847D01*
X3508Y1845D01*
X3515D01*
X3519Y1847D01*
X3523Y1851D01*
X3533Y1875D02*
Y1845D01*
Y1862D02*
X3535Y1869D01*
X3539Y1873D01*
X3544Y1875D01*
X3550D01*
X3602Y1890D02*
X3598Y1888D01*
X3594Y1884D01*
X3592Y1879D01*
X3589Y1873D01*
Y1862D01*
X3592Y1856D01*
X3594Y1851D01*
X3598Y1847D01*
X3602Y1845D01*
X3611D01*
X3615Y1847D01*
X3619Y1851D01*
X3622Y1856D01*
X3624Y1862D01*
Y1873D01*
X3622Y1879D01*
X3619Y1884D01*
X3615Y1888D01*
X3611Y1890D01*
X3602D01*
X3634Y1875D02*
Y1845D01*
Y1866D02*
X3641Y1873D01*
X3645Y1875D01*
X3651D01*
X3656Y1873D01*
X3658Y1866D01*
Y1845D01*
X2500Y868D02*
X2516D01*
X2522Y870D01*
X2524Y872D01*
X2525Y875D01*
Y881D01*
X2524Y884D01*
X2522Y886D01*
X2516Y888D01*
X2500D01*
Y850D01*
X2563D02*
X2548Y888D01*
X2534Y850D01*
X2539Y863D02*
X2557D01*
X2575Y888D02*
X2595D01*
X2584Y874D01*
X2590D01*
X2593Y872D01*
X2595Y870D01*
X2597Y864D01*
Y861D01*
X2595Y855D01*
X2592Y852D01*
X2586Y850D01*
X2581D01*
X2575Y852D01*
X2573Y854D01*
X2572Y857D01*
X2605Y837D02*
X2634D01*
X2639Y888D02*
Y850D01*
Y888D02*
X2656D01*
X2661Y886D01*
X2663Y884D01*
X2665Y881D01*
Y877D01*
X2663Y874D01*
X2661Y872D01*
X2656Y870D01*
X2639D01*
X2652D02*
X2665Y850D01*
X2673Y888D02*
X2698Y850D01*
Y888D02*
X2673Y850D01*
X2490Y1153D02*
X2506D01*
X2512Y1155D01*
X2514Y1157D01*
X2515Y1160D01*
Y1166D01*
X2514Y1169D01*
X2512Y1171D01*
X2506Y1173D01*
X2490D01*
Y1135D01*
X2553D02*
X2538Y1173D01*
X2524Y1135D01*
X2529Y1148D02*
X2547D01*
X2562Y1166D02*
X2565Y1168D01*
X2571Y1173D01*
Y1135D01*
X2600Y1173D02*
X2595Y1171D01*
X2591Y1166D01*
X2590Y1157D01*
Y1151D01*
X2591Y1142D01*
X2595Y1137D01*
X2600Y1135D01*
X2604D01*
X2609Y1137D01*
X2613Y1142D01*
X2615Y1151D01*
Y1157D01*
X2613Y1166D01*
X2609Y1171D01*
X2604Y1173D01*
X2600D01*
X2623Y1122D02*
X2652D01*
X2670Y1173D02*
Y1135D01*
X2657Y1173D02*
X2682D01*
X2687D02*
X2712Y1135D01*
Y1173D02*
X2687Y1135D01*
X1320Y572D02*
Y527D01*
X1305Y572D02*
X1335D01*
X1370Y565D02*
X1366Y570D01*
X1359Y572D01*
X1351D01*
X1344Y570D01*
X1340Y565D01*
Y561D01*
X1342Y557D01*
X1344Y555D01*
X1349Y553D01*
X1362Y548D01*
X1366Y546D01*
X1368Y544D01*
X1370Y540D01*
Y533D01*
X1366Y529D01*
X1359Y527D01*
X1351D01*
X1344Y529D01*
X1340Y533D01*
X1410Y565D02*
X1406Y570D01*
X1400Y572D01*
X1391D01*
X1385Y570D01*
X1380Y565D01*
Y561D01*
X1382Y557D01*
X1385Y555D01*
X1389Y553D01*
X1402Y548D01*
X1406Y546D01*
X1408Y544D01*
X1410Y540D01*
Y533D01*
X1406Y529D01*
X1400Y527D01*
X1391D01*
X1385Y529D01*
X1380Y533D01*
X1433Y572D02*
X1429Y570D01*
X1425Y565D01*
X1422Y561D01*
X1420Y555D01*
Y544D01*
X1422Y538D01*
X1425Y533D01*
X1429Y529D01*
X1433Y527D01*
X1442D01*
X1446Y529D01*
X1450Y533D01*
X1452Y538D01*
X1455Y544D01*
Y555D01*
X1452Y561D01*
X1450Y565D01*
X1446Y570D01*
X1442Y572D01*
X1433D01*
X1465Y548D02*
X1484D01*
X1491Y550D01*
X1493Y553D01*
X1495Y557D01*
Y563D01*
X1493Y568D01*
X1491Y570D01*
X1484Y572D01*
X1465D01*
Y527D01*
X1507Y561D02*
Y563D01*
X1509Y568D01*
X1512Y570D01*
X1516Y572D01*
X1524D01*
X1529Y570D01*
X1531Y568D01*
X1533Y563D01*
Y559D01*
X1531Y555D01*
X1527Y548D01*
X1505Y527D01*
X1535D01*
X1558Y572D02*
X1552Y570D01*
X1547Y563D01*
X1545Y553D01*
Y546D01*
X1547Y535D01*
X1552Y529D01*
X1558Y527D01*
X1562D01*
X1569Y529D01*
X1573Y535D01*
X1575Y546D01*
Y553D01*
X1573Y563D01*
X1569Y570D01*
X1562Y572D01*
X1558D01*
X1585Y512D02*
X1620D01*
X1638Y572D02*
X1634Y570D01*
X1630Y565D01*
X1627Y561D01*
X1625Y555D01*
Y544D01*
X1627Y538D01*
X1630Y533D01*
X1634Y529D01*
X1638Y527D01*
X1647D01*
X1651Y529D01*
X1655Y533D01*
X1657Y538D01*
X1660Y544D01*
Y555D01*
X1657Y561D01*
X1655Y565D01*
X1651Y570D01*
X1647Y572D01*
X1638D01*
X1645Y535D02*
X1657Y523D01*
X1670Y572D02*
Y527D01*
Y572D02*
X1698D01*
X1670Y550D02*
X1687D01*
X1703Y572D02*
Y527D01*
Y572D02*
X1733Y527D01*
Y572D02*
Y527D01*
X1748Y561D02*
Y563D01*
X1750Y568D01*
X1752Y570D01*
X1756Y572D01*
X1765D01*
X1769Y570D01*
X1771Y568D01*
X1773Y563D01*
Y559D01*
X1771Y555D01*
X1767Y548D01*
X1746Y527D01*
X1776D01*
X1798Y572D02*
X1792Y570D01*
X1788Y563D01*
X1786Y553D01*
Y546D01*
X1788Y535D01*
X1792Y529D01*
X1798Y527D01*
X1803D01*
X1809Y529D01*
X1813Y535D01*
X1816Y546D01*
Y553D01*
X1813Y563D01*
X1809Y570D01*
X1803Y572D01*
X1798D01*
X1826Y512D02*
X1860D01*
X1894Y572D02*
X1866D01*
Y527D01*
X1894D01*
X1866Y550D02*
X1883D01*
X1901Y572D02*
X1918Y527D01*
X1935Y572D02*
X1918Y527D01*
X1941Y512D02*
X1975D01*
X1981Y572D02*
X1998Y527D01*
X2015Y572D02*
X1998Y527D01*
X2021Y563D02*
X2026Y565D01*
X2032Y572D01*
Y527D01*
X2067Y572D02*
X2061Y570D01*
X2056Y563D01*
X2054Y553D01*
Y546D01*
X2056Y535D01*
X2061Y529D01*
X2067Y527D01*
X2071D01*
X2078Y529D01*
X2082Y535D01*
X2084Y546D01*
Y553D01*
X2082Y563D01*
X2078Y570D01*
X2071Y572D01*
X2067D01*
D11*
X1276Y1901D02*
G03*
X1276Y1901I-14J0D01*
G01*
X278Y140D02*
G03*
X278Y140I-138J0D01*
G01*
X736Y1899D02*
G03*
X736Y1899I-14J0D01*
G01*
X2751Y2483D02*
G03*
X2751Y2483I-138J0D01*
G01*
X278D02*
G03*
X278Y2483I-138J0D01*
G01*
X-105Y2638D02*
X-10D01*
X-105Y0D02*
X-10D01*
X-95Y1514D02*
Y2638D01*
Y0D02*
Y1092D01*
X-115Y2578D02*
X-95Y2638D01*
X-75Y2578D01*
X-95Y0D02*
X-75Y60D01*
X-115D02*
X-95Y0D01*
X4094Y-131D02*
Y-10D01*
X0Y-131D02*
Y-10D01*
X2267Y-121D02*
X4094D01*
X0D02*
X1795D01*
X4034Y-101D02*
X4094Y-121D01*
X4034Y-141D02*
X4094Y-121D01*
X0D02*
X60Y-141D01*
X0Y-121D02*
X60Y-101D01*
X3297Y1190D02*
X3546D01*
X3270Y915D02*
Y1163D01*
Y915D02*
X3546D01*
Y1190D01*
X3270Y1163D02*
X3297Y1190D01*
X3915Y2030D02*
Y2211D01*
Y2030D02*
X4018D01*
Y2211D01*
X3915D02*
X4018D01*
X1235Y1929D02*
X1300Y1929D01*
X1300Y1905D01*
X1320Y1905D01*
X1320Y1929D02*
X1320Y1905D01*
X1320Y1929D02*
X1385Y1929D01*
Y1719D02*
Y1929D01*
X1235Y1719D02*
X1385Y1719D01*
X1235Y1719D02*
Y1929D01*
X695Y1718D02*
Y1930D01*
Y1718D02*
X902D01*
Y1930D01*
X818D02*
X902D01*
X818Y1907D02*
Y1930D01*
X779Y1907D02*
X818D01*
X779D02*
Y1930D01*
X695Y1930D02*
X779D01*
X1635Y1974D02*
Y2077D01*
X1817D01*
Y1974D02*
Y2077D01*
X1635Y1974D02*
X1817D01*
X160Y209D02*
X600D01*
X125Y2109D02*
Y2474D01*
Y244D02*
Y504D01*
X160Y2509D02*
X313D01*
X225Y609D02*
X425D01*
X125Y244D02*
X160Y209D01*
X125Y2474D02*
X160Y2509D01*
X575Y284D02*
X599Y308D01*
X551D02*
X575Y284D01*
X525Y509D02*
X2025D01*
Y309D02*
Y509D01*
X550Y309D02*
X2025D01*
X525Y334D02*
X550Y309D01*
X525Y334D02*
Y509D01*
X1951Y2410D02*
X1975Y2434D01*
X1999Y2410D01*
X525Y2209D02*
X2025D01*
X525D02*
Y2409D01*
X2000D01*
X2025Y2384D01*
Y2209D02*
Y2384D01*
X2326Y682D02*
X2350Y659D01*
X2326Y635D02*
X2350Y659D01*
X2125Y609D02*
Y2109D01*
X2325D01*
Y634D02*
Y2109D01*
X2300Y609D02*
X2325Y634D01*
X2125Y609D02*
X2300D01*
X200Y2059D02*
X224Y2035D01*
X200Y2059D02*
X224Y2082D01*
X425Y509D02*
Y2109D01*
X225Y509D02*
X425D01*
X225D02*
Y2084D01*
X250Y2109D01*
X425D01*
X1455Y1359D02*
Y1309D01*
Y1325D01*
X1488Y1359D01*
X1463Y1334D01*
X1488Y1309D01*
X1530D02*
X1513D01*
X1505Y1317D01*
Y1334D01*
X1513Y1342D01*
X1530D01*
X1538Y1334D01*
Y1325D01*
X1505D01*
X1555Y1342D02*
Y1317D01*
X1563Y1309D01*
X1588D01*
Y1300D01*
X1580Y1292D01*
X1572D01*
X1588Y1309D02*
Y1342D01*
X1605Y1309D02*
X1622D01*
X1613D01*
Y1359D01*
X1605Y1350D01*
X1785Y1344D02*
Y1294D01*
Y1310D01*
X1818Y1344D01*
X1793Y1319D01*
X1818Y1294D01*
X1860D02*
X1843D01*
X1835Y1302D01*
Y1319D01*
X1843Y1327D01*
X1860D01*
X1868Y1319D01*
Y1310D01*
X1835D01*
X1885Y1327D02*
Y1302D01*
X1893Y1294D01*
X1918D01*
Y1285D01*
X1910Y1277D01*
X1902D01*
X1918Y1294D02*
Y1327D01*
X1968Y1294D02*
X1935D01*
X1968Y1327D01*
Y1335D01*
X1960Y1344D01*
X1943D01*
X1935Y1335D01*
X1322Y652D02*
Y602D01*
X1305Y652D02*
X1338D01*
X1344D02*
Y602D01*
X1377Y652D02*
Y602D01*
X1344Y628D02*
X1377D01*
X1394Y640D02*
Y642D01*
X1396Y647D01*
X1398Y649D01*
X1403Y652D01*
X1413D01*
X1417Y649D01*
X1420Y647D01*
X1422Y642D01*
Y638D01*
X1420Y633D01*
X1415Y626D01*
X1391Y602D01*
X1425D01*
X1464Y652D02*
X1441D01*
X1438Y630D01*
X1441Y633D01*
X1448Y635D01*
X1455D01*
X1462Y633D01*
X1467Y628D01*
X1469Y621D01*
Y616D01*
X1467Y609D01*
X1462Y604D01*
X1455Y602D01*
X1448D01*
X1441Y604D01*
X1438Y607D01*
X1436Y611D01*
X1509Y652D02*
X1485D01*
X1483Y630D01*
X1485Y633D01*
X1492Y635D01*
X1499D01*
X1506Y633D01*
X1511Y628D01*
X1514Y621D01*
Y616D01*
X1511Y609D01*
X1506Y604D01*
X1499Y602D01*
X1492D01*
X1485Y604D01*
X1483Y607D01*
X1480Y611D01*
X1563Y602D02*
X1544Y652D01*
X1525Y602D01*
X1532Y618D02*
X1556D01*
X1575Y585D02*
X1613D01*
X1619Y652D02*
Y602D01*
Y652D02*
X1638Y602D01*
X1657Y652D02*
X1638Y602D01*
X1657Y652D02*
Y602D01*
X1707Y640D02*
X1705Y645D01*
X1700Y649D01*
X1695Y652D01*
X1686D01*
X1681Y649D01*
X1676Y645D01*
X1674Y640D01*
X1671Y633D01*
Y621D01*
X1674Y614D01*
X1676Y609D01*
X1681Y604D01*
X1686Y602D01*
X1695D01*
X1700Y604D01*
X1705Y609D01*
X1707Y614D01*
Y621D01*
X1695D02*
X1707D01*
X1723Y652D02*
X1750D01*
X1735Y633D01*
X1742D01*
X1747Y630D01*
X1750Y628D01*
X1752Y621D01*
Y616D01*
X1750Y609D01*
X1745Y604D01*
X1738Y602D01*
X1730D01*
X1723Y604D01*
X1721Y607D01*
X1719Y611D01*
X1765Y640D02*
Y642D01*
X1768Y647D01*
X1770Y649D01*
X1775Y652D01*
X1785D01*
X1789Y649D01*
X1792Y647D01*
X1794Y642D01*
Y638D01*
X1792Y633D01*
X1787Y626D01*
X1763Y602D01*
X1796D01*
X1808Y652D02*
Y602D01*
Y652D02*
X1839D01*
X1808Y628D02*
X1827D01*
X1859Y652D02*
X1851Y649D01*
X1847Y642D01*
X1844Y630D01*
Y623D01*
X1847Y611D01*
X1851Y604D01*
X1859Y602D01*
X1863D01*
X1870Y604D01*
X1875Y611D01*
X1878Y623D01*
Y630D01*
X1875Y642D01*
X1870Y649D01*
X1863Y652D01*
X1859D01*
X1903D02*
X1896Y649D01*
X1891Y642D01*
X1889Y630D01*
Y623D01*
X1891Y611D01*
X1896Y604D01*
X1903Y602D01*
X1908D01*
X1915Y604D01*
X1920Y611D01*
X1922Y623D01*
Y630D01*
X1920Y642D01*
X1915Y649D01*
X1908Y652D01*
X1903D01*
X1938D02*
X1964D01*
X1950Y633D01*
X1957D01*
X1962Y630D01*
X1964Y628D01*
X1967Y621D01*
Y616D01*
X1964Y609D01*
X1959Y604D01*
X1952Y602D01*
X1945D01*
X1938Y604D01*
X1936Y607D01*
X1933Y611D01*
X2515Y1891D02*
Y1857D01*
X2532Y1841D01*
X2548Y1857D01*
Y1891D01*
X2565D02*
Y1841D01*
X2590D01*
X2598Y1849D01*
Y1882D01*
X2590Y1891D01*
X2565D01*
X2615D02*
Y1849D01*
X2623Y1841D01*
X2640D01*
X2648Y1849D01*
Y1891D01*
X2665D02*
X2698D01*
X2682D01*
Y1841D01*
X2450Y2159D02*
Y2209D01*
X2475D01*
X2483Y2200D01*
Y2184D01*
X2475Y2175D01*
X2450D01*
X2508Y2159D02*
X2525D01*
X2533Y2167D01*
Y2184D01*
X2525Y2192D01*
X2508D01*
X2500Y2184D01*
Y2167D01*
X2508Y2159D01*
X2550Y2192D02*
Y2167D01*
X2558Y2159D01*
X2567Y2167D01*
X2575Y2159D01*
X2583Y2167D01*
Y2192D01*
X2625Y2159D02*
X2608D01*
X2600Y2167D01*
Y2184D01*
X2608Y2192D01*
X2625D01*
X2633Y2184D01*
Y2175D01*
X2600D01*
X2650Y2192D02*
Y2159D01*
Y2175D01*
X2658Y2184D01*
X2667Y2192D01*
X2675D01*
X2340Y1084D02*
X2359Y1034D01*
X2378Y1084D02*
X2359Y1034D01*
X2385Y1084D02*
Y1034D01*
Y1084D02*
X2401D01*
X2408Y1081D01*
X2413Y1077D01*
X2415Y1072D01*
X2418Y1065D01*
Y1053D01*
X2415Y1046D01*
X2413Y1041D01*
X2408Y1036D01*
X2401Y1034D01*
X2385D01*
X2429Y1084D02*
Y1048D01*
X2431Y1041D01*
X2436Y1036D01*
X2443Y1034D01*
X2448D01*
X2455Y1036D01*
X2460Y1041D01*
X2462Y1048D01*
Y1084D01*
X2493D02*
Y1034D01*
X2476Y1084D02*
X2510D01*
X2376Y1177D02*
X2373Y1182D01*
X2369Y1186D01*
X2364Y1189D01*
X2354D01*
X2350Y1186D01*
X2345Y1182D01*
X2342Y1177D01*
X2340Y1170D01*
Y1158D01*
X2342Y1151D01*
X2345Y1146D01*
X2350Y1141D01*
X2354Y1139D01*
X2364D01*
X2369Y1141D01*
X2373Y1146D01*
X2376Y1151D01*
Y1158D01*
X2364D02*
X2376D01*
X2387Y1189D02*
Y1139D01*
Y1189D02*
X2420Y1139D01*
Y1189D02*
Y1139D01*
X2434Y1189D02*
Y1139D01*
Y1189D02*
X2451D01*
X2458Y1186D01*
X2463Y1182D01*
X2465Y1177D01*
X2468Y1170D01*
Y1158D01*
X2465Y1151D01*
X2463Y1146D01*
X2458Y1141D01*
X2451Y1139D01*
X2434D01*
X1557Y2459D02*
X1552Y2457D01*
X1547Y2452D01*
X1545Y2448D01*
Y2438D01*
X1547Y2433D01*
X1552Y2429D01*
X1557Y2426D01*
X1564Y2424D01*
X1576D01*
X1583Y2426D01*
X1588Y2429D01*
X1593Y2433D01*
X1595Y2438D01*
Y2448D01*
X1593Y2452D01*
X1588Y2457D01*
X1583Y2459D01*
X1576D01*
Y2448D02*
Y2459D01*
X1545Y2471D02*
X1595D01*
X1545D02*
X1595Y2504D01*
X1545D02*
X1595D01*
X1545Y2518D02*
X1595D01*
X1545D02*
Y2535D01*
X1547Y2542D01*
X1552Y2547D01*
X1557Y2549D01*
X1564Y2551D01*
X1576D01*
X1583Y2549D01*
X1588Y2547D01*
X1593Y2542D01*
X1595Y2535D01*
Y2518D01*
X1645Y2424D02*
X1695Y2443D01*
X1645Y2462D02*
X1695Y2443D01*
X1645Y2468D02*
X1695D01*
X1645D02*
Y2485D01*
X1647Y2492D01*
X1652Y2497D01*
X1657Y2499D01*
X1664Y2502D01*
X1676D01*
X1683Y2499D01*
X1688Y2497D01*
X1693Y2492D01*
X1695Y2485D01*
Y2468D01*
X1645Y2513D02*
X1681D01*
X1688Y2515D01*
X1693Y2520D01*
X1695Y2527D01*
Y2532D01*
X1693Y2539D01*
X1688Y2544D01*
X1681Y2546D01*
X1645D01*
Y2577D02*
X1695D01*
X1645Y2560D02*
Y2593D01*
X2578Y362D02*
X2570Y370D01*
X2553D01*
X2545Y362D01*
Y328D01*
X2553Y320D01*
X2570D01*
X2578Y328D01*
Y345D01*
X2562D01*
X2595Y320D02*
Y370D01*
X2628Y320D01*
Y370D01*
X2645D02*
Y320D01*
X2670D01*
X2678Y328D01*
Y362D01*
X2670Y370D01*
X2645D01*
X121Y1267D02*
X118Y1272D01*
X114Y1276D01*
X109Y1279D01*
X99D01*
X95Y1276D01*
X90Y1272D01*
X87Y1267D01*
X85Y1260D01*
Y1248D01*
X87Y1241D01*
X90Y1236D01*
X95Y1231D01*
X99Y1229D01*
X109D01*
X114Y1231D01*
X118Y1236D01*
X121Y1241D01*
Y1248D01*
X109D02*
X121D01*
X132Y1279D02*
Y1229D01*
Y1279D02*
X165Y1229D01*
Y1279D02*
Y1229D01*
X179Y1279D02*
Y1229D01*
Y1279D02*
X196D01*
X203Y1276D01*
X208Y1272D01*
X210Y1267D01*
X213Y1260D01*
Y1248D01*
X210Y1241D01*
X208Y1236D01*
X203Y1231D01*
X196Y1229D01*
X179D01*
X45Y1181D02*
X64Y1131D01*
X83Y1181D02*
X64Y1131D01*
X90Y1181D02*
Y1131D01*
Y1181D02*
X106D01*
X113Y1178D01*
X118Y1173D01*
X120Y1169D01*
X123Y1162D01*
Y1150D01*
X120Y1143D01*
X118Y1138D01*
X113Y1133D01*
X106Y1131D01*
X90D01*
X134Y1181D02*
Y1145D01*
X136Y1138D01*
X141Y1133D01*
X148Y1131D01*
X153D01*
X160Y1133D01*
X165Y1138D01*
X167Y1145D01*
Y1181D01*
X198D02*
Y1131D01*
X181Y1181D02*
X214D01*
X95Y853D02*
X116D01*
X124Y855D01*
X126Y857D01*
X128Y862D01*
Y869D01*
X126Y874D01*
X124Y876D01*
X116Y879D01*
X95D01*
Y829D01*
X178D02*
X159Y879D01*
X140Y829D01*
X147Y845D02*
X170D01*
X189Y869D02*
X194Y872D01*
X201Y879D01*
Y829D01*
X75Y753D02*
X96D01*
X104Y755D01*
X106Y757D01*
X108Y762D01*
Y769D01*
X106Y774D01*
X104Y776D01*
X96Y779D01*
X75D01*
Y729D01*
X158D02*
X139Y779D01*
X120Y729D01*
X127Y745D02*
X150D01*
X174Y779D02*
X200D01*
X186Y760D01*
X193D01*
X198Y757D01*
X200Y755D01*
X203Y748D01*
Y743D01*
X200Y736D01*
X195Y731D01*
X188Y729D01*
X181D01*
X174Y731D01*
X172Y734D01*
X169Y738D01*
X440Y831D02*
Y881D01*
X465D01*
X473Y872D01*
Y856D01*
X465Y847D01*
X440D01*
X490Y831D02*
Y864D01*
X507Y881D01*
X523Y864D01*
Y831D01*
Y856D01*
X490D01*
X573Y831D02*
X540D01*
X573Y864D01*
Y872D01*
X565Y881D01*
X548D01*
X540Y872D01*
X440Y934D02*
Y984D01*
X465D01*
X473Y975D01*
Y959D01*
X465Y950D01*
X440D01*
X490Y934D02*
Y967D01*
X507Y984D01*
X523Y967D01*
Y934D01*
Y959D01*
X490D01*
X540Y975D02*
X548Y984D01*
X565D01*
X573Y975D01*
Y942D01*
X565Y934D01*
X548D01*
X540Y942D01*
Y975D01*
X1450Y124D02*
X1500Y143D01*
X1450Y163D02*
X1500Y143D01*
X1450Y169D02*
X1500D01*
X1450D02*
Y186D01*
X1452Y193D01*
X1457Y198D01*
X1462Y200D01*
X1469Y202D01*
X1481D01*
X1488Y200D01*
X1493Y198D01*
X1498Y193D01*
X1500Y186D01*
Y169D01*
X1450Y213D02*
X1486D01*
X1493Y216D01*
X1498Y221D01*
X1500Y228D01*
Y233D01*
X1498Y240D01*
X1493Y244D01*
X1486Y247D01*
X1450D01*
Y277D02*
X1500D01*
X1450Y261D02*
Y294D01*
X1367Y204D02*
X1362Y202D01*
X1357Y197D01*
X1355Y193D01*
Y183D01*
X1357Y178D01*
X1362Y174D01*
X1367Y171D01*
X1374Y169D01*
X1386D01*
X1393Y171D01*
X1398Y174D01*
X1403Y178D01*
X1405Y183D01*
Y193D01*
X1403Y197D01*
X1398Y202D01*
X1393Y204D01*
X1386D01*
Y193D02*
Y204D01*
X1355Y216D02*
X1405D01*
X1355D02*
X1405Y249D01*
X1355D02*
X1405D01*
X1355Y263D02*
X1405D01*
X1355D02*
Y280D01*
X1357Y287D01*
X1362Y292D01*
X1367Y294D01*
X1374Y296D01*
X1386D01*
X1393Y294D01*
X1398Y292D01*
X1403Y287D01*
X1405Y280D01*
Y263D01*
X671Y164D02*
Y185D01*
X669Y192D01*
X666Y195D01*
X662Y197D01*
X655D01*
X650Y195D01*
X647Y192D01*
X645Y185D01*
Y164D01*
X695D01*
Y246D02*
X645Y227D01*
X695Y208D01*
X678Y215D02*
Y239D01*
X645Y270D02*
X647Y263D01*
X652Y260D01*
X657D01*
X662Y263D01*
X664Y268D01*
X666Y277D01*
X669Y284D01*
X674Y289D01*
X678Y291D01*
X686D01*
X690Y289D01*
X693Y287D01*
X695Y279D01*
Y270D01*
X693Y263D01*
X690Y260D01*
X686Y258D01*
X678D01*
X674Y260D01*
X669Y265D01*
X666Y272D01*
X664Y282D01*
X662Y287D01*
X657Y289D01*
X652D01*
X647Y287D01*
X645Y279D01*
Y270D01*
X771Y124D02*
Y145D01*
X769Y152D01*
X766Y155D01*
X762Y157D01*
X755D01*
X750Y155D01*
X747Y152D01*
X745Y145D01*
Y124D01*
X795D01*
Y206D02*
X745Y187D01*
X795Y168D01*
X778Y175D02*
Y199D01*
X755Y218D02*
X752Y223D01*
X745Y230D01*
X795D01*
X745Y269D02*
X747Y262D01*
X755Y257D01*
X766Y255D01*
X774D01*
X786Y257D01*
X793Y262D01*
X795Y269D01*
Y274D01*
X793Y281D01*
X786Y286D01*
X774Y288D01*
X766D01*
X755Y286D01*
X747Y281D01*
X745Y274D01*
Y269D01*
X1076Y169D02*
Y190D01*
X1074Y197D01*
X1071Y200D01*
X1067Y202D01*
X1060D01*
X1055Y200D01*
X1052Y197D01*
X1050Y190D01*
Y169D01*
X1100D01*
X1050Y213D02*
X1100D01*
X1050D02*
Y235D01*
X1052Y242D01*
X1055Y244D01*
X1060Y247D01*
X1064D01*
X1069Y244D01*
X1071Y242D01*
X1074Y235D01*
Y213D02*
Y235D01*
X1076Y242D01*
X1079Y244D01*
X1083Y247D01*
X1091D01*
X1095Y244D01*
X1098Y242D01*
X1100Y235D01*
Y213D01*
X1050Y272D02*
X1052Y265D01*
X1060Y260D01*
X1071Y258D01*
X1079D01*
X1091Y260D01*
X1098Y265D01*
X1100Y272D01*
Y277D01*
X1098Y284D01*
X1091Y289D01*
X1079Y291D01*
X1071D01*
X1060Y289D01*
X1052Y284D01*
X1050Y277D01*
Y272D01*
X1100Y524D02*
X1050D01*
Y549D01*
X1058Y557D01*
X1075D01*
X1083Y549D01*
Y524D01*
X1050Y574D02*
X1100D01*
Y599D01*
X1092Y607D01*
X1083D01*
X1075Y599D01*
Y574D01*
Y599D01*
X1067Y607D01*
X1058D01*
X1050Y599D01*
Y574D01*
X1100Y624D02*
Y640D01*
Y632D01*
X1050D01*
X1058Y624D01*
X795Y524D02*
X745D01*
Y549D01*
X753Y557D01*
X770D01*
X778Y549D01*
Y524D01*
X795Y574D02*
X762D01*
X745Y590D01*
X762Y607D01*
X795D01*
X770D01*
Y574D01*
X795Y624D02*
Y640D01*
Y632D01*
X745D01*
X753Y624D01*
X795Y665D02*
Y682D01*
Y674D01*
X745D01*
X753Y665D01*
X695Y524D02*
X645D01*
Y549D01*
X653Y557D01*
X670D01*
X678Y549D01*
Y524D01*
X695Y574D02*
X662D01*
X645Y590D01*
X662Y607D01*
X695D01*
X670D01*
Y574D01*
X687Y624D02*
X695Y632D01*
Y649D01*
X687Y657D01*
X653D01*
X645Y649D01*
Y632D01*
X653Y624D01*
X662D01*
X670Y632D01*
Y657D01*
X1800Y1009D02*
Y1059D01*
X1825D01*
X1833Y1050D01*
Y1034D01*
X1825Y1025D01*
X1800D01*
X1817D02*
X1833Y1009D01*
X1883Y1059D02*
X1850D01*
Y1009D01*
X1883D01*
X1850Y1034D02*
X1867D01*
X1933Y1050D02*
X1925Y1059D01*
X1908D01*
X1900Y1050D01*
Y1042D01*
X1908Y1034D01*
X1925D01*
X1933Y1025D01*
Y1017D01*
X1925Y1009D01*
X1908D01*
X1900Y1017D01*
X1983Y1059D02*
X1950D01*
Y1009D01*
X1983D01*
X1950Y1034D02*
X1967D01*
X2000Y1059D02*
X2033D01*
X2017D01*
Y1009D01*
X485Y530D02*
Y580D01*
X510D01*
X518Y572D01*
Y555D01*
X510Y547D01*
X485D01*
X535Y530D02*
Y563D01*
X552Y580D01*
X568Y563D01*
Y530D01*
Y555D01*
X535D01*
X585Y580D02*
X618D01*
Y572D01*
X585Y538D01*
Y530D01*
X895Y524D02*
X845D01*
Y549D01*
X853Y557D01*
X870D01*
X878Y549D01*
Y524D01*
X895Y574D02*
X862D01*
X845Y590D01*
X862Y607D01*
X895D01*
X870D01*
Y574D01*
X895Y624D02*
Y640D01*
Y632D01*
X845D01*
X853Y624D01*
Y665D02*
X845Y674D01*
Y690D01*
X853Y699D01*
X862D01*
X870Y690D01*
Y682D01*
Y690D01*
X878Y699D01*
X887D01*
X895Y690D01*
Y674D01*
X887Y665D01*
X995Y524D02*
X945D01*
Y549D01*
X953Y557D01*
X970D01*
X978Y549D01*
Y524D01*
X995Y574D02*
X962D01*
X945Y590D01*
X962Y607D01*
X995D01*
X970D01*
Y574D01*
X995Y624D02*
Y640D01*
Y632D01*
X945D01*
X953Y624D01*
X945Y699D02*
Y665D01*
X970D01*
X962Y682D01*
Y690D01*
X970Y699D01*
X987D01*
X995Y690D01*
Y674D01*
X987Y665D01*
X876Y120D02*
Y141D01*
X874Y149D01*
X871Y151D01*
X867Y153D01*
X860D01*
X855Y151D01*
X852Y149D01*
X850Y141D01*
Y120D01*
X900D01*
Y203D02*
X850Y184D01*
X900Y165D01*
X883Y172D02*
Y195D01*
X860Y214D02*
X857Y219D01*
X850Y226D01*
X900D01*
X862Y253D02*
X860D01*
X855Y256D01*
X852Y258D01*
X850Y263D01*
Y272D01*
X852Y277D01*
X855Y279D01*
X860Y282D01*
X864D01*
X869Y279D01*
X876Y275D01*
X900Y251D01*
Y284D01*
X981Y120D02*
Y141D01*
X979Y149D01*
X976Y151D01*
X972Y153D01*
X965D01*
X960Y151D01*
X957Y149D01*
X955Y141D01*
Y120D01*
X1005D01*
Y203D02*
X955Y184D01*
X1005Y165D01*
X988Y172D02*
Y195D01*
X965Y214D02*
X962Y219D01*
X955Y226D01*
X1005D01*
X955Y275D02*
X988Y251D01*
Y287D01*
X955Y275D02*
X1005D01*
X440Y731D02*
Y781D01*
X465D01*
X473Y772D01*
Y756D01*
X465Y747D01*
X440D01*
X490Y731D02*
Y764D01*
X507Y781D01*
X523Y764D01*
Y731D01*
Y756D01*
X490D01*
X565Y731D02*
Y781D01*
X540Y756D01*
X573D01*
X440Y631D02*
Y681D01*
X465D01*
X473Y672D01*
Y656D01*
X465Y647D01*
X440D01*
X490Y631D02*
Y664D01*
X507Y681D01*
X523Y664D01*
Y631D01*
Y656D01*
X490D01*
X573Y681D02*
X557Y672D01*
X540Y656D01*
Y639D01*
X548Y631D01*
X565D01*
X573Y639D01*
Y647D01*
X565Y656D01*
X540D01*
D86*
X1195Y775D02*
G03*
X1194Y782I-52J0D01*
G01*
X1081Y703D02*
G03*
X1101Y685I22J3D01*
G01*
X1052Y730D02*
G03*
X1051Y726I33J-15D01*
G01*
X1050Y721D02*
G03*
X1078Y680I36J-6D01*
G01*
X1057Y739D02*
G03*
X1055Y735I128J-77D01*
G01*
X1082Y721D02*
G03*
X1081Y703I51J-10D01*
G01*
X1084Y730D02*
G03*
X1083Y726I82J-29D01*
G01*
X1078Y680D02*
G03*
X1155Y687I27J130D01*
G01*
X1101Y685D02*
G03*
X1122Y687I5J52D01*
G01*
X1122Y687D02*
G03*
X1143Y697I-27J82D01*
G01*
X1167Y681D02*
G03*
X1219Y677I33J85D01*
G01*
X1155Y687D02*
G03*
X1167Y681I36J58D01*
G01*
X1143Y697D02*
G03*
X1170Y721I-75J112D01*
G01*
X1178Y703D02*
G03*
X1198Y685I22J3D01*
G01*
X1179Y721D02*
G03*
X1178Y703I51J-11D01*
G01*
X1174Y726D02*
G03*
X1177Y730I-106J84D01*
G01*
X1181Y730D02*
G03*
X1180Y726I82J-29D01*
G01*
X1063Y748D02*
G03*
X1060Y743I123J-85D01*
G01*
X1088Y739D02*
G03*
X1086Y735I78J-37D01*
G01*
X1092Y746D02*
G03*
X1090Y743I74J-45D01*
G01*
X1069Y756D02*
G03*
X1066Y752I116J-94D01*
G01*
X1093Y748D02*
G03*
X1092Y746I115J-72D01*
G01*
X1099Y756D02*
G03*
X1096Y752I109J-80D01*
G01*
X1132Y788D02*
G03*
X1102Y761I75J-112D01*
G01*
X1180Y735D02*
G03*
X1183Y739I-113J75D01*
G01*
X1185Y739D02*
G03*
X1183Y735I78J-37D01*
G01*
X1153Y799D02*
G03*
X1132Y788I27J-82D01*
G01*
X1154Y808D02*
G03*
X1073Y761I31J-146D01*
G01*
X1175Y801D02*
G03*
X1153Y799I-5J-52D01*
G01*
X1194Y782D02*
G03*
X1175Y801I-22J-3D01*
G01*
X1206Y804D02*
G03*
X1154Y808I-33J-85D01*
G01*
X1198Y685D02*
G03*
X1219Y687I5J52D01*
G01*
X1219Y687D02*
G03*
X1240Y697I-27J82D01*
G01*
X1240Y697D02*
G03*
X1267Y721I-75J112D01*
G01*
X1186Y743D02*
G03*
X1188Y748I-76J41D01*
G01*
X1189Y746D02*
G03*
X1187Y743I74J-45D01*
G01*
X1190Y748D02*
G03*
X1189Y746I115J-72D01*
G01*
X1190Y752D02*
G03*
X1191Y756I-80J32D01*
G01*
X1271Y726D02*
G03*
X1274Y730I-106J84D01*
G01*
X1219Y677D02*
G03*
X1296Y721I-31J146D01*
G01*
X1278Y735D02*
G03*
X1280Y739I-113J75D01*
G01*
X1300Y726D02*
G03*
X1304Y730I-113J98D01*
G01*
X1283Y743D02*
G03*
X1285Y747I-76J41D01*
G01*
X1307Y735D02*
G03*
X1310Y739I-120J89D01*
G01*
X1313Y743D02*
G03*
X1316Y747I-126J80D01*
G01*
X1193Y761D02*
G03*
X1195Y775I-50J14D01*
G01*
X1196Y756D02*
G03*
X1193Y752I109J-81D01*
G01*
X1229Y788D02*
G03*
X1199Y761I75J-112D01*
G01*
X1217Y799D02*
G03*
X1218Y799I0J1D01*
G01*
X1217Y799D02*
G03*
X1218Y799I0J1D01*
G01*
X1250Y798D02*
G03*
X1229Y788I27J-82D01*
G01*
X1217Y799D02*
G03*
X1206Y804I-36J-58D01*
G01*
X1272Y801D02*
G03*
X1250Y798I-5J-52D01*
G01*
X1287Y752D02*
G03*
X1289Y756I-80J32D01*
G01*
X1290Y761D02*
G03*
X1292Y775I-50J14D01*
G01*
D02*
G03*
X1291Y782I-52J0D01*
G01*
X1319Y752D02*
G03*
X1321Y756I-31J18D01*
G01*
X1322Y761D02*
G03*
X1323Y770I-35J9D01*
G01*
X1291Y782D02*
G03*
X1272Y801I-22J-3D01*
G01*
X1295Y806D02*
G03*
X1218Y799I-27J-130D01*
G01*
X1323Y770D02*
G03*
X1295Y806I-36J0D01*
G01*
X1204Y767D02*
Y805D01*
X1052Y700D02*
X1082D01*
X1053Y699D02*
X1082D01*
X1053Y698D02*
X1083D01*
X1052Y701D02*
X1082D01*
X1055Y695D02*
Y721D01*
X1052Y700D02*
Y721D01*
X1057Y692D02*
Y721D01*
X1054Y696D02*
Y721D01*
X1053Y698D02*
Y721D01*
X1058Y691D02*
X1087D01*
X1056Y694D02*
X1085D01*
X1059Y690D02*
X1088D01*
X1057Y693D02*
X1086D01*
X1055Y695D02*
X1084D01*
X1052Y702D02*
X1082D01*
X1058Y692D02*
X1086D01*
X1055Y696D02*
X1084D01*
X1054Y697D02*
X1083D01*
X1051Y703D02*
X1081D01*
X1051Y704D02*
X1081D01*
X1051Y705D02*
X1081D01*
X1050Y706D02*
X1081D01*
X1050Y707D02*
X1081D01*
X1050Y708D02*
X1081D01*
X1051Y703D02*
Y721D01*
X1050Y706D02*
Y721D01*
X1049Y711D02*
Y720D01*
X1050Y709D02*
X1081D01*
X1050Y710D02*
X1081D01*
X1049Y711D02*
X1081D01*
X1049Y712D02*
X1081D01*
X1049Y713D02*
X1081D01*
X1049Y715D02*
X1081D01*
X1049Y714D02*
X1081D01*
X1049Y716D02*
X1081D01*
X1049Y718D02*
X1081D01*
X1049Y717D02*
X1081D01*
X1085Y678D02*
Y693D01*
X1088Y678D02*
Y690D01*
X1087Y678D02*
Y691D01*
X1089Y678D02*
Y689D01*
X1083Y679D02*
Y697D01*
X1082Y679D02*
Y699D01*
X1081Y679D02*
Y702D01*
X1084Y679D02*
Y695D01*
X1086Y678D02*
Y692D01*
X1091Y678D02*
Y688D01*
X1092Y678D02*
Y687D01*
X1093Y678D02*
Y687D01*
X1098Y677D02*
Y685D01*
X1090Y678D02*
Y688D01*
X1094Y677D02*
Y686D01*
X1095Y677D02*
Y686D01*
X1096Y677D02*
Y686D01*
X1097Y677D02*
Y685D01*
X1065Y685D02*
X1098D01*
X1061Y688D02*
X1091D01*
X1099Y677D02*
Y685D01*
X1100Y677D02*
Y685D01*
X1060Y689D02*
X1090D01*
X1058Y691D02*
Y721D01*
X1064Y686D02*
X1095D01*
X1063Y687D02*
X1093D01*
X1101Y677D02*
Y685D01*
X1103Y677D02*
Y684D01*
X1102Y677D02*
Y685D01*
X1104Y677D02*
Y684D01*
X1106Y677D02*
Y684D01*
X1105Y677D02*
Y684D01*
X1107Y677D02*
Y684D01*
X1109Y677D02*
Y685D01*
X1108Y677D02*
Y684D01*
X1110Y677D02*
Y685D01*
X1059Y690D02*
Y721D01*
X1056Y693D02*
Y721D01*
X1060Y689D02*
Y721D01*
X1061Y688D02*
Y721D01*
X1051Y726D02*
Y728D01*
X1064Y686D02*
Y721D01*
X1052Y726D02*
Y730D01*
X1054Y726D02*
Y730D01*
X1062Y687D02*
Y721D01*
X1065Y685D02*
Y721D01*
X1063Y686D02*
Y721D01*
X1049Y719D02*
X1081D01*
X1049Y720D02*
X1082D01*
X1050Y721D02*
X1082D01*
X1050Y721D02*
X1082D01*
X1051Y726D02*
X1083D01*
X1053D02*
Y730D01*
X1055Y726D02*
Y730D01*
X1056Y726D02*
Y730D01*
X1057Y726D02*
Y730D01*
X1055Y735D02*
Y736D01*
X1058Y726D02*
Y730D01*
X1056Y735D02*
Y738D01*
X1059Y726D02*
Y730D01*
X1051Y727D02*
X1083D01*
X1051Y726D02*
X1083D01*
X1060Y726D02*
Y730D01*
X1061Y726D02*
Y730D01*
X1062Y726D02*
Y730D01*
X1052Y728D02*
X1084D01*
X1052Y730D02*
X1084D01*
X1063Y726D02*
Y730D01*
X1052Y729D02*
X1084D01*
X1055Y735D02*
X1086D01*
X1066Y684D02*
Y721D01*
X1067Y684D02*
Y721D01*
X1069Y683D02*
Y721D01*
X1070Y682D02*
Y721D01*
X1064Y726D02*
Y730D01*
X1065Y726D02*
Y730D01*
X1071Y682D02*
Y721D01*
X1068Y683D02*
Y721D01*
X1072Y681D02*
Y721D01*
X1073Y681D02*
Y721D01*
X1074Y681D02*
Y721D01*
X1077Y680D02*
Y721D01*
X1075Y680D02*
Y721D01*
X1076Y680D02*
Y721D01*
X1078Y680D02*
Y721D01*
X1079Y680D02*
Y721D01*
X1080Y679D02*
Y721D01*
X1081Y719D02*
Y721D01*
X1066Y726D02*
Y730D01*
X1067Y726D02*
Y730D01*
X1068Y726D02*
Y730D01*
X1069Y726D02*
Y730D01*
X1070Y726D02*
Y730D01*
X1071Y726D02*
Y730D01*
X1072Y726D02*
Y730D01*
X1073Y726D02*
Y730D01*
X1074Y726D02*
Y730D01*
X1075Y726D02*
Y730D01*
X1076Y726D02*
Y730D01*
X1077Y726D02*
Y730D01*
X1078Y726D02*
Y730D01*
X1079Y726D02*
Y730D01*
X1080Y726D02*
Y730D01*
X1081Y726D02*
Y730D01*
X1082Y726D02*
Y730D01*
X1083Y727D02*
Y730D01*
X1112Y677D02*
Y685D01*
X1111Y677D02*
Y685D01*
X1113Y677D02*
Y685D01*
X1114Y677D02*
Y685D01*
X1115Y678D02*
Y685D01*
X1116Y678D02*
Y685D01*
X1117Y678D02*
Y686D01*
X1118Y678D02*
Y686D01*
X1119Y678D02*
Y686D01*
X1082Y679D02*
X1127D01*
X1089Y678D02*
X1121D01*
X1120Y678D02*
Y686D01*
X1121Y678D02*
Y687D01*
X1122Y678D02*
Y687D01*
X1123Y678D02*
Y687D01*
X1124Y679D02*
Y688D01*
X1125Y679D02*
Y688D01*
X1077Y680D02*
X1133D01*
X1126Y679D02*
Y689D01*
X1127Y679D02*
Y689D01*
X1128Y679D02*
Y689D01*
X1129Y679D02*
Y690D01*
X1130Y680D02*
Y690D01*
X1131Y680D02*
Y691D01*
X1132Y680D02*
Y691D01*
X1071Y682D02*
X1141D01*
X1067Y684D02*
X1147D01*
X1069Y683D02*
X1144D01*
X1073Y681D02*
X1137D01*
X1114Y685D02*
X1150D01*
X1119Y686D02*
X1153D01*
X1122Y687D02*
X1189D01*
X1128Y689D02*
X1186D01*
X1125Y688D02*
X1188D01*
X1133Y680D02*
Y692D01*
X1134Y680D02*
Y692D01*
X1135Y681D02*
Y693D01*
X1136Y681D02*
Y693D01*
X1137Y681D02*
Y694D01*
X1138Y681D02*
Y694D01*
X1139Y682D02*
Y695D01*
X1140Y682D02*
Y695D01*
X1141Y682D02*
Y696D01*
X1173Y679D02*
X1226D01*
X1181Y677D02*
X1217D01*
X1177Y678D02*
X1222D01*
X1142Y683D02*
Y697D01*
X1143Y683D02*
Y697D01*
X1180Y677D02*
Y696D01*
X1179Y677D02*
Y699D01*
X1181Y677D02*
Y695D01*
X1134Y692D02*
X1183D01*
X1136Y693D02*
X1182D01*
X1138Y694D02*
X1182D01*
X1143Y697D02*
X1180D01*
X1144Y683D02*
Y698D01*
X1140Y695D02*
X1181D01*
X1145Y684D02*
Y699D01*
X1146Y684D02*
Y699D01*
X1147Y684D02*
Y700D01*
X1163Y683D02*
X1239D01*
X1159Y685D02*
X1195D01*
X1165Y682D02*
X1236D01*
X1170Y680D02*
X1229D01*
X1167Y681D02*
X1233D01*
X1130Y690D02*
X1185D01*
X1132Y691D02*
X1184D01*
X1157Y686D02*
X1192D01*
X1141Y696D02*
X1181D01*
X1160Y684D02*
X1241D01*
X1148Y685D02*
Y701D01*
X1149Y685D02*
Y702D01*
X1150Y685D02*
Y702D01*
X1151Y686D02*
Y703D01*
X1152Y686D02*
Y704D01*
X1153Y686D02*
Y705D01*
X1158Y685D02*
Y709D01*
X1154Y687D02*
Y706D01*
X1155Y687D02*
Y706D01*
X1157Y686D02*
Y708D01*
X1156Y686D02*
Y707D01*
X1159Y685D02*
Y710D01*
X1160Y684D02*
Y711D01*
X1161Y684D02*
Y712D01*
X1162Y683D02*
Y713D01*
X1164Y682D02*
Y715D01*
X1163Y683D02*
Y714D01*
X1165Y682D02*
Y716D01*
X1144Y698D02*
X1180D01*
X1146Y699D02*
X1179D01*
X1147Y700D02*
X1179D01*
X1149Y701D02*
X1179D01*
X1150Y702D02*
X1178D01*
X1151Y703D02*
X1178D01*
X1152Y704D02*
X1178D01*
X1154Y705D02*
X1178D01*
X1155Y706D02*
X1178D01*
X1156Y707D02*
X1178D01*
X1157Y708D02*
X1178D01*
X1158Y709D02*
X1178D01*
X1159Y710D02*
X1178D01*
X1161Y711D02*
X1178D01*
X1162Y712D02*
X1178D01*
X1163Y713D02*
X1178D01*
X1165Y715D02*
X1178D01*
X1164Y714D02*
X1178D01*
X1167Y681D02*
Y718D01*
X1166Y681D02*
Y717D01*
X1170Y680D02*
Y721D01*
X1168Y681D02*
Y719D01*
X1171Y680D02*
Y721D01*
X1169Y680D02*
Y720D01*
X1173Y679D02*
Y721D01*
X1172Y679D02*
Y721D01*
X1174Y679D02*
Y721D01*
X1166Y716D02*
X1178D01*
X1167Y718D02*
X1178D01*
X1178Y678D02*
Y702D01*
X1167Y717D02*
X1178D01*
X1175Y678D02*
Y721D01*
X1168Y719D02*
X1178D01*
X1176Y678D02*
Y721D01*
X1177Y678D02*
Y721D01*
X1169Y720D02*
X1179D01*
X1170Y721D02*
X1179D01*
X1178Y719D02*
Y721D01*
X1170Y721D02*
X1179D01*
X1174Y726D02*
Y726D01*
X1175Y726D02*
Y727D01*
X1176Y726D02*
Y729D01*
X1177Y726D02*
Y730D01*
X1174Y726D02*
X1180D01*
X1174Y726D02*
X1180D01*
X1178Y726D02*
Y730D01*
X1179Y726D02*
Y730D01*
X1175Y727D02*
X1180D01*
X1176Y728D02*
X1181D01*
X1177Y730D02*
X1181D01*
X1180Y727D02*
Y730D01*
X1177Y729D02*
X1181D01*
X1057Y735D02*
Y739D01*
X1058Y735D02*
Y739D01*
X1059Y735D02*
Y739D01*
X1060Y735D02*
Y739D01*
X1061Y735D02*
Y739D01*
X1062Y735D02*
Y739D01*
X1063Y735D02*
Y739D01*
X1064Y735D02*
Y739D01*
X1065Y735D02*
Y739D01*
X1056Y736D02*
X1087D01*
X1055Y735D02*
X1086D01*
X1066Y735D02*
Y739D01*
X1067Y735D02*
Y739D01*
X1068Y735D02*
Y739D01*
X1056Y737D02*
X1087D01*
X1069Y735D02*
Y739D01*
X1070Y735D02*
Y739D01*
X1071Y735D02*
Y739D01*
X1060Y743D02*
Y744D01*
X1061Y743D02*
Y746D01*
X1062Y743D02*
Y747D01*
X1063Y743D02*
Y748D01*
X1064Y743D02*
Y748D01*
X1065Y743D02*
Y748D01*
X1066Y743D02*
Y748D01*
X1067Y743D02*
Y748D01*
X1057Y739D02*
X1088D01*
X1057Y738D02*
X1088D01*
X1060Y743D02*
X1090D01*
X1060Y744D02*
X1091D01*
X1061Y745D02*
X1091D01*
X1068Y743D02*
Y748D01*
X1062Y746D02*
X1092D01*
X1069Y743D02*
Y748D01*
X1070Y743D02*
Y748D01*
X1071Y743D02*
Y748D01*
X1072Y735D02*
Y739D01*
X1073Y735D02*
Y739D01*
X1074Y735D02*
Y739D01*
X1075Y735D02*
Y739D01*
X1072Y743D02*
Y748D01*
X1073Y743D02*
Y748D01*
X1076Y735D02*
Y739D01*
X1077Y735D02*
Y739D01*
X1078Y735D02*
Y739D01*
X1079Y735D02*
Y739D01*
X1080Y735D02*
Y739D01*
X1081Y735D02*
Y739D01*
X1082Y735D02*
Y739D01*
X1083Y735D02*
Y739D01*
X1084Y735D02*
Y739D01*
X1085Y735D02*
Y739D01*
X1086Y735D02*
Y739D01*
X1087Y738D02*
Y739D01*
X1074Y743D02*
Y748D01*
X1075Y743D02*
Y748D01*
X1076Y743D02*
Y748D01*
X1077Y743D02*
Y748D01*
X1078Y743D02*
Y748D01*
X1079Y743D02*
Y748D01*
X1080Y743D02*
Y748D01*
X1081Y743D02*
Y748D01*
X1082Y743D02*
Y748D01*
X1083Y743D02*
Y748D01*
X1084Y743D02*
Y748D01*
X1085Y743D02*
Y748D01*
X1086Y743D02*
Y748D01*
X1087Y743D02*
Y748D01*
X1088Y743D02*
Y748D01*
X1089Y743D02*
Y748D01*
X1090Y744D02*
Y748D01*
X1091Y745D02*
Y748D01*
X1066Y752D02*
Y753D01*
X1067Y752D02*
Y754D01*
X1068Y752D02*
Y755D01*
X1069Y752D02*
Y756D01*
X1070Y752D02*
Y756D01*
X1071Y752D02*
Y756D01*
X1072Y752D02*
Y756D01*
X1073Y752D02*
Y756D01*
X1062Y747D02*
X1092D01*
X1063Y748D02*
X1093D01*
X1066Y752D02*
X1096D01*
X1067Y753D02*
X1096D01*
X1074Y752D02*
Y756D01*
X1075Y752D02*
Y756D01*
X1076Y752D02*
Y756D01*
X1077Y752D02*
Y756D01*
X1078Y752D02*
Y756D01*
X1079Y752D02*
Y756D01*
X1074Y761D02*
Y762D01*
X1080Y752D02*
Y756D01*
X1081Y752D02*
Y756D01*
X1075Y761D02*
Y763D01*
X1076Y761D02*
Y764D01*
X1077Y761D02*
Y765D01*
X1078Y761D02*
Y766D01*
X1079Y761D02*
Y767D01*
X1068Y754D02*
X1097D01*
X1068Y755D02*
X1098D01*
X1082Y752D02*
Y756D01*
X1083Y752D02*
Y756D01*
X1069Y756D02*
X1099D01*
X1069Y756D02*
X1099D01*
X1073Y761D02*
X1102D01*
X1073Y761D02*
X1102D01*
X1080Y761D02*
Y768D01*
X1074Y762D02*
X1103D01*
X1084Y752D02*
Y756D01*
X1085Y752D02*
Y756D01*
X1086Y752D02*
Y756D01*
X1087Y752D02*
Y756D01*
X1088Y752D02*
Y756D01*
X1081Y761D02*
Y769D01*
X1089Y752D02*
Y756D01*
X1090Y752D02*
Y756D01*
X1091Y752D02*
Y756D01*
X1092Y747D02*
Y748D01*
Y752D02*
Y756D01*
X1093Y752D02*
Y756D01*
X1094Y752D02*
Y756D01*
X1095Y752D02*
Y756D01*
X1096Y753D02*
Y756D01*
X1097Y754D02*
Y756D01*
X1098Y756D02*
Y756D01*
X1082Y761D02*
Y770D01*
X1083Y761D02*
Y771D01*
X1084Y761D02*
Y772D01*
X1085Y761D02*
Y773D01*
X1086Y761D02*
Y774D01*
X1087Y761D02*
Y775D01*
X1088Y761D02*
Y776D01*
X1089Y761D02*
Y777D01*
X1090Y761D02*
Y777D01*
X1091Y761D02*
Y778D01*
X1092Y761D02*
Y779D01*
X1093Y761D02*
Y780D01*
X1094Y761D02*
Y781D01*
X1095Y761D02*
Y781D01*
X1096Y761D02*
Y782D01*
X1097Y761D02*
Y783D01*
X1098Y761D02*
Y784D01*
X1099Y761D02*
Y784D01*
X1100Y761D02*
Y785D01*
X1075Y763D02*
X1104D01*
X1076Y764D02*
X1105D01*
X1077Y765D02*
X1106D01*
X1078Y766D02*
X1107D01*
X1101Y761D02*
Y786D01*
X1102Y761D02*
Y786D01*
X1103Y762D02*
Y787D01*
X1104Y763D02*
Y788D01*
X1105Y765D02*
Y788D01*
X1079Y767D02*
X1108D01*
X1080Y768D02*
X1108D01*
X1081Y769D02*
X1109D01*
X1082Y770D02*
X1110D01*
X1083Y771D02*
X1111D01*
X1106Y766D02*
Y789D01*
X1107Y767D02*
Y790D01*
X1108Y768D02*
Y790D01*
X1084Y772D02*
X1112D01*
X1085Y773D02*
X1113D01*
X1086Y774D02*
X1114D01*
X1088Y775D02*
X1115D01*
X1089Y776D02*
X1117D01*
X1090Y777D02*
X1118D01*
X1091Y778D02*
X1119D01*
X1092Y779D02*
X1120D01*
X1094Y780D02*
X1121D01*
X1095Y781D02*
X1122D01*
X1096Y782D02*
X1124D01*
X1098Y783D02*
X1125D01*
X1099Y784D02*
X1126D01*
X1100Y785D02*
X1128D01*
X1102Y786D02*
X1129D01*
X1103Y787D02*
X1130D01*
X1105Y788D02*
X1132D01*
X1107Y789D02*
X1133D01*
X1108Y790D02*
X1135D01*
X1109Y769D02*
Y791D01*
X1110Y770D02*
Y791D01*
X1181Y735D02*
Y736D01*
X1111Y771D02*
Y792D01*
X1112Y772D02*
Y793D01*
X1113Y773D02*
Y793D01*
X1114Y774D02*
Y794D01*
X1115Y775D02*
Y794D01*
X1116Y776D02*
Y795D01*
X1180Y735D02*
X1183D01*
X1181Y735D02*
X1183D01*
X1182Y735D02*
Y738D01*
X1181Y736D02*
X1184D01*
X1183Y735D02*
Y739D01*
X1182Y737D02*
X1184D01*
X1183Y739D02*
X1185D01*
X1183Y738D02*
X1185D01*
X1117Y777D02*
Y795D01*
X1118Y778D02*
Y796D01*
X1119Y779D02*
Y796D01*
X1120Y779D02*
Y797D01*
X1121Y780D02*
Y797D01*
X1122Y781D02*
Y798D01*
X1123Y782D02*
Y798D01*
X1124Y783D02*
Y799D01*
X1125Y783D02*
Y799D01*
X1110Y791D02*
X1137D01*
X1112Y792D02*
X1138D01*
X1113Y793D02*
X1140D01*
X1115Y794D02*
X1142D01*
X1117Y795D02*
X1144D01*
X1119Y796D02*
X1146D01*
X1121Y797D02*
X1149D01*
X1126Y784D02*
Y799D01*
X1127Y785D02*
Y800D01*
X1128Y786D02*
Y800D01*
X1129Y786D02*
Y801D01*
X1130Y787D02*
Y801D01*
X1131Y788D02*
Y801D01*
X1132Y788D02*
Y802D01*
X1133Y789D02*
Y802D01*
X1134Y790D02*
Y803D01*
X1135Y790D02*
Y803D01*
X1136Y791D02*
Y803D01*
X1137Y792D02*
Y804D01*
X1138Y792D02*
Y804D01*
X1139Y793D02*
Y804D01*
X1140Y793D02*
Y805D01*
X1141Y794D02*
Y805D01*
X1142Y794D02*
Y805D01*
X1143Y795D02*
Y806D01*
X1144Y795D02*
Y806D01*
X1145Y796D02*
Y806D01*
X1123Y798D02*
X1152D01*
X1146Y796D02*
Y806D01*
X1147Y796D02*
Y807D01*
X1148Y797D02*
Y807D01*
X1149Y797D02*
Y807D01*
X1150Y798D02*
Y807D01*
X1151Y798D02*
Y808D01*
X1152Y798D02*
Y808D01*
X1126Y799D02*
X1155D01*
X1128Y800D02*
X1158D01*
X1130Y801D02*
X1165D01*
X1139Y804D02*
X1206D01*
X1133Y802D02*
X1211D01*
X1136Y803D02*
X1209D01*
X1142Y805D02*
X1204D01*
X1149Y807D02*
X1197D01*
X1145Y806D02*
X1201D01*
X1153Y799D02*
Y808D01*
X1154Y799D02*
Y808D01*
X1155Y799D02*
Y809D01*
X1156Y800D02*
Y809D01*
X1157Y800D02*
Y809D01*
X1158Y800D02*
Y809D01*
X1159Y800D02*
Y809D01*
X1160Y800D02*
Y809D01*
X1161Y801D02*
Y810D01*
X1162Y801D02*
Y810D01*
X1164Y801D02*
Y810D01*
X1163Y801D02*
Y810D01*
X1165Y801D02*
Y810D01*
X1167Y801D02*
Y810D01*
X1166Y801D02*
Y810D01*
X1183Y798D02*
Y810D01*
X1168Y801D02*
Y810D01*
X1170Y801D02*
Y810D01*
X1169Y801D02*
Y810D01*
X1176Y801D02*
Y810D01*
X1177Y801D02*
Y810D01*
X1178Y800D02*
Y810D01*
X1171Y801D02*
Y810D01*
X1173Y801D02*
Y810D01*
X1172Y801D02*
Y810D01*
X1174Y801D02*
Y810D01*
X1175Y801D02*
Y810D01*
X1175Y801D02*
X1213D01*
X1179Y800D02*
X1215D01*
X1179Y800D02*
Y810D01*
X1180Y800D02*
Y810D01*
X1182Y799D02*
X1217D01*
X1153Y808D02*
X1193D01*
X1181Y799D02*
Y810D01*
X1167Y810D02*
X1180D01*
X1158Y809D02*
X1188D01*
X1184Y676D02*
Y691D01*
X1189Y676D02*
Y687D01*
X1188Y676D02*
Y688D01*
X1190Y676D02*
Y687D01*
X1182Y677D02*
Y693D01*
X1183Y677D02*
Y692D01*
X1185Y676D02*
Y690D01*
X1186Y676D02*
Y689D01*
X1187Y676D02*
Y688D01*
X1187Y676D02*
X1211D01*
X1194Y675D02*
Y685D01*
X1195Y675D02*
Y685D01*
X1196Y675D02*
Y685D01*
X1191Y676D02*
Y686D01*
X1192Y676D02*
Y686D01*
X1193Y675D02*
Y685D01*
X1197Y675D02*
Y685D01*
X1198Y675D02*
Y684D01*
X1199Y675D02*
Y684D01*
X1200Y675D02*
Y684D01*
X1201Y675D02*
Y684D01*
X1202Y675D02*
Y684D01*
X1203Y675D02*
Y684D01*
X1204Y675D02*
Y684D01*
X1205Y675D02*
Y684D01*
X1206Y676D02*
Y684D01*
X1207Y676D02*
Y684D01*
X1208Y676D02*
Y685D01*
X1209Y676D02*
Y685D01*
X1210Y676D02*
Y685D01*
X1211Y676D02*
Y685D01*
X1212Y685D02*
X1244D01*
X1212Y676D02*
Y685D01*
X1213Y676D02*
Y685D01*
X1214Y677D02*
Y686D01*
X1215Y677D02*
Y686D01*
X1216Y677D02*
Y686D01*
X1217Y677D02*
Y686D01*
X1218Y677D02*
Y687D01*
X1219Y677D02*
Y687D01*
X1220Y678D02*
Y687D01*
X1221Y678D02*
Y688D01*
X1222Y678D02*
Y688D01*
X1223Y678D02*
Y688D01*
X1225Y679D02*
Y689D01*
X1224Y679D02*
Y689D01*
X1226Y679D02*
Y690D01*
X1227Y679D02*
Y690D01*
X1228Y680D02*
Y690D01*
X1229Y680D02*
Y691D01*
X1231Y681D02*
Y692D01*
X1230Y680D02*
Y691D01*
X1232Y681D02*
Y692D01*
X1233Y681D02*
Y693D01*
X1234Y682D02*
Y694D01*
X1217Y686D02*
X1246D01*
X1235Y682D02*
Y694D01*
X1236Y682D02*
Y695D01*
X1237Y683D02*
Y695D01*
X1238Y683D02*
Y696D01*
X1239Y683D02*
Y697D01*
X1240Y684D02*
Y697D01*
X1220Y687D02*
X1248D01*
X1223Y688D02*
X1251D01*
X1225Y689D02*
X1253D01*
X1227Y690D02*
X1255D01*
X1230Y691D02*
X1257D01*
X1232Y692D02*
X1258D01*
X1234Y693D02*
X1260D01*
X1235Y694D02*
X1262D01*
X1237Y695D02*
X1264D01*
X1239Y696D02*
X1265D01*
X1241Y684D02*
Y698D01*
X1242Y685D02*
Y699D01*
X1243Y685D02*
Y699D01*
X1244Y685D02*
Y700D01*
X1245Y686D02*
Y701D01*
X1184Y737D02*
Y739D01*
X1246Y686D02*
Y702D01*
X1247Y687D02*
Y702D01*
X1248Y687D02*
Y703D01*
X1240Y697D02*
X1267D01*
X1242Y698D02*
X1269D01*
X1243Y699D02*
X1270D01*
X1244Y700D02*
X1272D01*
X1246Y701D02*
X1273D01*
X1249Y688D02*
Y704D01*
X1247Y702D02*
X1274D01*
X1248Y703D02*
X1276D01*
X1186Y743D02*
Y744D01*
X1186Y743D02*
X1187D01*
X1186Y744D02*
X1188D01*
X1187Y745D02*
X1188D01*
X1187Y746D02*
X1189D01*
X1187Y743D02*
Y746D01*
X1188Y745D02*
Y748D01*
X1188Y747D02*
X1190D01*
X1189Y747D02*
Y748D01*
X1188D02*
X1190D01*
X1190Y752D02*
X1193D01*
X1190D02*
Y753D01*
X1190Y753D02*
X1194D01*
X1191Y752D02*
Y756D01*
X1192Y752D02*
Y756D01*
X1250Y688D02*
Y705D01*
X1251Y688D02*
Y705D01*
X1252Y689D02*
Y706D01*
X1253Y689D02*
Y707D01*
X1254Y690D02*
Y708D01*
X1255Y690D02*
Y709D01*
X1256Y691D02*
Y710D01*
X1257Y691D02*
Y711D01*
X1258Y692D02*
Y712D01*
X1259Y693D02*
Y713D01*
X1260Y693D02*
Y714D01*
X1261Y694D02*
Y715D01*
X1262Y694D02*
Y716D01*
X1263Y695D02*
Y717D01*
X1264Y695D02*
Y718D01*
X1265Y696D02*
Y719D01*
X1266Y697D02*
Y720D01*
X1267Y697D02*
Y721D01*
X1268Y698D02*
Y721D01*
X1269Y699D02*
Y721D01*
X1270Y699D02*
Y721D01*
X1271Y700D02*
Y721D01*
X1272Y701D02*
Y721D01*
X1271Y726D02*
Y726D01*
X1272Y726D02*
Y727D01*
X1273Y701D02*
Y721D01*
X1274Y702D02*
Y721D01*
X1250Y704D02*
X1277D01*
X1251Y705D02*
X1278D01*
X1275Y703D02*
Y721D01*
X1276Y704D02*
Y721D01*
X1277Y704D02*
Y721D01*
X1273Y726D02*
Y729D01*
X1274Y726D02*
Y730D01*
X1275Y726D02*
Y730D01*
X1276Y726D02*
Y730D01*
X1277Y726D02*
Y730D01*
X1252Y706D02*
X1280D01*
X1253Y707D02*
X1281D01*
X1254Y708D02*
X1282D01*
X1256Y709D02*
X1283D01*
X1278Y705D02*
Y721D01*
X1257Y710D02*
X1285D01*
X1280Y707D02*
Y721D01*
X1279Y706D02*
Y721D01*
X1281Y707D02*
Y721D01*
X1258Y711D02*
X1286D01*
X1259Y712D02*
X1287D01*
X1260Y713D02*
X1288D01*
X1261Y714D02*
X1289D01*
X1262Y715D02*
X1290D01*
X1263Y716D02*
X1291D01*
X1264Y717D02*
X1292D01*
X1265Y718D02*
X1293D01*
X1266Y719D02*
X1294D01*
X1266Y720D02*
X1295D01*
X1267Y721D02*
X1296Y721D01*
X1278Y726D02*
Y730D01*
Y735D02*
Y736D01*
X1280Y726D02*
Y730D01*
X1279Y726D02*
Y730D01*
X1281Y726D02*
Y730D01*
X1267Y721D02*
X1296D01*
X1271Y726D02*
X1300D01*
X1272Y727D02*
X1301D01*
X1271Y726D02*
X1301D01*
X1273Y728D02*
X1302D01*
X1274Y730D02*
X1304Y730D01*
X1274Y729D02*
X1303D01*
X1278Y735D02*
X1307D01*
X1278Y735D02*
X1308D01*
X1279Y736D02*
X1308D01*
X1283Y709D02*
Y721D01*
X1282Y708D02*
Y721D01*
X1284Y710D02*
Y721D01*
X1286Y712D02*
Y721D01*
X1283Y726D02*
Y730D01*
X1282Y726D02*
Y730D01*
X1285Y711D02*
Y721D01*
X1284Y726D02*
Y730D01*
X1286Y726D02*
Y730D01*
X1287Y713D02*
Y721D01*
X1288Y713D02*
Y721D01*
X1289Y714D02*
Y721D01*
X1290Y715D02*
Y721D01*
X1291Y716D02*
Y721D01*
X1292Y717D02*
Y721D01*
X1285Y726D02*
Y730D01*
X1293Y718D02*
Y721D01*
X1294Y719D02*
Y721D01*
X1295Y720D02*
Y721D01*
X1287Y726D02*
Y730D01*
X1289Y726D02*
Y730D01*
X1288Y726D02*
Y730D01*
X1290Y726D02*
Y730D01*
X1292Y726D02*
Y730D01*
X1280Y735D02*
Y739D01*
X1291Y726D02*
Y730D01*
X1293Y726D02*
Y730D01*
X1294Y726D02*
Y730D01*
X1295Y726D02*
Y730D01*
X1296Y726D02*
Y730D01*
X1297Y726D02*
Y730D01*
X1298Y726D02*
Y730D01*
X1299Y726D02*
Y730D01*
X1300Y726D02*
Y730D01*
X1301Y727D02*
Y730D01*
X1302Y728D02*
Y730D01*
X1303Y729D02*
Y730D01*
X1279Y735D02*
Y737D01*
X1281Y735D02*
Y739D01*
X1283Y735D02*
Y739D01*
X1282Y735D02*
Y739D01*
X1284Y735D02*
Y739D01*
X1286Y735D02*
Y739D01*
X1285Y735D02*
Y739D01*
X1287Y735D02*
Y739D01*
X1289Y735D02*
Y739D01*
X1288Y735D02*
Y739D01*
X1290Y735D02*
Y739D01*
X1292Y735D02*
Y739D01*
X1291Y735D02*
Y739D01*
X1279Y737D02*
X1309D01*
X1280Y739D02*
X1310Y739D01*
X1293Y735D02*
Y739D01*
X1294Y735D02*
Y739D01*
X1280Y738D02*
X1310D01*
X1283Y743D02*
Y744D01*
X1284Y743D02*
Y746D01*
X1286Y743D02*
Y747D01*
X1285Y743D02*
Y747D01*
X1287Y743D02*
Y747D01*
X1289Y743D02*
Y747D01*
X1288Y743D02*
Y747D01*
X1290Y743D02*
Y747D01*
X1283Y743D02*
X1313D01*
X1283Y744D02*
X1314D01*
X1292Y743D02*
Y747D01*
X1284Y745D02*
X1314D01*
X1284Y746D02*
X1315D01*
X1285Y747D02*
X1316D01*
X1285Y747D02*
X1316D01*
X1291Y743D02*
Y747D01*
X1293Y743D02*
Y747D01*
X1294Y743D02*
Y747D01*
X1295Y735D02*
Y739D01*
X1296Y735D02*
Y739D01*
X1297Y735D02*
Y739D01*
X1298Y735D02*
Y739D01*
X1295Y743D02*
Y747D01*
X1296Y743D02*
Y747D01*
X1299Y735D02*
Y739D01*
X1297Y743D02*
Y747D01*
X1300Y735D02*
Y739D01*
X1301Y735D02*
Y739D01*
X1302Y735D02*
Y739D01*
X1303Y735D02*
Y739D01*
X1304Y735D02*
Y739D01*
X1305Y735D02*
Y739D01*
X1306Y735D02*
Y739D01*
X1307Y735D02*
Y739D01*
X1308Y736D02*
Y739D01*
X1309Y737D02*
Y739D01*
X1298Y743D02*
Y747D01*
X1299Y743D02*
Y747D01*
X1300Y743D02*
Y747D01*
X1301Y743D02*
Y747D01*
X1302Y743D02*
Y747D01*
X1303Y743D02*
Y747D01*
X1304Y743D02*
Y747D01*
X1305Y743D02*
Y747D01*
X1306Y743D02*
Y747D01*
X1307Y743D02*
Y747D01*
X1308Y743D02*
Y747D01*
X1309Y743D02*
Y747D01*
X1310Y743D02*
Y747D01*
X1311Y743D02*
Y747D01*
X1312Y743D02*
Y747D01*
X1313Y743D02*
Y747D01*
X1314Y745D02*
Y747D01*
X1315Y747D02*
Y747D01*
X1191Y754D02*
X1194D01*
X1191Y755D02*
X1195D01*
X1193Y753D02*
Y756D01*
X1191Y756D02*
X1196D01*
X1193Y761D02*
Y763D01*
X1194Y754D02*
Y756D01*
X1195Y756D02*
Y756D01*
X1194Y761D02*
Y768D01*
X1191Y756D02*
X1196D01*
X1193Y761D02*
X1199D01*
X1193Y761D02*
X1200D01*
X1193Y762D02*
X1200D01*
X1193Y763D02*
X1201D01*
X1194Y764D02*
X1202D01*
X1194Y765D02*
X1203D01*
X1194Y766D02*
X1204D01*
X1194Y767D02*
X1205D01*
X1194Y768D02*
X1206D01*
X1195Y769D02*
X1207D01*
X1195Y770D02*
X1208D01*
X1193Y786D02*
X1226D01*
X1193Y788D02*
X1229D01*
X1195Y771D02*
X1209D01*
X1195Y772D02*
X1210D01*
X1193Y787D02*
X1228D01*
X1190Y792D02*
X1236D01*
X1190Y793D02*
X1237D01*
X1192Y789D02*
X1231D01*
X1192Y790D02*
X1232D01*
X1191Y791D02*
X1234D01*
X1184Y798D02*
X1249D01*
X1187Y796D02*
X1244D01*
X1189Y794D02*
X1239D01*
X1188Y795D02*
X1242D01*
X1185Y797D02*
X1246D01*
X1195Y773D02*
X1211D01*
X1195Y774D02*
X1212D01*
X1195Y775D02*
X1213D01*
X1206Y769D02*
Y804D01*
X1207Y770D02*
Y804D01*
X1208Y771D02*
Y803D01*
X1209Y772D02*
Y803D01*
X1210Y773D02*
Y802D01*
X1195Y776D02*
X1214D01*
X1195Y777D02*
X1215D01*
X1195Y778D02*
X1216D01*
X1195Y779D02*
X1217D01*
X1195Y780D02*
X1218D01*
X1213Y776D02*
Y801D01*
X1214Y777D02*
Y800D01*
X1215Y778D02*
Y800D01*
X1216Y778D02*
Y799D01*
X1194Y781D02*
X1220D01*
X1194Y782D02*
X1221D01*
X1217Y779D02*
Y799D01*
X1194Y783D02*
X1222D01*
X1218Y780D02*
Y799D01*
X1219Y781D02*
Y799D01*
X1220Y782D02*
Y800D01*
X1194Y785D02*
X1225D01*
X1194Y784D02*
X1223D01*
X1221Y783D02*
Y800D01*
X1222Y783D02*
Y800D01*
X1223Y784D02*
Y801D01*
X1219Y799D02*
X1252D01*
X1222Y800D02*
X1256D01*
X1224Y785D02*
Y801D01*
X1224Y801D02*
X1264D01*
X1197Y761D02*
Y807D01*
X1198Y761D02*
Y807D01*
X1199Y761D02*
Y806D01*
X1200Y762D02*
Y806D01*
X1193Y786D02*
Y808D01*
X1192Y789D02*
Y808D01*
X1195Y761D02*
Y808D01*
X1194Y782D02*
Y808D01*
X1196Y761D02*
Y807D01*
X1211Y774D02*
Y802D01*
X1212Y775D02*
Y801D01*
X1225Y786D02*
Y801D01*
X1226Y786D02*
Y802D01*
X1201Y763D02*
Y806D01*
X1202Y764D02*
Y805D01*
X1203Y766D02*
Y805D01*
X1205Y768D02*
Y804D01*
X1182Y799D02*
Y810D01*
X1184Y798D02*
Y810D01*
X1185Y797D02*
Y809D01*
X1186Y796D02*
Y809D01*
X1187Y795D02*
Y809D01*
X1188Y794D02*
Y809D01*
X1190Y792D02*
Y809D01*
X1189Y793D02*
Y809D01*
X1191Y791D02*
Y808D01*
X1228Y788D02*
Y802D01*
X1227Y787D02*
Y802D01*
X1229Y788D02*
Y803D01*
X1230Y789D02*
Y803D01*
X1231Y790D02*
Y803D01*
X1232Y790D02*
Y804D01*
X1233Y791D02*
Y804D01*
X1234Y791D02*
Y804D01*
X1235Y792D02*
Y804D01*
X1236Y793D02*
Y805D01*
X1237Y793D02*
Y805D01*
X1238Y794D02*
Y805D01*
X1239Y794D02*
Y805D01*
X1240Y795D02*
Y806D01*
X1241Y795D02*
Y806D01*
X1242Y795D02*
Y806D01*
X1243Y796D02*
Y806D01*
X1244Y796D02*
Y806D01*
X1245Y797D02*
Y807D01*
X1246Y797D02*
Y807D01*
X1247Y797D02*
Y807D01*
X1248Y798D02*
Y807D01*
X1249Y798D02*
Y807D01*
X1250Y799D02*
Y807D01*
X1251Y799D02*
Y807D01*
X1252Y799D02*
Y808D01*
X1253Y799D02*
Y808D01*
X1254Y800D02*
Y808D01*
X1255Y800D02*
Y808D01*
X1256Y800D02*
Y808D01*
X1257Y800D02*
Y808D01*
X1258Y800D02*
Y808D01*
X1259Y801D02*
Y808D01*
X1260Y801D02*
Y808D01*
X1261Y801D02*
Y808D01*
X1262Y801D02*
Y808D01*
X1263Y801D02*
Y808D01*
X1264Y801D02*
Y808D01*
X1265Y801D02*
Y808D01*
X1266Y801D02*
Y808D01*
X1267Y801D02*
Y808D01*
X1268Y801D02*
Y808D01*
X1269Y801D02*
Y808D01*
X1270Y801D02*
Y808D01*
X1271Y801D02*
Y808D01*
X1272Y801D02*
Y808D01*
X1287Y752D02*
Y753D01*
X1289Y752D02*
Y756D01*
X1288Y752D02*
Y756D01*
X1290Y752D02*
Y756D01*
Y761D02*
Y763D01*
X1292Y752D02*
Y756D01*
X1291Y752D02*
Y756D01*
X1293Y752D02*
Y756D01*
X1287Y752D02*
X1319D01*
X1287Y753D02*
X1319D01*
X1288Y754D02*
X1320D01*
X1288Y755D02*
X1320D01*
X1288Y756D02*
X1320D01*
X1289Y756D02*
X1321D01*
X1294Y752D02*
Y756D01*
X1290Y761D02*
X1322D01*
X1290Y761D02*
X1322D01*
X1290Y762D02*
X1322D01*
X1291Y763D02*
X1323D01*
X1291Y764D02*
X1323D01*
X1291Y765D02*
X1323D01*
X1291Y766D02*
X1323D01*
X1291Y761D02*
Y768D01*
X1291Y785D02*
X1320D01*
X1291Y767D02*
X1323D01*
X1291Y768D02*
X1323D01*
X1292Y769D02*
X1323D01*
X1292Y770D02*
X1323D01*
X1292Y771D02*
X1323D01*
X1292Y773D02*
X1323D01*
X1291Y782D02*
X1322D01*
X1292Y772D02*
X1323D01*
X1292Y774D02*
X1323D01*
X1292Y776D02*
X1323D01*
X1295Y752D02*
Y756D01*
X1296Y752D02*
Y756D01*
X1297Y752D02*
Y756D01*
X1298Y752D02*
Y756D01*
X1299Y752D02*
Y756D01*
X1300Y752D02*
Y756D01*
X1301Y752D02*
Y756D01*
X1302Y752D02*
Y756D01*
X1303Y752D02*
Y756D01*
X1304Y752D02*
Y756D01*
X1305Y752D02*
Y756D01*
X1306Y752D02*
Y756D01*
X1307Y752D02*
Y756D01*
X1308Y752D02*
Y756D01*
X1309Y752D02*
Y756D01*
X1310Y752D02*
Y756D01*
X1311Y752D02*
Y756D01*
X1312Y752D02*
Y756D01*
X1313Y752D02*
Y756D01*
X1314Y752D02*
Y756D01*
X1315Y752D02*
Y756D01*
X1316Y752D02*
Y756D01*
X1317Y752D02*
Y756D01*
X1318Y752D02*
Y756D01*
X1319Y754D02*
Y756D01*
X1320Y756D02*
Y756D01*
Y761D02*
Y785D01*
X1292Y775D02*
X1323D01*
X1292Y777D02*
X1323D01*
X1322Y762D02*
Y779D01*
X1323Y769D02*
Y772D01*
X1292Y779D02*
X1322D01*
X1292Y778D02*
X1323D01*
X1321Y761D02*
Y782D01*
X1292Y780D02*
X1322D01*
X1291Y781D02*
X1322D01*
X1280Y798D02*
Y808D01*
X1287Y792D02*
Y807D01*
X1286Y793D02*
Y807D01*
X1279Y799D02*
Y808D01*
X1284Y795D02*
Y807D01*
X1281Y798D02*
Y808D01*
X1285Y794D02*
Y807D01*
X1288Y791D02*
X1317D01*
X1286Y794D02*
X1315D01*
X1291Y783D02*
X1321D01*
X1291Y784D02*
X1321D01*
X1282Y797D02*
X1312D01*
X1281Y798D02*
X1311D01*
X1287Y792D02*
X1316D01*
X1285Y795D02*
X1314D01*
X1287Y793D02*
X1315D01*
X1273Y801D02*
Y808D01*
X1274Y800D02*
Y808D01*
X1275Y800D02*
Y808D01*
X1276Y800D02*
Y808D01*
X1277Y800D02*
Y808D01*
X1258Y808D02*
X1278D01*
X1283Y796D02*
Y808D01*
X1278Y799D02*
Y808D01*
X1282Y797D02*
Y808D01*
X1269Y801D02*
X1306D01*
X1234Y804D02*
X1300D01*
X1284Y796D02*
X1313D01*
X1276Y800D02*
X1308D01*
X1279Y799D02*
X1309D01*
X1227Y802D02*
X1305D01*
X1231Y803D02*
X1303D01*
X1238Y805D02*
X1297D01*
X1249Y807D02*
X1287D01*
X1243Y806D02*
X1293D01*
X1292Y761D02*
Y806D01*
X1293Y761D02*
Y806D01*
X1294Y761D02*
Y806D01*
X1300Y761D02*
Y804D01*
X1295Y761D02*
Y806D01*
X1296Y761D02*
Y805D01*
X1297Y761D02*
Y805D01*
X1298Y761D02*
Y805D01*
X1299Y761D02*
Y804D01*
X1306Y761D02*
Y801D01*
X1307Y761D02*
Y800D01*
X1308Y761D02*
Y800D01*
X1309Y761D02*
Y799D01*
X1311Y761D02*
Y797D01*
X1301Y761D02*
Y804D01*
X1302Y761D02*
Y803D01*
X1303Y761D02*
Y803D01*
X1304Y761D02*
Y802D01*
X1305Y761D02*
Y802D01*
X1312Y761D02*
Y796D01*
X1314Y761D02*
Y794D01*
X1315Y761D02*
Y793D01*
X1313Y761D02*
Y795D01*
X1289Y789D02*
Y807D01*
X1288Y790D02*
Y807D01*
X1310Y761D02*
Y798D01*
X1291Y782D02*
Y806D01*
X1290Y786D02*
Y807D01*
X1290Y786D02*
X1320D01*
X1290Y788D02*
X1319D01*
X1318Y761D02*
Y789D01*
X1319Y761D02*
Y787D01*
X1290Y787D02*
X1319D01*
X1289Y789D02*
X1318D01*
X1289Y790D02*
X1318D01*
X1316Y761D02*
Y792D01*
X1317Y761D02*
Y790D01*
D87*
X1441Y1014D02*
G03*
X1441Y1014I-6J0D01*
G01*
X1099Y836D02*
G03*
X1099Y836I-13J0D01*
G01*
X1330Y1279D02*
X1335Y1274D01*
X1345Y1284D01*
X1355Y1274D01*
X1360Y1279D01*
X1285Y1284D02*
X1290Y1279D01*
X1275Y1274D02*
X1285Y1284D01*
X1265D02*
X1275Y1274D01*
X1260Y1279D02*
X1265Y1284D01*
X1400Y1279D02*
X1405Y1274D01*
X1415Y1284D01*
X1425Y1274D01*
X1430Y1279D01*
X3206Y856D02*
Y1178D01*
Y856D02*
X3608D01*
Y1257D01*
X3285D02*
X3608D01*
X3206Y1178D02*
X3285Y1257D01*
X2355Y2249D02*
X2360Y2244D01*
X2355Y2249D02*
X2365Y2259D01*
X2355Y2269D02*
X2365Y2259D01*
X2355Y2269D02*
X2360Y2274D01*
X930Y1629D02*
X935Y1624D01*
X945Y1634D01*
X955Y1624D01*
X960Y1629D01*
X855D02*
X860Y1624D01*
X870Y1634D01*
X880Y1624D01*
X885Y1629D01*
X670D02*
X675Y1624D01*
X685Y1634D01*
X695Y1624D01*
X700Y1629D01*
X735Y1964D02*
X740Y1969D01*
X730Y1979D02*
X740Y1969D01*
X730Y1979D02*
X740Y1989D01*
X735Y1994D02*
X740Y1989D01*
X1075Y1819D02*
X1080Y1824D01*
X1075Y1819D02*
X1085Y1809D01*
X1075Y1799D02*
X1085Y1809D01*
X1075Y1799D02*
X1080Y1794D01*
X1075Y1887D02*
Y1911D01*
X1085Y1887D02*
Y1911D01*
X1069Y1899D02*
X1075D01*
X1085D02*
X1091D01*
X1540Y1887D02*
Y1911D01*
X1550Y1887D02*
Y1911D01*
X1534Y1899D02*
X1540D01*
X1550D02*
X1556D01*
X1545Y1794D02*
X1550Y1799D01*
X1540Y1809D02*
X1550Y1799D01*
X1540Y1809D02*
X1550Y1819D01*
X1545Y1824D02*
X1550Y1819D01*
X1545Y1729D02*
X1550Y1734D01*
X1540Y1744D02*
X1550Y1734D01*
X1540Y1744D02*
X1550Y1754D01*
X1545Y1759D02*
X1550Y1754D01*
X1383Y1634D02*
X1407D01*
X1383Y1624D02*
X1407D01*
X1395Y1634D02*
Y1640D01*
Y1618D02*
Y1624D01*
X1310Y1629D02*
X1315Y1624D01*
X1325Y1634D01*
X1335Y1624D01*
X1340Y1629D01*
X1243Y1634D02*
X1267D01*
X1243Y1624D02*
X1267D01*
X1255Y1634D02*
Y1640D01*
Y1618D02*
Y1624D01*
X1165Y1629D02*
X1170Y1624D01*
X1180Y1634D01*
X1190Y1624D01*
X1195Y1629D01*
X1240Y939D02*
X1245Y944D01*
X1240Y939D02*
X1250Y929D01*
X1240Y919D02*
X1250Y929D01*
X1240Y919D02*
X1245Y914D01*
X2165Y534D02*
X2170Y529D01*
X2160Y519D02*
X2170Y529D01*
X2160Y519D02*
X2170Y509D01*
X2165Y504D02*
X2170Y509D01*
X1095Y1499D02*
Y1505D01*
Y1483D02*
Y1489D01*
X1083Y1499D02*
X1107D01*
X1083Y1489D02*
X1107D01*
X1160Y1499D02*
Y1505D01*
Y1483D02*
Y1489D01*
X1148Y1499D02*
X1172D01*
X1148Y1489D02*
X1172D01*
X1250Y1099D02*
X1256D01*
X1234D02*
X1240D01*
X1250Y1087D02*
Y1111D01*
X1240Y1087D02*
Y1111D01*
X1250Y1034D02*
X1256D01*
X1234D02*
X1240D01*
X1250Y1022D02*
Y1046D01*
X1240Y1022D02*
Y1046D01*
X595Y1629D02*
X600Y1624D01*
X610Y1634D01*
X620Y1624D01*
X625Y1629D01*
X2160Y379D02*
X2165Y374D01*
X2160Y379D02*
X2170Y389D01*
X2160Y399D02*
X2170Y389D01*
X2160Y399D02*
X2165Y404D01*
X1330Y1139D02*
X1335Y1134D01*
X1345Y1144D01*
X1355Y1134D01*
X1360Y1139D01*
X1240Y1159D02*
X1245Y1154D01*
X1240Y1159D02*
X1250Y1169D01*
X1240Y1179D02*
X1250Y1169D01*
X1240Y1179D02*
X1245Y1184D01*
X2160Y249D02*
X2165Y244D01*
X2160Y249D02*
X2170Y259D01*
X2160Y269D02*
X2170Y259D01*
X2160Y269D02*
X2165Y274D01*
X2160Y119D02*
X2165Y114D01*
X2160Y119D02*
X2170Y129D01*
X2160Y139D02*
X2170Y129D01*
X2160Y139D02*
X2165Y144D01*
X1415Y1144D02*
Y1150D01*
Y1128D02*
Y1134D01*
X1403Y1144D02*
X1427D01*
X1403Y1134D02*
X1427D01*
X1570Y1389D02*
X1567Y1392D01*
X1563Y1394D01*
X1557D01*
X1553Y1392D01*
X1550Y1389D01*
Y1387D01*
X1551Y1384D01*
X1553Y1382D01*
X1556Y1381D01*
X1564Y1378D01*
X1567Y1377D01*
X1569Y1375D01*
X1570Y1372D01*
Y1368D01*
X1567Y1365D01*
X1563Y1364D01*
X1557D01*
X1553Y1365D01*
X1550Y1368D01*
X1577Y1394D02*
X1584Y1364D01*
X1591Y1394D02*
X1584Y1364D01*
X1591Y1394D02*
X1598Y1364D01*
X1605Y1394D02*
X1598Y1364D01*
X1626Y1394D02*
X1611Y1374D01*
X1633D01*
X1626Y1394D02*
Y1364D01*
X1975Y1379D02*
X1972Y1382D01*
X1968Y1384D01*
X1962D01*
X1958Y1382D01*
X1955Y1379D01*
Y1377D01*
X1956Y1374D01*
X1958Y1372D01*
X1961Y1371D01*
X1969Y1368D01*
X1972Y1367D01*
X1974Y1365D01*
X1975Y1362D01*
Y1358D01*
X1972Y1355D01*
X1968Y1354D01*
X1962D01*
X1958Y1355D01*
X1955Y1358D01*
X1982Y1384D02*
X1989Y1354D01*
X1996Y1384D02*
X1989Y1354D01*
X1996Y1384D02*
X2003Y1354D01*
X2010Y1384D02*
X2003Y1354D01*
X2019Y1384D02*
X2035D01*
X2026Y1372D01*
X2031D01*
X2033Y1371D01*
X2035Y1369D01*
X2036Y1365D01*
Y1362D01*
X2035Y1358D01*
X2032Y1355D01*
X2028Y1354D01*
X2023D01*
X2019Y1355D01*
X2018Y1357D01*
X2016Y1359D01*
X1210Y1289D02*
X1240D01*
X1210D02*
Y1302D01*
X1211Y1306D01*
X1213Y1307D01*
X1216Y1309D01*
X1219D01*
X1221Y1307D01*
X1223Y1306D01*
X1224Y1302D01*
Y1289D01*
Y1299D02*
X1240Y1309D01*
X1210Y1335D02*
X1240Y1321D01*
X1210Y1315D02*
Y1335D01*
X1217Y1344D02*
X1216D01*
X1213Y1345D01*
X1211Y1346D01*
X1210Y1349D01*
Y1355D01*
X1211Y1358D01*
X1213Y1359D01*
X1216Y1361D01*
X1219D01*
X1221Y1359D01*
X1226Y1356D01*
X1240Y1342D01*
Y1362D01*
X1170Y1289D02*
X1200D01*
X1170D02*
Y1302D01*
X1171Y1306D01*
X1173Y1307D01*
X1176Y1309D01*
X1179D01*
X1181Y1307D01*
X1183Y1306D01*
X1184Y1302D01*
Y1289D01*
Y1299D02*
X1200Y1309D01*
X1170Y1335D02*
X1200Y1321D01*
X1170Y1315D02*
Y1335D01*
X1176Y1342D02*
X1174Y1345D01*
X1170Y1349D01*
X1200D01*
X1130Y1289D02*
X1160D01*
X1130D02*
Y1302D01*
X1131Y1306D01*
X1133Y1307D01*
X1136Y1309D01*
X1139D01*
X1141Y1307D01*
X1143Y1306D01*
X1144Y1302D01*
Y1289D01*
Y1299D02*
X1160Y1309D01*
X1130Y1335D02*
X1160Y1321D01*
X1130Y1315D02*
Y1335D01*
Y1351D02*
X1131Y1346D01*
X1136Y1344D01*
X1143Y1342D01*
X1147D01*
X1154Y1344D01*
X1159Y1346D01*
X1160Y1351D01*
Y1354D01*
X1159Y1358D01*
X1154Y1361D01*
X1147Y1362D01*
X1143D01*
X1136Y1361D01*
X1131Y1358D01*
X1130Y1354D01*
Y1351D01*
X4021Y960D02*
X4011D01*
X4016D01*
Y935D01*
X4011Y930D01*
X4006D01*
X4001Y935D01*
X4031Y930D02*
X4041D01*
X4036D01*
Y960D01*
X4031Y955D01*
X3835Y1646D02*
Y1616D01*
Y1646D02*
X3845D01*
X3849Y1645D01*
X3852Y1642D01*
X3854Y1639D01*
X3855Y1635D01*
Y1628D01*
X3854Y1623D01*
X3852Y1621D01*
X3849Y1618D01*
X3845Y1616D01*
X3835D01*
X3862Y1641D02*
X3865Y1642D01*
X3869Y1646D01*
Y1616D01*
X3395Y2195D02*
Y2165D01*
Y2195D02*
X3405D01*
X3409Y2194D01*
X3412Y2191D01*
X3414Y2188D01*
X3415Y2184D01*
Y2176D01*
X3414Y2172D01*
X3412Y2169D01*
X3409Y2166D01*
X3405Y2165D01*
X3395D01*
X3439Y2195D02*
X3425D01*
X3423Y2182D01*
X3425Y2184D01*
X3429Y2185D01*
X3433D01*
X3437Y2184D01*
X3440Y2181D01*
X3442Y2176D01*
Y2174D01*
X3440Y2169D01*
X3437Y2166D01*
X3433Y2165D01*
X3429D01*
X3425Y2166D01*
X3423Y2168D01*
X3422Y2171D01*
X3975Y1645D02*
Y1615D01*
Y1645D02*
X3985D01*
X3989Y1644D01*
X3992Y1641D01*
X3994Y1638D01*
X3995Y1634D01*
Y1626D01*
X3994Y1622D01*
X3992Y1619D01*
X3989Y1616D01*
X3985Y1615D01*
X3975D01*
X4002Y1639D02*
X4005Y1641D01*
X4009Y1645D01*
Y1615D01*
X4038Y1645D02*
X4024Y1625D01*
X4045D01*
X4038Y1645D02*
Y1615D01*
X2996Y1525D02*
Y1500D01*
X3001Y1495D01*
X3011D01*
X3016Y1500D01*
Y1525D01*
X3026Y1520D02*
X3031Y1525D01*
X3041D01*
X3046Y1520D01*
Y1515D01*
X3041Y1510D01*
X3036D01*
X3041D01*
X3046Y1505D01*
Y1500D01*
X3041Y1495D01*
X3031D01*
X3026Y1500D01*
X3382Y842D02*
Y817D01*
X3387Y812D01*
X3397D01*
X3402Y817D01*
Y842D01*
X3432Y812D02*
X3412D01*
X3432Y832D01*
Y837D01*
X3427Y842D01*
X3417D01*
X3412Y837D01*
X4035Y2051D02*
Y2026D01*
X4040Y2021D01*
X4050D01*
X4055Y2026D01*
Y2051D01*
X4065Y2021D02*
X4075D01*
X4070D01*
Y2051D01*
X4065Y2046D01*
X3501Y302D02*
X3471D01*
Y317D01*
X3476Y322D01*
X3486D01*
X3491Y317D01*
Y302D01*
Y312D02*
X3501Y322D01*
Y352D02*
Y332D01*
X3481Y352D01*
X3476D01*
X3471Y347D01*
Y337D01*
X3476Y332D01*
X3471Y382D02*
Y362D01*
X3486D01*
X3481Y372D01*
Y377D01*
X3486Y382D01*
X3496D01*
X3501Y377D01*
Y367D01*
X3496Y362D01*
X3785Y1330D02*
X3755D01*
Y1345D01*
X3760Y1350D01*
X3770D01*
X3775Y1345D01*
Y1330D01*
Y1340D02*
X3785Y1350D01*
Y1380D02*
Y1360D01*
X3765Y1380D01*
X3760D01*
X3755Y1375D01*
Y1365D01*
X3760Y1360D01*
X3785Y1405D02*
X3755D01*
X3770Y1390D01*
Y1410D01*
X3740Y1331D02*
X3710D01*
Y1346D01*
X3715Y1351D01*
X3725D01*
X3730Y1346D01*
Y1331D01*
Y1341D02*
X3740Y1351D01*
Y1381D02*
Y1361D01*
X3720Y1381D01*
X3715D01*
X3710Y1376D01*
Y1366D01*
X3715Y1361D01*
Y1391D02*
X3710Y1396D01*
Y1406D01*
X3715Y1411D01*
X3720D01*
X3725Y1406D01*
Y1401D01*
Y1406D01*
X3730Y1411D01*
X3735D01*
X3740Y1406D01*
Y1396D01*
X3735Y1391D01*
X3556Y570D02*
X3526D01*
Y585D01*
X3531Y590D01*
X3541D01*
X3546Y585D01*
Y570D01*
Y580D02*
X3556Y590D01*
Y620D02*
Y600D01*
X3536Y620D01*
X3531D01*
X3526Y615D01*
Y605D01*
X3531Y600D01*
X3556Y650D02*
Y630D01*
X3536Y650D01*
X3531D01*
X3526Y645D01*
Y635D01*
X3531Y630D01*
X3405Y1660D02*
Y1690D01*
X3420D01*
X3425Y1685D01*
Y1675D01*
X3420Y1670D01*
X3405D01*
X3415D02*
X3425Y1660D01*
X3455D02*
X3435D01*
X3455Y1680D01*
Y1685D01*
X3450Y1690D01*
X3440D01*
X3435Y1685D01*
X3465Y1660D02*
X3475D01*
X3470D01*
Y1690D01*
X3465Y1685D01*
X3695Y1331D02*
X3665D01*
Y1346D01*
X3670Y1351D01*
X3680D01*
X3685Y1346D01*
Y1331D01*
Y1341D02*
X3695Y1351D01*
Y1381D02*
Y1361D01*
X3675Y1381D01*
X3670D01*
X3665Y1376D01*
Y1366D01*
X3670Y1361D01*
Y1391D02*
X3665Y1396D01*
Y1406D01*
X3670Y1411D01*
X3690D01*
X3695Y1406D01*
Y1396D01*
X3690Y1391D01*
X3670D01*
X3650Y1331D02*
X3620D01*
Y1346D01*
X3625Y1351D01*
X3635D01*
X3640Y1346D01*
Y1331D01*
Y1341D02*
X3650Y1351D01*
Y1361D02*
Y1371D01*
Y1366D01*
X3620D01*
X3625Y1361D01*
X3645Y1386D02*
X3650Y1391D01*
Y1401D01*
X3645Y1406D01*
X3625D01*
X3620Y1401D01*
Y1391D01*
X3625Y1386D01*
X3630D01*
X3635Y1391D01*
Y1406D01*
X3705Y1821D02*
Y1851D01*
X3720D01*
X3725Y1846D01*
Y1836D01*
X3720Y1831D01*
X3705D01*
X3715D02*
X3725Y1821D01*
X3735D02*
X3745D01*
X3740D01*
Y1851D01*
X3735Y1846D01*
X3760Y1851D02*
X3780D01*
Y1846D01*
X3760Y1826D01*
Y1821D01*
X3711Y895D02*
X3681D01*
Y910D01*
X3686Y915D01*
X3696D01*
X3701Y910D01*
Y895D01*
Y905D02*
X3711Y915D01*
Y925D02*
Y935D01*
Y930D01*
X3681D01*
X3686Y925D01*
X3681Y970D02*
X3686Y960D01*
X3696Y950D01*
X3706D01*
X3711Y955D01*
Y965D01*
X3706Y970D01*
X3701D01*
X3696Y965D01*
Y950D01*
X3756Y895D02*
X3726D01*
Y910D01*
X3731Y915D01*
X3741D01*
X3746Y910D01*
Y895D01*
Y905D02*
X3756Y915D01*
Y925D02*
Y935D01*
Y930D01*
X3726D01*
X3731Y925D01*
X3726Y970D02*
Y950D01*
X3741D01*
X3736Y960D01*
Y965D01*
X3741Y970D01*
X3751D01*
X3756Y965D01*
Y955D01*
X3751Y950D01*
X3180Y1591D02*
X3150D01*
Y1606D01*
X3155Y1611D01*
X3165D01*
X3170Y1606D01*
Y1591D01*
Y1601D02*
X3180Y1611D01*
Y1621D02*
Y1631D01*
Y1626D01*
X3150D01*
X3155Y1621D01*
X3180Y1661D02*
X3150D01*
X3165Y1646D01*
Y1666D01*
X3150Y1215D02*
Y1245D01*
X3165D01*
X3170Y1240D01*
Y1230D01*
X3165Y1225D01*
X3150D01*
X3160D02*
X3170Y1215D01*
X3180D02*
X3190D01*
X3185D01*
Y1245D01*
X3180Y1240D01*
X3205D02*
X3210Y1245D01*
X3220D01*
X3225Y1240D01*
Y1235D01*
X3220Y1230D01*
X3215D01*
X3220D01*
X3225Y1225D01*
Y1220D01*
X3220Y1215D01*
X3210D01*
X3205Y1220D01*
X3241Y308D02*
X3211D01*
Y323D01*
X3216Y328D01*
X3226D01*
X3231Y323D01*
Y308D01*
Y318D02*
X3241Y328D01*
Y338D02*
Y348D01*
Y343D01*
X3211D01*
X3216Y338D01*
X3241Y363D02*
Y373D01*
Y368D01*
X3211D01*
X3216Y363D01*
X3865Y1306D02*
Y1336D01*
X3880D01*
X3885Y1331D01*
Y1321D01*
X3880Y1316D01*
X3865D01*
X3875D02*
X3885Y1306D01*
X3915Y1336D02*
X3895D01*
Y1321D01*
X3905Y1326D01*
X3910D01*
X3915Y1321D01*
Y1311D01*
X3910Y1306D01*
X3900D01*
X3895Y1311D01*
X3185Y962D02*
X3155D01*
Y977D01*
X3160Y982D01*
X3170D01*
X3175Y977D01*
Y962D01*
Y972D02*
X3185Y982D01*
X3160Y992D02*
X3155Y997D01*
Y1007D01*
X3160Y1012D01*
X3165D01*
X3170Y1007D01*
Y1002D01*
Y1007D01*
X3175Y1012D01*
X3180D01*
X3185Y1007D01*
Y997D01*
X3180Y992D01*
X3760Y1755D02*
Y1775D01*
X3755Y1780D01*
X3745D01*
X3740Y1775D01*
Y1755D01*
X3745Y1750D01*
X3755D01*
X3750Y1760D02*
X3760Y1750D01*
X3755D02*
X3760Y1755D01*
X3785Y1750D02*
Y1780D01*
X3770Y1765D01*
X3790D01*
X3550Y1755D02*
Y1775D01*
X3545Y1780D01*
X3535D01*
X3530Y1775D01*
Y1755D01*
X3535Y1750D01*
X3545D01*
X3540Y1760D02*
X3550Y1750D01*
X3545D02*
X3550Y1755D01*
X3560Y1775D02*
X3565Y1780D01*
X3575D01*
X3580Y1775D01*
Y1770D01*
X3575Y1765D01*
X3570D01*
X3575D01*
X3580Y1760D01*
Y1755D01*
X3575Y1750D01*
X3565D01*
X3560Y1755D01*
X3920Y1596D02*
Y1616D01*
X3915Y1621D01*
X3905D01*
X3900Y1616D01*
Y1596D01*
X3905Y1591D01*
X3915D01*
X3910Y1601D02*
X3920Y1591D01*
X3915D02*
X3920Y1596D01*
X3930Y1591D02*
X3940D01*
X3935D01*
Y1621D01*
X3930Y1616D01*
X3351Y444D02*
X3380D01*
Y459D01*
X3375Y464D01*
X3355D01*
X3351Y459D01*
Y444D01*
X3355Y474D02*
X3351Y479D01*
Y489D01*
X3355Y494D01*
X3360D01*
X3365Y489D01*
Y484D01*
Y489D01*
X3370Y494D01*
X3375D01*
X3380Y489D01*
Y479D01*
X3375Y474D01*
X4050Y1946D02*
X4045Y1941D01*
Y1931D01*
X4050Y1926D01*
X4070D01*
X4075Y1931D01*
Y1941D01*
X4070Y1946D01*
X4075Y1971D02*
X4045D01*
X4060Y1956D01*
Y1976D01*
X3866Y945D02*
X3861Y940D01*
Y930D01*
X3866Y925D01*
X3886D01*
X3891Y930D01*
Y940D01*
X3886Y945D01*
X3866Y955D02*
X3861Y960D01*
Y970D01*
X3866Y975D01*
X3871D01*
X3876Y970D01*
Y965D01*
Y970D01*
X3881Y975D01*
X3886D01*
X3891Y970D01*
Y960D01*
X3886Y955D01*
X3155Y1040D02*
X3185D01*
X3155D02*
Y1053D01*
X3156Y1057D01*
X3158Y1059D01*
X3161Y1060D01*
X3164D01*
X3166Y1059D01*
X3168Y1057D01*
X3169Y1053D01*
Y1040D01*
Y1050D02*
X3185Y1060D01*
X3162Y1068D02*
X3161D01*
X3158Y1070D01*
X3156Y1071D01*
X3155Y1074D01*
Y1080D01*
X3156Y1082D01*
X3158Y1084D01*
X3161Y1085D01*
X3164D01*
X3166Y1084D01*
X3171Y1081D01*
X3185Y1067D01*
Y1087D01*
X3195Y1591D02*
X3225D01*
X3195D02*
Y1604D01*
X3196Y1608D01*
X3198Y1610D01*
X3201Y1611D01*
X3204D01*
X3206Y1610D01*
X3208Y1608D01*
X3209Y1604D01*
Y1591D01*
Y1601D02*
X3225Y1611D01*
X3201Y1618D02*
X3199Y1621D01*
X3195Y1625D01*
X3225D01*
X3195Y1649D02*
X3196Y1644D01*
X3201Y1641D01*
X3208Y1640D01*
X3212D01*
X3219Y1641D01*
X3224Y1644D01*
X3225Y1649D01*
Y1651D01*
X3224Y1656D01*
X3219Y1659D01*
X3212Y1660D01*
X3208D01*
X3201Y1659D01*
X3196Y1656D01*
X3195Y1651D01*
Y1649D01*
X3010Y2016D02*
X3007Y2019D01*
X3003Y2020D01*
X2997D01*
X2993Y2019D01*
X2990Y2016D01*
Y2013D01*
X2991Y2010D01*
X2993Y2009D01*
X2996Y2007D01*
X3004Y2004D01*
X3007Y2003D01*
X3009Y2001D01*
X3010Y1999D01*
Y1994D01*
X3007Y1991D01*
X3003Y1990D01*
X2997D01*
X2993Y1991D01*
X2990Y1994D01*
X3017Y2020D02*
X3024Y1990D01*
X3031Y2020D02*
X3024Y1990D01*
X3031Y2020D02*
X3038Y1990D01*
X3045Y2020D02*
X3038Y1990D01*
X3051Y2014D02*
X3054Y2016D01*
X3058Y2020D01*
Y1990D01*
X3361Y308D02*
X3391D01*
X3361D02*
Y321D01*
X3362Y325D01*
X3363Y327D01*
X3366Y328D01*
X3369D01*
X3372Y327D01*
X3373Y325D01*
X3375Y321D01*
Y308D01*
Y318D02*
X3391Y328D01*
X3371Y354D02*
X3375Y352D01*
X3378Y349D01*
X3379Y345D01*
Y344D01*
X3378Y339D01*
X3375Y336D01*
X3371Y335D01*
X3369D01*
X3365Y336D01*
X3362Y339D01*
X3361Y344D01*
Y345D01*
X3362Y349D01*
X3365Y352D01*
X3371Y354D01*
X3378D01*
X3385Y352D01*
X3389Y349D01*
X3391Y345D01*
Y342D01*
X3389Y338D01*
X3386Y336D01*
X3163Y1311D02*
Y1281D01*
Y1311D02*
X3176D01*
X3180Y1310D01*
X3182Y1308D01*
X3183Y1306D01*
Y1303D01*
X3182Y1300D01*
X3180Y1298D01*
X3176Y1297D01*
X3163D01*
X3173D02*
X3183Y1281D01*
X3197Y1311D02*
X3193Y1310D01*
X3191Y1307D01*
Y1304D01*
X3193Y1301D01*
X3195Y1300D01*
X3201Y1298D01*
X3205Y1297D01*
X3208Y1294D01*
X3210Y1291D01*
Y1287D01*
X3208Y1284D01*
X3207Y1283D01*
X3203Y1281D01*
X3197D01*
X3193Y1283D01*
X3191Y1284D01*
X3190Y1287D01*
Y1291D01*
X3191Y1294D01*
X3194Y1297D01*
X3198Y1298D01*
X3204Y1300D01*
X3207Y1301D01*
X3208Y1304D01*
Y1307D01*
X3207Y1310D01*
X3203Y1311D01*
X3197D01*
X2965Y1302D02*
Y1272D01*
Y1302D02*
X2978D01*
X2982Y1300D01*
X2984Y1299D01*
X2985Y1296D01*
Y1293D01*
X2984Y1290D01*
X2982Y1289D01*
X2978Y1288D01*
X2965D01*
X2975D02*
X2985Y1272D01*
X3012Y1302D02*
X2997Y1272D01*
X2992Y1302D02*
X3012D01*
X3455Y2142D02*
Y2112D01*
Y2142D02*
X3468D01*
X3472Y2140D01*
X3474Y2139D01*
X3475Y2136D01*
Y2133D01*
X3474Y2130D01*
X3472Y2129D01*
X3468Y2128D01*
X3455D01*
X3465D02*
X3475Y2112D01*
X3496Y2142D02*
X3482Y2122D01*
X3503D01*
X3496Y2142D02*
Y2112D01*
X3965Y1595D02*
Y1565D01*
Y1595D02*
X3978D01*
X3982Y1594D01*
X3984Y1592D01*
X3985Y1589D01*
Y1586D01*
X3984Y1584D01*
X3982Y1582D01*
X3978Y1581D01*
X3965D01*
X3975D02*
X3985Y1565D01*
X3992Y1589D02*
X3995Y1591D01*
X3999Y1595D01*
Y1565D01*
X3200Y445D02*
X3230D01*
X3200D02*
Y455D01*
X3202Y460D01*
X3205Y462D01*
X3208Y464D01*
X3212Y465D01*
X3219D01*
X3223Y464D01*
X3226Y462D01*
X3229Y460D01*
X3230Y455D01*
Y445D01*
X3200Y486D02*
X3220Y472D01*
Y493D01*
X3200Y486D02*
X3230D01*
X3712Y1295D02*
X3711Y1298D01*
X3708Y1300D01*
X3705Y1302D01*
X3699D01*
X3696Y1300D01*
X3693Y1298D01*
X3692Y1295D01*
X3691Y1290D01*
Y1283D01*
X3692Y1279D01*
X3693Y1276D01*
X3696Y1273D01*
X3699Y1272D01*
X3705D01*
X3708Y1273D01*
X3711Y1276D01*
X3712Y1279D01*
X3720Y1296D02*
X3723Y1298D01*
X3728Y1302D01*
Y1272D01*
X3742Y1296D02*
X3745Y1298D01*
X3750Y1302D01*
Y1272D01*
X3258Y1311D02*
X3257Y1314D01*
X3254Y1317D01*
X3251Y1318D01*
X3246D01*
X3243Y1317D01*
X3240Y1314D01*
X3238Y1311D01*
X3237Y1307D01*
Y1299D01*
X3238Y1295D01*
X3240Y1292D01*
X3243Y1289D01*
X3246Y1288D01*
X3251D01*
X3254Y1289D01*
X3257Y1292D01*
X3258Y1295D01*
X3267Y1312D02*
X3270Y1314D01*
X3274Y1318D01*
Y1288D01*
X3297Y1318D02*
X3293Y1317D01*
X3290Y1312D01*
X3289Y1305D01*
Y1301D01*
X3290Y1294D01*
X3293Y1289D01*
X3297Y1288D01*
X3300D01*
X3304Y1289D01*
X3307Y1294D01*
X3309Y1301D01*
Y1305D01*
X3307Y1312D01*
X3304Y1317D01*
X3300Y1318D01*
X3297D01*
X3546Y1409D02*
X3545Y1412D01*
X3542Y1415D01*
X3539Y1416D01*
X3534D01*
X3531Y1415D01*
X3528Y1412D01*
X3526Y1409D01*
X3525Y1405D01*
Y1398D01*
X3526Y1393D01*
X3528Y1391D01*
X3531Y1388D01*
X3534Y1386D01*
X3539D01*
X3542Y1388D01*
X3545Y1391D01*
X3546Y1393D01*
X3573Y1406D02*
X3572Y1402D01*
X3569Y1399D01*
X3565Y1398D01*
X3563D01*
X3559Y1399D01*
X3556Y1402D01*
X3555Y1406D01*
Y1408D01*
X3556Y1412D01*
X3559Y1415D01*
X3563Y1416D01*
X3565D01*
X3569Y1415D01*
X3572Y1412D01*
X3573Y1406D01*
Y1399D01*
X3572Y1392D01*
X3569Y1388D01*
X3565Y1386D01*
X3562D01*
X3558Y1388D01*
X3556Y1391D01*
X3561Y1309D02*
X3560Y1312D01*
X3557Y1315D01*
X3554Y1316D01*
X3549D01*
X3546Y1315D01*
X3543Y1312D01*
X3541Y1309D01*
X3540Y1305D01*
Y1298D01*
X3541Y1293D01*
X3543Y1291D01*
X3546Y1288D01*
X3549Y1286D01*
X3554D01*
X3557Y1288D01*
X3560Y1291D01*
X3561Y1293D01*
X3577Y1316D02*
X3573Y1315D01*
X3571Y1312D01*
Y1309D01*
X3573Y1306D01*
X3576Y1305D01*
X3581Y1303D01*
X3586Y1302D01*
X3588Y1299D01*
X3590Y1296D01*
Y1292D01*
X3588Y1289D01*
X3587Y1288D01*
X3583Y1286D01*
X3577D01*
X3573Y1288D01*
X3571Y1289D01*
X3570Y1292D01*
Y1296D01*
X3571Y1299D01*
X3574Y1302D01*
X3578Y1303D01*
X3584Y1305D01*
X3587Y1306D01*
X3588Y1309D01*
Y1312D01*
X3587Y1315D01*
X3583Y1316D01*
X3577D01*
X3384Y1311D02*
X3383Y1314D01*
X3380Y1317D01*
X3377Y1318D01*
X3371D01*
X3368Y1317D01*
X3365Y1314D01*
X3364Y1311D01*
X3363Y1307D01*
Y1299D01*
X3364Y1295D01*
X3365Y1292D01*
X3368Y1289D01*
X3371Y1288D01*
X3377D01*
X3380Y1289D01*
X3383Y1292D01*
X3384Y1295D01*
X3412Y1318D02*
X3398Y1288D01*
X3392Y1318D02*
X3412D01*
X3314Y1411D02*
X3313Y1414D01*
X3310Y1417D01*
X3307Y1418D01*
X3301D01*
X3298Y1417D01*
X3295Y1414D01*
X3294Y1411D01*
X3293Y1407D01*
Y1399D01*
X3294Y1395D01*
X3295Y1392D01*
X3298Y1389D01*
X3301Y1388D01*
X3307D01*
X3310Y1389D01*
X3313Y1392D01*
X3314Y1395D01*
X3340Y1414D02*
X3338Y1417D01*
X3334Y1418D01*
X3331D01*
X3327Y1417D01*
X3324Y1412D01*
X3322Y1405D01*
Y1398D01*
X3324Y1392D01*
X3327Y1389D01*
X3331Y1388D01*
X3332D01*
X3337Y1389D01*
X3340Y1392D01*
X3341Y1397D01*
Y1398D01*
X3340Y1402D01*
X3337Y1405D01*
X3332Y1407D01*
X3331D01*
X3327Y1405D01*
X3324Y1402D01*
X3322Y1398D01*
X4052Y2223D02*
X4049Y2221D01*
X4046Y2218D01*
X4045Y2216D01*
Y2210D01*
X4046Y2207D01*
X4049Y2204D01*
X4052Y2203D01*
X4056Y2201D01*
X4064D01*
X4068Y2203D01*
X4071Y2204D01*
X4074Y2207D01*
X4075Y2210D01*
Y2216D01*
X4074Y2218D01*
X4071Y2221D01*
X4068Y2223D01*
X4045Y2248D02*
Y2234D01*
X4058Y2233D01*
X4056Y2234D01*
X4055Y2238D01*
Y2243D01*
X4056Y2247D01*
X4059Y2250D01*
X4064Y2251D01*
X4066D01*
X4071Y2250D01*
X4074Y2247D01*
X4075Y2243D01*
Y2238D01*
X4074Y2234D01*
X4072Y2233D01*
X4069Y2231D01*
X3638Y951D02*
X3635Y950D01*
X3632Y947D01*
X3631Y944D01*
Y939D01*
X3632Y936D01*
X3635Y933D01*
X3638Y931D01*
X3642Y930D01*
X3649D01*
X3653Y931D01*
X3656Y933D01*
X3659Y936D01*
X3661Y939D01*
Y944D01*
X3659Y947D01*
X3656Y950D01*
X3653Y951D01*
X3636Y960D02*
X3635Y963D01*
X3631Y967D01*
X3661D01*
X3155Y1122D02*
X3185D01*
X3155D02*
Y1135D01*
X3156Y1139D01*
X3158Y1140D01*
X3161Y1142D01*
X3164D01*
X3166Y1140D01*
X3168Y1139D01*
X3169Y1135D01*
Y1122D01*
Y1132D02*
X3185Y1142D01*
X3161Y1149D02*
X3159Y1151D01*
X3155Y1156D01*
X3185D01*
X3162Y1172D02*
X3161D01*
X3158Y1173D01*
X3156Y1175D01*
X3155Y1178D01*
Y1183D01*
X3156Y1186D01*
X3158Y1188D01*
X3161Y1189D01*
X3164D01*
X3166Y1188D01*
X3171Y1185D01*
X3185Y1171D01*
Y1191D01*
X3699Y1960D02*
Y1937D01*
X3698Y1933D01*
X3696Y1931D01*
X3694Y1930D01*
X3691D01*
X3688Y1931D01*
X3686Y1933D01*
X3685Y1937D01*
Y1940D01*
X3708Y1953D02*
Y1954D01*
X3710Y1957D01*
X3711Y1959D01*
X3714Y1960D01*
X3720D01*
X3723Y1959D01*
X3724Y1957D01*
X3726Y1954D01*
Y1951D01*
X3724Y1949D01*
X3721Y1944D01*
X3707Y1930D01*
X3727D01*
X3091Y308D02*
X3061D01*
Y323D01*
X3066Y328D01*
X3076D01*
X3081Y323D01*
Y308D01*
Y318D02*
X3091Y328D01*
X3061Y358D02*
X3066Y348D01*
X3076Y338D01*
X3086D01*
X3091Y343D01*
Y353D01*
X3086Y358D01*
X3081D01*
X3076Y353D01*
Y338D01*
X3051Y444D02*
X3080D01*
Y459D01*
X3075Y464D01*
X3055D01*
X3051Y459D01*
Y444D01*
X3080Y494D02*
Y474D01*
X3060Y494D01*
X3055D01*
X3051Y489D01*
Y479D01*
X3055Y474D01*
X4051Y1384D02*
X4050Y1387D01*
X4047Y1390D01*
X4044Y1391D01*
X4039D01*
X4036Y1390D01*
X4033Y1387D01*
X4031Y1384D01*
X4030Y1380D01*
Y1373D01*
X4031Y1368D01*
X4033Y1366D01*
X4036Y1363D01*
X4039Y1361D01*
X4044D01*
X4047Y1363D01*
X4050Y1366D01*
X4051Y1368D01*
X4061Y1384D02*
Y1386D01*
X4063Y1388D01*
X4064Y1390D01*
X4067Y1391D01*
X4073D01*
X4076Y1390D01*
X4077Y1388D01*
X4078Y1386D01*
Y1383D01*
X4077Y1380D01*
X4074Y1376D01*
X4060Y1361D01*
X4080D01*
X3395Y1770D02*
Y1800D01*
X3410D01*
X3415Y1795D01*
Y1785D01*
X3410Y1780D01*
X3395D01*
X3405D02*
X3415Y1770D01*
X3425D02*
X3435D01*
X3430D01*
Y1800D01*
X3425Y1795D01*
X3450D02*
X3455Y1800D01*
X3465D01*
X3470Y1795D01*
Y1790D01*
X3465Y1785D01*
X3470Y1780D01*
Y1775D01*
X3465Y1770D01*
X3455D01*
X3450Y1775D01*
Y1780D01*
X3455Y1785D01*
X3450Y1790D01*
Y1795D01*
X3455Y1785D02*
X3465D01*
X3320Y1760D02*
Y1780D01*
X3315Y1785D01*
X3305D01*
X3300Y1780D01*
Y1760D01*
X3305Y1755D01*
X3315D01*
X3310Y1765D02*
X3320Y1755D01*
X3315D02*
X3320Y1760D01*
X3350Y1755D02*
X3330D01*
X3350Y1775D01*
Y1780D01*
X3345Y1785D01*
X3335D01*
X3330Y1780D01*
X2835Y835D02*
Y805D01*
Y835D02*
X2845D01*
X2849Y834D01*
X2852Y831D01*
X2854Y828D01*
X2855Y824D01*
Y816D01*
X2854Y812D01*
X2852Y809D01*
X2849Y806D01*
X2845Y805D01*
X2835D01*
X2862Y829D02*
X2865Y831D01*
X2869Y835D01*
Y805D01*
X2884Y829D02*
X2887Y831D01*
X2891Y835D01*
Y805D01*
X2840Y720D02*
Y690D01*
Y720D02*
X2850D01*
X2854Y719D01*
X2857Y716D01*
X2859Y713D01*
X2860Y709D01*
Y701D01*
X2859Y697D01*
X2857Y694D01*
X2854Y691D01*
X2850Y690D01*
X2840D01*
X2867Y714D02*
X2870Y716D01*
X2874Y720D01*
Y690D01*
X2890Y713D02*
Y714D01*
X2892Y717D01*
X2893Y719D01*
X2896Y720D01*
X2902D01*
X2904Y719D01*
X2906Y717D01*
X2907Y714D01*
Y711D01*
X2906Y709D01*
X2903Y704D01*
X2889Y690D01*
X2909D01*
X2834Y2490D02*
Y2467D01*
X2833Y2463D01*
X2831Y2461D01*
X2829Y2460D01*
X2826D01*
X2823Y2461D01*
X2821Y2463D01*
X2820Y2467D01*
Y2470D01*
X2842Y2484D02*
X2845Y2486D01*
X2849Y2490D01*
Y2460D01*
X2881Y2486D02*
X2880Y2489D01*
X2875Y2490D01*
X2873D01*
X2868Y2489D01*
X2865Y2484D01*
X2864Y2477D01*
Y2470D01*
X2865Y2464D01*
X2868Y2461D01*
X2873Y2460D01*
X2874D01*
X2878Y2461D01*
X2881Y2464D01*
X2883Y2469D01*
Y2470D01*
X2881Y2474D01*
X2878Y2477D01*
X2874Y2479D01*
X2873D01*
X2868Y2477D01*
X2865Y2474D01*
X2864Y2470D01*
X2864Y660D02*
Y637D01*
X2863Y633D01*
X2861Y631D01*
X2859Y630D01*
X2856D01*
X2853Y631D01*
X2851Y633D01*
X2850Y637D01*
Y640D01*
X2875Y660D02*
X2891D01*
X2882Y649D01*
X2886D01*
X2889Y647D01*
X2891Y646D01*
X2892Y641D01*
Y639D01*
X2891Y634D01*
X2888Y631D01*
X2883Y630D01*
X2879D01*
X2875Y631D01*
X2873Y633D01*
X2872Y636D01*
X2889Y1150D02*
Y1127D01*
X2888Y1123D01*
X2886Y1121D01*
X2884Y1120D01*
X2881D01*
X2878Y1121D01*
X2876Y1123D01*
X2875Y1127D01*
Y1130D01*
X2914Y1150D02*
X2900D01*
X2898Y1137D01*
X2900Y1139D01*
X2904Y1140D01*
X2908D01*
X2913Y1139D01*
X2916Y1136D01*
X2917Y1131D01*
Y1129D01*
X2916Y1124D01*
X2913Y1121D01*
X2908Y1120D01*
X2904D01*
X2900Y1121D01*
X2898Y1123D01*
X2897Y1126D01*
X3652Y115D02*
Y92D01*
X3651Y87D01*
X3649Y86D01*
X3646Y85D01*
X3643D01*
X3641Y86D01*
X3639Y87D01*
X3638Y92D01*
Y95D01*
X3677Y110D02*
X3675Y113D01*
X3671Y115D01*
X3668D01*
X3664Y113D01*
X3661Y109D01*
X3660Y102D01*
Y95D01*
X3661Y89D01*
X3664Y86D01*
X3668Y85D01*
X3670D01*
X3674Y86D01*
X3677Y89D01*
X3678Y93D01*
Y95D01*
X3677Y99D01*
X3674Y102D01*
X3670Y103D01*
X3668D01*
X3664Y102D01*
X3661Y99D01*
X3660Y95D01*
X2839Y1850D02*
Y1827D01*
X2838Y1823D01*
X2836Y1821D01*
X2834Y1820D01*
X2831D01*
X2828Y1821D01*
X2826Y1823D01*
X2825Y1827D01*
Y1830D01*
X2861Y1850D02*
X2847Y1830D01*
X2868D01*
X2861Y1850D02*
Y1820D01*
X3334Y2575D02*
Y2552D01*
X3333Y2548D01*
X3331Y2546D01*
X3329Y2545D01*
X3326D01*
X3323Y2546D01*
X3321Y2548D01*
X3320Y2552D01*
Y2555D01*
X3342Y2569D02*
X3345Y2571D01*
X3349Y2575D01*
Y2545D01*
X3384Y2575D02*
X3370Y2545D01*
X3364Y2575D02*
X3384D01*
X3618Y616D02*
X3615Y615D01*
X3612Y612D01*
X3611Y609D01*
Y604D01*
X3612Y601D01*
X3615Y598D01*
X3618Y596D01*
X3622Y595D01*
X3629D01*
X3633Y596D01*
X3636Y598D01*
X3639Y601D01*
X3641Y604D01*
Y609D01*
X3639Y612D01*
X3636Y615D01*
X3633Y616D01*
X3616Y625D02*
X3615Y628D01*
X3611Y632D01*
X3641D01*
X3618Y648D02*
X3616D01*
X3613Y650D01*
X3612Y651D01*
X3611Y654D01*
Y660D01*
X3612Y663D01*
X3613Y664D01*
X3616Y665D01*
X3619D01*
X3622Y664D01*
X3626Y661D01*
X3641Y647D01*
Y667D01*
X2584Y1020D02*
Y997D01*
X2583Y993D01*
X2581Y991D01*
X2579Y990D01*
X2576D01*
X2573Y991D01*
X2571Y993D01*
X2570Y997D01*
Y1000D01*
X2599Y1020D02*
X2595Y1019D01*
X2593Y1016D01*
Y1013D01*
X2595Y1010D01*
X2598Y1009D01*
X2603Y1007D01*
X2608Y1006D01*
X2611Y1003D01*
X2612Y1000D01*
Y996D01*
X2611Y993D01*
X2609Y991D01*
X2605Y990D01*
X2599D01*
X2595Y991D01*
X2593Y993D01*
X2592Y996D01*
Y1000D01*
X2593Y1003D01*
X2596Y1006D01*
X2601Y1007D01*
X2606Y1009D01*
X2609Y1010D01*
X2611Y1013D01*
Y1016D01*
X2609Y1019D01*
X2605Y1020D01*
X2599D01*
X1032Y1535D02*
X1029Y1534D01*
X1026Y1531D01*
X1025Y1528D01*
Y1522D01*
X1026Y1519D01*
X1029Y1517D01*
X1032Y1515D01*
X1036Y1514D01*
X1044D01*
X1048Y1515D01*
X1051Y1517D01*
X1054Y1519D01*
X1055Y1522D01*
Y1528D01*
X1054Y1531D01*
X1051Y1534D01*
X1048Y1535D01*
X1031Y1544D02*
X1029Y1546D01*
X1025Y1551D01*
X1055D01*
X1029Y1583D02*
X1026Y1581D01*
X1025Y1577D01*
Y1574D01*
X1026Y1570D01*
X1031Y1567D01*
X1038Y1566D01*
X1045D01*
X1051Y1567D01*
X1054Y1570D01*
X1055Y1574D01*
Y1576D01*
X1054Y1580D01*
X1051Y1583D01*
X1046Y1584D01*
X1045D01*
X1041Y1583D01*
X1038Y1580D01*
X1036Y1576D01*
Y1574D01*
X1038Y1570D01*
X1041Y1567D01*
X1045Y1566D01*
X1207Y1450D02*
X1204Y1449D01*
X1201Y1446D01*
X1200Y1443D01*
Y1437D01*
X1201Y1434D01*
X1204Y1432D01*
X1207Y1430D01*
X1211Y1429D01*
X1219D01*
X1223Y1430D01*
X1226Y1432D01*
X1229Y1434D01*
X1230Y1437D01*
Y1443D01*
X1229Y1446D01*
X1226Y1449D01*
X1223Y1450D01*
X1206Y1459D02*
X1204Y1461D01*
X1200Y1466D01*
X1230D01*
X1200Y1483D02*
Y1499D01*
X1211Y1491D01*
Y1495D01*
X1213Y1498D01*
X1214Y1499D01*
X1219Y1501D01*
X1221D01*
X1226Y1499D01*
X1229Y1496D01*
X1230Y1492D01*
Y1488D01*
X1229Y1483D01*
X1227Y1482D01*
X1224Y1481D01*
X1126Y1122D02*
X1125Y1124D01*
X1122Y1127D01*
X1119Y1129D01*
X1114D01*
X1111Y1127D01*
X1108Y1124D01*
X1106Y1122D01*
X1105Y1117D01*
Y1110D01*
X1106Y1106D01*
X1108Y1103D01*
X1111Y1100D01*
X1114Y1099D01*
X1119D01*
X1122Y1100D01*
X1125Y1103D01*
X1126Y1106D01*
X1135Y1123D02*
X1138Y1124D01*
X1142Y1129D01*
Y1099D01*
X1171Y1129D02*
X1157Y1109D01*
X1178D01*
X1171Y1129D02*
Y1099D01*
X1336Y1042D02*
X1335Y1044D01*
X1332Y1047D01*
X1329Y1049D01*
X1324D01*
X1321Y1047D01*
X1318Y1044D01*
X1316Y1042D01*
X1315Y1037D01*
Y1030D01*
X1316Y1026D01*
X1318Y1023D01*
X1321Y1020D01*
X1324Y1019D01*
X1329D01*
X1332Y1020D01*
X1335Y1023D01*
X1336Y1026D01*
X1345Y1043D02*
X1348Y1044D01*
X1352Y1049D01*
Y1019D01*
X1384Y1049D02*
X1370D01*
X1368Y1036D01*
X1370Y1037D01*
X1374Y1039D01*
X1378D01*
X1383Y1037D01*
X1385Y1034D01*
X1387Y1030D01*
Y1027D01*
X1385Y1023D01*
X1383Y1020D01*
X1378Y1019D01*
X1374D01*
X1370Y1020D01*
X1368Y1022D01*
X1367Y1024D01*
X1810Y974D02*
X1807Y977D01*
X1803Y979D01*
X1797D01*
X1793Y977D01*
X1790Y974D01*
Y972D01*
X1791Y969D01*
X1793Y967D01*
X1796Y966D01*
X1804Y963D01*
X1807Y962D01*
X1809Y960D01*
X1810Y957D01*
Y953D01*
X1807Y950D01*
X1803Y949D01*
X1797D01*
X1793Y950D01*
X1790Y953D01*
X1817Y979D02*
X1824Y949D01*
X1831Y979D02*
X1824Y949D01*
X1831Y979D02*
X1838Y949D01*
X1845Y979D02*
X1838Y949D01*
X1853Y972D02*
Y973D01*
X1854Y976D01*
X1855Y977D01*
X1858Y979D01*
X1864D01*
X1867Y977D01*
X1868Y976D01*
X1870Y973D01*
Y970D01*
X1868Y967D01*
X1865Y963D01*
X1851Y949D01*
X1871D01*
X1330Y874D02*
X1350Y844D01*
Y874D02*
X1330Y844D01*
X1358Y867D02*
Y868D01*
X1360Y871D01*
X1361Y872D01*
X1364Y874D01*
X1370D01*
X1372Y872D01*
X1374Y871D01*
X1375Y868D01*
Y865D01*
X1374Y862D01*
X1371Y858D01*
X1357Y844D01*
X1377D01*
X2405Y73D02*
Y43D01*
Y73D02*
X2415D01*
X2419Y72D01*
X2422Y69D01*
X2424Y66D01*
X2425Y62D01*
Y55D01*
X2424Y50D01*
X2422Y47D01*
X2419Y45D01*
X2415Y43D01*
X2405D01*
X2432Y67D02*
X2435Y69D01*
X2439Y73D01*
Y43D01*
X2462Y73D02*
X2458Y72D01*
X2455Y67D01*
X2454Y60D01*
Y56D01*
X2455Y49D01*
X2458Y45D01*
X2462Y43D01*
X2465D01*
X2469Y45D01*
X2472Y49D01*
X2474Y56D01*
Y60D01*
X2472Y67D01*
X2469Y72D01*
X2465Y73D01*
X2462D01*
X2445Y263D02*
Y233D01*
Y263D02*
X2455D01*
X2459Y262D01*
X2462Y259D01*
X2464Y256D01*
X2465Y252D01*
Y245D01*
X2464Y240D01*
X2462Y237D01*
X2459Y235D01*
X2455Y233D01*
X2445D01*
X2490Y253D02*
X2489Y249D01*
X2486Y246D01*
X2482Y245D01*
X2480D01*
X2476Y246D01*
X2473Y249D01*
X2472Y253D01*
Y255D01*
X2473Y259D01*
X2476Y262D01*
X2480Y263D01*
X2482D01*
X2486Y262D01*
X2489Y259D01*
X2490Y253D01*
Y246D01*
X2489Y239D01*
X2486Y235D01*
X2482Y233D01*
X2479D01*
X2475Y235D01*
X2473Y237D01*
X2450Y383D02*
Y353D01*
Y383D02*
X2460D01*
X2464Y382D01*
X2467Y379D01*
X2469Y376D01*
X2470Y372D01*
Y365D01*
X2469Y360D01*
X2467Y357D01*
X2464Y355D01*
X2460Y353D01*
X2450D01*
X2484Y383D02*
X2480Y382D01*
X2478Y379D01*
Y376D01*
X2480Y373D01*
X2482Y372D01*
X2488Y370D01*
X2492Y369D01*
X2495Y366D01*
X2497Y363D01*
Y359D01*
X2495Y356D01*
X2494Y355D01*
X2490Y353D01*
X2484D01*
X2480Y355D01*
X2478Y356D01*
X2477Y359D01*
Y363D01*
X2478Y366D01*
X2481Y369D01*
X2485Y370D01*
X2491Y372D01*
X2494Y373D01*
X2495Y376D01*
Y379D01*
X2494Y382D01*
X2490Y383D01*
X2484D01*
X1455Y1094D02*
X1485D01*
X1455D02*
Y1107D01*
X1456Y1111D01*
X1458Y1112D01*
X1461Y1114D01*
X1464D01*
X1466Y1112D01*
X1468Y1111D01*
X1469Y1107D01*
Y1094D01*
Y1104D02*
X1485Y1114D01*
X1459Y1138D02*
X1456Y1136D01*
X1455Y1132D01*
Y1129D01*
X1456Y1125D01*
X1461Y1122D01*
X1468Y1120D01*
X1475D01*
X1481Y1122D01*
X1484Y1125D01*
X1485Y1129D01*
Y1130D01*
X1484Y1135D01*
X1481Y1138D01*
X1476Y1139D01*
X1475D01*
X1471Y1138D01*
X1468Y1135D01*
X1466Y1130D01*
Y1129D01*
X1468Y1125D01*
X1471Y1122D01*
X1475Y1120D01*
X1465Y1164D02*
X1469Y1163D01*
X1472Y1160D01*
X1474Y1156D01*
Y1154D01*
X1472Y1150D01*
X1469Y1147D01*
X1465Y1146D01*
X1464D01*
X1459Y1147D01*
X1456Y1150D01*
X1455Y1154D01*
Y1156D01*
X1456Y1160D01*
X1459Y1163D01*
X1465Y1164D01*
X1472D01*
X1479Y1163D01*
X1484Y1160D01*
X1485Y1156D01*
Y1153D01*
X1484Y1148D01*
X1481Y1147D01*
X1615Y1824D02*
Y1794D01*
Y1824D02*
X1628D01*
X1632Y1822D01*
X1634Y1821D01*
X1635Y1818D01*
Y1815D01*
X1634Y1812D01*
X1632Y1811D01*
X1628Y1809D01*
X1615D01*
X1625D02*
X1635Y1794D01*
X1659Y1819D02*
X1657Y1822D01*
X1653Y1824D01*
X1650D01*
X1646Y1822D01*
X1643Y1818D01*
X1642Y1811D01*
Y1804D01*
X1643Y1798D01*
X1646Y1795D01*
X1650Y1794D01*
X1652D01*
X1656Y1795D01*
X1659Y1798D01*
X1660Y1802D01*
Y1804D01*
X1659Y1808D01*
X1656Y1811D01*
X1652Y1812D01*
X1650D01*
X1646Y1811D01*
X1643Y1808D01*
X1642Y1804D01*
X1674Y1824D02*
X1670Y1822D01*
X1668Y1819D01*
Y1817D01*
X1670Y1814D01*
X1673Y1812D01*
X1678Y1811D01*
X1683Y1809D01*
X1685Y1807D01*
X1687Y1804D01*
Y1799D01*
X1685Y1797D01*
X1684Y1795D01*
X1680Y1794D01*
X1674D01*
X1670Y1795D01*
X1668Y1797D01*
X1667Y1799D01*
Y1804D01*
X1668Y1807D01*
X1671Y1809D01*
X1675Y1811D01*
X1681Y1812D01*
X1684Y1814D01*
X1685Y1817D01*
Y1819D01*
X1684Y1822D01*
X1680Y1824D01*
X1674D01*
X1200Y999D02*
Y969D01*
Y999D02*
X1213D01*
X1217Y997D01*
X1219Y996D01*
X1220Y993D01*
Y990D01*
X1219Y987D01*
X1217Y986D01*
X1213Y984D01*
X1200D01*
X1210D02*
X1220Y969D01*
X1244Y994D02*
X1242Y997D01*
X1238Y999D01*
X1235D01*
X1231Y997D01*
X1228Y993D01*
X1227Y986D01*
Y979D01*
X1228Y973D01*
X1231Y970D01*
X1235Y969D01*
X1237D01*
X1241Y970D01*
X1244Y973D01*
X1245Y977D01*
Y979D01*
X1244Y983D01*
X1241Y986D01*
X1237Y987D01*
X1235D01*
X1231Y986D01*
X1228Y983D01*
X1227Y979D01*
X1272Y999D02*
X1258Y969D01*
X1252Y999D02*
X1272D01*
X605Y1489D02*
X635D01*
X605D02*
Y1502D01*
X606Y1506D01*
X608Y1507D01*
X611Y1509D01*
X614D01*
X616Y1507D01*
X618Y1506D01*
X619Y1502D01*
Y1489D01*
Y1499D02*
X635Y1509D01*
X609Y1533D02*
X606Y1531D01*
X605Y1527D01*
Y1524D01*
X606Y1520D01*
X611Y1517D01*
X618Y1515D01*
X625D01*
X631Y1517D01*
X634Y1520D01*
X635Y1524D01*
Y1525D01*
X634Y1530D01*
X631Y1533D01*
X626Y1534D01*
X625D01*
X621Y1533D01*
X618Y1530D01*
X616Y1525D01*
Y1524D01*
X618Y1520D01*
X621Y1517D01*
X625Y1515D01*
X609Y1558D02*
X606Y1556D01*
X605Y1552D01*
Y1549D01*
X606Y1545D01*
X611Y1542D01*
X618Y1541D01*
X625D01*
X631Y1542D01*
X634Y1545D01*
X635Y1549D01*
Y1551D01*
X634Y1555D01*
X631Y1558D01*
X626Y1559D01*
X625D01*
X621Y1558D01*
X618Y1555D01*
X616Y1551D01*
Y1549D01*
X618Y1545D01*
X621Y1542D01*
X625Y1541D01*
X855Y1491D02*
X885D01*
X855D02*
Y1503D01*
X856Y1508D01*
X858Y1509D01*
X861Y1511D01*
X864D01*
X866Y1509D01*
X868Y1508D01*
X869Y1503D01*
Y1491D01*
Y1501D02*
X885Y1511D01*
X859Y1534D02*
X856Y1533D01*
X855Y1529D01*
Y1526D01*
X856Y1522D01*
X861Y1519D01*
X868Y1517D01*
X875D01*
X881Y1519D01*
X884Y1522D01*
X885Y1526D01*
Y1527D01*
X884Y1532D01*
X881Y1534D01*
X876Y1536D01*
X875D01*
X871Y1534D01*
X868Y1532D01*
X866Y1527D01*
Y1526D01*
X868Y1522D01*
X871Y1519D01*
X875Y1517D01*
X855Y1560D02*
Y1545D01*
X868Y1544D01*
X866Y1545D01*
X865Y1550D01*
Y1554D01*
X866Y1558D01*
X869Y1561D01*
X874Y1562D01*
X876D01*
X881Y1561D01*
X884Y1558D01*
X885Y1554D01*
Y1550D01*
X884Y1545D01*
X882Y1544D01*
X879Y1542D01*
X930Y1491D02*
X960D01*
X930D02*
Y1503D01*
X931Y1508D01*
X933Y1509D01*
X936Y1511D01*
X939D01*
X941Y1509D01*
X943Y1508D01*
X944Y1503D01*
Y1491D01*
Y1501D02*
X960Y1511D01*
X934Y1534D02*
X931Y1533D01*
X930Y1529D01*
Y1526D01*
X931Y1522D01*
X936Y1519D01*
X943Y1517D01*
X950D01*
X956Y1519D01*
X959Y1522D01*
X960Y1526D01*
Y1527D01*
X959Y1532D01*
X956Y1534D01*
X951Y1536D01*
X950D01*
X946Y1534D01*
X943Y1532D01*
X941Y1527D01*
Y1526D01*
X943Y1522D01*
X946Y1519D01*
X950Y1517D01*
X930Y1557D02*
X950Y1542D01*
Y1564D01*
X930Y1557D02*
X960D01*
X680Y1489D02*
X710D01*
X680D02*
Y1502D01*
X681Y1506D01*
X683Y1507D01*
X686Y1509D01*
X689D01*
X691Y1507D01*
X693Y1506D01*
X694Y1502D01*
Y1489D01*
Y1499D02*
X710Y1509D01*
X684Y1533D02*
X681Y1531D01*
X680Y1527D01*
Y1524D01*
X681Y1520D01*
X686Y1517D01*
X693Y1515D01*
X700D01*
X706Y1517D01*
X709Y1520D01*
X710Y1524D01*
Y1525D01*
X709Y1530D01*
X706Y1533D01*
X701Y1534D01*
X700D01*
X696Y1533D01*
X693Y1530D01*
X691Y1525D01*
Y1524D01*
X693Y1520D01*
X696Y1517D01*
X700Y1515D01*
X680Y1543D02*
Y1559D01*
X691Y1551D01*
Y1555D01*
X693Y1558D01*
X694Y1559D01*
X699Y1561D01*
X701D01*
X706Y1559D01*
X709Y1556D01*
X710Y1552D01*
Y1548D01*
X709Y1543D01*
X707Y1542D01*
X704Y1541D01*
X1310Y1559D02*
Y1529D01*
Y1559D02*
X1323D01*
X1327Y1557D01*
X1329Y1556D01*
X1330Y1553D01*
Y1550D01*
X1329Y1547D01*
X1327Y1546D01*
X1323Y1544D01*
X1310D01*
X1320D02*
X1330Y1529D01*
X1354Y1554D02*
X1352Y1557D01*
X1348Y1559D01*
X1345D01*
X1341Y1557D01*
X1338Y1553D01*
X1337Y1546D01*
Y1539D01*
X1338Y1533D01*
X1341Y1530D01*
X1345Y1529D01*
X1347D01*
X1351Y1530D01*
X1354Y1533D01*
X1355Y1537D01*
Y1539D01*
X1354Y1543D01*
X1351Y1546D01*
X1347Y1547D01*
X1345D01*
X1341Y1546D01*
X1338Y1543D01*
X1337Y1539D01*
X1363Y1552D02*
Y1553D01*
X1365Y1556D01*
X1366Y1557D01*
X1369Y1559D01*
X1375D01*
X1378Y1557D01*
X1379Y1556D01*
X1380Y1553D01*
Y1550D01*
X1379Y1547D01*
X1376Y1543D01*
X1362Y1529D01*
X1382D01*
X1110Y1599D02*
X1140D01*
X1110D02*
Y1612D01*
X1111Y1616D01*
X1113Y1617D01*
X1116Y1619D01*
X1119D01*
X1121Y1617D01*
X1123Y1616D01*
X1124Y1612D01*
Y1599D01*
Y1609D02*
X1140Y1619D01*
X1114Y1643D02*
X1111Y1641D01*
X1110Y1637D01*
Y1634D01*
X1111Y1630D01*
X1116Y1627D01*
X1123Y1625D01*
X1130D01*
X1136Y1627D01*
X1139Y1630D01*
X1140Y1634D01*
Y1635D01*
X1139Y1640D01*
X1136Y1643D01*
X1131Y1644D01*
X1130D01*
X1126Y1643D01*
X1123Y1640D01*
X1121Y1635D01*
Y1634D01*
X1123Y1630D01*
X1126Y1627D01*
X1130Y1625D01*
X1116Y1651D02*
X1114Y1653D01*
X1110Y1658D01*
X1140D01*
X580Y1989D02*
Y1959D01*
Y1989D02*
X593D01*
X597Y1987D01*
X599Y1986D01*
X600Y1983D01*
Y1980D01*
X599Y1977D01*
X597Y1976D01*
X593Y1974D01*
X580D01*
X590D02*
X600Y1959D01*
X624Y1984D02*
X622Y1987D01*
X618Y1989D01*
X615D01*
X611Y1987D01*
X608Y1983D01*
X607Y1976D01*
Y1969D01*
X608Y1963D01*
X611Y1960D01*
X615Y1959D01*
X617D01*
X621Y1960D01*
X624Y1963D01*
X625Y1967D01*
Y1969D01*
X624Y1973D01*
X621Y1976D01*
X617Y1977D01*
X615D01*
X611Y1976D01*
X608Y1973D01*
X607Y1969D01*
X640Y1989D02*
X636Y1987D01*
X633Y1983D01*
X632Y1976D01*
Y1972D01*
X633Y1964D01*
X636Y1960D01*
X640Y1959D01*
X643D01*
X647Y1960D01*
X650Y1964D01*
X652Y1972D01*
Y1976D01*
X650Y1983D01*
X647Y1987D01*
X643Y1989D01*
X640D01*
X1040Y1769D02*
Y1739D01*
Y1769D02*
X1053D01*
X1057Y1767D01*
X1059Y1766D01*
X1060Y1763D01*
Y1760D01*
X1059Y1757D01*
X1057Y1756D01*
X1053Y1754D01*
X1040D01*
X1050D02*
X1060Y1739D01*
X1084Y1769D02*
X1070D01*
X1068Y1756D01*
X1070Y1757D01*
X1074Y1759D01*
X1078D01*
X1082Y1757D01*
X1085Y1754D01*
X1087Y1750D01*
Y1747D01*
X1085Y1743D01*
X1082Y1740D01*
X1078Y1739D01*
X1074D01*
X1070Y1740D01*
X1068Y1742D01*
X1067Y1744D01*
X1112Y1759D02*
X1111Y1754D01*
X1108Y1752D01*
X1103Y1750D01*
X1102D01*
X1098Y1752D01*
X1095Y1754D01*
X1093Y1759D01*
Y1760D01*
X1095Y1764D01*
X1098Y1767D01*
X1102Y1769D01*
X1103D01*
X1108Y1767D01*
X1111Y1764D01*
X1112Y1759D01*
Y1752D01*
X1111Y1744D01*
X1108Y1740D01*
X1103Y1739D01*
X1101D01*
X1096Y1740D01*
X1095Y1743D01*
X2110Y583D02*
Y553D01*
Y583D02*
X2123D01*
X2127Y582D01*
X2129Y580D01*
X2130Y577D01*
Y575D01*
X2129Y572D01*
X2127Y570D01*
X2123Y569D01*
X2110D01*
X2120D02*
X2130Y553D01*
X2154Y583D02*
X2140D01*
X2138Y570D01*
X2140Y572D01*
X2144Y573D01*
X2148D01*
X2152Y572D01*
X2155Y569D01*
X2157Y565D01*
Y562D01*
X2155Y557D01*
X2152Y555D01*
X2148Y553D01*
X2144D01*
X2140Y555D01*
X2138Y556D01*
X2137Y559D01*
X2171Y583D02*
X2166Y582D01*
X2165Y579D01*
Y576D01*
X2166Y573D01*
X2169Y572D01*
X2175Y570D01*
X2179Y569D01*
X2182Y566D01*
X2183Y563D01*
Y559D01*
X2182Y556D01*
X2181Y555D01*
X2176Y553D01*
X2171D01*
X2166Y555D01*
X2165Y556D01*
X2163Y559D01*
Y563D01*
X2165Y566D01*
X2168Y569D01*
X2172Y570D01*
X2178Y572D01*
X2181Y573D01*
X2182Y576D01*
Y579D01*
X2181Y582D01*
X2176Y583D01*
X2171D01*
X1618Y1767D02*
Y1737D01*
Y1767D02*
X1631D01*
X1635Y1765D01*
X1637Y1764D01*
X1638Y1761D01*
Y1758D01*
X1637Y1755D01*
X1635Y1754D01*
X1631Y1752D01*
X1618D01*
X1628D02*
X1638Y1737D01*
X1662Y1767D02*
X1648D01*
X1646Y1754D01*
X1648Y1755D01*
X1652Y1757D01*
X1656D01*
X1660Y1755D01*
X1663Y1752D01*
X1665Y1748D01*
Y1745D01*
X1663Y1741D01*
X1660Y1738D01*
X1656Y1737D01*
X1652D01*
X1648Y1738D01*
X1646Y1740D01*
X1645Y1742D01*
X1691Y1767D02*
X1677Y1737D01*
X1671Y1767D02*
X1691D01*
X2110Y79D02*
Y49D01*
Y79D02*
X2123D01*
X2127Y78D01*
X2129Y77D01*
X2130Y74D01*
Y71D01*
X2129Y68D01*
X2127Y67D01*
X2123Y65D01*
X2110D01*
X2120D02*
X2130Y49D01*
X2154Y79D02*
X2140D01*
X2138Y67D01*
X2140Y68D01*
X2144Y69D01*
X2148D01*
X2152Y68D01*
X2155Y65D01*
X2157Y61D01*
Y58D01*
X2155Y54D01*
X2152Y51D01*
X2148Y49D01*
X2144D01*
X2140Y51D01*
X2138Y52D01*
X2137Y55D01*
X2181Y75D02*
X2179Y78D01*
X2175Y79D01*
X2172D01*
X2168Y78D01*
X2165Y74D01*
X2163Y67D01*
Y59D01*
X2165Y54D01*
X2168Y51D01*
X2172Y49D01*
X2173D01*
X2178Y51D01*
X2181Y54D01*
X2182Y58D01*
Y59D01*
X2181Y64D01*
X2178Y67D01*
X2173Y68D01*
X2172D01*
X2168Y67D01*
X2165Y64D01*
X2163Y59D01*
X2115Y217D02*
Y187D01*
Y217D02*
X2128D01*
X2132Y216D01*
X2134Y215D01*
X2135Y212D01*
Y209D01*
X2134Y206D01*
X2132Y205D01*
X2128Y203D01*
X2115D01*
X2125D02*
X2135Y187D01*
X2159Y217D02*
X2145D01*
X2143Y205D01*
X2145Y206D01*
X2149Y207D01*
X2153D01*
X2157Y206D01*
X2160Y203D01*
X2162Y199D01*
Y196D01*
X2160Y192D01*
X2157Y189D01*
X2153Y187D01*
X2149D01*
X2145Y189D01*
X2143Y190D01*
X2142Y193D01*
X2186Y217D02*
X2171D01*
X2170Y205D01*
X2171Y206D01*
X2176Y207D01*
X2180D01*
X2184Y206D01*
X2187Y203D01*
X2188Y199D01*
Y196D01*
X2187Y192D01*
X2184Y189D01*
X2180Y187D01*
X2176D01*
X2171Y189D01*
X2170Y190D01*
X2168Y193D01*
X2300Y2329D02*
Y2299D01*
Y2329D02*
X2313D01*
X2317Y2327D01*
X2319Y2326D01*
X2320Y2323D01*
Y2320D01*
X2319Y2317D01*
X2317Y2316D01*
X2313Y2314D01*
X2300D01*
X2310D02*
X2320Y2299D01*
X2341Y2329D02*
X2327Y2309D01*
X2348D01*
X2341Y2329D02*
Y2299D01*
X2356Y2329D02*
X2372D01*
X2363Y2317D01*
X2368D01*
X2371Y2316D01*
X2372Y2314D01*
X2373Y2310D01*
Y2307D01*
X2372Y2303D01*
X2369Y2300D01*
X2365Y2299D01*
X2361D01*
X2356Y2300D01*
X2355Y2302D01*
X2353Y2304D01*
X1105Y1189D02*
Y1159D01*
Y1189D02*
X1118D01*
X1122Y1187D01*
X1124Y1186D01*
X1125Y1183D01*
Y1180D01*
X1124Y1177D01*
X1122Y1176D01*
X1118Y1174D01*
X1105D01*
X1115D02*
X1125Y1159D01*
X1146Y1189D02*
X1132Y1169D01*
X1153D01*
X1146Y1189D02*
Y1159D01*
X1160Y1182D02*
Y1183D01*
X1161Y1186D01*
X1163Y1187D01*
X1166Y1189D01*
X1171D01*
X1174Y1187D01*
X1176Y1186D01*
X1177Y1183D01*
Y1180D01*
X1176Y1177D01*
X1173Y1173D01*
X1158Y1159D01*
X1178D01*
X1532Y1584D02*
Y1561D01*
X1531Y1557D01*
X1529Y1555D01*
X1526Y1554D01*
X1524D01*
X1521Y1555D01*
X1519Y1557D01*
X1518Y1561D01*
Y1564D01*
X1540Y1568D02*
X1553D01*
X1557Y1569D01*
X1558Y1571D01*
X1560Y1574D01*
Y1578D01*
X1558Y1581D01*
X1557Y1582D01*
X1553Y1584D01*
X1540D01*
Y1554D01*
X1569Y1584D02*
X1585D01*
X1577Y1572D01*
X1581D01*
X1584Y1571D01*
X1585Y1569D01*
X1587Y1565D01*
Y1562D01*
X1585Y1558D01*
X1582Y1555D01*
X1578Y1554D01*
X1574D01*
X1569Y1555D01*
X1568Y1557D01*
X1567Y1559D01*
X2455Y2354D02*
Y2324D01*
Y2354D02*
X2465D01*
X2469Y2352D01*
X2472Y2349D01*
X2474Y2347D01*
X2475Y2342D01*
Y2335D01*
X2474Y2331D01*
X2472Y2328D01*
X2469Y2325D01*
X2465Y2324D01*
X2455D01*
X2482Y2348D02*
X2485Y2349D01*
X2489Y2354D01*
Y2324D01*
X2507Y2354D02*
X2522D01*
X2514Y2342D01*
X2518D01*
X2521Y2341D01*
X2522Y2339D01*
X2524Y2335D01*
Y2332D01*
X2522Y2328D01*
X2519Y2325D01*
X2515Y2324D01*
X2511D01*
X2507Y2325D01*
X2505Y2327D01*
X2504Y2329D01*
X1061Y1962D02*
X1060Y1964D01*
X1057Y1967D01*
X1054Y1969D01*
X1049D01*
X1046Y1967D01*
X1043Y1964D01*
X1041Y1962D01*
X1040Y1957D01*
Y1950D01*
X1041Y1946D01*
X1043Y1943D01*
X1046Y1940D01*
X1049Y1939D01*
X1054D01*
X1057Y1940D01*
X1060Y1943D01*
X1061Y1946D01*
X1084Y1969D02*
X1070Y1949D01*
X1091D01*
X1084Y1969D02*
Y1939D01*
X1117Y1969D02*
X1102Y1939D01*
X1097Y1969D02*
X1117D01*
X1241Y1552D02*
X1240Y1554D01*
X1237Y1557D01*
X1234Y1559D01*
X1229D01*
X1226Y1557D01*
X1223Y1554D01*
X1221Y1552D01*
X1220Y1547D01*
Y1540D01*
X1221Y1536D01*
X1223Y1533D01*
X1226Y1530D01*
X1229Y1529D01*
X1234D01*
X1237Y1530D01*
X1240Y1533D01*
X1241Y1536D01*
X1264Y1559D02*
X1250Y1539D01*
X1271D01*
X1264Y1559D02*
Y1529D01*
X1294Y1554D02*
X1292Y1557D01*
X1288Y1559D01*
X1285D01*
X1281Y1557D01*
X1278Y1553D01*
X1277Y1546D01*
Y1539D01*
X1278Y1533D01*
X1281Y1530D01*
X1285Y1529D01*
X1287D01*
X1291Y1530D01*
X1294Y1533D01*
X1295Y1537D01*
Y1539D01*
X1294Y1543D01*
X1291Y1546D01*
X1287Y1547D01*
X1285D01*
X1281Y1546D01*
X1278Y1543D01*
X1277Y1539D01*
X1442Y1615D02*
X1439Y1614D01*
X1436Y1611D01*
X1435Y1608D01*
Y1602D01*
X1436Y1599D01*
X1439Y1597D01*
X1442Y1595D01*
X1446Y1594D01*
X1454D01*
X1458Y1595D01*
X1461Y1597D01*
X1464Y1599D01*
X1465Y1602D01*
Y1608D01*
X1464Y1611D01*
X1461Y1614D01*
X1458Y1615D01*
X1435Y1638D02*
X1455Y1624D01*
Y1645D01*
X1435Y1638D02*
X1465D01*
X1435Y1667D02*
Y1653D01*
X1448Y1652D01*
X1446Y1653D01*
X1445Y1657D01*
Y1662D01*
X1446Y1666D01*
X1449Y1669D01*
X1454Y1670D01*
X1456D01*
X1461Y1669D01*
X1464Y1666D01*
X1465Y1662D01*
Y1657D01*
X1464Y1653D01*
X1462Y1652D01*
X1459Y1650D01*
X1631Y1877D02*
X1630Y1879D01*
X1627Y1882D01*
X1624Y1884D01*
X1619D01*
X1616Y1882D01*
X1613Y1879D01*
X1611Y1877D01*
X1610Y1872D01*
Y1865D01*
X1611Y1861D01*
X1613Y1858D01*
X1616Y1855D01*
X1619Y1854D01*
X1624D01*
X1627Y1855D01*
X1630Y1858D01*
X1631Y1861D01*
X1654Y1884D02*
X1640Y1864D01*
X1661D01*
X1654Y1884D02*
Y1854D01*
X1681Y1884D02*
X1667Y1864D01*
X1688D01*
X1681Y1884D02*
Y1854D01*
X1570Y2034D02*
Y2012D01*
X1571Y2008D01*
X1574Y2005D01*
X1579Y2004D01*
X1581D01*
X1586Y2005D01*
X1589Y2008D01*
X1590Y2012D01*
Y2034D01*
X1618D02*
X1604Y2004D01*
X1598Y2034D02*
X1618D01*
X1285Y1974D02*
Y1952D01*
X1286Y1948D01*
X1289Y1945D01*
X1294Y1944D01*
X1296D01*
X1301Y1945D01*
X1304Y1948D01*
X1305Y1952D01*
Y1974D01*
X1330Y1969D02*
X1329Y1972D01*
X1325Y1974D01*
X1322D01*
X1318Y1972D01*
X1315Y1968D01*
X1313Y1961D01*
Y1954D01*
X1315Y1948D01*
X1318Y1945D01*
X1322Y1944D01*
X1323D01*
X1328Y1945D01*
X1330Y1948D01*
X1332Y1952D01*
Y1954D01*
X1330Y1958D01*
X1328Y1961D01*
X1323Y1962D01*
X1322D01*
X1318Y1961D01*
X1315Y1958D01*
X1313Y1954D01*
X825Y1974D02*
Y1952D01*
X826Y1948D01*
X829Y1945D01*
X834Y1944D01*
X836D01*
X841Y1945D01*
X844Y1948D01*
X845Y1952D01*
Y1974D01*
X870D02*
X856D01*
X855Y1961D01*
X856Y1962D01*
X860Y1964D01*
X865D01*
X869Y1962D01*
X872Y1959D01*
X873Y1955D01*
Y1952D01*
X872Y1948D01*
X869Y1945D01*
X865Y1944D01*
X860D01*
X856Y1945D01*
X855Y1947D01*
X853Y1949D01*
X2549Y1774D02*
Y1751D01*
X2548Y1747D01*
X2546Y1745D01*
X2544Y1744D01*
X2541D01*
X2538Y1745D01*
X2536Y1747D01*
X2535Y1751D01*
Y1754D01*
X2577Y1774D02*
X2563Y1744D01*
X2557Y1774D02*
X2577D01*
X1502Y1115D02*
X1499Y1114D01*
X1496Y1111D01*
X1495Y1108D01*
Y1102D01*
X1496Y1099D01*
X1499Y1097D01*
X1502Y1095D01*
X1506Y1094D01*
X1514D01*
X1518Y1095D01*
X1521Y1097D01*
X1524Y1099D01*
X1525Y1102D01*
Y1108D01*
X1524Y1111D01*
X1521Y1114D01*
X1518Y1115D01*
X1501Y1124D02*
X1499Y1126D01*
X1495Y1131D01*
X1525D01*
X1495Y1153D02*
X1496Y1148D01*
X1499Y1147D01*
X1502D01*
X1505Y1148D01*
X1506Y1151D01*
X1508Y1157D01*
X1509Y1161D01*
X1512Y1164D01*
X1515Y1166D01*
X1519D01*
X1522Y1164D01*
X1524Y1163D01*
X1525Y1158D01*
Y1153D01*
X1524Y1148D01*
X1522Y1147D01*
X1519Y1146D01*
X1515D01*
X1512Y1147D01*
X1509Y1150D01*
X1508Y1154D01*
X1506Y1160D01*
X1505Y1163D01*
X1502Y1164D01*
X1499D01*
X1496Y1163D01*
X1495Y1158D01*
Y1153D01*
X2469Y2004D02*
Y1981D01*
X2468Y1977D01*
X2466Y1975D01*
X2464Y1974D01*
X2461D01*
X2458Y1975D01*
X2456Y1977D01*
X2455Y1981D01*
Y1984D01*
X2477Y1998D02*
X2480Y1999D01*
X2484Y2004D01*
Y1974D01*
X2499Y1998D02*
X2502Y1999D01*
X2506Y2004D01*
Y1974D01*
X2594Y647D02*
Y624D01*
X2593Y620D01*
X2591Y618D01*
X2589Y617D01*
X2586D01*
X2583Y618D01*
X2581Y620D01*
X2580Y624D01*
Y627D01*
X2602Y641D02*
X2605Y643D01*
X2609Y647D01*
Y617D01*
X2625Y640D02*
Y641D01*
X2627Y644D01*
X2628Y645D01*
X2631Y647D01*
X2637D01*
X2640Y645D01*
X2641Y644D01*
X2643Y641D01*
Y638D01*
X2641Y635D01*
X2638Y631D01*
X2624Y617D01*
X2644D01*
X2110Y454D02*
Y424D01*
Y454D02*
X2123D01*
X2127Y452D01*
X2129Y451D01*
X2130Y448D01*
Y445D01*
X2129Y442D01*
X2127Y441D01*
X2123Y439D01*
X2110D01*
X2120D02*
X2130Y424D01*
X2154Y454D02*
X2140D01*
X2138Y441D01*
X2140Y442D01*
X2144Y444D01*
X2148D01*
X2152Y442D01*
X2155Y439D01*
X2157Y435D01*
Y432D01*
X2155Y428D01*
X2152Y425D01*
X2148Y424D01*
X2144D01*
X2140Y425D01*
X2138Y427D01*
X2137Y429D01*
X2178Y454D02*
X2163Y434D01*
X2185D01*
X2178Y454D02*
Y424D01*
X1005Y794D02*
Y772D01*
X1006Y768D01*
X1009Y765D01*
X1014Y764D01*
X1016D01*
X1021Y765D01*
X1024Y768D01*
X1025Y772D01*
Y794D01*
X1048D02*
X1033Y774D01*
X1055D01*
X1048Y794D02*
Y764D01*
X419Y2203D02*
X420Y2206D01*
X423Y2209D01*
X426Y2210D01*
X431D01*
X434Y2209D01*
X437Y2206D01*
X439Y2203D01*
X440Y2199D01*
Y2191D01*
X439Y2187D01*
X437Y2184D01*
X434Y2181D01*
X431Y2180D01*
X426D01*
X423Y2181D01*
X420Y2184D01*
X419Y2187D01*
X410Y2210D02*
Y2180D01*
Y2210D02*
X390Y2180D01*
Y2210D02*
Y2180D01*
X382Y2204D02*
X379Y2206D01*
X375Y2210D01*
Y2180D01*
X1024Y1289D02*
Y1267D01*
X1025Y1263D01*
X1028Y1260D01*
X1033Y1259D01*
X1035D01*
X1040Y1260D01*
X1043Y1263D01*
X1044Y1267D01*
Y1289D01*
X1059D02*
X1055Y1287D01*
X1054Y1284D01*
Y1282D01*
X1055Y1279D01*
X1058Y1277D01*
X1064Y1276D01*
X1068Y1274D01*
X1071Y1272D01*
X1072Y1269D01*
Y1264D01*
X1071Y1262D01*
X1069Y1260D01*
X1065Y1259D01*
X1059D01*
X1055Y1260D01*
X1054Y1262D01*
X1052Y1264D01*
Y1269D01*
X1054Y1272D01*
X1057Y1274D01*
X1061Y1276D01*
X1067Y1277D01*
X1069Y1279D01*
X1071Y1282D01*
Y1284D01*
X1069Y1287D01*
X1065Y1289D01*
X1059D01*
D88*
X2751Y140D02*
G03*
X2751Y140I-138J0D01*
G01*
D89*
X1293Y1520D02*
X1537D01*
X1293Y1378D02*
X1537D01*
X1356Y1480D02*
X1474D01*
X1356Y1417D02*
Y1480D01*
Y1417D02*
X1474D01*
Y1480D01*
X1537Y1378D02*
Y1401D01*
X1293Y1378D02*
Y1401D01*
X1537Y1496D02*
Y1520D01*
X1293Y1496D02*
Y1520D01*
X1701Y1378D02*
X1945D01*
X1701Y1520D02*
X1945D01*
X1764Y1417D02*
X1882D01*
Y1480D01*
X1764D02*
X1882D01*
X1764Y1417D02*
Y1480D01*
X1701Y1496D02*
Y1520D01*
X1945Y1496D02*
Y1520D01*
X1701Y1378D02*
Y1401D01*
X1945Y1378D02*
Y1401D01*
X3812Y1808D02*
X3938D01*
Y1691D02*
Y1879D01*
X3843Y1761D02*
X3875Y1810D01*
X3843Y1761D02*
X3907D01*
X3875Y1810D02*
X3907Y1761D01*
X3916Y1879D02*
X3938D01*
X3920Y1691D02*
X3938D01*
X3812D02*
X3830D01*
X3812Y1879D02*
X3834D01*
X3812Y1691D02*
Y1879D01*
X3263Y2112D02*
Y2238D01*
X3146Y2112D02*
X3334D01*
X3216Y2207D02*
X3265Y2175D01*
X3216Y2143D02*
Y2207D01*
Y2143D02*
X3265Y2175D01*
X3334Y2112D02*
Y2134D01*
X3146Y2112D02*
Y2130D01*
Y2220D02*
Y2238D01*
X3334Y2216D02*
Y2238D01*
X3146D02*
X3334D01*
X3952Y1808D02*
X4078D01*
Y1691D02*
Y1879D01*
X3983Y1761D02*
X4015Y1810D01*
X3983Y1761D02*
X4047D01*
X4015Y1810D02*
X4047Y1761D01*
X4056Y1879D02*
X4078D01*
X4060Y1691D02*
X4078D01*
X3952D02*
X3970D01*
X3952Y1879D02*
X3974D01*
X3952Y1691D02*
Y1879D01*
X3391Y396D02*
X3471D01*
X3391D02*
Y570D01*
X3471D01*
Y396D02*
Y570D01*
X3214Y1958D02*
Y2027D01*
Y1958D02*
X3352D01*
Y2027D01*
X3214D02*
X3352D01*
X3224Y2017D02*
X3273D01*
Y1968D02*
Y2017D01*
X3224Y1968D02*
X3273D01*
X3224D02*
Y2017D01*
X3241Y396D02*
X3321D01*
X3241D02*
Y570D01*
X3321D01*
Y396D02*
Y570D01*
X3091Y396D02*
X3171D01*
X3091D02*
Y570D01*
X3171D01*
Y396D02*
Y570D01*
X3027Y762D02*
Y888D01*
X2956D02*
X3145D01*
X3025Y825D02*
X3074Y793D01*
Y857D01*
X3025Y825D02*
X3074Y857D01*
X2956Y866D02*
Y888D01*
X3145Y870D02*
Y888D01*
Y762D02*
Y780D01*
X2956Y762D02*
Y784D01*
Y762D02*
X3145D01*
X3073Y622D02*
Y748D01*
X2956Y622D02*
X3145D01*
X3026Y717D02*
X3075Y685D01*
X3026Y653D02*
Y717D01*
Y653D02*
X3075Y685D01*
X3145Y622D02*
Y644D01*
X2956Y622D02*
Y640D01*
Y730D02*
Y748D01*
X3145Y726D02*
Y748D01*
X2956D02*
X3145D01*
X2632Y2219D02*
Y2299D01*
X2458Y2219D02*
X2632D01*
X2458D02*
Y2299D01*
X2632D01*
X2431Y89D02*
Y169D01*
X2257Y89D02*
X2431D01*
X2257D02*
Y169D01*
X2431D01*
Y219D02*
Y299D01*
X2257Y219D02*
X2431D01*
X2257D02*
Y299D01*
X2431D01*
Y349D02*
Y429D01*
X2257Y349D02*
X2431D01*
X2257D02*
Y429D01*
X2431D01*
X1624Y857D02*
Y1101D01*
X1766Y857D02*
Y1101D01*
X1664Y920D02*
Y1038D01*
Y920D02*
X1727D01*
Y1038D01*
X1664D02*
X1727D01*
X1742Y1101D02*
X1766D01*
X1742Y857D02*
X1766D01*
X1624Y1101D02*
X1648D01*
X1624Y857D02*
X1648D01*
X3379Y2066D02*
X3366D01*
X3359Y2059D01*
Y2033D01*
X3366Y2027D01*
X3379D01*
X3386Y2033D01*
Y2059D01*
X3379Y2066D01*
X3399Y2027D02*
Y2066D01*
X3425Y2027D01*
Y2066D01*
X3184Y1968D02*
X3197D01*
X3191D01*
Y2007D01*
X3184Y2001D01*
D90*
X3819Y899D02*
X3828D01*
Y908D01*
X3983Y899D02*
X3992D01*
X3983Y559D02*
X3992D01*
Y562D01*
X3819Y559D02*
X3828D01*
Y568D01*
X3847Y612D02*
Y615D01*
X3839D02*
X3847D01*
X3992Y899D02*
Y906D01*
X3839Y843D02*
X3847D01*
Y855D01*
D91*
X3770Y553D02*
X4094D01*
Y905D01*
X3770D02*
X4094D01*
X3770Y553D02*
Y578D01*
Y878D02*
Y905D01*
X3096Y2077D02*
X3489D01*
Y2076D02*
X3490Y1905D01*
X3095D02*
X3096Y2076D01*
Y1903D02*
X3489D01*
X1325Y901D02*
X1444D01*
X1325D02*
Y1005D01*
X1449Y983D02*
Y1010D01*
X1405D02*
X1449D01*
X1444Y901D02*
Y1005D01*
X1325D02*
X1444D01*
D92*
X3791Y729D02*
X3799D01*
Y720D02*
Y729D01*
D93*
X3891Y1824D02*
X3903D01*
X3891Y1746D02*
X3903D01*
Y1824D01*
X3847D02*
X3859D01*
X3847Y1746D02*
X3859D01*
X3847D02*
Y1824D01*
X3279Y2147D02*
Y2159D01*
X3201Y2147D02*
Y2159D01*
Y2147D02*
X3279D01*
Y2191D02*
Y2203D01*
X3201Y2191D02*
Y2203D01*
X3279D01*
X4031Y1824D02*
X4043D01*
X4031Y1746D02*
X4043D01*
Y1824D01*
X3987D02*
X3999D01*
X3987Y1746D02*
X3999D01*
X3987D02*
Y1824D01*
X3011Y841D02*
Y853D01*
X3089Y841D02*
Y853D01*
X3011D02*
X3089D01*
X3011Y797D02*
Y809D01*
X3089Y797D02*
Y809D01*
X3011Y797D02*
X3089D01*
Y657D02*
Y669D01*
X3011Y657D02*
Y669D01*
Y657D02*
X3089D01*
Y701D02*
Y713D01*
X3011Y701D02*
Y713D01*
X3089D01*
X1024Y938D02*
Y952D01*
X1017Y945D02*
X1031D01*
D94*
X3508Y253D02*
X3563D01*
X3508Y387D02*
X3563D01*
X3508Y335D02*
Y387D01*
X3563Y335D02*
Y387D01*
Y253D02*
Y305D01*
X3508Y253D02*
Y305D01*
X3742Y1423D02*
X3798D01*
X3742Y1557D02*
X3798D01*
X3742Y1505D02*
Y1557D01*
X3798Y1505D02*
Y1557D01*
Y1423D02*
Y1475D01*
X3742Y1423D02*
Y1475D01*
X3672Y1423D02*
X3728D01*
X3672Y1557D02*
X3728D01*
X3672Y1505D02*
Y1557D01*
X3728Y1505D02*
Y1557D01*
Y1423D02*
Y1475D01*
X3672Y1423D02*
Y1475D01*
X3508Y423D02*
X3563D01*
X3508Y557D02*
X3563D01*
X3508Y505D02*
Y557D01*
X3563Y505D02*
Y557D01*
Y423D02*
Y475D01*
X3508Y423D02*
Y475D01*
X3383Y1592D02*
Y1648D01*
X3517Y1592D02*
Y1648D01*
X3465D02*
X3517D01*
X3465Y1592D02*
X3517D01*
X3383D02*
X3435D01*
X3383Y1648D02*
X3435D01*
X3602Y1423D02*
X3658D01*
X3602Y1557D02*
X3658D01*
X3602Y1505D02*
Y1557D01*
X3658Y1505D02*
Y1557D01*
Y1423D02*
Y1475D01*
X3602Y1423D02*
Y1475D01*
X3532Y1423D02*
X3588D01*
X3532Y1557D02*
X3588D01*
X3532Y1505D02*
Y1557D01*
X3588Y1505D02*
Y1557D01*
Y1423D02*
Y1475D01*
X3532Y1423D02*
Y1475D01*
X3727Y1757D02*
Y1813D01*
X3593Y1757D02*
Y1813D01*
Y1757D02*
X3645D01*
X3593Y1813D02*
X3645D01*
X3675D02*
X3727D01*
X3675Y1757D02*
X3727D01*
X3688Y1117D02*
X3743D01*
X3688Y983D02*
X3743D01*
Y1035D01*
X3688Y983D02*
Y1035D01*
Y1065D02*
Y1117D01*
X3743Y1065D02*
Y1117D01*
X3748D02*
X3803D01*
X3748Y983D02*
X3803D01*
Y1035D01*
X3748Y983D02*
Y1035D01*
Y1065D02*
Y1117D01*
X3803Y1065D02*
Y1117D01*
X3207Y1423D02*
X3263D01*
X3207Y1557D02*
X3263D01*
X3207Y1505D02*
Y1557D01*
X3263Y1505D02*
Y1557D01*
Y1423D02*
Y1475D01*
X3207Y1423D02*
Y1475D01*
X3008Y1192D02*
Y1248D01*
X3142Y1192D02*
Y1248D01*
X3090D02*
X3142D01*
X3090Y1192D02*
X3142D01*
X3008D02*
X3060D01*
X3008Y1248D02*
X3060D01*
X3253Y253D02*
X3308D01*
X3253Y387D02*
X3308D01*
X3253Y335D02*
Y387D01*
X3308Y335D02*
Y387D01*
Y253D02*
Y305D01*
X3253Y253D02*
Y305D01*
X3797Y1280D02*
X3853D01*
X3797Y1414D02*
X3853D01*
X3797Y1362D02*
Y1414D01*
X3853Y1362D02*
Y1414D01*
Y1280D02*
Y1332D01*
X3797Y1280D02*
Y1332D01*
X3142Y972D02*
Y1028D01*
X3008Y972D02*
Y1028D01*
Y972D02*
X3060D01*
X3008Y1028D02*
X3060D01*
X3090D02*
X3142D01*
X3090Y972D02*
X3142D01*
X3403Y499D02*
X3462D01*
X3407Y468D02*
X3431Y499D01*
X3407Y468D02*
X3454D01*
X3431Y499D02*
X3454Y468D01*
X3863Y991D02*
Y1035D01*
X3808Y991D02*
Y1035D01*
Y1065D02*
Y1109D01*
X3863Y1065D02*
Y1109D01*
X3142Y1042D02*
Y1098D01*
X3008Y1042D02*
Y1098D01*
Y1042D02*
X3060D01*
X3008Y1098D02*
X3060D01*
X3090D02*
X3142D01*
X3090Y1042D02*
X3142D01*
X3277Y1558D02*
X3333D01*
X3277Y1424D02*
X3333D01*
Y1476D01*
X3277Y1424D02*
Y1476D01*
Y1506D02*
Y1558D01*
X3333Y1506D02*
Y1558D01*
X3403Y253D02*
X3458D01*
X3403Y387D02*
X3458D01*
X3403Y335D02*
Y387D01*
X3458Y335D02*
Y387D01*
Y253D02*
Y305D01*
X3403Y253D02*
Y305D01*
X3097Y1273D02*
X3153D01*
X3097Y1407D02*
X3153D01*
X3097Y1355D02*
Y1407D01*
X3153Y1355D02*
Y1407D01*
Y1273D02*
Y1325D01*
X3097Y1273D02*
Y1325D01*
X3027Y1410D02*
X3083D01*
X3027Y1276D02*
X3083D01*
Y1328D01*
X3027Y1276D02*
Y1328D01*
Y1358D02*
Y1410D01*
X3083Y1358D02*
Y1410D01*
X3517Y2038D02*
X3573D01*
X3517Y2172D02*
X3573D01*
X3517Y2120D02*
Y2172D01*
X3573Y2120D02*
Y2172D01*
Y2038D02*
Y2090D01*
X3517Y2038D02*
Y2090D01*
X3962Y1423D02*
X4018D01*
X3962Y1557D02*
X4018D01*
X3962Y1505D02*
Y1557D01*
X4018Y1505D02*
Y1557D01*
Y1423D02*
Y1475D01*
X3962Y1423D02*
Y1475D01*
X3253Y499D02*
X3312D01*
X3257Y468D02*
X3281Y499D01*
X3257Y468D02*
X3304D01*
X3281Y499D02*
X3304Y468D01*
X3249Y1384D02*
X3293D01*
X3249Y1329D02*
X3293D01*
X3175D02*
X3219D01*
X3175Y1384D02*
X3219D01*
X3545D02*
X3589D01*
X3545Y1329D02*
X3589D01*
X3471D02*
X3515D01*
X3471Y1384D02*
X3515D01*
X3395D02*
X3439D01*
X3395Y1329D02*
X3439D01*
X3321D02*
X3365D01*
X3321Y1384D02*
X3365D01*
X3683Y991D02*
Y1035D01*
X3628Y991D02*
Y1035D01*
Y1065D02*
Y1109D01*
X3683Y1065D02*
Y1109D01*
X3008Y1122D02*
Y1178D01*
X3142Y1122D02*
Y1178D01*
X3090D02*
X3142D01*
X3090Y1122D02*
X3142D01*
X3008D02*
X3060D01*
X3008Y1178D02*
X3060D01*
X3103Y253D02*
X3158D01*
X3103Y387D02*
X3158D01*
X3103Y335D02*
Y387D01*
X3158Y335D02*
Y387D01*
Y253D02*
Y305D01*
X3103Y253D02*
Y305D01*
X3103Y499D02*
X3162D01*
X3107Y468D02*
X3131Y499D01*
X3107Y468D02*
X3154D01*
X3131Y499D02*
X3154Y468D01*
X3955Y1409D02*
X3999D01*
X3955Y1354D02*
X3999D01*
X3881D02*
X3925D01*
X3881Y1409D02*
X3925D01*
X3517Y1702D02*
Y1758D01*
X3383Y1702D02*
Y1758D01*
Y1702D02*
X3435D01*
X3383Y1758D02*
X3435D01*
X3465D02*
X3517D01*
X3465Y1702D02*
X3517D01*
D95*
X3705Y2275D02*
X3805D01*
Y1975D02*
Y2275D01*
X3705Y1975D02*
X3805D01*
X3705D02*
Y2275D01*
X3325Y2410D02*
Y2510D01*
X2925D02*
X3325D01*
X2925Y2410D02*
X3325D01*
X2925D02*
Y2510D01*
X2825Y410D02*
Y610D01*
X2925D01*
Y410D02*
Y610D01*
X2825Y410D02*
X2925D01*
Y910D02*
Y1110D01*
X2825Y910D02*
X2925D01*
X2825D02*
Y1110D01*
X2925D01*
X3325Y130D02*
X3925D01*
Y230D01*
X3325D02*
X3925D01*
X3325Y130D02*
Y230D01*
X2825Y1210D02*
Y1810D01*
Y1210D02*
X2925D01*
Y1810D01*
X2825D02*
X2925D01*
X1503Y1599D02*
Y1699D01*
Y1599D02*
X1703D01*
Y1699D01*
X1503D02*
X1703D01*
X2625Y1109D02*
X2725D01*
X2625Y909D02*
Y1109D01*
Y909D02*
X2725D01*
Y1109D01*
X2625Y1209D02*
Y1809D01*
Y1209D02*
X2725D01*
Y1809D01*
X2625D02*
X2725D01*
X2625Y1709D02*
X2725D01*
X2525Y1909D02*
Y2109D01*
Y1909D02*
X2725D01*
X2525Y2109D02*
X2725D01*
Y1909D02*
Y2109D01*
X2730Y395D02*
Y595D01*
X2530D02*
X2730D01*
X2530Y395D02*
X2730D01*
X2530D02*
Y595D01*
X1000Y815D02*
X1024Y839D01*
X939Y815D02*
X1000D01*
X1024Y839D02*
X1048Y815D01*
X1109D01*
Y1075D01*
X939D02*
X1109D01*
X939Y815D02*
Y1075D01*
X-119Y1148D02*
X-109Y1128D01*
X-89Y1108D01*
X-69D01*
X-59Y1118D01*
Y1138D01*
X-69Y1148D01*
X-79D01*
X-89Y1138D01*
Y1108D01*
X-119Y1168D02*
Y1208D01*
X-109D01*
X-69Y1168D01*
X-59D01*
Y1228D02*
X-69D01*
Y1238D01*
X-59D01*
Y1228D01*
X-109Y1278D02*
X-119Y1288D01*
Y1308D01*
X-109Y1318D01*
X-69D01*
X-59Y1308D01*
Y1288D01*
X-69Y1278D01*
X-109D01*
Y1338D02*
X-119Y1348D01*
Y1368D01*
X-109Y1378D01*
X-69D01*
X-59Y1368D01*
Y1348D01*
X-69Y1338D01*
X-109D01*
X-59Y1398D02*
X-99D01*
Y1408D01*
X-89Y1418D01*
X-59D01*
X-89D01*
X-99Y1428D01*
X-89Y1438D01*
X-59D01*
Y1458D02*
X-99D01*
Y1468D01*
X-89Y1478D01*
X-59D01*
X-89D01*
X-99Y1488D01*
X-89Y1498D01*
X-59D01*
X1811Y-157D02*
X1831D01*
X1821D01*
Y-97D01*
X1811Y-107D01*
X1861D02*
X1871Y-97D01*
X1891D01*
X1901Y-107D01*
Y-147D01*
X1891Y-157D01*
X1871D01*
X1861Y-147D01*
Y-107D01*
X1951Y-157D02*
Y-97D01*
X1921Y-127D01*
X1961D01*
X1981Y-157D02*
Y-147D01*
X1991D01*
Y-157D01*
X1981D01*
X2031Y-107D02*
X2041Y-97D01*
X2061D01*
X2071Y-107D01*
Y-147D01*
X2061Y-157D01*
X2041D01*
X2031Y-147D01*
Y-107D01*
X2091D02*
X2101Y-97D01*
X2121D01*
X2131Y-107D01*
Y-147D01*
X2121Y-157D01*
X2101D01*
X2091Y-147D01*
Y-107D01*
X2151Y-157D02*
Y-117D01*
X2161D01*
X2171Y-127D01*
Y-157D01*
Y-127D01*
X2181Y-117D01*
X2191Y-127D01*
Y-157D01*
X2211D02*
Y-117D01*
X2221D01*
X2231Y-127D01*
Y-157D01*
Y-127D01*
X2241Y-117D01*
X2251Y-127D01*
Y-157D01*
X1772Y700D02*
Y702D01*
X1773Y705D01*
X1775Y707D01*
X1778Y709D01*
X1785D01*
X1788Y707D01*
X1790Y705D01*
X1792Y702D01*
Y699D01*
X1790Y695D01*
X1787Y690D01*
X1770Y674D01*
X1793D01*
X1811Y709D02*
X1806Y707D01*
X1803Y702D01*
X1801Y694D01*
Y689D01*
X1803Y680D01*
X1806Y675D01*
X1811Y674D01*
X1814D01*
X1819Y675D01*
X1823Y680D01*
X1824Y689D01*
Y694D01*
X1823Y702D01*
X1819Y707D01*
X1814Y709D01*
X1811D01*
X1834Y700D02*
Y702D01*
X1836Y705D01*
X1837Y707D01*
X1841Y709D01*
X1847D01*
X1851Y707D01*
X1852Y705D01*
X1854Y702D01*
Y699D01*
X1852Y695D01*
X1849Y690D01*
X1832Y674D01*
X1856D01*
X1880Y709D02*
X1863Y685D01*
X1888D01*
X1880Y709D02*
Y674D01*
X1896Y677D02*
X1895Y675D01*
X1896Y674D01*
X1898Y675D01*
X1896Y677D01*
X1916Y709D02*
X1911Y707D01*
X1907Y702D01*
X1906Y694D01*
Y689D01*
X1907Y680D01*
X1911Y675D01*
X1916Y674D01*
X1919D01*
X1924Y675D01*
X1927Y680D01*
X1929Y689D01*
Y694D01*
X1927Y702D01*
X1924Y707D01*
X1919Y709D01*
X1916D01*
X1957Y704D02*
X1955Y707D01*
X1950Y709D01*
X1947D01*
X1942Y707D01*
X1938Y702D01*
X1937Y694D01*
Y685D01*
X1938Y679D01*
X1942Y675D01*
X1947Y674D01*
X1948D01*
X1953Y675D01*
X1957Y679D01*
X1958Y684D01*
Y685D01*
X1957Y690D01*
X1953Y694D01*
X1948Y695D01*
X1947D01*
X1942Y694D01*
X1938Y690D01*
X1937Y685D01*
D96*
X3963Y2499D02*
Y2528D01*
X3987Y2499D02*
Y2528D01*
X3963Y2499D02*
X3987D01*
X3863D02*
X3887D01*
Y2528D01*
X3863Y2499D02*
Y2528D01*
X3763Y2499D02*
X3787D01*
Y2528D01*
X3763Y2499D02*
Y2528D01*
X3663Y2499D02*
X3687D01*
Y2528D01*
X3663Y2499D02*
Y2528D01*
X3563Y2499D02*
X3587D01*
Y2528D01*
X3563Y2499D02*
Y2528D01*
X3463Y2499D02*
X3487D01*
X3463D02*
Y2528D01*
X3487Y2499D02*
Y2528D01*
Y2628D02*
Y2661D01*
X3463Y2628D02*
Y2661D01*
X3487D01*
X3563Y2628D02*
Y2661D01*
X3587Y2628D02*
Y2661D01*
X3563D02*
X3587D01*
X3663Y2628D02*
Y2661D01*
X3687Y2628D02*
Y2661D01*
X3663D02*
X3687D01*
X3763Y2628D02*
Y2661D01*
X3787Y2628D02*
Y2661D01*
X3763D02*
X3787D01*
X3863Y2628D02*
Y2661D01*
X3887Y2628D02*
Y2661D01*
X3863D02*
X3887D01*
X3963D02*
X3987D01*
Y2628D02*
Y2661D01*
X3963Y2628D02*
Y2661D01*
X4025Y2528D02*
Y2628D01*
X3425Y2528D02*
X4025D01*
X3425D02*
Y2628D01*
X4025D01*
D97*
X3458Y2310D02*
X3495D01*
X3458D02*
Y2326D01*
X3460Y2331D01*
X3462Y2333D01*
X3465Y2335D01*
X3469D01*
X3472Y2333D01*
X3474Y2331D01*
X3476Y2326D01*
Y2310D01*
Y2322D02*
X3495Y2335D01*
X3463Y2368D02*
X3460Y2364D01*
X3458Y2359D01*
Y2352D01*
X3460Y2346D01*
X3463Y2343D01*
X3467D01*
X3470Y2345D01*
X3472Y2346D01*
X3474Y2350D01*
X3477Y2361D01*
X3479Y2364D01*
X3481Y2366D01*
X3484Y2368D01*
X3490D01*
X3493Y2364D01*
X3495Y2359D01*
Y2352D01*
X3493Y2346D01*
X3490Y2343D01*
X3458Y2388D02*
X3495D01*
X3458Y2376D02*
Y2401D01*
X3567Y2331D02*
X3563Y2330D01*
X3560Y2326D01*
X3558Y2323D01*
Y2316D01*
X3560Y2312D01*
X3563Y2309D01*
X3567Y2307D01*
X3572Y2305D01*
X3581D01*
X3586Y2307D01*
X3590Y2309D01*
X3593Y2312D01*
X3595Y2316D01*
Y2323D01*
X3593Y2326D01*
X3590Y2330D01*
X3586Y2331D01*
X3581D01*
Y2323D02*
Y2331D01*
X3558Y2340D02*
X3595D01*
X3558D02*
X3595Y2365D01*
X3558D02*
X3595D01*
X3558Y2375D02*
X3595D01*
X3558D02*
Y2387D01*
X3560Y2392D01*
X3563Y2396D01*
X3567Y2398D01*
X3572Y2399D01*
X3581D01*
X3586Y2398D01*
X3590Y2396D01*
X3593Y2392D01*
X3595Y2387D01*
Y2375D01*
X3663Y2330D02*
X3660Y2326D01*
X3658Y2321D01*
Y2314D01*
X3660Y2309D01*
X3663Y2305D01*
X3667D01*
X3670Y2307D01*
X3672Y2309D01*
X3674Y2312D01*
X3677Y2323D01*
X3679Y2326D01*
X3681Y2328D01*
X3684Y2330D01*
X3690D01*
X3693Y2326D01*
X3695Y2321D01*
Y2314D01*
X3693Y2309D01*
X3690Y2305D01*
X3658Y2338D02*
X3695D01*
X3658D02*
Y2350D01*
X3660Y2356D01*
X3663Y2359D01*
X3667Y2361D01*
X3672Y2363D01*
X3681D01*
X3686Y2361D01*
X3690Y2359D01*
X3693Y2356D01*
X3695Y2350D01*
Y2338D01*
Y2399D02*
X3658Y2385D01*
X3695Y2371D01*
X3683Y2376D02*
Y2394D01*
X3758Y2305D02*
X3795Y2319D01*
X3758Y2333D02*
X3795Y2319D01*
X3767Y2364D02*
X3763Y2363D01*
X3760Y2359D01*
X3758Y2356D01*
Y2349D01*
X3760Y2345D01*
X3763Y2341D01*
X3767Y2340D01*
X3772Y2338D01*
X3781D01*
X3786Y2340D01*
X3790Y2341D01*
X3793Y2345D01*
X3795Y2349D01*
Y2356D01*
X3793Y2359D01*
X3790Y2363D01*
X3786Y2364D01*
X3767Y2401D02*
X3763Y2399D01*
X3760Y2396D01*
X3758Y2392D01*
Y2385D01*
X3760Y2382D01*
X3763Y2378D01*
X3767Y2377D01*
X3772Y2375D01*
X3781D01*
X3786Y2377D01*
X3790Y2378D01*
X3793Y2382D01*
X3795Y2385D01*
Y2392D01*
X3793Y2396D01*
X3790Y2399D01*
X3786Y2401D01*
X3865Y2343D02*
X3862Y2340D01*
X3860Y2335D01*
Y2328D01*
X3862Y2323D01*
X3865Y2320D01*
X3868D01*
X3872Y2322D01*
X3873Y2323D01*
X3875Y2327D01*
X3878Y2337D01*
X3880Y2340D01*
X3882Y2342D01*
X3885Y2343D01*
X3890D01*
X3893Y2340D01*
X3895Y2335D01*
Y2328D01*
X3893Y2323D01*
X3890Y2320D01*
X3868Y2376D02*
X3865Y2374D01*
X3862Y2371D01*
X3860Y2368D01*
Y2361D01*
X3862Y2358D01*
X3865Y2354D01*
X3868Y2353D01*
X3873Y2351D01*
X3882D01*
X3887Y2353D01*
X3890Y2354D01*
X3893Y2358D01*
X3895Y2361D01*
Y2368D01*
X3893Y2371D01*
X3890Y2374D01*
X3887Y2376D01*
X3860Y2386D02*
X3895D01*
Y2406D01*
X3968Y2345D02*
X3965Y2343D01*
X3962Y2340D01*
X3960Y2337D01*
Y2330D01*
X3962Y2327D01*
X3965Y2323D01*
X3968Y2322D01*
X3973Y2320D01*
X3982D01*
X3987Y2322D01*
X3990Y2323D01*
X3993Y2327D01*
X3995Y2330D01*
Y2337D01*
X3993Y2340D01*
X3990Y2343D01*
X3987Y2345D01*
X3960Y2355D02*
X3995D01*
Y2375D01*
X3960Y2379D02*
X3995D01*
X3960Y2402D02*
X3983Y2379D01*
X3975Y2387D02*
X3995Y2402D01*
X3565Y2029D02*
X3579Y1992D01*
X3593Y2029D02*
X3579Y1992D01*
X3598Y2029D02*
Y1992D01*
Y2029D02*
X3610D01*
X3616Y2027D01*
X3619Y2024D01*
X3621Y2020D01*
X3623Y2015D01*
Y2006D01*
X3621Y2001D01*
X3619Y1997D01*
X3616Y1994D01*
X3610Y1992D01*
X3598D01*
X3631Y2029D02*
Y1992D01*
Y2029D02*
X3643D01*
X3648Y2027D01*
X3652Y2024D01*
X3654Y2020D01*
X3656Y2015D01*
Y2006D01*
X3654Y2001D01*
X3652Y1997D01*
X3648Y1994D01*
X3643Y1992D01*
X3631D01*
X3685Y2029D02*
X3667D01*
X3666Y2013D01*
X3667Y2015D01*
X3673Y2017D01*
X3678D01*
X3683Y2015D01*
X3687Y2011D01*
X3688Y2006D01*
Y2002D01*
X3687Y1997D01*
X3683Y1994D01*
X3678Y1992D01*
X3673D01*
X3667Y1994D01*
X3666Y1995D01*
X3664Y1999D01*
X3595Y2142D02*
X3609Y2105D01*
X3623Y2142D02*
X3609Y2105D01*
X3628Y2142D02*
Y2105D01*
Y2142D02*
X3640D01*
X3646Y2140D01*
X3649Y2137D01*
X3651Y2133D01*
X3653Y2128D01*
Y2119D01*
X3651Y2114D01*
X3649Y2110D01*
X3646Y2107D01*
X3640Y2105D01*
X3628D01*
X3661Y2142D02*
Y2105D01*
Y2142D02*
X3673D01*
X3679Y2140D01*
X3682Y2137D01*
X3684Y2133D01*
X3686Y2128D01*
Y2119D01*
X3684Y2114D01*
X3682Y2110D01*
X3679Y2107D01*
X3673Y2105D01*
X3661D01*
X3565Y2239D02*
X3579Y2202D01*
X3593Y2239D02*
X3579Y2202D01*
X3598Y2239D02*
Y2202D01*
Y2239D02*
X3610D01*
X3616Y2237D01*
X3619Y2234D01*
X3621Y2230D01*
X3623Y2225D01*
Y2216D01*
X3621Y2211D01*
X3619Y2207D01*
X3616Y2204D01*
X3610Y2202D01*
X3598D01*
X3631Y2239D02*
Y2202D01*
Y2239D02*
X3643D01*
X3648Y2237D01*
X3652Y2234D01*
X3654Y2230D01*
X3656Y2225D01*
Y2216D01*
X3654Y2211D01*
X3652Y2207D01*
X3648Y2204D01*
X3643Y2202D01*
X3631D01*
X3667Y2239D02*
X3687D01*
X3676Y2225D01*
X3681D01*
X3685Y2223D01*
X3687Y2221D01*
X3688Y2216D01*
Y2212D01*
X3687Y2207D01*
X3683Y2204D01*
X3678Y2202D01*
X3673D01*
X3667Y2204D01*
X3666Y2205D01*
X3664Y2209D01*
X2530Y1272D02*
Y1239D01*
Y1272D02*
X2544D01*
X2549Y1270D01*
X2550Y1269D01*
X2552Y1265D01*
Y1262D01*
X2550Y1259D01*
X2549Y1258D01*
X2544Y1256D01*
X2530D01*
X2541D02*
X2552Y1239D01*
X2581Y1267D02*
X2578Y1270D01*
X2574Y1272D01*
X2567D01*
X2563Y1270D01*
X2559Y1267D01*
Y1264D01*
X2561Y1261D01*
X2563Y1259D01*
X2566Y1258D01*
X2575Y1254D01*
X2578Y1253D01*
X2580Y1251D01*
X2581Y1248D01*
Y1243D01*
X2578Y1240D01*
X2574Y1239D01*
X2567D01*
X2563Y1240D01*
X2559Y1243D01*
X2600Y1272D02*
Y1239D01*
X2589Y1272D02*
X2611D01*
X2549Y1364D02*
X2547Y1367D01*
X2544Y1370D01*
X2541Y1372D01*
X2534D01*
X2531Y1370D01*
X2528Y1367D01*
X2527Y1364D01*
X2525Y1359D01*
Y1351D01*
X2527Y1347D01*
X2528Y1343D01*
X2531Y1340D01*
X2534Y1339D01*
X2541D01*
X2544Y1340D01*
X2547Y1343D01*
X2549Y1347D01*
Y1351D01*
X2541D02*
X2549D01*
X2556Y1372D02*
Y1339D01*
Y1372D02*
X2578Y1339D01*
Y1372D02*
Y1339D01*
X2587Y1372D02*
Y1339D01*
Y1372D02*
X2598D01*
X2603Y1370D01*
X2606Y1367D01*
X2608Y1364D01*
X2609Y1359D01*
Y1351D01*
X2608Y1347D01*
X2606Y1343D01*
X2603Y1340D01*
X2598Y1339D01*
X2587D01*
X2547Y1472D02*
X2544Y1475D01*
X2539Y1477D01*
X2533D01*
X2528Y1475D01*
X2525Y1472D01*
Y1469D01*
X2527Y1466D01*
X2528Y1464D01*
X2531Y1463D01*
X2541Y1459D01*
X2544Y1458D01*
X2545Y1456D01*
X2547Y1453D01*
Y1448D01*
X2544Y1445D01*
X2539Y1444D01*
X2533D01*
X2528Y1445D01*
X2525Y1448D01*
X2554Y1477D02*
Y1444D01*
Y1477D02*
X2565D01*
X2570Y1475D01*
X2573Y1472D01*
X2575Y1469D01*
X2576Y1464D01*
Y1456D01*
X2575Y1452D01*
X2573Y1448D01*
X2570Y1445D01*
X2565Y1444D01*
X2554D01*
X2609D02*
X2596Y1477D01*
X2584Y1444D01*
X2589Y1455D02*
X2604D01*
X2495Y1572D02*
X2508Y1539D01*
X2520Y1572D02*
X2508Y1539D01*
X2524Y1572D02*
Y1539D01*
Y1572D02*
X2535D01*
X2540Y1570D01*
X2543Y1567D01*
X2545Y1564D01*
X2546Y1559D01*
Y1551D01*
X2545Y1547D01*
X2543Y1543D01*
X2540Y1540D01*
X2535Y1539D01*
X2524D01*
X2554Y1572D02*
Y1548D01*
X2555Y1543D01*
X2559Y1540D01*
X2563Y1539D01*
X2566D01*
X2571Y1540D01*
X2574Y1543D01*
X2576Y1548D01*
Y1572D01*
X2596D02*
Y1539D01*
X2585Y1572D02*
X2607D01*
X2552Y1672D02*
X2549Y1675D01*
X2544Y1677D01*
X2538D01*
X2533Y1675D01*
X2530Y1672D01*
Y1669D01*
X2532Y1666D01*
X2533Y1664D01*
X2536Y1663D01*
X2546Y1659D01*
X2549Y1658D01*
X2550Y1656D01*
X2552Y1653D01*
Y1648D01*
X2549Y1645D01*
X2544Y1644D01*
X2538D01*
X2533Y1645D01*
X2530Y1648D01*
X2583Y1669D02*
X2581Y1672D01*
X2578Y1675D01*
X2575Y1677D01*
X2569D01*
X2566Y1675D01*
X2563Y1672D01*
X2561Y1669D01*
X2559Y1664D01*
Y1656D01*
X2561Y1652D01*
X2563Y1648D01*
X2566Y1645D01*
X2569Y1644D01*
X2575D01*
X2578Y1645D01*
X2581Y1648D01*
X2583Y1652D01*
X2592Y1677D02*
Y1644D01*
X2611D01*
D98*
X3875Y1803D02*
D03*
X4015Y1803D02*
D03*
D99*
X3927Y1854D02*
D03*
X3823Y1854D02*
D03*
X4067Y1854D02*
D03*
X3963Y1854D02*
D03*
D100*
X3259Y2175D02*
D03*
X3032Y825D02*
D03*
X3068Y685D02*
D03*
D101*
X3309Y2123D02*
D03*
X2981Y877D02*
D03*
X3119Y633D02*
D03*
D102*
X3309Y2228D02*
D03*
X2981Y773D02*
D03*
X3119Y737D02*
D03*
D103*
X3431Y577D02*
D03*
X3281D02*
D03*
X3131D02*
D03*
D104*
X2451Y2259D02*
D03*
X2251Y129D02*
D03*
Y259D02*
D03*
Y389D02*
D03*
M02*
