%FSLAX23Y23*%
%MOIN*%
G70*
G01*
G75*
G04 Layer_Color=12756459*
%ADD10C,0.008*%
%ADD11C,0.010*%
%ADD12R,0.032X0.032*%
%ADD13R,0.100X0.022*%
%ADD14R,0.126X0.022*%
%ADD15R,0.100X0.012*%
%ADD16R,0.126X0.012*%
%ADD17R,0.021X0.037*%
%ADD18R,0.071X0.079*%
%ADD19R,0.037X0.021*%
%ADD20R,0.079X0.071*%
%ADD21R,0.036X0.046*%
%ADD22R,0.036X0.043*%
%ADD23R,0.010X0.053*%
%ADD24R,0.053X0.010*%
%ADD25O,0.053X0.010*%
%ADD26O,0.010X0.053*%
%ADD27R,0.102X0.040*%
%ADD28R,0.059X0.040*%
%ADD29O,0.138X0.094*%
%ADD30R,0.038X0.045*%
%ADD31R,0.045X0.038*%
%ADD32R,0.050X0.060*%
%ADD33R,0.060X0.050*%
%ADD34C,0.060*%
%ADD35R,0.032X0.032*%
%ADD36R,0.040X0.037*%
%ADD37P,0.027X8X22.5*%
%ADD38R,0.067X0.025*%
%ADD39O,0.067X0.025*%
%ADD40O,0.075X0.024*%
%ADD41R,0.075X0.024*%
%ADD42O,0.094X0.138*%
%ADD43R,0.040X0.059*%
%ADD44R,0.040X0.102*%
%ADD45R,0.049X0.012*%
%ADD46O,0.009X0.039*%
%ADD47O,0.039X0.009*%
%ADD48R,0.039X0.009*%
%ADD49C,0.040*%
%ADD50C,0.020*%
%ADD51C,0.012*%
%ADD52C,0.022*%
%ADD53C,0.030*%
%ADD54C,0.015*%
%ADD55C,0.011*%
%ADD56C,0.050*%
%ADD57C,0.023*%
%ADD58R,0.130X0.028*%
%ADD59R,0.070X0.070*%
%ADD60C,0.070*%
%ADD61C,0.028*%
%ADD62O,0.063X0.039*%
%ADD63O,0.083X0.039*%
%ADD64R,0.055X0.055*%
%ADD65C,0.055*%
%ADD66R,0.060X0.060*%
%ADD67O,0.060X0.070*%
%ADD68R,0.060X0.070*%
%ADD69R,0.060X0.060*%
%ADD70C,0.071*%
%ADD71R,0.071X0.071*%
%ADD72C,0.100*%
%ADD73R,0.070X0.070*%
%ADD74C,0.120*%
%ADD75O,0.070X0.060*%
%ADD76R,0.065X0.065*%
%ADD77C,0.025*%
%ADD78C,0.020*%
%ADD79C,0.050*%
%ADD80C,0.040*%
%ADD81C,0.030*%
%ADD82C,0.035*%
%ADD83C,0.015*%
%ADD84C,0.028*%
%ADD85C,0.039*%
%ADD86C,0.001*%
%ADD87C,0.005*%
%ADD88C,0.004*%
%ADD89C,0.006*%
%ADD90C,0.000*%
%ADD91C,0.004*%
%ADD92C,0.001*%
%ADD93C,0.003*%
%ADD94C,0.008*%
%ADD95C,0.006*%
%ADD96C,0.006*%
%ADD97C,0.007*%
%ADD98R,0.055X0.017*%
%ADD99R,0.027X0.092*%
%ADD100R,0.017X0.055*%
%ADD101R,0.092X0.027*%
%ADD102R,0.092X0.027*%
%ADD103R,0.077X0.021*%
%ADD104R,0.021X0.077*%
%ADD105R,0.040X0.040*%
%ADD106R,0.108X0.030*%
%ADD107R,0.134X0.030*%
%ADD108R,0.108X0.020*%
%ADD109R,0.134X0.020*%
%ADD110R,0.029X0.045*%
%ADD111R,0.079X0.087*%
%ADD112R,0.045X0.029*%
%ADD113R,0.087X0.079*%
%ADD114R,0.044X0.054*%
%ADD115R,0.044X0.051*%
%ADD116R,0.018X0.061*%
%ADD117R,0.061X0.018*%
%ADD118O,0.061X0.018*%
%ADD119O,0.018X0.061*%
%ADD120R,0.110X0.048*%
%ADD121R,0.067X0.048*%
%ADD122O,0.146X0.102*%
%ADD123R,0.046X0.053*%
%ADD124R,0.053X0.046*%
%ADD125R,0.058X0.068*%
%ADD126R,0.068X0.058*%
%ADD127C,0.139*%
%ADD128R,0.040X0.040*%
%ADD129R,0.048X0.045*%
%ADD130P,0.036X8X22.5*%
%ADD131R,0.075X0.033*%
%ADD132O,0.075X0.033*%
%ADD133O,0.083X0.032*%
%ADD134R,0.083X0.032*%
%ADD135O,0.102X0.146*%
%ADD136R,0.048X0.067*%
%ADD137R,0.048X0.110*%
%ADD138R,0.057X0.020*%
%ADD139O,0.017X0.047*%
%ADD140O,0.047X0.017*%
%ADD141R,0.047X0.017*%
%ADD142R,0.078X0.078*%
%ADD143C,0.078*%
%ADD144C,0.036*%
%ADD145O,0.071X0.047*%
%ADD146O,0.091X0.047*%
%ADD147R,0.063X0.063*%
%ADD148C,0.063*%
%ADD149C,0.068*%
%ADD150R,0.068X0.068*%
%ADD151O,0.068X0.078*%
%ADD152R,0.068X0.078*%
%ADD153R,0.068X0.068*%
%ADD154C,0.079*%
%ADD155R,0.079X0.079*%
%ADD156C,0.108*%
%ADD157R,0.078X0.078*%
%ADD158C,0.128*%
%ADD159O,0.078X0.068*%
%ADD160R,0.073X0.073*%
G36*
X1439Y955D02*
X1405D01*
X1391Y969D01*
Y1000D01*
X1439D01*
Y955D01*
D02*
G37*
D105*
X1345Y1249D02*
D03*
Y1309D02*
D03*
X1275Y1309D02*
D03*
Y1249D02*
D03*
X1415Y1249D02*
D03*
Y1309D02*
D03*
X945Y1599D02*
D03*
Y1659D02*
D03*
X870Y1599D02*
D03*
Y1659D02*
D03*
X685Y1599D02*
D03*
Y1659D02*
D03*
X1395Y1659D02*
D03*
Y1599D02*
D03*
X1325Y1599D02*
D03*
Y1659D02*
D03*
X1255Y1659D02*
D03*
Y1599D02*
D03*
X1180Y1599D02*
D03*
Y1659D02*
D03*
X1095Y1524D02*
D03*
Y1464D02*
D03*
X1160Y1524D02*
D03*
Y1464D02*
D03*
X610Y1599D02*
D03*
Y1659D02*
D03*
X1345Y1109D02*
D03*
Y1169D02*
D03*
X1415Y1169D02*
D03*
Y1109D02*
D03*
D106*
X3764Y855D02*
D03*
Y824D02*
D03*
D107*
Y635D02*
D03*
Y603D02*
D03*
D108*
Y798D02*
D03*
Y778D02*
D03*
D109*
Y759D02*
D03*
Y739D02*
D03*
Y719D02*
D03*
Y700D02*
D03*
Y680D02*
D03*
Y660D02*
D03*
D110*
X3875Y1732D02*
D03*
Y1838D02*
D03*
X4015Y1732D02*
D03*
Y1838D02*
D03*
D111*
X3875Y1698D02*
D03*
Y1872D02*
D03*
X4015Y1698D02*
D03*
Y1872D02*
D03*
D112*
X3187Y2175D02*
D03*
X3293D02*
D03*
X3103Y825D02*
D03*
X2997D02*
D03*
Y685D02*
D03*
X3103D02*
D03*
D113*
X3153Y2175D02*
D03*
X3327D02*
D03*
X3137Y825D02*
D03*
X2963D02*
D03*
Y685D02*
D03*
X3137D02*
D03*
D114*
X3131Y1544D02*
D03*
X3741Y1707D02*
D03*
X3601D02*
D03*
X3878Y1544D02*
D03*
X3300Y1623D02*
D03*
D115*
X3168Y1460D02*
D03*
X3092D02*
D03*
X3778Y1623D02*
D03*
X3703D02*
D03*
X3638D02*
D03*
X3563D02*
D03*
X3840Y1460D02*
D03*
X3915D02*
D03*
X3338Y1707D02*
D03*
X3263D02*
D03*
D116*
X3318Y1223D02*
D03*
X3338D02*
D03*
X3358D02*
D03*
X3377D02*
D03*
X3397D02*
D03*
X3417D02*
D03*
X3436D02*
D03*
X3456D02*
D03*
X3476D02*
D03*
X3495D02*
D03*
X3515D02*
D03*
Y886D02*
D03*
X3495D02*
D03*
X3476D02*
D03*
X3456D02*
D03*
X3436D02*
D03*
X3417D02*
D03*
X3397D02*
D03*
X3377D02*
D03*
X3358D02*
D03*
X3338D02*
D03*
X3318D02*
D03*
X3298D02*
D03*
D117*
X3576Y1162D02*
D03*
Y1142D02*
D03*
Y1123D02*
D03*
Y1103D02*
D03*
Y1083D02*
D03*
Y1064D02*
D03*
Y1044D02*
D03*
Y1024D02*
D03*
Y1005D02*
D03*
Y985D02*
D03*
Y965D02*
D03*
Y946D02*
D03*
X3238Y946D02*
D03*
Y966D02*
D03*
Y985D02*
D03*
Y1005D02*
D03*
Y1025D02*
D03*
Y1045D02*
D03*
Y1064D02*
D03*
Y1084D02*
D03*
Y1104D02*
D03*
Y1123D02*
D03*
Y1143D02*
D03*
D118*
Y1163D02*
D03*
D119*
X3298Y1223D02*
D03*
D120*
X3904Y2120D02*
D03*
D121*
X3880Y2179D02*
D03*
Y2061D02*
D03*
D122*
X3986Y2120D02*
D03*
D123*
X3536Y353D02*
D03*
Y287D02*
D03*
X3770Y1523D02*
D03*
Y1457D02*
D03*
X3700Y1523D02*
D03*
Y1457D02*
D03*
X3536Y523D02*
D03*
Y457D02*
D03*
X3630Y1523D02*
D03*
Y1457D02*
D03*
X3560Y1523D02*
D03*
Y1457D02*
D03*
X3716Y1017D02*
D03*
Y1083D02*
D03*
X3776Y1017D02*
D03*
Y1083D02*
D03*
X3235Y1523D02*
D03*
Y1457D02*
D03*
X3281Y353D02*
D03*
Y287D02*
D03*
X3825Y1380D02*
D03*
Y1314D02*
D03*
X3836Y1017D02*
D03*
Y1083D02*
D03*
X3305Y1458D02*
D03*
Y1524D02*
D03*
X3431Y353D02*
D03*
Y287D02*
D03*
X3125Y1373D02*
D03*
Y1307D02*
D03*
X3055Y1310D02*
D03*
Y1376D02*
D03*
X3545Y2138D02*
D03*
Y2072D02*
D03*
X3990Y1523D02*
D03*
Y1457D02*
D03*
X3656Y1017D02*
D03*
Y1083D02*
D03*
X3131Y353D02*
D03*
Y287D02*
D03*
D124*
X3483Y1620D02*
D03*
X3417D02*
D03*
X3627Y1785D02*
D03*
X3693D02*
D03*
X3108Y1220D02*
D03*
X3042D02*
D03*
Y1000D02*
D03*
X3108D02*
D03*
X3042Y1070D02*
D03*
X3108D02*
D03*
X3267Y1356D02*
D03*
X3201D02*
D03*
X3563D02*
D03*
X3497D02*
D03*
X3413D02*
D03*
X3347D02*
D03*
X3108Y1150D02*
D03*
X3042D02*
D03*
X3973Y1381D02*
D03*
X3907D02*
D03*
X3417Y1730D02*
D03*
X3483D02*
D03*
D125*
X3431Y532D02*
D03*
Y434D02*
D03*
X3281Y532D02*
D03*
Y434D02*
D03*
X3480Y1442D02*
D03*
Y1540D02*
D03*
X3385Y1441D02*
D03*
Y1539D02*
D03*
X3131Y532D02*
D03*
Y434D02*
D03*
X3626Y431D02*
D03*
Y529D02*
D03*
D126*
X3891Y1971D02*
D03*
X3989D02*
D03*
X3686Y1222D02*
D03*
X3785D02*
D03*
X3891Y2271D02*
D03*
X3989D02*
D03*
X2496Y2259D02*
D03*
X2594D02*
D03*
X2295Y129D02*
D03*
X2393D02*
D03*
X2295Y259D02*
D03*
X2393D02*
D03*
X2295Y389D02*
D03*
X2393D02*
D03*
D127*
X3996Y422D02*
D03*
X491Y2483D02*
D03*
X550Y140D02*
D03*
D128*
X2390Y2259D02*
D03*
X2330D02*
D03*
X765Y1979D02*
D03*
X705D02*
D03*
X1050Y1809D02*
D03*
X1110D02*
D03*
X1050Y1899D02*
D03*
X1110D02*
D03*
X1515D02*
D03*
X1575D02*
D03*
X1575Y1809D02*
D03*
X1515D02*
D03*
X1575Y1744D02*
D03*
X1515D02*
D03*
X1215Y929D02*
D03*
X1275D02*
D03*
X2135Y519D02*
D03*
X2195D02*
D03*
X1275Y1099D02*
D03*
X1215D02*
D03*
X1275Y1034D02*
D03*
X1215D02*
D03*
X2195Y389D02*
D03*
X2135D02*
D03*
X1275Y1169D02*
D03*
X1215D02*
D03*
X2195Y259D02*
D03*
X2135D02*
D03*
X2195Y129D02*
D03*
X2135D02*
D03*
D129*
X1355Y929D02*
D03*
Y977D02*
D03*
X1415Y929D02*
D03*
D130*
X1414Y977D02*
D03*
D131*
X1192Y1899D02*
D03*
D132*
Y1849D02*
D03*
X1192Y1799D02*
D03*
X1192Y1749D02*
D03*
X1428Y1749D02*
D03*
Y1799D02*
D03*
X1428Y1849D02*
D03*
Y1899D02*
D03*
D133*
X952Y1899D02*
D03*
Y1849D02*
D03*
Y1799D02*
D03*
Y1749D02*
D03*
X645Y1749D02*
D03*
Y1799D02*
D03*
Y1849D02*
D03*
D134*
Y1899D02*
D03*
D135*
X1726Y2045D02*
D03*
D136*
X1785Y1939D02*
D03*
X1667D02*
D03*
D137*
X1726Y1962D02*
D03*
D138*
X904Y830D02*
D03*
Y855D02*
D03*
Y881D02*
D03*
Y906D02*
D03*
Y932D02*
D03*
Y958D02*
D03*
Y983D02*
D03*
Y1009D02*
D03*
Y1034D02*
D03*
Y1060D02*
D03*
X1144D02*
D03*
Y1034D02*
D03*
Y1009D02*
D03*
Y983D02*
D03*
Y958D02*
D03*
Y932D02*
D03*
Y906D02*
D03*
Y881D02*
D03*
Y855D02*
D03*
Y830D02*
D03*
D139*
X1007Y1445D02*
D03*
X1023D02*
D03*
X960D02*
D03*
X976D02*
D03*
X991D02*
D03*
X1023Y1325D02*
D03*
X1007D02*
D03*
X991D02*
D03*
X976D02*
D03*
X960D02*
D03*
D140*
X1051Y1416D02*
D03*
Y1401D02*
D03*
Y1385D02*
D03*
Y1369D02*
D03*
X931Y1369D02*
D03*
Y1385D02*
D03*
Y1401D02*
D03*
Y1416D02*
D03*
Y1353D02*
D03*
D141*
X1051Y1353D02*
D03*
D142*
X1553Y1449D02*
D03*
X1685D02*
D03*
D143*
X1277D02*
D03*
X1961D02*
D03*
X1695Y841D02*
D03*
D144*
X3847Y843D02*
D03*
Y615D02*
D03*
D145*
X3992Y559D02*
D03*
Y899D02*
D03*
D146*
X3828D02*
D03*
Y559D02*
D03*
D147*
X3135Y1990D02*
D03*
D148*
X3450D02*
D03*
D149*
X3755Y2125D02*
D03*
Y2225D02*
D03*
X2875Y460D02*
D03*
Y1060D02*
D03*
X3575Y180D02*
D03*
X3675D02*
D03*
X3775D02*
D03*
X3875D02*
D03*
X3475D02*
D03*
X2875Y1560D02*
D03*
Y1460D02*
D03*
Y1360D02*
D03*
Y1260D02*
D03*
Y1660D02*
D03*
X1553Y1649D02*
D03*
X2675Y1059D02*
D03*
Y1559D02*
D03*
Y1459D02*
D03*
Y1359D02*
D03*
Y1259D02*
D03*
Y1659D02*
D03*
X2575Y2059D02*
D03*
X2675D02*
D03*
Y1959D02*
D03*
X2680Y445D02*
D03*
X2580D02*
D03*
Y545D02*
D03*
X375Y659D02*
D03*
X275D02*
D03*
X375Y759D02*
D03*
X275D02*
D03*
X375Y859D02*
D03*
X275D02*
D03*
X375Y959D02*
D03*
X275D02*
D03*
X375Y1059D02*
D03*
X275D02*
D03*
X375Y1159D02*
D03*
X275D02*
D03*
X375Y1259D02*
D03*
X275D02*
D03*
X375Y1359D02*
D03*
X275D02*
D03*
X375Y1459D02*
D03*
X275D02*
D03*
X375Y1559D02*
D03*
X275D02*
D03*
X375Y1659D02*
D03*
X275D02*
D03*
X375Y1759D02*
D03*
X275D02*
D03*
X375Y1859D02*
D03*
X275D02*
D03*
X375Y1959D02*
D03*
X275D02*
D03*
X375Y2059D02*
D03*
X575Y2259D02*
D03*
Y2359D02*
D03*
X675Y2259D02*
D03*
Y2359D02*
D03*
X775Y2259D02*
D03*
Y2359D02*
D03*
X875Y2259D02*
D03*
Y2359D02*
D03*
X975Y2259D02*
D03*
Y2359D02*
D03*
X1075Y2259D02*
D03*
Y2359D02*
D03*
X1175Y2259D02*
D03*
Y2359D02*
D03*
X1275Y2259D02*
D03*
Y2359D02*
D03*
X1375Y2259D02*
D03*
Y2359D02*
D03*
X1475Y2259D02*
D03*
Y2359D02*
D03*
X1575Y2259D02*
D03*
Y2359D02*
D03*
X1675Y2259D02*
D03*
Y2359D02*
D03*
X1775Y2259D02*
D03*
Y2359D02*
D03*
X1875Y2259D02*
D03*
Y2359D02*
D03*
X1975Y2259D02*
D03*
X2175Y2059D02*
D03*
X2275D02*
D03*
X2175Y1959D02*
D03*
X2275D02*
D03*
X2175Y1859D02*
D03*
X2275D02*
D03*
X2175Y1759D02*
D03*
X2275D02*
D03*
X2175Y1659D02*
D03*
X2275D02*
D03*
X2175Y1559D02*
D03*
X2275D02*
D03*
X2175Y1459D02*
D03*
X2275D02*
D03*
X2175Y1359D02*
D03*
X2275D02*
D03*
X2175Y1259D02*
D03*
X2275D02*
D03*
X2175Y1159D02*
D03*
X2275D02*
D03*
X2175Y1059D02*
D03*
X2275D02*
D03*
X2175Y959D02*
D03*
X2275D02*
D03*
X2175Y859D02*
D03*
X2275D02*
D03*
X2175Y759D02*
D03*
X2275D02*
D03*
X2175Y659D02*
D03*
X2275D02*
D03*
X1975Y459D02*
D03*
Y359D02*
D03*
X1875Y459D02*
D03*
Y359D02*
D03*
X1775Y459D02*
D03*
Y359D02*
D03*
X1675Y459D02*
D03*
Y359D02*
D03*
X1575Y459D02*
D03*
Y359D02*
D03*
X1475Y459D02*
D03*
Y359D02*
D03*
X1375Y459D02*
D03*
Y359D02*
D03*
X1275Y459D02*
D03*
Y359D02*
D03*
X1175Y459D02*
D03*
Y359D02*
D03*
X1075Y459D02*
D03*
Y359D02*
D03*
X975Y459D02*
D03*
Y359D02*
D03*
X875Y459D02*
D03*
Y359D02*
D03*
X775Y459D02*
D03*
Y359D02*
D03*
X675Y459D02*
D03*
Y359D02*
D03*
X575Y459D02*
D03*
D150*
X3755Y2025D02*
D03*
X2875Y560D02*
D03*
Y960D02*
D03*
Y1760D02*
D03*
X2675Y959D02*
D03*
Y1759D02*
D03*
X275Y2059D02*
D03*
X1975Y2359D02*
D03*
X575Y359D02*
D03*
D151*
X3275Y2460D02*
D03*
X3175D02*
D03*
X3075D02*
D03*
D152*
X2975D02*
D03*
D153*
X3375Y180D02*
D03*
X1653Y1649D02*
D03*
X2575Y1959D02*
D03*
X2680Y545D02*
D03*
D154*
X3875Y2460D02*
D03*
X3475D02*
D03*
X3575D02*
D03*
X3675D02*
D03*
X3775D02*
D03*
D155*
X3975D02*
D03*
D156*
X3998Y105D02*
D03*
D157*
X1695Y1117D02*
D03*
D158*
X140Y140D02*
D03*
X2613D02*
D03*
X2613Y2483D02*
D03*
X140D02*
D03*
D159*
X375Y559D02*
D03*
X275D02*
D03*
D160*
X991Y1385D02*
D03*
M02*
