%FSLAX23Y23*%
%MOIN*%
G70*
G01*
G75*
G04 Layer_Physical_Order=2*
G04 Layer_Color=10456492*
%ADD10C,0.008*%
%ADD11C,0.010*%
%ADD12R,0.032X0.032*%
%ADD13R,0.100X0.022*%
%ADD14R,0.126X0.022*%
%ADD15R,0.100X0.012*%
%ADD16R,0.126X0.012*%
%ADD17R,0.021X0.037*%
%ADD18R,0.071X0.079*%
%ADD19R,0.037X0.021*%
%ADD20R,0.079X0.071*%
%ADD21R,0.036X0.046*%
%ADD22R,0.036X0.043*%
%ADD23R,0.010X0.053*%
%ADD24R,0.053X0.010*%
%ADD25O,0.053X0.010*%
%ADD26O,0.010X0.053*%
%ADD27R,0.102X0.040*%
%ADD28R,0.059X0.040*%
%ADD29O,0.138X0.094*%
%ADD30R,0.038X0.045*%
%ADD31R,0.045X0.038*%
%ADD32R,0.050X0.060*%
%ADD33R,0.060X0.050*%
%ADD34C,0.060*%
%ADD35R,0.032X0.032*%
%ADD36R,0.040X0.037*%
%ADD37P,0.027X8X22.5*%
%ADD38R,0.067X0.025*%
%ADD39O,0.067X0.025*%
%ADD40O,0.075X0.024*%
%ADD41R,0.075X0.024*%
%ADD42O,0.094X0.138*%
%ADD43R,0.040X0.059*%
%ADD44R,0.040X0.102*%
%ADD45R,0.049X0.012*%
%ADD46O,0.009X0.039*%
%ADD47O,0.039X0.009*%
%ADD48R,0.039X0.009*%
%ADD49C,0.040*%
%ADD50C,0.020*%
%ADD51C,0.012*%
%ADD52C,0.022*%
%ADD53C,0.030*%
%ADD54C,0.015*%
%ADD55C,0.011*%
%ADD56C,0.050*%
%ADD57C,0.023*%
%ADD58R,0.130X0.028*%
%ADD59R,0.070X0.070*%
%ADD60C,0.070*%
%ADD61C,0.028*%
%ADD62O,0.063X0.039*%
%ADD63O,0.083X0.039*%
%ADD64R,0.055X0.055*%
%ADD65C,0.055*%
%ADD66R,0.060X0.060*%
%ADD67O,0.060X0.070*%
%ADD68R,0.060X0.070*%
%ADD69R,0.060X0.060*%
%ADD70C,0.071*%
%ADD71R,0.071X0.071*%
%ADD72C,0.100*%
%ADD73R,0.070X0.070*%
%ADD74C,0.120*%
%ADD75O,0.070X0.060*%
%ADD76R,0.065X0.065*%
%ADD77C,0.025*%
%ADD78C,0.020*%
%ADD79C,0.050*%
%ADD80C,0.040*%
%ADD81C,0.030*%
%ADD82C,0.035*%
%ADD83C,0.015*%
%ADD84C,0.028*%
%ADD85C,0.039*%
D11*
X3801Y2566D02*
G03*
X3785Y2573I-16J-16D01*
G01*
X3801Y2566D02*
G03*
X3785Y2573I-16J-16D01*
G01*
X3923Y2482D02*
G03*
X3858Y2510I-48J-22D01*
G01*
X3825Y2444D02*
G03*
X3923Y2438I50J16D01*
G01*
X3725Y2444D02*
G03*
X3825Y2444I50J16D01*
G01*
X3802Y2225D02*
G03*
X3802Y2225I-47J0D01*
G01*
X3625Y2444D02*
G03*
X3725Y2444I50J16D01*
G01*
X3525D02*
G03*
X3625Y2444I50J16D01*
G01*
X3438Y2497D02*
G03*
X3525Y2444I37J-37D01*
G01*
X3322Y2465D02*
G03*
X3321Y2474I-47J0D01*
G01*
X3165Y2573D02*
G03*
X3149Y2566I0J-23D01*
G01*
X3165Y2573D02*
G03*
X3149Y2566I0J-23D01*
G01*
X3292Y2509D02*
G03*
X3228Y2465I-16J-44D01*
G01*
X3222D02*
G03*
X3155Y2508I-47J0D01*
G01*
X3092Y2509D02*
G03*
X3028Y2465I-16J-44D01*
G01*
X3228Y2455D02*
G03*
X3322Y2455I47J0D01*
G01*
X3159Y2411D02*
G03*
X3222Y2455I16J44D01*
G01*
X3105Y2367D02*
G03*
X3121Y2374I0J23D01*
G01*
X3105Y2367D02*
G03*
X3121Y2374I0J23D01*
G01*
X3028Y2455D02*
G03*
X3054Y2413I47J0D01*
G01*
X2972Y2408D02*
G03*
X3014Y2367I23J-18D01*
G01*
X3802Y2125D02*
G03*
X3802Y2125I-47J0D01*
G01*
X3495Y1990D02*
G03*
X3495Y1990I-45J0D01*
G01*
X3373Y1681D02*
G03*
X3366Y1698I-23J0D01*
G01*
X3373Y1681D02*
G03*
X3366Y1698I-23J0D01*
G01*
X3343Y1721D02*
G03*
X3326Y1728I-16J-16D01*
G01*
X3343Y1721D02*
G03*
X3326Y1728I-16J-16D01*
G01*
X3281Y1629D02*
G03*
X3327Y1638I19J26D01*
G01*
X3282Y1620D02*
G03*
X3281Y1629I-32J0D01*
G01*
X3244Y1589D02*
G03*
X3282Y1620I6J32D01*
G01*
X3374Y1275D02*
G03*
X3373Y1284I-30J0D01*
G01*
X3327Y1298D02*
G03*
X3374Y1275I18J-23D01*
G01*
X3217Y1511D02*
G03*
X3222Y1530I-32J19D01*
G01*
D02*
G03*
X3153Y1511I-37J0D01*
G01*
X3208Y1297D02*
G03*
X3217Y1320I-23J23D01*
G01*
X3208Y1297D02*
G03*
X3217Y1320I-23J23D01*
G01*
X3046Y1589D02*
G03*
X3084Y1589I19J32D01*
G01*
X2830Y1547D02*
G03*
X2917Y1540I45J13D01*
G01*
X2922Y1460D02*
G03*
X2830Y1473I-47J0D01*
G01*
Y1447D02*
G03*
X2922Y1460I45J13D01*
G01*
X3085Y1188D02*
G03*
X3108Y1197I0J32D01*
G01*
X3085Y1188D02*
G03*
X3108Y1197I0J32D01*
G01*
X3053Y1252D02*
G03*
X3048Y1252I-3J-32D01*
G01*
X3019D02*
G03*
X3019Y1188I-19J-32D01*
G01*
X2922Y1360D02*
G03*
X2830Y1373I-47J0D01*
G01*
Y1347D02*
G03*
X2922Y1360I45J13D01*
G01*
Y1260D02*
G03*
X2830Y1273I-47J0D01*
G01*
Y1247D02*
G03*
X2922Y1260I45J13D01*
G01*
X2505Y2594D02*
G03*
X2710Y2362I109J-110D01*
G01*
Y2090D02*
G03*
X2710Y2027I-35J-31D01*
G01*
X2622Y2059D02*
G03*
X2622Y2059I-47J0D01*
G01*
X2710Y1990D02*
G03*
X2710Y1927I-35J-31D01*
G01*
X2322Y2059D02*
G03*
X2322Y2059I-47J0D01*
G01*
X2222D02*
G03*
X2222Y2059I-47J0D01*
G01*
X2022Y2259D02*
G03*
X2022Y2259I-47J0D01*
G01*
X2322Y1959D02*
G03*
X2322Y1959I-47J0D01*
G01*
Y1859D02*
G03*
X2322Y1859I-47J0D01*
G01*
X2222D02*
G03*
X2222Y1859I-47J0D01*
G01*
Y1959D02*
G03*
X2222Y1959I-47J0D01*
G01*
X2322Y1759D02*
G03*
X2322Y1759I-47J0D01*
G01*
X2222D02*
G03*
X2222Y1759I-47J0D01*
G01*
X2710Y1690D02*
G03*
X2630Y1645I-35J-31D01*
G01*
X2661Y1414D02*
G03*
X2710Y1427I14J45D01*
G01*
Y1390D02*
G03*
X2710Y1327I-35J-31D01*
G01*
X2584Y1599D02*
G03*
X2578Y1584I16J-16D01*
G01*
X2585Y1599D02*
G03*
X2578Y1584I16J-16D01*
G01*
X2313Y1431D02*
G03*
X2322Y1459I-38J28D01*
G01*
X2661Y1214D02*
G03*
X2710Y1227I14J45D01*
G01*
Y1290D02*
G03*
X2630Y1245I-35J-31D01*
G01*
X2526Y1288D02*
G03*
X2542Y1294I0J22D01*
G01*
X2526Y1288D02*
G03*
X2542Y1294I0J22D01*
G01*
X2322Y1259D02*
G03*
X2312Y1288I-47J0D01*
G01*
X2525Y1087D02*
G03*
X2541Y1093I0J22D01*
G01*
X2525Y1087D02*
G03*
X2541Y1093I0J22D01*
G01*
X2313Y1131D02*
G03*
X2322Y1159I-38J28D01*
G01*
Y1559D02*
G03*
X2322Y1559I-47J0D01*
G01*
Y1659D02*
G03*
X2322Y1659I-47J0D01*
G01*
Y1459D02*
G03*
X2237Y1431I-47J0D01*
G01*
X2222Y1659D02*
G03*
X2222Y1659I-47J0D01*
G01*
Y1559D02*
G03*
X2222Y1559I-47J0D01*
G01*
Y1459D02*
G03*
X2137Y1431I-47J0D01*
G01*
X2213D02*
G03*
X2222Y1459I-38J28D01*
G01*
X2238Y1288D02*
G03*
X2322Y1259I37J-29D01*
G01*
X2222D02*
G03*
X2212Y1288I-47J0D01*
G01*
X2138D02*
G03*
X2222Y1259I37J-29D01*
G01*
X2322Y1159D02*
G03*
X2237Y1131I-47J0D01*
G01*
X2222Y1159D02*
G03*
X2137Y1131I-47J0D01*
G01*
X2213D02*
G03*
X2222Y1159I-38J28D01*
G01*
X2115Y1431D02*
G03*
X2099Y1424I0J-22D01*
G01*
X2115Y1431D02*
G03*
X2099Y1424I0J-22D01*
G01*
X2013Y1449D02*
G03*
X2013Y1449I-52J0D01*
G01*
X4041Y899D02*
G03*
X4004Y936I-37J0D01*
G01*
Y863D02*
G03*
X4041Y899I0J37D01*
G01*
X3980Y936D02*
G03*
X3980Y863I0J-37D01*
G01*
X3886Y899D02*
G03*
X3849Y936I-37J0D01*
G01*
X3867Y867D02*
G03*
X3886Y899I-17J32D01*
G01*
X3806Y936D02*
G03*
X3806Y863I0J-37D01*
G01*
X3878Y843D02*
G03*
X3867Y867I-31J0D01*
G01*
X3878Y843D02*
G03*
X3867Y867I-31J0D01*
G01*
Y591D02*
G03*
X3878Y615I-19J24D01*
G01*
X3867Y591D02*
G03*
X3878Y615I-19J24D01*
G01*
X3824Y863D02*
G03*
X3878Y843I24J-20D01*
G01*
X3824Y863D02*
G03*
X3878Y843I24J-20D01*
G01*
Y615D02*
G03*
X3824Y596I-31J0D01*
G01*
X3878Y615D02*
G03*
X3824Y596I-31J0D01*
G01*
X4041Y559D02*
G03*
X4004Y596I-37J0D01*
G01*
Y522D02*
G03*
X4041Y559I0J37D01*
G01*
X3980Y596D02*
G03*
X3980Y522I0J-37D01*
G01*
X3806Y596D02*
G03*
X3806Y522I0J-37D01*
G01*
X3886Y559D02*
G03*
X3867Y591I-37J0D01*
G01*
X3849Y522D02*
G03*
X3886Y559I0J37D01*
G01*
X3392Y746D02*
G03*
X3415Y775I-6J29D01*
G01*
D02*
G03*
X3356Y777I-30J0D01*
G01*
X3290Y915D02*
G03*
X3237Y934I-30J0D01*
G01*
X3355Y776D02*
G03*
X3348Y760I16J-16D01*
G01*
X3354Y776D02*
G03*
X3348Y760I16J-16D01*
G01*
X3272Y888D02*
G03*
X3290Y915I-12J27D01*
G01*
X3348Y745D02*
G03*
X3339Y746I-8J-28D01*
G01*
X3339Y746D02*
G03*
X3281Y746I-29J-6D01*
G01*
X3237Y934D02*
G03*
X3192Y919I-17J-24D01*
G01*
X3188D02*
G03*
X3138Y890I-28J-9D01*
G01*
X3192Y919D02*
G03*
X3188Y919I-2J-29D01*
G01*
X3281Y746D02*
G03*
X3272Y745I-1J-29D01*
G01*
X3556Y650D02*
G03*
X3541Y656I-16J-16D01*
G01*
X3556Y650D02*
G03*
X3541Y656I-16J-16D01*
G01*
X3460Y685D02*
G03*
X3401Y684I-30J0D01*
G01*
X3456Y671D02*
G03*
X3460Y685I-26J14D01*
G01*
X3401Y684D02*
G03*
X3392Y683I-1J-29D01*
G01*
X3409Y528D02*
G03*
X3425Y522I16J16D01*
G01*
X3473Y439D02*
G03*
X3457Y445I-16J-16D01*
G01*
X3473Y439D02*
G03*
X3457Y445I-16J-16D01*
G01*
X3409Y528D02*
G03*
X3425Y522I16J16D01*
G01*
X3858Y414D02*
G03*
X3842Y420I-16J-16D01*
G01*
X3927Y350D02*
G03*
X3885Y386I-37J0D01*
G01*
X3854Y355D02*
G03*
X3927Y350I36J-5D01*
G01*
X3858Y414D02*
G03*
X3842Y420I-16J-16D01*
G01*
X3837Y350D02*
G03*
X3826Y376I-37J0D01*
G01*
X3767Y334D02*
G03*
X3837Y350I33J16D01*
G01*
X3747D02*
G03*
X3746Y355I-37J0D01*
G01*
X3683Y375D02*
G03*
X3747Y350I27J-25D01*
G01*
X3598Y379D02*
G03*
X3657Y350I22J-29D01*
G01*
D02*
G03*
X3642Y379I-37J0D01*
G01*
X4070Y131D02*
G03*
X4070Y78I-72J-27D01*
G01*
X3922Y180D02*
G03*
X3922Y180I-47J0D01*
G01*
X3822D02*
G03*
X3822Y180I-47J0D01*
G01*
X3722D02*
G03*
X3722Y180I-47J0D01*
G01*
X3567Y350D02*
G03*
X3525Y386I-37J0D01*
G01*
X3494Y355D02*
G03*
X3567Y350I36J-5D01*
G01*
X3477D02*
G03*
X3435Y386I-37J0D01*
G01*
X3404Y355D02*
G03*
X3477Y350I36J-5D01*
G01*
X3206Y355D02*
G03*
X3212Y367I-16J15D01*
G01*
X3206Y355D02*
G03*
X3212Y367I-16J15D01*
G01*
X3387Y350D02*
G03*
X3380Y371I-37J0D01*
G01*
X3297Y350D02*
G03*
X3296Y359I-37J0D01*
G01*
X3224Y355D02*
G03*
X3297Y350I36J-5D01*
G01*
X3207D02*
G03*
X3206Y355I-37J0D01*
G01*
X3315Y340D02*
G03*
X3387Y350I35J10D01*
G01*
X3135Y339D02*
G03*
X3207Y350I35J11D01*
G01*
X3622Y180D02*
G03*
X3622Y180I-47J0D01*
G01*
X3522D02*
G03*
X3522Y180I-47J0D01*
G01*
X2978Y861D02*
G03*
X3004Y890I-3J29D01*
G01*
D02*
G03*
X2946Y893I-30J0D01*
G01*
X2922Y1060D02*
G03*
X2830Y1073I-47J0D01*
G01*
Y1047D02*
G03*
X2922Y1060I45J13D01*
G01*
X2710Y1090D02*
G03*
X2628Y1061I-35J-31D01*
G01*
X2859Y806D02*
G03*
X2852Y790I16J-16D01*
G01*
X2859Y806D02*
G03*
X2852Y790I16J-16D01*
G01*
X2322Y1059D02*
G03*
X2313Y1087I-47J0D01*
G01*
X2365Y1061D02*
G03*
X2349Y1054I0J-22D01*
G01*
X2365Y1061D02*
G03*
X2349Y1054I0J-22D01*
G01*
X2137Y1087D02*
G03*
X2137Y1031I38J-28D01*
G01*
X2313D02*
G03*
X2322Y1059I-38J28D01*
G01*
X2353Y890D02*
G03*
X2369Y896I0J22D01*
G01*
X2353Y890D02*
G03*
X2369Y896I0J22D01*
G01*
X2137Y987D02*
G03*
X2135Y934I38J-28D01*
G01*
X2322Y859D02*
G03*
X2310Y890I-47J0D01*
G01*
X2240D02*
G03*
X2322Y859I35J-31D01*
G01*
Y759D02*
G03*
X2322Y759I-47J0D01*
G01*
X2222Y859D02*
G03*
X2210Y890I-47J0D01*
G01*
X2140D02*
G03*
X2222Y859I35J-31D01*
G01*
Y759D02*
G03*
X2222Y759I-47J0D01*
G01*
X2922Y460D02*
G03*
X2830Y473I-47J0D01*
G01*
X3073Y442D02*
G03*
X3083Y465I-23J23D01*
G01*
X3073Y442D02*
G03*
X3083Y465I-23J23D01*
G01*
X3105Y386D02*
G03*
X3135Y339I-5J-36D01*
G01*
X3025Y280D02*
G03*
X3023Y293I-34J0D01*
G01*
X2959D02*
G03*
X3025Y280I32J-13D01*
G01*
X2968Y428D02*
G03*
X2959Y405I23J-23D01*
G01*
X2968Y428D02*
G03*
X2959Y405I23J-23D01*
G01*
X2830Y447D02*
G03*
X2922Y460I45J13D01*
G01*
X2627Y545D02*
G03*
X2627Y545I-47J0D01*
G01*
X2322Y659D02*
G03*
X2322Y659I-47J0D01*
G01*
X2222D02*
G03*
X2222Y659I-47J0D01*
G01*
X2710Y481D02*
G03*
X2710Y409I-30J-36D01*
G01*
X2627Y445D02*
G03*
X2627Y445I-47J0D01*
G01*
X2710Y261D02*
G03*
X2510Y24I-97J-121D01*
G01*
X2022Y459D02*
G03*
X2022Y459I-47J0D01*
G01*
Y359D02*
G03*
X2022Y359I-47J0D01*
G01*
X1922Y2359D02*
G03*
X1922Y2359I-47J0D01*
G01*
X1822D02*
G03*
X1822Y2359I-47J0D01*
G01*
X1722D02*
G03*
X1722Y2359I-47J0D01*
G01*
X1622D02*
G03*
X1622Y2359I-47J0D01*
G01*
X1922Y2259D02*
G03*
X1922Y2259I-47J0D01*
G01*
X1822D02*
G03*
X1822Y2259I-47J0D01*
G01*
X1722D02*
G03*
X1722Y2259I-47J0D01*
G01*
X1622D02*
G03*
X1622Y2259I-47J0D01*
G01*
X1522Y2359D02*
G03*
X1522Y2359I-47J0D01*
G01*
X1422D02*
G03*
X1422Y2359I-47J0D01*
G01*
X1322D02*
G03*
X1322Y2359I-47J0D01*
G01*
Y2259D02*
G03*
X1322Y2259I-47J0D01*
G01*
X1522D02*
G03*
X1522Y2259I-47J0D01*
G01*
X1422D02*
G03*
X1422Y2259I-47J0D01*
G01*
X1222Y2359D02*
G03*
X1222Y2359I-47J0D01*
G01*
X1122D02*
G03*
X1122Y2359I-47J0D01*
G01*
Y2259D02*
G03*
X1122Y2259I-47J0D01*
G01*
X1222D02*
G03*
X1222Y2259I-47J0D01*
G01*
X1600Y1649D02*
G03*
X1600Y1649I-47J0D01*
G01*
X1425Y1229D02*
G03*
X1381Y1255I-30J0D01*
G01*
X1372Y1211D02*
G03*
X1425Y1229I23J18D01*
G01*
X1060Y1495D02*
G03*
X1009Y1516I-30J0D01*
G01*
X1012Y1472D02*
G03*
X1060Y1495I18J23D01*
G01*
X1329Y1449D02*
G03*
X1329Y1449I-52J0D01*
G01*
X1310Y1159D02*
G03*
X1294Y1166I-16J-16D01*
G01*
X1310Y1159D02*
G03*
X1294Y1166I-16J-16D01*
G01*
X1248Y1255D02*
G03*
X1249Y1264I-28J9D01*
G01*
D02*
G03*
X1237Y1288I-30J0D01*
G01*
X1086Y1361D02*
G03*
X1041Y1340I-16J-25D01*
G01*
D02*
G03*
X1041Y1335I29J-5D01*
G01*
D02*
G03*
X1041Y1332I29J0D01*
G01*
X1022Y2359D02*
G03*
X1022Y2359I-47J0D01*
G01*
X922D02*
G03*
X922Y2359I-47J0D01*
G01*
X822D02*
G03*
X822Y2359I-47J0D01*
G01*
X1022Y2259D02*
G03*
X1022Y2259I-47J0D01*
G01*
X922D02*
G03*
X922Y2259I-47J0D01*
G01*
X822D02*
G03*
X822Y2259I-47J0D01*
G01*
X722Y2359D02*
G03*
X722Y2359I-47J0D01*
G01*
X622D02*
G03*
X622Y2359I-47J0D01*
G01*
X722Y2259D02*
G03*
X722Y2259I-47J0D01*
G01*
X622D02*
G03*
X622Y2259I-47J0D01*
G01*
X295Y2483D02*
G03*
X249Y2594I-155J0D01*
G01*
X25Y2380D02*
G03*
X295Y2483I115J104D01*
G01*
X422Y2059D02*
G03*
X422Y2059I-47J0D01*
G01*
Y1959D02*
G03*
X422Y1959I-47J0D01*
G01*
Y1859D02*
G03*
X422Y1859I-47J0D01*
G01*
X322Y1959D02*
G03*
X322Y1959I-47J0D01*
G01*
Y1859D02*
G03*
X322Y1859I-47J0D01*
G01*
X1003Y1516D02*
G03*
X1003Y1472I-20J-22D01*
G01*
X422Y1759D02*
G03*
X422Y1759I-47J0D01*
G01*
Y1659D02*
G03*
X422Y1659I-47J0D01*
G01*
Y1559D02*
G03*
X422Y1559I-47J0D01*
G01*
Y1459D02*
G03*
X422Y1459I-47J0D01*
G01*
X941Y1332D02*
G03*
X892Y1307I-20J-22D01*
G01*
X654Y1263D02*
G03*
X669Y1232I29J-5D01*
G01*
X827Y1182D02*
G03*
X820Y1167I16J-16D01*
G01*
X702Y1191D02*
G03*
X718Y1185I16J16D01*
G01*
X826Y1182D02*
G03*
X820Y1167I16J-16D01*
G01*
X904Y1161D02*
G03*
X910Y1177I-16J16D01*
G01*
X904Y1161D02*
G03*
X910Y1177I-16J16D01*
G01*
X669Y1232D02*
G03*
X696Y1197I29J-5D01*
G01*
X702Y1191D02*
G03*
X718Y1185I16J16D01*
G01*
X630Y1307D02*
G03*
X630Y1263I-20J-22D01*
G01*
X422Y1359D02*
G03*
X422Y1359I-47J0D01*
G01*
Y1259D02*
G03*
X422Y1259I-47J0D01*
G01*
X322Y1759D02*
G03*
X322Y1759I-47J0D01*
G01*
Y1559D02*
G03*
X322Y1559I-47J0D01*
G01*
Y1659D02*
G03*
X322Y1659I-47J0D01*
G01*
Y1459D02*
G03*
X322Y1459I-47J0D01*
G01*
Y1359D02*
G03*
X322Y1359I-47J0D01*
G01*
Y1259D02*
G03*
X322Y1259I-47J0D01*
G01*
X1747Y841D02*
G03*
X1713Y890I-52J0D01*
G01*
X1677D02*
G03*
X1747Y841I18J-49D01*
G01*
X1349Y1119D02*
G03*
X1321Y1148I-30J0D01*
G01*
X1290Y1117D02*
G03*
X1349Y1119I29J2D01*
G01*
X1328Y993D02*
G03*
X1344Y987I16J16D01*
G01*
X1328Y993D02*
G03*
X1344Y987I16J16D01*
G01*
X1094Y1166D02*
G03*
X1044Y1136I-24J-17D01*
G01*
X1161Y1077D02*
G03*
X1156Y1092I-30J0D01*
G01*
X1140Y1005D02*
G03*
X1141Y1009I-29J4D01*
G01*
X1151Y999D02*
G03*
X1140Y1005I-16J-16D01*
G01*
X1151Y999D02*
G03*
X1140Y1005I-16J-16D01*
G01*
X1118Y1050D02*
G03*
X1161Y1077I13J26D01*
G01*
X1141Y1009D02*
G03*
X1105Y1038I-30J0D01*
G01*
X1191Y896D02*
G03*
X1207Y890I16J16D01*
G01*
X1191Y896D02*
G03*
X1207Y890I16J16D01*
G01*
X1151Y664D02*
G03*
X1157Y680I-16J16D01*
G01*
X1151Y664D02*
G03*
X1157Y680I-16J16D01*
G01*
X1922Y459D02*
G03*
X1922Y459I-47J0D01*
G01*
X1822D02*
G03*
X1822Y459I-47J0D01*
G01*
X1722D02*
G03*
X1722Y459I-47J0D01*
G01*
X1622D02*
G03*
X1622Y459I-47J0D01*
G01*
X1522D02*
G03*
X1522Y459I-47J0D01*
G01*
X1922Y359D02*
G03*
X1922Y359I-47J0D01*
G01*
X1822D02*
G03*
X1822Y359I-47J0D01*
G01*
X1722D02*
G03*
X1722Y359I-47J0D01*
G01*
X1622D02*
G03*
X1622Y359I-47J0D01*
G01*
X1522D02*
G03*
X1522Y359I-47J0D01*
G01*
X1422Y459D02*
G03*
X1422Y459I-47J0D01*
G01*
X1322D02*
G03*
X1322Y459I-47J0D01*
G01*
X1122D02*
G03*
X1097Y500I-47J0D01*
G01*
X1222Y459D02*
G03*
X1222Y459I-47J0D01*
G01*
X1047Y421D02*
G03*
X1122Y459I28J38D01*
G01*
X1422Y359D02*
G03*
X1422Y359I-47J0D01*
G01*
X1322D02*
G03*
X1322Y359I-47J0D01*
G01*
X1122D02*
G03*
X1061Y404I-47J0D01*
G01*
X1222Y359D02*
G03*
X1222Y359I-47J0D01*
G01*
X1030Y373D02*
G03*
X1122Y359I45J-14D01*
G01*
X955Y1136D02*
G03*
X955Y1092I-20J-22D01*
G01*
X820Y1110D02*
G03*
X811Y1112I-11J-27D01*
G01*
X811D02*
G03*
X753Y1111I-29J-7D01*
G01*
D02*
G03*
X732Y1062I1J-29D01*
G01*
X896Y932D02*
G03*
X891Y947I-30J0D01*
G01*
X812Y955D02*
G03*
X837Y929I29J2D01*
G01*
X837D02*
G03*
X896Y932I29J3D01*
G01*
X756Y1003D02*
G03*
X785Y979I29J5D01*
G01*
X785D02*
G03*
X812Y955I29J5D01*
G01*
X732Y1052D02*
G03*
X756Y1003I22J-20D01*
G01*
X972Y835D02*
G03*
X981Y825I28J14D01*
G01*
X890Y762D02*
G03*
X906Y768I0J22D01*
G01*
X890Y762D02*
G03*
X906Y768I0J22D01*
G01*
X422Y1159D02*
G03*
X422Y1159I-47J0D01*
G01*
Y1059D02*
G03*
X422Y1059I-47J0D01*
G01*
X415Y935D02*
G03*
X422Y959I-40J24D01*
G01*
X322Y1159D02*
G03*
X322Y1159I-47J0D01*
G01*
Y1059D02*
G03*
X322Y1059I-47J0D01*
G01*
X422Y959D02*
G03*
X376Y912I-47J0D01*
G01*
X383Y905D02*
G03*
X337Y831I-7J-46D01*
G01*
X322Y959D02*
G03*
X322Y959I-47J0D01*
G01*
Y859D02*
G03*
X289Y814I-47J0D01*
G01*
X337Y787D02*
G03*
X337Y731I38J-28D01*
G01*
X320Y845D02*
G03*
X322Y859I-45J14D01*
G01*
X309Y793D02*
G03*
X325Y787I16J16D01*
G01*
X309Y793D02*
G03*
X325Y787I16J16D01*
G01*
X322Y759D02*
G03*
X289Y714I-47J0D01*
G01*
X947Y421D02*
G03*
X1003Y421I28J38D01*
G01*
X847D02*
G03*
X903Y421I28J38D01*
G01*
X771Y506D02*
G03*
X803Y421I4J-47D01*
G01*
X1003Y409D02*
G03*
X1009Y393I22J0D01*
G01*
X903Y409D02*
G03*
X909Y393I22J0D01*
G01*
X1003Y409D02*
G03*
X1010Y393I22J0D01*
G01*
X903Y409D02*
G03*
X910Y393I22J0D01*
G01*
X803Y409D02*
G03*
X809Y393I22J0D01*
G01*
X803Y409D02*
G03*
X810Y393I22J0D01*
G01*
X722Y459D02*
G03*
X722Y459I-47J0D01*
G01*
X1022Y359D02*
G03*
X961Y404I-47J0D01*
G01*
X930Y373D02*
G03*
X1022Y359I45J-14D01*
G01*
X922D02*
G03*
X861Y404I-47J0D01*
G01*
X830Y373D02*
G03*
X922Y359I45J-14D01*
G01*
X822D02*
G03*
X822Y359I-47J0D01*
G01*
X722D02*
G03*
X722Y359I-47J0D01*
G01*
X411Y689D02*
G03*
X416Y693I-11J19D01*
G01*
X411Y689D02*
G03*
X416Y693I-11J19D01*
G01*
X422Y659D02*
G03*
X411Y689I-47J0D01*
G01*
X337Y687D02*
G03*
X422Y659I38J-28D01*
G01*
X320Y745D02*
G03*
X322Y759I-45J14D01*
G01*
X309Y693D02*
G03*
X325Y687I16J16D01*
G01*
X309Y693D02*
G03*
X325Y687I16J16D01*
G01*
X322Y659D02*
G03*
X322Y659I-47J0D01*
G01*
X622Y459D02*
G03*
X622Y459I-47J0D01*
G01*
X427Y559D02*
G03*
X380Y606I-47J0D01*
G01*
Y512D02*
G03*
X427Y559I0J47D01*
G01*
X325Y545D02*
G03*
X370Y512I45J14D01*
G01*
Y606D02*
G03*
X325Y572I0J-47D01*
G01*
X280Y512D02*
G03*
X325Y545I0J47D01*
G01*
Y572D02*
G03*
X280Y606I-45J-14D01*
G01*
X270D02*
G03*
X270Y512I0J-47D01*
G01*
X243Y24D02*
G03*
X295Y140I-103J116D01*
G01*
D02*
G03*
X25Y244I-155J0D01*
G01*
X610Y1285D02*
X951D01*
X718Y1207D02*
X862D01*
X1112Y959D02*
X1135Y936D01*
X1081Y705D02*
Y910D01*
X1071Y1335D02*
X1075Y1339D01*
X1070Y1334D02*
X1071Y1335D01*
X1070Y1144D02*
X1294D01*
X3400Y654D02*
Y655D01*
X360Y959D02*
X368Y951D01*
X455Y864D01*
X815Y985D02*
Y1083D01*
Y984D02*
Y985D01*
X3370Y760D02*
X3385Y775D01*
X375Y834D02*
X855D01*
X1695Y1109D02*
X2525D01*
X885Y1233D02*
X1395D01*
X734D02*
X885D01*
X3430Y666D02*
Y685D01*
X784Y1106D02*
X785Y1105D01*
X782Y1009D02*
Y1105D01*
X4010Y2512D02*
Y2594D01*
X4000Y2512D02*
Y2594D01*
X4020Y2512D02*
Y2594D01*
X3980Y2512D02*
Y2594D01*
X3970Y2512D02*
Y2594D01*
X3990Y2512D02*
Y2594D01*
X3950Y2512D02*
Y2594D01*
X3940Y2512D02*
Y2594D01*
X3960Y2512D02*
Y2594D01*
X3910Y2499D02*
Y2594D01*
X3900Y2506D02*
Y2594D01*
X3930Y2512D02*
Y2594D01*
X3770Y2573D02*
Y2594D01*
X3760Y2573D02*
Y2594D01*
X3780Y2573D02*
Y2594D01*
X3710Y2573D02*
Y2594D01*
X3700Y2573D02*
Y2594D01*
X3750Y2573D02*
Y2594D01*
X3880Y2512D02*
Y2594D01*
X3870Y2512D02*
Y2594D01*
X3890Y2510D02*
Y2594D01*
X3850Y2518D02*
Y2594D01*
X3790Y2572D02*
Y2594D01*
X3860Y2510D02*
Y2594D01*
X3837Y2531D02*
X4070D01*
X3827Y2541D02*
X4070D01*
X3847Y2521D02*
X4070D01*
X3840Y2528D02*
Y2594D01*
X3830Y2538D02*
Y2594D01*
X3923Y2512D02*
X4027D01*
Y2501D02*
X4070D01*
X4027Y2511D02*
X4070D01*
X4027Y2491D02*
X4070D01*
X3889Y2511D02*
X3923D01*
X3857D02*
X3861D01*
X3908Y2501D02*
X3923D01*
X3800Y2568D02*
Y2594D01*
X3795Y2571D02*
X4070D01*
X3730Y2573D02*
Y2594D01*
X3720Y2573D02*
Y2594D01*
X3740Y2573D02*
Y2594D01*
X3807Y2561D02*
X4070D01*
X3801Y2566D02*
X3858Y2510D01*
X3817Y2551D02*
X4070D01*
X3820Y2548D02*
Y2594D01*
X3810Y2558D02*
Y2594D01*
X3620Y2573D02*
Y2594D01*
X3610Y2573D02*
Y2594D01*
X3630Y2573D02*
Y2594D01*
X3590Y2573D02*
Y2594D01*
X3580Y2573D02*
Y2594D01*
X3600Y2573D02*
Y2594D01*
X3680Y2573D02*
Y2594D01*
X3670Y2573D02*
Y2594D01*
X3690Y2573D02*
Y2594D01*
X3650Y2573D02*
Y2594D01*
X3640Y2573D02*
Y2594D01*
X3660Y2573D02*
Y2594D01*
X3500Y2573D02*
Y2594D01*
X3490Y2573D02*
Y2594D01*
X3510Y2573D02*
Y2594D01*
X3470Y2573D02*
Y2594D01*
X3460Y2573D02*
Y2594D01*
X3480Y2573D02*
Y2594D01*
X3560Y2573D02*
Y2594D01*
X3550Y2573D02*
Y2594D01*
X3570Y2573D02*
Y2594D01*
X3530Y2573D02*
Y2594D01*
X3520Y2573D02*
Y2594D01*
X3540Y2573D02*
Y2594D01*
X3440Y2573D02*
Y2594D01*
X3430Y2573D02*
Y2594D01*
X3450Y2573D02*
Y2594D01*
X3410Y2573D02*
Y2594D01*
X3400Y2573D02*
Y2594D01*
X3420Y2573D02*
Y2594D01*
X3390Y2573D02*
Y2594D01*
X3380Y2573D02*
Y2594D01*
X3345Y2497D02*
X3438D01*
X3360Y2573D02*
Y2594D01*
X3350Y2573D02*
Y2594D01*
X3370Y2573D02*
Y2594D01*
X3330Y2573D02*
Y2594D01*
X3320Y2573D02*
Y2594D01*
X3340Y2573D02*
Y2594D01*
X3300Y2573D02*
Y2594D01*
X3290Y2573D02*
Y2594D01*
X3310Y2573D02*
Y2594D01*
X3300Y2517D02*
Y2527D01*
X3292Y2509D02*
X3310Y2527D01*
X3286Y2511D02*
X3293D01*
X3280Y2573D02*
Y2594D01*
X3290Y2510D02*
Y2527D01*
X4027Y2461D02*
X4070D01*
X4027Y2471D02*
X4070D01*
X4027Y2451D02*
X4070D01*
X3923Y2482D02*
Y2512D01*
X3920Y2487D02*
Y2594D01*
X4027Y2481D02*
X4070D01*
X4027Y2431D02*
X4070D01*
X4027Y2441D02*
X4070D01*
X4027Y2421D02*
X4070D01*
X4027Y2408D02*
Y2512D01*
X3923Y2408D02*
Y2438D01*
X3918Y2431D02*
X3923D01*
X3918Y2491D02*
X3923D01*
X3910Y2421D02*
X3923D01*
X3818Y2431D02*
X3832D01*
X3718D02*
X3732D01*
X3810Y2421D02*
X3840D01*
X3750Y2272D02*
Y2414D01*
X3740Y2270D02*
Y2421D01*
X3730Y2265D02*
Y2433D01*
X3710Y2421D02*
X3740D01*
X4027Y2411D02*
X4070D01*
X3794Y2251D02*
X4070D01*
X3799Y2241D02*
X4070D01*
X3893Y2411D02*
X3923D01*
X3793D02*
X3857D01*
X3923Y2408D02*
X4027D01*
X3802Y2221D02*
X4070D01*
X3802Y2231D02*
X4070D01*
X3800Y2211D02*
X4070D01*
X3800Y2139D02*
Y2211D01*
Y2239D02*
Y2414D01*
X3795Y2201D02*
X4070D01*
X3780Y2265D02*
Y2408D01*
X3766Y2271D02*
X4070D01*
X3786Y2261D02*
X4070D01*
X3760Y2272D02*
Y2410D01*
X3693Y2411D02*
X3757D01*
X3770Y2270D02*
Y2408D01*
X3790Y2256D02*
Y2410D01*
X3787Y2191D02*
X4070D01*
X3790Y2156D02*
Y2194D01*
X3780Y2165D02*
Y2185D01*
X3720Y2256D02*
Y2433D01*
X3430Y2487D02*
Y2497D01*
X3420Y2023D02*
Y2497D01*
X3410Y2009D02*
Y2497D01*
X3430Y2030D02*
Y2433D01*
X3360Y1704D02*
Y2497D01*
X3350Y1714D02*
Y2497D01*
X3370Y1693D02*
Y2497D01*
X3338Y2491D02*
X3432D01*
X3328Y2481D02*
X3427D01*
X3322Y2471D02*
X3424D01*
X3321Y2474D02*
X3345Y2497D01*
X3322Y2461D02*
X3423D01*
X3340Y1723D02*
Y2492D01*
X3322Y2451D02*
X3423D01*
X3320Y2441D02*
X3426D01*
X3330Y1728D02*
Y2482D01*
X3322Y2455D02*
Y2465D01*
X3320Y1728D02*
Y2441D01*
X3618Y2431D02*
X3632D01*
X3610Y2421D02*
X3640D01*
X3593Y2411D02*
X3657D01*
X3518Y2431D02*
X3532D01*
X3510Y2421D02*
X3540D01*
X3493Y2411D02*
X3557D01*
X3720Y2156D02*
Y2194D01*
X3710Y2238D02*
Y2421D01*
X3730Y2165D02*
Y2185D01*
X3490Y2010D02*
Y2410D01*
X3480Y2023D02*
Y2408D01*
X3710Y2138D02*
Y2212D01*
X3450Y2035D02*
Y2414D01*
X3291Y2411D02*
X3457D01*
X3460Y2033D02*
Y2410D01*
X3440Y2033D02*
Y2421D01*
X3315Y2431D02*
X3432D01*
X3307Y2421D02*
X3440D01*
X3310Y1728D02*
Y2424D01*
X3300Y1728D02*
Y2415D01*
X3470Y2030D02*
Y2408D01*
X3290Y1728D02*
Y2410D01*
X3280Y1728D02*
Y2408D01*
X3260Y2573D02*
Y2594D01*
X3250Y2573D02*
Y2594D01*
X3270Y2573D02*
Y2594D01*
X3210Y2573D02*
Y2594D01*
X3200Y2573D02*
Y2594D01*
X3240Y2573D02*
Y2594D01*
X3260Y2510D02*
Y2527D01*
X3250Y2505D02*
Y2527D01*
X3270Y2512D02*
Y2527D01*
X3230Y2573D02*
Y2594D01*
X3220Y2573D02*
Y2594D01*
X3230Y2478D02*
Y2527D01*
X2830Y2591D02*
X4070D01*
X2830Y2594D02*
X4070D01*
X2830Y2581D02*
X4070D01*
X3180Y2573D02*
Y2594D01*
X3170Y2573D02*
Y2594D01*
X3165Y2573D02*
X3785D01*
X3190D02*
Y2594D01*
X3160Y2572D02*
Y2594D01*
X3150Y2567D02*
Y2594D01*
X2830Y2571D02*
X3155D01*
X3280Y2512D02*
Y2527D01*
X3240Y2496D02*
Y2527D01*
X3214Y2491D02*
X3236D01*
X3220Y2479D02*
Y2527D01*
X3219Y2481D02*
X3231D01*
X3222Y2471D02*
X3228D01*
X3222Y2451D02*
X3228D01*
X3220Y2441D02*
X3230D01*
X3228Y2455D02*
Y2465D01*
X3222Y2455D02*
Y2465D01*
Y2461D02*
X3228D01*
X3175Y2527D02*
X3310D01*
X3168Y2521D02*
X3303D01*
X3186Y2511D02*
X3264D01*
X3180Y2512D02*
Y2527D01*
X3170Y2512D02*
Y2522D01*
X3158Y2511D02*
X3164D01*
X3210Y2496D02*
Y2527D01*
X3206Y2501D02*
X3244D01*
X3190Y2510D02*
Y2527D01*
X3155Y2508D02*
X3175Y2527D01*
X3200Y2505D02*
Y2527D01*
X3130Y2547D02*
Y2594D01*
X3120Y2537D02*
Y2594D01*
X3140Y2557D02*
Y2594D01*
X3100Y2517D02*
Y2594D01*
X3080Y2512D02*
Y2594D01*
X3110Y2527D02*
Y2594D01*
X3090Y2510D02*
Y2594D01*
X3070Y2512D02*
Y2594D01*
X3092Y2509D02*
X3149Y2566D01*
X3050Y2505D02*
Y2594D01*
X3040Y2496D02*
Y2594D01*
X3060Y2510D02*
Y2594D01*
X2970Y2512D02*
Y2594D01*
X2960Y2512D02*
Y2594D01*
X2830Y2561D02*
X3143D01*
X2940Y2512D02*
Y2594D01*
X2930Y2512D02*
Y2594D01*
X2950Y2512D02*
Y2594D01*
X3020Y2512D02*
Y2594D01*
X3010Y2512D02*
Y2594D01*
X3030Y2478D02*
Y2594D01*
X2990Y2512D02*
Y2594D01*
X2980Y2512D02*
Y2594D01*
X3000Y2512D02*
Y2594D01*
X3086Y2511D02*
X3093D01*
X2830Y2531D02*
X3113D01*
X3022Y2511D02*
X3064D01*
X3022Y2501D02*
X3044D01*
X2928Y2512D02*
X3022D01*
Y2491D02*
X3036D01*
X3022Y2481D02*
X3031D01*
X3022Y2471D02*
X3028D01*
X3028Y2455D02*
Y2465D01*
X3022Y2461D02*
X3028D01*
X3022Y2451D02*
X3028D01*
X2830Y2541D02*
X3123D01*
X2830Y2551D02*
X3133D01*
X2830Y2521D02*
X3103D01*
X2830Y2501D02*
X2928D01*
X2830Y2511D02*
X2928D01*
X2830Y2491D02*
X2928D01*
X2830Y2451D02*
X2928D01*
X2830Y2461D02*
X2928D01*
X2830Y2441D02*
X2928D01*
X2830Y2481D02*
X2928D01*
X2830Y2471D02*
X2928D01*
X3250Y1728D02*
Y2415D01*
X3191Y2411D02*
X3259D01*
X3240Y1728D02*
Y2424D01*
X3215Y2431D02*
X3235D01*
X3207Y2421D02*
X3243D01*
X3260Y1728D02*
Y2410D01*
X3230Y1728D02*
Y2442D01*
X3270Y1728D02*
Y2408D01*
X3220Y1728D02*
Y2441D01*
X3210Y1728D02*
Y2424D01*
X3200Y1728D02*
Y2415D01*
X3148Y2401D02*
X4070D01*
X3138Y2391D02*
X4070D01*
X3128Y2381D02*
X4070D01*
X3121Y2374D02*
X3159Y2411D01*
X3170Y2035D02*
Y2408D01*
X3190Y1728D02*
Y2410D01*
X3160Y2035D02*
Y2410D01*
X3180Y1728D02*
Y2408D01*
X3150Y2035D02*
Y2402D01*
X3140Y2035D02*
Y2392D01*
X3130Y2035D02*
Y2382D01*
X3117Y2371D02*
X4070D01*
X2998Y2361D02*
X4070D01*
X2830Y2341D02*
X4070D01*
X2830Y2351D02*
X4070D01*
X2830Y2321D02*
X4070D01*
X2830Y2331D02*
X4070D01*
X2830Y2311D02*
X4070D01*
X3120Y2035D02*
Y2372D01*
X2830Y2301D02*
X4070D01*
X2830Y2291D02*
X4070D01*
X2830Y2271D02*
X3744D01*
X2830Y2281D02*
X4070D01*
X2830Y2261D02*
X3724D01*
X2830Y2241D02*
X3711D01*
X2830Y2251D02*
X3716D01*
X2830Y2231D02*
X3708D01*
X2830Y2191D02*
X3723D01*
X2830Y2201D02*
X3715D01*
X2830Y2181D02*
X3739D01*
X2830Y2221D02*
X3708D01*
X2830Y2211D02*
X3710D01*
X3022Y2431D02*
X3035D01*
X3022Y2421D02*
X3043D01*
X3030Y2413D02*
Y2442D01*
X3022Y2413D02*
Y2512D01*
Y2441D02*
X3030D01*
X3040Y2413D02*
Y2424D01*
X3022Y2413D02*
X3054D01*
X2950Y1728D02*
Y2408D01*
X2940Y1733D02*
Y2408D01*
X2960Y1728D02*
Y2408D01*
X2830Y2421D02*
X2928D01*
X2830Y2431D02*
X2928D01*
X2830Y2411D02*
X2928D01*
X2910Y1807D02*
Y2594D01*
X2900Y1807D02*
Y2594D01*
X2928Y2408D02*
Y2512D01*
X2890Y1807D02*
Y2594D01*
X2880Y1807D02*
Y2594D01*
X2920Y1807D02*
Y2594D01*
X2860Y1807D02*
Y2594D01*
X2850Y1807D02*
Y2594D01*
X2870Y1807D02*
Y2594D01*
X3110Y2035D02*
Y2368D01*
X3014Y2367D02*
X3105D01*
X3100Y2035D02*
Y2367D01*
X3080Y1728D02*
Y2367D01*
X3070Y1728D02*
Y2367D01*
X3090Y1728D02*
Y2367D01*
X3050Y1728D02*
Y2367D01*
X3040Y1728D02*
Y2367D01*
X3060Y1728D02*
Y2367D01*
X3030Y1728D02*
Y2367D01*
X3020Y1728D02*
Y2367D01*
X3010Y1728D02*
Y2365D01*
X2928Y2408D02*
X2972D01*
X2830Y2371D02*
X2973D01*
X2830Y2361D02*
X2992D01*
X2830Y2391D02*
X2966D01*
X2830Y2401D02*
X2968D01*
X2830Y2381D02*
X2967D01*
X2990Y1728D02*
Y2361D01*
X2980Y1728D02*
Y2365D01*
X3000Y1728D02*
Y2361D01*
X2930Y1743D02*
Y2408D01*
X2970Y1728D02*
Y2374D01*
X3802Y2131D02*
X4070D01*
X3799Y2141D02*
X4070D01*
X3802Y2121D02*
X4070D01*
X3800Y2072D02*
Y2111D01*
X3800Y2111D02*
X4070D01*
X3795Y2101D02*
X4070D01*
X3802Y2061D02*
X4070D01*
X3802Y2071D02*
X4070D01*
X3802Y2051D02*
X4070D01*
X3802Y2041D02*
X4070D01*
X3802Y1978D02*
Y2072D01*
Y2031D02*
X4070D01*
X3771Y2181D02*
X4070D01*
X3766Y2171D02*
X4070D01*
X3786Y2161D02*
X4070D01*
X3794Y2151D02*
X4070D01*
X3770Y2170D02*
Y2180D01*
X3787Y2091D02*
X4070D01*
X3771Y2081D02*
X4070D01*
X3708Y2072D02*
X3802D01*
X3790D02*
Y2094D01*
X3780Y2072D02*
Y2085D01*
X3770Y2072D02*
Y2080D01*
X3802Y2011D02*
X4070D01*
X3802Y2021D02*
X4070D01*
X3802Y2001D02*
X4070D01*
X3802Y1981D02*
X4070D01*
X3802Y1991D02*
X4070D01*
X3708Y1978D02*
X3802D01*
X3373Y1621D02*
X4070D01*
X3373Y1681D02*
X4070D01*
X3373Y1611D02*
X4070D01*
X3490Y1971D02*
X4070D01*
X3484Y1961D02*
X4070D01*
X3471Y1951D02*
X4070D01*
X3373Y1671D02*
X4070D01*
X3371Y1691D02*
X4070D01*
X3373Y1661D02*
X4070D01*
X3353Y1711D02*
X4070D01*
X3343Y1721D02*
X4070D01*
X3363Y1701D02*
X4070D01*
X3373Y1591D02*
X4070D01*
X3373Y1601D02*
X4070D01*
X3373Y1581D02*
X4070D01*
X3373Y1641D02*
X4070D01*
X3373Y1651D02*
X4070D01*
X3373Y1631D02*
X4070D01*
X3760Y2172D02*
Y2178D01*
X3750Y2172D02*
Y2178D01*
X3760Y2072D02*
Y2078D01*
X3740Y2072D02*
Y2080D01*
Y2170D02*
Y2180D01*
X3750Y2072D02*
Y2078D01*
X3720Y2072D02*
Y2094D01*
X3710Y2072D02*
Y2112D01*
X3730Y2072D02*
Y2085D01*
X3708Y1978D02*
Y2072D01*
X3495Y1991D02*
X3708D01*
X3494Y1981D02*
X3708D01*
X3482Y2021D02*
X3708D01*
X3468Y2031D02*
X3708D01*
X3490Y2011D02*
X3708D01*
X3180Y2021D02*
X3418D01*
X3180Y2031D02*
X3432D01*
X3180Y2011D02*
X3411D01*
X3493Y2001D02*
X3708D01*
X3180D02*
X3407D01*
X3180Y1991D02*
X3405D01*
X3180Y1945D02*
Y2035D01*
Y1981D02*
X3406D01*
X3343Y1721D02*
X3366Y1698D01*
X3321Y1631D02*
X3327D01*
X3282Y1621D02*
X3327D01*
X3281Y1611D02*
X3327D01*
X3275Y1601D02*
X3327D01*
X3263Y1591D02*
X3327D01*
X3180Y1961D02*
X3417D01*
X3180Y1971D02*
X3410D01*
X3180Y1951D02*
X3429D01*
X3160Y1728D02*
Y1945D01*
X3120Y1728D02*
Y1945D01*
X3170Y1728D02*
Y1945D01*
X3150Y1728D02*
Y1945D01*
X3140Y1728D02*
Y1945D01*
X3110Y1728D02*
Y1945D01*
X3130Y1728D02*
Y1945D01*
X3373Y1521D02*
X4070D01*
X3373Y1531D02*
X4070D01*
X3373Y1511D02*
X4070D01*
X3373Y1551D02*
X4070D01*
X3373Y1561D02*
X4070D01*
X3373Y1541D02*
X4070D01*
X3373Y1431D02*
X4070D01*
X3373Y1471D02*
X4070D01*
X3373Y1421D02*
X4070D01*
X3373Y1491D02*
X4070D01*
X3373Y1501D02*
X4070D01*
X3373Y1481D02*
X4070D01*
X3373Y1461D02*
X4070D01*
X3373Y1571D02*
X4070D01*
X3373Y1451D02*
X4070D01*
X3217Y1491D02*
X3327D01*
X3217Y1501D02*
X3327D01*
X3217Y1461D02*
X3327D01*
X3373Y1411D02*
X4070D01*
X3373Y1441D02*
X4070D01*
X3373Y1401D02*
X4070D01*
X3373Y1284D02*
Y1681D01*
X3217Y1451D02*
X3327D01*
X3373Y1391D02*
X4070D01*
X3373Y1341D02*
X4070D01*
X3373Y1351D02*
X4070D01*
X3373Y1331D02*
X4070D01*
X3373Y1371D02*
X4070D01*
X3373Y1381D02*
X4070D01*
X3373Y1361D02*
X4070D01*
X3374Y1281D02*
X4070D01*
X3373Y1291D02*
X4070D01*
X3374Y1271D02*
X4070D01*
X3373Y1311D02*
X4070D01*
X3373Y1321D02*
X4070D01*
X3373Y1301D02*
X4070D01*
X3371Y1261D02*
X4070D01*
X3362Y1251D02*
X4070D01*
X3217Y1331D02*
X3327D01*
X3161Y1251D02*
X3328D01*
X3131Y1221D02*
X4070D01*
X3121Y1211D02*
X4070D01*
X3111Y1201D02*
X4070D01*
X3151Y1241D02*
X4070D01*
X3141Y1231D02*
X4070D01*
X3216Y1551D02*
X3327D01*
X3206Y1561D02*
X3327D01*
X3220Y1541D02*
X3327D01*
X3210Y1557D02*
Y1589D01*
X3200Y1564D02*
Y1589D01*
X3220Y1542D02*
Y1589D01*
X3327Y1298D02*
Y1638D01*
X3222Y1531D02*
X3327D01*
X3221Y1521D02*
X3327D01*
X3320Y1291D02*
Y1630D01*
X3217Y1320D02*
Y1511D01*
X3190Y1567D02*
Y1589D01*
X3180Y1567D02*
Y1589D01*
X3160Y1557D02*
Y1589D01*
X3150Y1542D02*
Y1589D01*
X3170Y1564D02*
Y1589D01*
X3150Y1330D02*
Y1518D01*
X3140Y1320D02*
Y1589D01*
X3153Y1333D02*
Y1511D01*
X3120Y1300D02*
Y1589D01*
X3110Y1290D02*
Y1589D01*
X3130Y1310D02*
Y1589D01*
X3217Y1431D02*
X3327D01*
X3217Y1441D02*
X3327D01*
X3217Y1421D02*
X3327D01*
X3217Y1481D02*
X3327D01*
X3217Y1511D02*
X3327D01*
X3217Y1471D02*
X3327D01*
X3217Y1371D02*
X3327D01*
X3217Y1381D02*
X3327D01*
X3217Y1361D02*
X3327D01*
X3217Y1401D02*
X3327D01*
X3217Y1411D02*
X3327D01*
X3217Y1391D02*
X3327D01*
X3217Y1341D02*
X3327D01*
X3217Y1351D02*
X3327D01*
X3217Y1321D02*
X3327D01*
X3216Y1311D02*
X3327D01*
X3211Y1301D02*
X3327D01*
X3201Y1291D02*
X3320D01*
X3191Y1281D02*
X3316D01*
X3171Y1261D02*
X3319D01*
X3181Y1271D02*
X3316D01*
X2830Y2161D02*
X3724D01*
X2830Y2171D02*
X3744D01*
X2830Y2151D02*
X3716D01*
X2830Y2121D02*
X3708D01*
X2830Y2131D02*
X3708D01*
X2830Y2111D02*
X3710D01*
X2830Y2091D02*
X3723D01*
X2830Y2101D02*
X3715D01*
X2830Y2081D02*
X3739D01*
X3091Y2035D02*
X3180D01*
X2830Y2071D02*
X3708D01*
X3091Y1945D02*
X3180D01*
X2830Y1941D02*
X4070D01*
X2830Y2141D02*
X3711D01*
X2830Y1931D02*
X4070D01*
X2830Y2051D02*
X3708D01*
X2830Y2061D02*
X3708D01*
X2830Y2041D02*
X3708D01*
X2830Y1881D02*
X4070D01*
X2830Y1891D02*
X4070D01*
X2830Y1871D02*
X4070D01*
X2830Y1911D02*
X4070D01*
X2830Y1921D02*
X4070D01*
X2830Y1901D02*
X4070D01*
X2932Y1741D02*
X4070D01*
X2922Y1761D02*
X4070D01*
X2942Y1731D02*
X4070D01*
X2922Y1781D02*
X4070D01*
X2922Y1801D02*
X4070D01*
X2922Y1771D02*
X4070D01*
X2958Y1581D02*
X3327D01*
X2945Y1728D02*
X3326D01*
X2948Y1571D02*
X3327D01*
X3084Y1589D02*
X3244D01*
X2938Y1561D02*
X3164D01*
X2928Y1551D02*
X3154D01*
X2830Y1821D02*
X4070D01*
X2830Y1831D02*
X4070D01*
X2830Y1811D02*
X4070D01*
X2830Y1851D02*
X4070D01*
X2830Y1861D02*
X4070D01*
X2830Y1841D02*
X4070D01*
X2922Y1751D02*
X4070D01*
X2922Y1791D02*
X4070D01*
X2921Y1451D02*
X3153D01*
X2918Y1441D02*
X3153D01*
X2912Y1431D02*
X3153D01*
X2901Y1421D02*
X3153D01*
X3100Y1728D02*
Y1945D01*
X3091D02*
Y2035D01*
X2922Y1751D02*
X2945Y1728D01*
X2922Y1751D02*
Y1807D01*
X2966Y1589D02*
X3046D01*
X2918Y1541D02*
X3150D01*
X2912Y1531D02*
X3148D01*
X2901Y1521D02*
X3149D01*
X2920Y1474D02*
Y1542D01*
X2917Y1540D02*
X2966Y1589D01*
X2910Y1491D02*
Y1529D01*
X2830Y1991D02*
X3091D01*
X2830Y2001D02*
X3091D01*
X2830Y1981D02*
X3091D01*
X2830Y2021D02*
X3091D01*
X2830Y2031D02*
X3091D01*
X2830Y2011D02*
X3091D01*
X2830Y1961D02*
X3091D01*
X2830Y1971D02*
X3091D01*
X2830Y1951D02*
X3091D01*
X2830Y1807D02*
X2922D01*
X2830Y1521D02*
X2849D01*
X2911Y1491D02*
X3153D01*
X2899Y1501D02*
X3153D01*
X2917Y1481D02*
X3153D01*
X2900Y1500D02*
Y1520D01*
X2890Y1505D02*
Y1515D01*
X2880Y1507D02*
Y1513D01*
X2922Y1461D02*
X3153D01*
X2921Y1471D02*
X3153D01*
X2899Y1401D02*
X3153D01*
X2890Y1405D02*
Y1415D01*
X2870Y1407D02*
Y1413D01*
X2880Y1407D02*
Y1413D01*
X2870Y1507D02*
Y1513D01*
X2830Y1511D02*
X3153D01*
X2860Y1505D02*
Y1515D01*
X2850Y1500D02*
Y1520D01*
X2830Y1501D02*
X2851D01*
X2860Y1405D02*
Y1415D01*
X2830Y1411D02*
X3153D01*
X2830Y1421D02*
X2849D01*
X2830Y1401D02*
X2851D01*
X3100Y1280D02*
Y1589D01*
X2922Y1361D02*
X3153D01*
X3072Y1252D02*
X3153Y1333D01*
X3090Y1270D02*
Y1589D01*
X3050Y1252D02*
Y1587D01*
X3080Y1260D02*
Y1587D01*
X3070Y1252D02*
Y1584D01*
X3060Y1252D02*
Y1584D01*
X3108Y1197D02*
X3208Y1297D01*
X3030Y1252D02*
Y1589D01*
X3020Y1252D02*
Y1589D01*
X3040Y1252D02*
Y1589D01*
X2917Y1381D02*
X3153D01*
X2911Y1391D02*
X3153D01*
X2921Y1371D02*
X3153D01*
X2921Y1351D02*
X3153D01*
X2918Y1341D02*
X3153D01*
X2912Y1331D02*
X3150D01*
X2901Y1321D02*
X3140D01*
X2830Y1311D02*
X3130D01*
X2899Y1301D02*
X3120D01*
X2917Y1281D02*
X3100D01*
X2911Y1291D02*
X3110D01*
X2921Y1271D02*
X3090D01*
X3098Y1191D02*
X4070D01*
X3083Y1181D02*
X4070D01*
X3083Y1161D02*
X4070D01*
X3083Y1171D02*
X4070D01*
X3083Y1101D02*
X4070D01*
X3083Y1111D02*
X4070D01*
X3083Y1091D02*
X4070D01*
X3083Y1141D02*
X4070D01*
X3083Y1151D02*
X4070D01*
X3083Y1131D02*
X4070D01*
X2922Y1261D02*
X3080D01*
X3053Y1252D02*
X3072D01*
X3019D02*
X3048D01*
X2830Y1141D02*
X3019D01*
X3083Y1121D02*
X4070D01*
X2830Y1131D02*
X3019D01*
X2830Y1111D02*
X3019D01*
X2899Y1101D02*
X3019D01*
X2911Y1091D02*
X3019D01*
X2920Y1374D02*
Y1446D01*
X2910Y1391D02*
Y1429D01*
Y1291D02*
Y1329D01*
X2900Y1300D02*
Y1320D01*
Y1400D02*
Y1420D01*
X2890Y1305D02*
Y1315D01*
X3000Y1257D02*
Y1589D01*
X2990Y1256D02*
Y1589D01*
X3010Y1256D02*
Y1589D01*
X2980Y1251D02*
Y1589D01*
X2970Y1242D02*
Y1589D01*
X2920Y1274D02*
Y1346D01*
X2850Y1400D02*
Y1420D01*
X2830Y1321D02*
X2849D01*
X2880Y1307D02*
Y1313D01*
X2860Y1305D02*
Y1315D01*
X2850Y1300D02*
Y1320D01*
X2870Y1307D02*
Y1313D01*
X2921Y1251D02*
X2979D01*
X2918Y1241D02*
X2969D01*
X2830Y1151D02*
X3019D01*
X2912Y1231D02*
X2965D01*
X2901Y1221D02*
X2963D01*
X2880Y1107D02*
Y1213D01*
X2910Y1091D02*
Y1229D01*
X2900Y1100D02*
Y1220D01*
X2890Y1105D02*
Y1215D01*
X2860Y1105D02*
Y1215D01*
X2850Y1100D02*
Y1220D01*
X2870Y1107D02*
Y1213D01*
X2830Y1201D02*
X2969D01*
X2830Y1211D02*
X2964D01*
X2830Y1191D02*
X2978D01*
X2830Y1301D02*
X2851D01*
X2830Y1221D02*
X2849D01*
X2830Y1171D02*
X3019D01*
X2830Y1181D02*
X3019D01*
X2830Y1161D02*
X3019D01*
X2830Y1121D02*
X3019D01*
X2830Y1101D02*
X2851D01*
X2693Y2351D02*
X2710D01*
X2690Y2103D02*
Y2349D01*
X2673Y2341D02*
X2710D01*
X2680Y2105D02*
Y2344D01*
X2670Y2105D02*
Y2339D01*
X2660Y2103D02*
Y2336D01*
X2710Y2090D02*
Y2362D01*
X2710Y2090D02*
Y2362D01*
X2696Y2101D02*
X2710D01*
X2700Y2099D02*
Y2355D01*
X2650Y2098D02*
Y2333D01*
X2640Y2090D02*
Y2331D01*
X2638Y2331D02*
X2710D01*
X2596Y2101D02*
X2654D01*
X2610Y2090D02*
Y2329D01*
X2600Y2099D02*
Y2329D01*
X2610Y2091D02*
X2641D01*
X2630Y2072D02*
Y2330D01*
X2617Y2081D02*
X2633D01*
X2620Y2073D02*
Y2329D01*
X2621Y2071D02*
X2630D01*
X2703Y2021D02*
X2710D01*
X2690Y2003D02*
Y2014D01*
X2696Y2001D02*
X2710D01*
X2670Y2005D02*
Y2012D01*
X2660Y2003D02*
Y2014D01*
X2680Y2005D02*
Y2012D01*
X2710Y1990D02*
Y2027D01*
X2710Y1990D02*
Y2027D01*
X2700Y1999D02*
Y2019D01*
X2640Y1990D02*
Y2027D01*
X2630Y1972D02*
Y2046D01*
X2650Y1998D02*
Y2019D01*
X2618Y2041D02*
X2632D01*
X2613Y2031D02*
X2637D01*
X2603Y2021D02*
X2648D01*
X2622Y2061D02*
X2628D01*
X2621Y2051D02*
X2629D01*
X2620Y2006D02*
Y2045D01*
X2622Y1991D02*
X2641D01*
X2622Y2001D02*
X2654D01*
X2622Y1981D02*
X2633D01*
X2610Y2006D02*
Y2027D01*
X2600Y2006D02*
Y2019D01*
X2528Y2006D02*
X2622D01*
X2500Y2589D02*
Y2594D01*
X2490Y2577D02*
Y2594D01*
X2580Y2105D02*
Y2332D01*
X2470Y2542D02*
Y2594D01*
X2460Y2504D02*
Y2594D01*
X2480Y2562D02*
Y2594D01*
X2570Y2105D02*
Y2335D01*
X2560Y2103D02*
Y2338D01*
X2590Y2103D02*
Y2330D01*
X2540Y2090D02*
Y2347D01*
X2530Y2072D02*
Y2353D01*
X2550Y2098D02*
Y2342D01*
X2300Y2099D02*
Y2594D01*
X2290Y2103D02*
Y2594D01*
X2296Y2101D02*
X2554D01*
X2270Y2105D02*
Y2594D01*
X2260Y2103D02*
Y2594D01*
X2280Y2105D02*
Y2594D01*
X2317Y2081D02*
X2533D01*
X2310Y2091D02*
X2541D01*
X2321Y2071D02*
X2530D01*
X2310Y2090D02*
Y2594D01*
X2250Y2098D02*
Y2594D01*
X2320Y2073D02*
Y2594D01*
X2590Y2006D02*
Y2014D01*
X2560Y2006D02*
Y2014D01*
X2570Y2006D02*
Y2012D01*
X2322Y2061D02*
X2528D01*
X2321Y2051D02*
X2529D01*
X2318Y2041D02*
X2532D01*
X2550Y2006D02*
Y2019D01*
X2540Y2006D02*
Y2027D01*
X2580Y2006D02*
Y2012D01*
X2530Y2006D02*
Y2046D01*
X2320Y1973D02*
Y2045D01*
X2321Y1971D02*
X2528D01*
X2313Y2031D02*
X2537D01*
X2303Y2021D02*
X2548D01*
X2290Y2003D02*
Y2014D01*
X2270Y2005D02*
Y2012D01*
X2260Y2003D02*
Y2014D01*
X2280Y2005D02*
Y2012D01*
X2310Y1991D02*
X2528D01*
X2296Y2001D02*
X2528D01*
X2317Y1981D02*
X2528D01*
X2310Y1990D02*
Y2027D01*
X2300Y1999D02*
Y2019D01*
X2840Y1807D02*
Y2594D01*
X2830Y1807D02*
Y2594D01*
X2703Y1921D02*
X2710D01*
Y1806D02*
Y1927D01*
X2710Y1806D02*
Y1927D01*
X2700Y1806D02*
Y1919D01*
X2690Y1806D02*
Y1914D01*
X2670Y1806D02*
Y1912D01*
X2680Y1806D02*
Y1912D01*
X2650Y1806D02*
Y1919D01*
X2640Y1806D02*
Y1927D01*
X2660Y1806D02*
Y1914D01*
X2622Y1931D02*
X2637D01*
X2622Y1941D02*
X2632D01*
X2622Y1921D02*
X2648D01*
X2622Y1961D02*
X2628D01*
X2622Y1971D02*
X2630D01*
X2622Y1951D02*
X2629D01*
X2622Y1912D02*
Y2006D01*
X2630Y1806D02*
Y1946D01*
X2600Y1615D02*
Y1912D01*
X2590Y1605D02*
Y1912D01*
X2610Y1625D02*
Y1912D01*
X2321Y1851D02*
X2710D01*
X2318Y1841D02*
X2710D01*
X2628Y1806D02*
X2710D01*
X2528Y1912D02*
X2622D01*
X2321Y1871D02*
X2710D01*
X2322Y1861D02*
X2710D01*
X2322Y1761D02*
X2628D01*
X2321Y1771D02*
X2628D01*
X2321Y1751D02*
X2628D01*
X2620Y1635D02*
Y1912D01*
X2580Y1593D02*
Y1912D01*
X2628Y1712D02*
Y1806D01*
X2310Y1891D02*
X2710D01*
X2296Y1901D02*
X2710D01*
X2317Y1881D02*
X2710D01*
X2313Y1831D02*
X2710D01*
X2303Y1821D02*
X2710D01*
X2296Y1801D02*
X2628D01*
X2318Y1741D02*
X2628D01*
X2313Y1731D02*
X2628D01*
X2303Y1721D02*
X2628D01*
X2310Y1791D02*
X2628D01*
X2317Y1781D02*
X2628D01*
X2520Y1435D02*
Y2360D01*
X2510Y1431D02*
Y2368D01*
X2528Y1912D02*
Y2006D01*
X2490Y1431D02*
Y2390D01*
X2480Y1431D02*
Y2405D01*
X2500Y1431D02*
Y2378D01*
X2460Y1431D02*
Y2463D01*
X2450Y1431D02*
Y2594D01*
X2470Y1431D02*
Y2425D01*
X2430Y1431D02*
Y2594D01*
X2420Y1431D02*
Y2594D01*
X2440Y1431D02*
Y2594D01*
X2410Y1431D02*
Y2594D01*
X2322Y1961D02*
X2528D01*
X2321Y1951D02*
X2528D01*
X2390Y1431D02*
Y2594D01*
X2380Y1431D02*
Y2594D01*
X2320Y1873D02*
Y1945D01*
X2370Y1431D02*
Y2594D01*
X2360Y1431D02*
Y2594D01*
X2400Y1431D02*
Y2594D01*
X2340Y1431D02*
Y2594D01*
X2330Y1431D02*
Y2594D01*
X2350Y1431D02*
Y2594D01*
X2318Y1941D02*
X2528D01*
X2313Y1931D02*
X2528D01*
X2320Y1773D02*
Y1845D01*
X2310Y1790D02*
Y1827D01*
Y1890D02*
Y1927D01*
Y1690D02*
Y1727D01*
X2560Y1475D02*
Y1912D01*
X2550Y1465D02*
Y1912D01*
X2570Y1485D02*
Y1912D01*
X2540Y1455D02*
Y1912D01*
X2530Y1445D02*
Y1912D01*
X2320Y1673D02*
Y1745D01*
X2303Y1921D02*
X2528D01*
X2300Y1899D02*
Y1919D01*
X2290Y1903D02*
Y1914D01*
X2270Y1905D02*
Y1912D01*
X2260Y1903D02*
Y1914D01*
X2280Y1905D02*
Y1912D01*
X2300Y1799D02*
Y1819D01*
X2290Y1803D02*
Y1814D01*
X2280Y1805D02*
Y1812D01*
X2260Y1803D02*
Y1814D01*
X2270Y1805D02*
Y1812D01*
X2190Y2103D02*
Y2594D01*
X2180Y2105D02*
Y2594D01*
X2200Y2099D02*
Y2594D01*
X2160Y2103D02*
Y2594D01*
X2150Y2098D02*
Y2594D01*
X2170Y2105D02*
Y2594D01*
X2230Y2072D02*
Y2594D01*
X2220Y2073D02*
Y2594D01*
X2240Y2090D02*
Y2594D01*
X2140Y2090D02*
Y2594D01*
X2130Y2072D02*
Y2594D01*
X2210Y2090D02*
Y2594D01*
X2022Y2361D02*
X2519D01*
X2022Y2371D02*
X2507D01*
X2022Y2351D02*
X2534D01*
X2022Y2391D02*
X2489D01*
X2022Y2401D02*
X2483D01*
X2022Y2381D02*
X2498D01*
X2010Y2291D02*
X2710D01*
X1996Y2301D02*
X2710D01*
X2017Y2281D02*
X2710D01*
X2022Y2331D02*
X2588D01*
X2022Y2341D02*
X2554D01*
X2022Y2321D02*
X2710D01*
X2210Y2091D02*
X2241D01*
X2196Y2101D02*
X2254D01*
X2217Y2081D02*
X2233D01*
X2222Y2061D02*
X2228D01*
X2221Y2071D02*
X2230D01*
X2221Y2051D02*
X2229D01*
X2203Y2021D02*
X2248D01*
X2250Y1998D02*
Y2019D01*
X2218Y2041D02*
X2232D01*
X2213Y2031D02*
X2237D01*
X2200Y1999D02*
Y2019D01*
X2018Y2241D02*
X2710D01*
X2013Y2231D02*
X2710D01*
X2003Y2221D02*
X2710D01*
X2022Y2261D02*
X2710D01*
X2021Y2271D02*
X2710D01*
X2021Y2251D02*
X2710D01*
X2190Y2003D02*
Y2014D01*
X2196Y2001D02*
X2254D01*
X2170Y2005D02*
Y2012D01*
X2160Y2003D02*
Y2014D01*
X2180Y2005D02*
Y2012D01*
X2010Y2406D02*
Y2594D01*
X2000Y2406D02*
Y2594D01*
X2020Y2406D02*
Y2594D01*
X1980Y2406D02*
Y2594D01*
X1970Y2406D02*
Y2594D01*
X1990Y2406D02*
Y2594D01*
X1960Y2406D02*
Y2594D01*
X1950Y2406D02*
Y2594D01*
X2022Y2312D02*
Y2406D01*
X1940D02*
Y2594D01*
X1930Y2406D02*
Y2594D01*
X1928Y2312D02*
Y2406D01*
X2022D01*
X1910Y2391D02*
X1928D01*
X1917Y2381D02*
X1928D01*
X1910Y2390D02*
Y2594D01*
X1900Y2399D02*
Y2594D01*
X1920Y2373D02*
Y2594D01*
X1922Y2361D02*
X1928D01*
X1921Y2371D02*
X1928D01*
X1921Y2351D02*
X1928D01*
X1920Y2273D02*
Y2345D01*
X1918Y2341D02*
X1928D01*
X1913Y2331D02*
X1928D01*
X2000Y2299D02*
Y2312D01*
X1990Y2303D02*
Y2312D01*
X1928D02*
X2022D01*
X1970Y2305D02*
Y2312D01*
X1960Y2303D02*
Y2312D01*
X1980Y2305D02*
Y2312D01*
X2020Y2273D02*
Y2312D01*
X2010Y2290D02*
Y2312D01*
X1940Y2290D02*
Y2312D01*
X1930Y2272D02*
Y2312D01*
X1950Y2298D02*
Y2312D01*
X1917Y2281D02*
X1933D01*
X1910Y2291D02*
X1941D01*
X1921Y2271D02*
X1930D01*
X1910Y2290D02*
Y2327D01*
X1903Y2321D02*
X1928D01*
X1900Y2299D02*
Y2319D01*
X1918Y2241D02*
X1932D01*
X1913Y2231D02*
X1937D01*
X1903Y2221D02*
X1948D01*
X1922Y2261D02*
X1928D01*
X1921Y2251D02*
X1929D01*
X2240Y1990D02*
Y2027D01*
X2230Y1972D02*
Y2046D01*
X2222Y1961D02*
X2228D01*
X2221Y1971D02*
X2230D01*
X2221Y1951D02*
X2229D01*
X2250Y1898D02*
Y1919D01*
X2240Y1890D02*
Y1927D01*
X2230Y1872D02*
Y1946D01*
X2220Y1873D02*
Y1945D01*
X2221Y1871D02*
X2230D01*
X2217Y1981D02*
X2233D01*
X2210Y1991D02*
X2241D01*
X2213Y1931D02*
X2237D01*
X2220Y1973D02*
Y2045D01*
X2210Y1990D02*
Y2027D01*
X2218Y1941D02*
X2232D01*
X2203Y1921D02*
X2248D01*
X2196Y1901D02*
X2254D01*
X2210Y1891D02*
X2241D01*
X2217Y1881D02*
X2233D01*
X2240Y1790D02*
Y1827D01*
X2230Y1772D02*
Y1846D01*
X2250Y1798D02*
Y1819D01*
X2222Y1861D02*
X2228D01*
X2221Y1851D02*
X2229D01*
X2221Y1771D02*
X2230D01*
X2230Y1672D02*
Y1746D01*
X2240Y1690D02*
Y1727D01*
X2222Y1761D02*
X2228D01*
X2221Y1751D02*
X2229D01*
X2220Y1673D02*
Y1745D01*
X2203Y1821D02*
X2248D01*
X2196Y1801D02*
X2254D01*
X2210Y1791D02*
X2241D01*
X2218Y1841D02*
X2232D01*
X2213Y1831D02*
X2237D01*
X2217Y1781D02*
X2233D01*
X2218Y1741D02*
X2232D01*
X2213Y1731D02*
X2237D01*
X2203Y1721D02*
X2248D01*
X2220Y1773D02*
Y1845D01*
X2120Y1431D02*
Y2594D01*
X2110Y1430D02*
Y2594D01*
X2130Y1972D02*
Y2046D01*
X2090Y1415D02*
Y2594D01*
X2080Y1405D02*
Y2594D01*
X2100Y1425D02*
Y2594D01*
X2060Y1385D02*
Y2594D01*
X2050Y1375D02*
Y2594D01*
X2070Y1395D02*
Y2594D01*
X2040Y1365D02*
Y2594D01*
X2030Y1361D02*
Y2594D01*
X2020Y1361D02*
Y2245D01*
X1990Y1492D02*
Y2214D01*
X1970Y1500D02*
Y2212D01*
X1980Y1497D02*
Y2212D01*
X1950Y1500D02*
Y2219D01*
X1940Y1496D02*
Y2227D01*
X1960Y1501D02*
Y2214D01*
X2010Y1465D02*
Y2227D01*
X1930Y1491D02*
Y2246D01*
X2000Y1483D02*
Y2219D01*
X1920Y1481D02*
Y2245D01*
X1910Y1460D02*
Y2227D01*
X1900Y1361D02*
Y2219D01*
X2210Y1890D02*
Y1927D01*
X2200Y1899D02*
Y1919D01*
X2190Y1903D02*
Y1914D01*
X2180Y1905D02*
Y1912D01*
X2170Y1905D02*
Y1912D01*
X2180Y1805D02*
Y1812D01*
X2210Y1790D02*
Y1827D01*
X2200Y1799D02*
Y1819D01*
X2210Y1690D02*
Y1727D01*
X2190Y1803D02*
Y1814D01*
X2160Y1803D02*
Y1814D01*
X2170Y1805D02*
Y1812D01*
X2150Y1898D02*
Y1919D01*
Y1998D02*
Y2019D01*
X2160Y1903D02*
Y1914D01*
X2140Y1990D02*
Y2027D01*
X2130Y1872D02*
Y1946D01*
X2140Y1890D02*
Y1927D01*
X2150Y1798D02*
Y1819D01*
X2140Y1790D02*
Y1827D01*
Y1690D02*
Y1727D01*
X2130Y1772D02*
Y1846D01*
Y1672D02*
Y1746D01*
X2840Y1491D02*
Y1529D01*
X2830Y1531D02*
X2838D01*
X2830Y1491D02*
X2839D01*
X2710Y1690D02*
Y1712D01*
X2710Y1690D02*
Y1712D01*
X2830Y1473D02*
Y1547D01*
Y1431D02*
X2838D01*
X2830Y1373D02*
Y1447D01*
X2840Y1391D02*
Y1429D01*
X2710Y1390D02*
Y1427D01*
X2710Y1390D02*
Y1427D01*
X2703Y1421D02*
X2710D01*
X2690Y1703D02*
Y1712D01*
X2628D02*
X2710D01*
X2696Y1701D02*
X2710D01*
X2670Y1705D02*
Y1712D01*
X2660Y1703D02*
Y1712D01*
X2680Y1705D02*
Y1712D01*
X2700Y1699D02*
Y1712D01*
Y1399D02*
Y1419D01*
X2650Y1698D02*
Y1712D01*
X2690Y1403D02*
Y1414D01*
X2830Y1391D02*
X2839D01*
X2696Y1401D02*
X2710D01*
X2830Y1331D02*
X2838D01*
X2680Y1405D02*
Y1412D01*
X2703Y1321D02*
X2710D01*
X2840Y1291D02*
Y1329D01*
X2700Y1299D02*
Y1319D01*
X2696Y1301D02*
X2710D01*
X2690Y1303D02*
Y1314D01*
X2680Y1305D02*
Y1312D01*
X2658Y1411D02*
X2710D01*
X2670Y1405D02*
Y1412D01*
X2660Y1403D02*
Y1413D01*
X2648Y1401D02*
X2654D01*
X2670Y1305D02*
Y1312D01*
X2542Y1294D02*
X2661Y1414D01*
X2558Y1311D02*
X2710D01*
X2660Y1303D02*
Y1314D01*
X2650Y1298D02*
Y1319D01*
X2548Y1301D02*
X2654D01*
X2640Y1690D02*
Y1712D01*
X2630Y1672D02*
Y1712D01*
X2585Y1599D02*
X2630Y1645D01*
X2322Y1661D02*
X2628D01*
X2321Y1671D02*
X2630D01*
X2321Y1651D02*
X2629D01*
X2321Y1571D02*
X2578D01*
Y1493D02*
Y1584D01*
X2322Y1561D02*
X2578D01*
X2321Y1551D02*
X2578D01*
X2317Y1681D02*
X2633D01*
X2310Y1691D02*
X2641D01*
X2318Y1641D02*
X2626D01*
X2313Y1631D02*
X2616D01*
X2300Y1699D02*
Y1719D01*
X2303Y1621D02*
X2606D01*
X2317Y1581D02*
X2578D01*
X2310Y1591D02*
X2579D01*
X2320Y1473D02*
Y1545D01*
Y1573D02*
Y1645D01*
X2310Y1590D02*
Y1627D01*
X2300Y1599D02*
Y1619D01*
X2650Y1398D02*
Y1403D01*
X2630Y1372D02*
Y1383D01*
X2628Y1381D02*
X2633D01*
X2516Y1431D02*
X2578Y1493D01*
X2322Y1461D02*
X2546D01*
X2321Y1451D02*
X2536D01*
X2588Y1341D02*
X2632D01*
X2578Y1331D02*
X2637D01*
X2568Y1321D02*
X2648D01*
X2618Y1371D02*
X2630D01*
X2608Y1361D02*
X2628D01*
X2598Y1351D02*
X2629D01*
X2318Y1541D02*
X2578D01*
X2313Y1531D02*
X2578D01*
X2303Y1521D02*
X2578D01*
X2310Y1490D02*
Y1527D01*
X2310Y1491D02*
X2576D01*
X2317Y1481D02*
X2566D01*
X2321Y1471D02*
X2556D01*
X2318Y1441D02*
X2526D01*
X2313Y1431D02*
X2516D01*
X2320D02*
Y1445D01*
X2830Y1273D02*
Y1347D01*
X2710Y1290D02*
Y1327D01*
X2830Y1291D02*
X2839D01*
X2640Y1290D02*
Y1327D01*
X2630Y1272D02*
Y1346D01*
X2710Y1290D02*
Y1327D01*
X2840Y1091D02*
Y1229D01*
X2830Y1231D02*
X2838D01*
X2703Y1221D02*
X2710D01*
Y1090D02*
Y1227D01*
X2710Y1090D02*
Y1227D01*
X2537Y1291D02*
X2641D01*
X2317Y1281D02*
X2633D01*
X2322Y1261D02*
X2628D01*
X2321Y1271D02*
X2630D01*
X2321Y1251D02*
X2629D01*
X2620Y1235D02*
Y1373D01*
X2516Y1131D02*
X2630Y1245D01*
X2318Y1241D02*
X2626D01*
X2610Y1225D02*
Y1363D01*
X2313Y1231D02*
X2616D01*
X2303Y1221D02*
X2606D01*
X2658Y1211D02*
X2710D01*
X2648Y1201D02*
X2710D01*
X2638Y1191D02*
X2710D01*
X2690Y1103D02*
Y1214D01*
X2670Y1105D02*
Y1212D01*
X2680Y1105D02*
Y1212D01*
X2700Y1099D02*
Y1219D01*
X2696Y1101D02*
X2710D01*
X2830Y1091D02*
X2839D01*
X2660Y1103D02*
Y1213D01*
X2650Y1098D02*
Y1203D01*
X2640Y1090D02*
Y1193D01*
X2598Y1151D02*
X2710D01*
X2588Y1141D02*
X2710D01*
X2578Y1131D02*
X2710D01*
X2628Y1181D02*
X2710D01*
X2618Y1171D02*
X2710D01*
X2608Y1161D02*
X2710D01*
X2568Y1121D02*
X2710D01*
X2541Y1093D02*
X2661Y1214D01*
X2558Y1111D02*
X2710D01*
X2548Y1101D02*
X2654D01*
X2538Y1091D02*
X2641D01*
X2600Y1215D02*
Y1353D01*
X2590Y1205D02*
Y1343D01*
X2580Y1195D02*
Y1333D01*
X2570Y1185D02*
Y1323D01*
X2560Y1175D02*
Y1313D01*
X2550Y1165D02*
Y1303D01*
X2540Y1155D02*
Y1293D01*
X2530Y1145D02*
Y1288D01*
X2520Y1135D02*
Y1288D01*
X2510Y1131D02*
Y1288D01*
X2500Y1131D02*
Y1288D01*
X2480Y1131D02*
Y1288D01*
X2312D02*
X2526D01*
X2320Y1273D02*
Y1288D01*
X2470Y1131D02*
Y1288D01*
X2460Y1131D02*
Y1288D01*
X2450Y1131D02*
Y1288D01*
X2490Y1131D02*
Y1288D01*
X2360Y1131D02*
Y1288D01*
X2350Y1131D02*
Y1288D01*
X2370Y1131D02*
Y1288D01*
X2400Y1131D02*
Y1288D01*
X2390Y1131D02*
Y1288D01*
X2322Y1161D02*
X2546D01*
X2340Y1131D02*
Y1288D01*
X2330Y1131D02*
Y1288D01*
X2380Y1131D02*
Y1288D01*
X2440Y1131D02*
Y1288D01*
X2420Y1131D02*
Y1288D01*
X2410Y1131D02*
Y1288D01*
X2430Y1131D02*
Y1288D01*
X2317Y1181D02*
X2566D01*
X2310Y1191D02*
X2576D01*
X2321Y1171D02*
X2556D01*
X2320Y1173D02*
Y1245D01*
X2310Y1190D02*
Y1227D01*
X2321Y1151D02*
X2536D01*
X2318Y1141D02*
X2526D01*
X2313Y1131D02*
X2516D01*
X2313Y1087D02*
X2525D01*
X2320Y1131D02*
Y1145D01*
X2290Y1703D02*
Y1714D01*
X2280Y1705D02*
Y1712D01*
X2296Y1701D02*
X2654D01*
X2260Y1703D02*
Y1714D01*
X2250Y1698D02*
Y1719D01*
X2270Y1705D02*
Y1712D01*
X2290Y1603D02*
Y1614D01*
X2280Y1605D02*
Y1612D01*
X2296Y1601D02*
X2586D01*
X2260Y1603D02*
Y1614D01*
X2250Y1598D02*
Y1619D01*
X2270Y1605D02*
Y1612D01*
X2210Y1691D02*
X2241D01*
X2196Y1701D02*
X2254D01*
X2213Y1631D02*
X2237D01*
X2221Y1671D02*
X2230D01*
X2217Y1681D02*
X2233D01*
X2218Y1641D02*
X2232D01*
X2196Y1601D02*
X2254D01*
X2240Y1590D02*
Y1627D01*
X2230Y1572D02*
Y1646D01*
X2203Y1621D02*
X2248D01*
X2290Y1503D02*
Y1514D01*
X2280Y1505D02*
Y1512D01*
X2296Y1501D02*
X2578D01*
X2260Y1503D02*
Y1514D01*
X2221Y1551D02*
X2229D01*
X2270Y1505D02*
Y1512D01*
X2300Y1499D02*
Y1519D01*
X2250Y1498D02*
Y1519D01*
X2240Y1490D02*
Y1527D01*
X2230Y1472D02*
Y1546D01*
X2221Y1451D02*
X2229D01*
X2213Y1531D02*
X2237D01*
X2210Y1591D02*
X2241D01*
X2203Y1521D02*
X2248D01*
X2221Y1571D02*
X2230D01*
X2217Y1581D02*
X2233D01*
X2218Y1541D02*
X2232D01*
X2210Y1491D02*
X2241D01*
X2196Y1501D02*
X2254D01*
X2213Y1431D02*
X2237D01*
X2221Y1471D02*
X2230D01*
X2217Y1481D02*
X2233D01*
X2218Y1441D02*
X2232D01*
X2222Y1661D02*
X2228D01*
X2200Y1699D02*
Y1719D01*
X2221Y1651D02*
X2229D01*
X2190Y1703D02*
Y1714D01*
X2180Y1705D02*
Y1712D01*
Y1605D02*
Y1612D01*
X2222Y1561D02*
X2228D01*
X2220Y1573D02*
Y1645D01*
Y1473D02*
Y1545D01*
X2210Y1590D02*
Y1627D01*
X2200Y1599D02*
Y1619D01*
X2190Y1603D02*
Y1614D01*
X2170Y1705D02*
Y1712D01*
Y1605D02*
Y1612D01*
X2160Y1703D02*
Y1714D01*
X2150Y1698D02*
Y1719D01*
X2160Y1603D02*
Y1614D01*
X2150Y1598D02*
Y1619D01*
X2140Y1590D02*
Y1627D01*
X2130Y1472D02*
Y1546D01*
Y1572D02*
Y1646D01*
X2140Y1490D02*
Y1527D01*
X2200Y1499D02*
Y1519D01*
X2190Y1503D02*
Y1514D01*
X2180Y1505D02*
Y1512D01*
X2160Y1503D02*
Y1514D01*
X2150Y1498D02*
Y1519D01*
X2170Y1505D02*
Y1512D01*
X2222Y1461D02*
X2228D01*
X2210Y1490D02*
Y1527D01*
X2130Y1431D02*
Y1446D01*
X2220Y1431D02*
Y1445D01*
X1991Y1491D02*
X2141D01*
X1964Y1501D02*
X2154D01*
X2002Y1481D02*
X2133D01*
X2011Y1461D02*
X2128D01*
X2008Y1471D02*
X2130D01*
X2013Y1451D02*
X2129D01*
X2012Y1441D02*
X2132D01*
X2115Y1431D02*
X2137D01*
X2230Y1272D02*
Y1288D01*
Y1431D02*
Y1446D01*
X2221Y1271D02*
X2230D01*
X2222Y1261D02*
X2228D01*
X2220Y1273D02*
Y1288D01*
X2221Y1251D02*
X2229D01*
X2300Y1199D02*
Y1219D01*
X2260Y1203D02*
Y1214D01*
X2240Y1190D02*
Y1227D01*
X2230Y1172D02*
Y1246D01*
X2250Y1198D02*
Y1219D01*
X2213Y1231D02*
X2237D01*
X2212Y1288D02*
X2238D01*
X2203Y1221D02*
X2248D01*
X2217Y1281D02*
X2233D01*
X2218Y1241D02*
X2232D01*
X2220Y1173D02*
Y1245D01*
X2210Y1190D02*
Y1227D01*
X2200Y1199D02*
Y1219D01*
X2150Y1198D02*
Y1219D01*
X2160Y1203D02*
Y1214D01*
X2290Y1203D02*
Y1214D01*
X2280Y1205D02*
Y1212D01*
X2296Y1201D02*
X2586D01*
X2270Y1205D02*
Y1212D01*
X2221Y1171D02*
X2230D01*
X2222Y1161D02*
X2228D01*
X2221Y1151D02*
X2229D01*
X2230Y1131D02*
Y1146D01*
X2210Y1191D02*
X2241D01*
X2196Y1201D02*
X2254D01*
X2217Y1181D02*
X2233D01*
X2190Y1203D02*
Y1214D01*
X2170Y1205D02*
Y1212D01*
X2180Y1205D02*
Y1212D01*
X2218Y1141D02*
X2232D01*
X2213Y1131D02*
X2237D01*
X2220D02*
Y1145D01*
X2009Y1431D02*
X2113D01*
X2036Y1361D02*
X2099Y1424D01*
X2004Y1421D02*
X2095D01*
X1996Y1411D02*
X2085D01*
X2080Y1131D02*
Y1288D01*
X2070Y1131D02*
Y1288D01*
X2120Y1131D02*
Y1288D01*
X2010Y1361D02*
Y1432D01*
X2000Y1361D02*
Y1415D01*
X2060Y1131D02*
Y1288D01*
X1990Y1361D02*
Y1406D01*
X1980Y1401D02*
X2075D01*
X1970Y1361D02*
Y1398D01*
X1960Y1361D02*
Y1397D01*
X1980Y1361D02*
Y1400D01*
X1940Y1361D02*
Y1401D01*
X1950Y1361D02*
Y1398D01*
X1920Y1361D02*
Y1416D01*
X1910Y1361D02*
Y1437D01*
X1930Y1361D02*
Y1407D01*
X2130Y1172D02*
Y1246D01*
Y1272D02*
Y1288D01*
X2140Y1190D02*
Y1227D01*
X2110Y1131D02*
Y1288D01*
X2100Y1131D02*
Y1288D01*
X2130Y1131D02*
Y1146D01*
X2050Y1131D02*
Y1288D01*
X2040Y1131D02*
Y1288D01*
X2090Y1131D02*
Y1288D01*
X2020Y1131D02*
Y1288D01*
X2010Y1131D02*
Y1288D01*
X2030Y1131D02*
Y1288D01*
X1940Y1131D02*
Y1288D01*
X1930Y1131D02*
Y1288D01*
X1950Y1131D02*
Y1288D01*
X1910Y1131D02*
Y1288D01*
X1900Y1131D02*
Y1288D01*
X1920Y1131D02*
Y1288D01*
X1990Y1131D02*
Y1288D01*
X1980Y1131D02*
Y1288D01*
X2000Y1131D02*
Y1288D01*
X1960Y1131D02*
Y1288D01*
X1970Y1131D02*
Y1288D01*
X4030Y925D02*
Y2594D01*
X4023Y931D02*
X4070D01*
X4034Y921D02*
X4070D01*
X4010Y935D02*
Y2408D01*
X4000Y936D02*
Y2408D01*
X4020Y932D02*
Y2408D01*
X4041Y901D02*
X4070D01*
X4039Y911D02*
X4070D01*
X4040Y891D02*
X4070D01*
X4040Y906D02*
Y2594D01*
X3990Y936D02*
Y2408D01*
X3980Y936D02*
Y2408D01*
X3980Y936D02*
X4004D01*
X3970Y934D02*
Y2408D01*
X3960Y930D02*
Y2408D01*
X3868Y931D02*
X3961D01*
X3879Y921D02*
X3951D01*
X4036Y881D02*
X4070D01*
X4027Y871D02*
X4070D01*
X3980Y863D02*
X4004D01*
X4000Y596D02*
Y863D01*
X3990Y596D02*
Y863D01*
X3980Y596D02*
X4004D01*
X4020Y592D02*
Y866D01*
X4010Y595D02*
Y863D01*
X4023Y591D02*
X4070D01*
X3970Y594D02*
Y864D01*
X3960Y590D02*
Y869D01*
X3980Y596D02*
Y863D01*
X3878Y841D02*
X4070D01*
X3875Y831D02*
X4070D01*
X3869Y821D02*
X4070D01*
X3872Y861D02*
X4070D01*
X3872Y871D02*
X3957D01*
X3877Y851D02*
X4070D01*
X3874Y631D02*
X4070D01*
X3865Y641D02*
X4070D01*
X3878Y621D02*
X4070D01*
X3878Y611D02*
X4070D01*
X3874Y601D02*
X4070D01*
X3868Y591D02*
X3962D01*
X3880Y919D02*
Y2408D01*
X3870Y929D02*
Y2408D01*
X3950Y920D02*
Y2408D01*
X3850Y936D02*
Y2414D01*
X3840Y936D02*
Y2421D01*
X3860Y934D02*
Y2410D01*
X3885Y891D02*
X3945D01*
X3884Y911D02*
X3945D01*
X3881Y881D02*
X3949D01*
X3886Y901D02*
X3944D01*
X3830Y936D02*
Y2433D01*
X3820Y936D02*
Y2433D01*
X3806Y936D02*
X3849D01*
X3810D02*
Y2421D01*
X3800Y935D02*
Y1978D01*
X3790Y932D02*
Y1978D01*
X3780Y925D02*
Y1978D01*
X3770Y906D02*
Y1978D01*
X3870Y864D02*
Y869D01*
X3840Y645D02*
Y813D01*
X3820Y857D02*
Y863D01*
X3850Y646D02*
Y812D01*
X3870Y636D02*
Y822D01*
X3860Y643D02*
Y815D01*
X3830Y641D02*
Y817D01*
X3870Y589D02*
Y595D01*
X3820Y630D02*
Y829D01*
X3806Y863D02*
X3824D01*
X3820Y596D02*
Y601D01*
X3810Y596D02*
Y863D01*
X3806Y596D02*
X3824D01*
X3790Y592D02*
Y866D01*
X3800Y595D02*
Y863D01*
X4039Y571D02*
X4070D01*
X4034Y581D02*
X4070D01*
X4041Y561D02*
X4070D01*
X4040Y566D02*
Y892D01*
X4030Y585D02*
Y873D01*
X4070Y131D02*
Y2594D01*
X4070Y132D02*
Y2594D01*
X4040Y551D02*
X4070D01*
X4060Y150D02*
Y2594D01*
X4050Y161D02*
Y2594D01*
X4040Y169D02*
Y552D01*
X3879Y581D02*
X3951D01*
X3950Y580D02*
Y879D01*
X3884Y571D02*
X3946D01*
X3886Y561D02*
X3944D01*
X3940Y155D02*
Y2408D01*
X3885Y551D02*
X3945D01*
X4036Y541D02*
X4070D01*
X4027Y531D02*
X4070D01*
X4010Y181D02*
Y523D01*
X4000Y182D02*
Y522D01*
X3990Y181D02*
Y522D01*
X3980D02*
X4004D01*
X4030Y175D02*
Y533D01*
X4020Y178D02*
Y526D01*
X3980Y180D02*
Y522D01*
X3960Y172D02*
Y529D01*
X3950Y165D02*
Y538D01*
X3970Y176D02*
Y524D01*
X3705Y501D02*
X4070D01*
X3695Y511D02*
X4070D01*
X3715Y491D02*
X4070D01*
X3881Y541D02*
X3949D01*
X3872Y531D02*
X3957D01*
X3685Y521D02*
X4070D01*
X3755Y451D02*
X4070D01*
X3745Y461D02*
X4070D01*
X3765Y441D02*
X4070D01*
X3725Y481D02*
X4070D01*
X3735Y471D02*
X4070D01*
X3880Y579D02*
Y879D01*
X3770Y566D02*
Y892D01*
X3750Y456D02*
Y1978D01*
X3780Y585D02*
Y873D01*
X3920Y371D02*
Y2433D01*
X3910Y381D02*
Y2421D01*
X3930Y141D02*
Y2408D01*
X3900Y385D02*
Y2414D01*
X3890Y387D02*
Y2410D01*
X3760Y446D02*
Y1978D01*
X3670Y536D02*
Y2408D01*
X3660Y546D02*
Y2410D01*
X3680Y526D02*
Y2408D01*
X3640Y566D02*
Y2421D01*
X3630Y576D02*
Y2433D01*
X3650Y556D02*
Y2414D01*
X3730Y476D02*
Y1978D01*
X3720Y486D02*
Y1978D01*
X3740Y466D02*
Y1978D01*
X3700Y506D02*
Y2414D01*
X3690Y516D02*
Y2410D01*
X3710Y496D02*
Y1978D01*
X3806Y522D02*
X3849D01*
X3840Y420D02*
Y522D01*
X3830Y420D02*
Y522D01*
X3880Y391D02*
Y539D01*
X3870Y401D02*
Y529D01*
X3860Y411D02*
Y524D01*
X3850Y419D02*
Y522D01*
X3820Y420D02*
Y522D01*
X3810Y420D02*
Y522D01*
X3625Y581D02*
X3776D01*
X3665Y541D02*
X3774D01*
X3645Y561D02*
X3769D01*
X3635Y571D02*
X3771D01*
X3655Y551D02*
X3770D01*
X3790Y420D02*
Y526D01*
X3675Y531D02*
X3783D01*
X3800Y420D02*
Y523D01*
X3770Y436D02*
Y552D01*
X3780Y426D02*
Y533D01*
X3083Y1061D02*
X4070D01*
X3083Y1071D02*
X4070D01*
X3275Y941D02*
X4070D01*
X3390Y804D02*
Y2497D01*
X3285Y931D02*
X3787D01*
X3289Y921D02*
X3776D01*
X3430Y714D02*
Y1950D01*
X3420Y713D02*
Y1957D01*
X3440Y713D02*
Y1947D01*
X3400Y801D02*
Y2497D01*
X3380Y804D02*
Y2497D01*
X3410Y792D02*
Y1971D01*
X3083Y1021D02*
X4070D01*
X3083Y1031D02*
X4070D01*
X3083Y1011D02*
X4070D01*
X3083Y1051D02*
X4070D01*
X3083Y1081D02*
X4070D01*
X3083Y1041D02*
X4070D01*
X3083Y961D02*
X4070D01*
X3083Y971D02*
X4070D01*
X3083Y951D02*
X4070D01*
X3083Y991D02*
X4070D01*
X3083Y1001D02*
X4070D01*
X3083Y981D02*
X4070D01*
X3415Y771D02*
X4070D01*
X3411Y761D02*
X4070D01*
X3402Y751D02*
X4070D01*
X3411Y791D02*
X4070D01*
X3400Y801D02*
X4070D01*
X3415Y781D02*
X4070D01*
X3392Y731D02*
X4070D01*
X3392Y741D02*
X4070D01*
X3392Y721D02*
X4070D01*
X3392Y711D02*
X3416D01*
X3445D02*
X4070D01*
X3272Y871D02*
X3783D01*
X3272Y881D02*
X3774D01*
X3272Y861D02*
X3822D01*
X3289Y911D02*
X3771D01*
X3286Y901D02*
X3769D01*
X3277Y891D02*
X3770D01*
X3272Y821D02*
X3826D01*
X3272Y831D02*
X3819D01*
X3272Y811D02*
X4070D01*
X3272Y841D02*
X3817D01*
X3272Y851D02*
X3817D01*
X3370Y800D02*
Y1259D01*
X3310Y770D02*
Y1625D01*
X3360Y790D02*
Y1250D01*
X3280Y937D02*
Y1609D01*
X3270Y943D02*
Y1595D01*
X3260Y945D02*
Y1590D01*
X3350Y769D02*
Y1246D01*
X3330Y762D02*
Y1250D01*
X3340Y746D02*
Y1246D01*
X3300Y768D02*
Y1623D01*
X3290Y762D02*
Y1625D01*
X3320Y768D02*
Y1259D01*
X3250Y943D02*
Y1588D01*
X3230Y938D02*
Y1589D01*
X3220Y939D02*
Y1518D01*
X3210Y938D02*
Y1300D01*
X3170Y938D02*
Y1260D01*
X3160Y939D02*
Y1250D01*
X3240Y937D02*
Y1589D01*
X3200Y932D02*
Y1290D01*
X3190Y919D02*
Y1280D01*
X3180Y932D02*
Y1270D01*
X3150Y938D02*
Y1240D01*
X3272Y791D02*
X3361D01*
X3272Y801D02*
X3371D01*
X3331Y761D02*
X3348D01*
X3348Y745D02*
Y760D01*
X3338Y751D02*
X3348D01*
X3280Y746D02*
Y893D01*
X3272Y745D02*
Y888D01*
X3083Y941D02*
X3245D01*
X3181Y931D02*
X3199D01*
X3188Y921D02*
X3193D01*
X3272Y771D02*
X3351D01*
X3272Y781D02*
X3357D01*
X3272Y761D02*
X3289D01*
X3272Y751D02*
X3283D01*
X3570Y636D02*
Y2408D01*
X3555Y651D02*
X4070D01*
X3565Y641D02*
X3830D01*
X3560Y646D02*
Y2410D01*
X3550Y654D02*
Y2414D01*
X3620Y586D02*
Y2433D01*
X3610Y596D02*
Y2421D01*
X3556Y650D02*
X3786Y420D01*
X3600Y606D02*
Y2414D01*
X3590Y616D02*
Y2410D01*
X3580Y626D02*
Y2408D01*
X3460Y691D02*
X4070D01*
X3456Y701D02*
X4070D01*
X3460Y681D02*
X4070D01*
X3520Y656D02*
Y2433D01*
X3456Y671D02*
X4070D01*
X3466Y661D02*
X4070D01*
X3540Y656D02*
Y2421D01*
X3471Y656D02*
X3541D01*
X3530D02*
Y2433D01*
X3510Y656D02*
Y2421D01*
X3500Y656D02*
Y2414D01*
X3585Y621D02*
X3817D01*
X3575Y631D02*
X3821D01*
X3605Y601D02*
X3820D01*
X3615Y591D02*
X3787D01*
X3595Y611D02*
X3817D01*
X3510Y401D02*
Y506D01*
X3560Y371D02*
Y456D01*
X3550Y381D02*
Y466D01*
X3570Y227D02*
Y446D01*
X3530Y387D02*
Y486D01*
X3520Y391D02*
Y496D01*
X3540Y385D02*
Y476D01*
X3332Y491D02*
X3526D01*
X3332Y501D02*
X3516D01*
X3332Y481D02*
X3536D01*
X3425Y522D02*
X3494D01*
X3332Y521D02*
X3496D01*
X3332Y511D02*
X3506D01*
X3494Y522D02*
X3598Y418D01*
X3341Y461D02*
X3556D01*
X3351Y451D02*
X3566D01*
X3500Y411D02*
Y516D01*
X3332Y471D02*
X3546D01*
X3460Y688D02*
Y1947D01*
X3450Y707D02*
Y1945D01*
X3410Y706D02*
Y758D01*
X3400Y684D02*
Y749D01*
X3392Y701D02*
X3406D01*
X3490Y656D02*
Y1970D01*
X3480Y656D02*
Y1957D01*
X3456Y671D02*
X3471Y656D01*
X3470Y657D02*
Y1950D01*
X3460Y667D02*
Y682D01*
X3392Y691D02*
X3402D01*
X3392Y683D02*
Y746D01*
X3332Y591D02*
X3347D01*
X3332Y601D02*
X3337D01*
X3332Y581D02*
X3357D01*
X3360Y445D02*
Y578D01*
X3332Y606D02*
X3409Y528D01*
X3332Y571D02*
X3367D01*
X3340Y462D02*
Y598D01*
X3332Y470D02*
Y606D01*
X3350Y452D02*
Y588D01*
X3440Y445D02*
Y522D01*
X3430Y445D02*
Y522D01*
X3450Y445D02*
Y522D01*
X3410Y445D02*
Y528D01*
X3420Y445D02*
Y523D01*
X3490Y421D02*
Y522D01*
X3480Y431D02*
Y522D01*
X3470Y441D02*
Y522D01*
X3460Y445D02*
Y522D01*
X3332Y531D02*
X3407D01*
X3332Y541D02*
X3397D01*
X3332Y551D02*
X3387D01*
X3332Y561D02*
X3377D01*
X3390Y445D02*
Y548D01*
X3400Y445D02*
Y538D01*
X3380Y445D02*
Y558D01*
X3357Y445D02*
X3457D01*
X3370D02*
Y568D01*
X3332Y470D02*
X3357Y445D01*
X3871Y401D02*
X4070D01*
X3861Y411D02*
X4070D01*
X3881Y391D02*
X4070D01*
X3858Y414D02*
X3885Y386D01*
X3910Y381D02*
X4070D01*
X3925Y361D02*
X4070D01*
X3920Y371D02*
X4070D01*
X3927Y351D02*
X4070D01*
X3850Y220D02*
Y359D01*
X3785Y421D02*
X4070D01*
X3775Y431D02*
X4070D01*
X3826Y376D02*
X3833D01*
X3786Y420D02*
X3842D01*
X3830Y371D02*
Y376D01*
X3835Y361D02*
X3848D01*
X3833Y376D02*
X3854Y355D01*
X3837Y351D02*
X3853D01*
X3830Y371D02*
X3838D01*
X3840Y211D02*
Y369D01*
X3926Y341D02*
X4070D01*
X3921Y331D02*
X4070D01*
X3912Y321D02*
X4070D01*
X3880Y227D02*
Y315D01*
X3870Y227D02*
Y319D01*
X3890Y225D02*
Y313D01*
X3911Y211D02*
X4070D01*
X3899Y221D02*
X4070D01*
X3917Y201D02*
X4070D01*
X3910Y211D02*
Y319D01*
X3860Y225D02*
Y329D01*
X3900Y220D02*
Y315D01*
X3836Y341D02*
X3855D01*
X3831Y331D02*
X3859D01*
X3822Y321D02*
X3868D01*
X3732D02*
X3778D01*
X3780Y227D02*
Y319D01*
X3811Y211D02*
X3839D01*
X3799Y221D02*
X3851D01*
X3817Y201D02*
X3833D01*
X3810Y211D02*
Y315D01*
X3790Y225D02*
Y315D01*
X3800Y220D02*
Y313D01*
X3747Y351D02*
X3750D01*
X3746Y341D02*
X3760D01*
X3680Y371D02*
Y379D01*
X3655Y361D02*
X3675D01*
X3657Y351D02*
X3673D01*
X3750Y220D02*
Y351D01*
X3746Y355D02*
X3767Y334D01*
X3760Y225D02*
Y341D01*
X3670Y227D02*
Y389D01*
X3660Y225D02*
Y399D01*
X3642Y391D02*
X3668D01*
X3642Y401D02*
X3658D01*
X3642Y381D02*
X3678D01*
X3642Y379D02*
Y417D01*
X3598Y379D02*
Y418D01*
X3642Y411D02*
X3648D01*
X3642Y417D02*
X3683Y375D01*
X3650Y371D02*
X3680D01*
X3650Y371D02*
Y409D01*
X3590Y371D02*
Y426D01*
X3770Y227D02*
Y329D01*
X3741Y331D02*
X3769D01*
X3699Y221D02*
X3751D01*
X3680Y227D02*
Y329D01*
X3656Y341D02*
X3675D01*
X3690Y225D02*
Y319D01*
X3740Y211D02*
Y329D01*
X3711Y211D02*
X3739D01*
X3717Y201D02*
X3733D01*
X3720Y194D02*
Y315D01*
X3700Y220D02*
Y315D01*
X3710Y211D02*
Y313D01*
X3651Y331D02*
X3679D01*
X3642Y321D02*
X3688D01*
X3599Y221D02*
X3651D01*
X3650Y220D02*
Y329D01*
X3590Y225D02*
Y329D01*
X3600Y220D02*
Y319D01*
X3640Y211D02*
Y319D01*
X3611Y211D02*
X3639D01*
X3617Y201D02*
X3633D01*
X3610Y211D02*
Y315D01*
X3620Y194D02*
Y313D01*
X4010Y181D02*
X4070D01*
X3921Y191D02*
X4070D01*
X4037Y171D02*
X4070D01*
X3922Y181D02*
X3985D01*
X3920Y194D02*
Y329D01*
X3921Y171D02*
X3958D01*
X4060Y151D02*
X4070D01*
X4051Y161D02*
X4070D01*
X4066Y141D02*
X4070D01*
X3920Y20D02*
Y166D01*
X3918Y161D02*
X3945D01*
X3912Y151D02*
X3936D01*
X3901Y141D02*
X3930D01*
X3818Y161D02*
X3832D01*
X3812Y151D02*
X3838D01*
X3801Y141D02*
X3849D01*
X3910Y20D02*
Y149D01*
X3900Y20D02*
Y140D01*
X3890Y20D02*
Y135D01*
X3850Y20D02*
Y140D01*
X3840Y20D02*
Y149D01*
X3860Y20D02*
Y135D01*
X4067Y71D02*
X4070D01*
X4061Y61D02*
X4070D01*
X4053Y51D02*
X4070D01*
X4041Y41D02*
X4070D01*
X4020Y20D02*
Y31D01*
X4019Y31D02*
X4070D01*
Y20D02*
Y78D01*
X4070Y20D02*
Y78D01*
X4060Y20D02*
Y59D01*
X4050Y20D02*
Y48D01*
X4040Y20D02*
Y40D01*
X4030Y20D02*
Y35D01*
X3950Y20D02*
Y44D01*
X3940Y20D02*
Y54D01*
X3960Y20D02*
Y38D01*
X3880Y20D02*
Y133D01*
X3870Y20D02*
Y133D01*
X3930Y20D02*
Y68D01*
X4010Y20D02*
Y29D01*
X3990Y20D02*
Y28D01*
X4000Y20D02*
Y28D01*
X3970Y20D02*
Y33D01*
X3980Y20D02*
Y30D01*
X3830Y193D02*
Y329D01*
X3821Y191D02*
X3829D01*
X3822Y181D02*
X3828D01*
X3820Y194D02*
Y319D01*
X3730Y193D02*
Y319D01*
X3722Y181D02*
X3728D01*
X3821Y171D02*
X3829D01*
X3830Y20D02*
Y167D01*
X3730Y20D02*
Y167D01*
X3721Y171D02*
X3729D01*
X3820Y20D02*
Y166D01*
X3721Y191D02*
X3729D01*
X3630Y193D02*
Y315D01*
X3718Y161D02*
X3732D01*
X3622Y181D02*
X3628D01*
X3621Y191D02*
X3629D01*
X3621Y171D02*
X3629D01*
X3720Y20D02*
Y166D01*
X3712Y151D02*
X3738D01*
X3630Y20D02*
Y167D01*
X3620Y20D02*
Y166D01*
X3618Y161D02*
X3632D01*
X3810Y20D02*
Y149D01*
X3800Y20D02*
Y140D01*
X3790Y20D02*
Y135D01*
X3770Y20D02*
Y133D01*
X3701Y141D02*
X3749D01*
X3780Y20D02*
Y133D01*
X3750Y20D02*
Y140D01*
X3740Y20D02*
Y149D01*
X3760Y20D02*
Y135D01*
X3710Y20D02*
Y149D01*
X3700Y20D02*
Y140D01*
X3690Y20D02*
Y135D01*
X3670Y20D02*
Y133D01*
X3660Y20D02*
Y135D01*
X3680Y20D02*
Y133D01*
X3612Y151D02*
X3638D01*
X3601Y141D02*
X3649D01*
X3650Y20D02*
Y140D01*
X3640Y20D02*
Y149D01*
X3610Y20D02*
Y149D01*
X3600Y20D02*
Y140D01*
X3590Y20D02*
Y135D01*
X3580Y20D02*
Y133D01*
X3521Y391D02*
X3598D01*
X3511Y401D02*
X3598D01*
X3550Y381D02*
X3598D01*
X3491Y421D02*
X3596D01*
X3481Y431D02*
X3586D01*
X3501Y411D02*
X3598D01*
X3580Y227D02*
Y436D01*
X3560Y371D02*
X3590D01*
X3565Y361D02*
X3585D01*
X3490Y225D02*
Y359D01*
X3473Y439D02*
X3525Y386D01*
X3470Y441D02*
X3576D01*
X3470Y371D02*
Y379D01*
X3460Y381D02*
Y389D01*
X3431Y391D02*
X3458D01*
X3460Y381D02*
X3468D01*
X3480Y227D02*
Y369D01*
X3448Y401D02*
X3494Y355D01*
X3475Y361D02*
X3488D01*
X3470Y371D02*
X3478D01*
X3567Y351D02*
X3583D01*
X3566Y341D02*
X3585D01*
X3561Y331D02*
X3589D01*
X3477Y351D02*
X3493D01*
X3476Y341D02*
X3495D01*
X3471Y331D02*
X3499D01*
X3560Y225D02*
Y329D01*
X3552Y321D02*
X3598D01*
X3499Y221D02*
X3551D01*
X3510Y211D02*
Y319D01*
X3500Y220D02*
Y329D01*
X3550Y220D02*
Y319D01*
X3025Y281D02*
X4070D01*
X3023Y291D02*
X4070D01*
X3024Y271D02*
X4070D01*
X3462Y321D02*
X3508D01*
X3023Y311D02*
X4070D01*
X3023Y301D02*
X4070D01*
X3019Y261D02*
X4070D01*
X3009Y251D02*
X4070D01*
X2830Y241D02*
X4070D01*
X3470Y227D02*
Y329D01*
X3460Y225D02*
Y319D01*
X2830Y231D02*
X4070D01*
X3421Y401D02*
X3448D01*
X3420Y401D02*
X3448D01*
X3450Y385D02*
Y399D01*
X3430Y391D02*
Y401D01*
X3420D02*
X3435Y386D01*
X3440Y387D02*
Y401D01*
X3400Y227D02*
Y359D01*
X3388Y371D02*
X3404Y355D01*
X3387Y351D02*
X3403D01*
X3390Y227D02*
Y369D01*
X3380Y371D02*
X3388D01*
X3385Y361D02*
X3398D01*
X3380Y371D02*
X3388D01*
X3212Y367D02*
X3224Y355D01*
X3297Y351D02*
X3304D01*
X3210Y361D02*
X3218D01*
X3296Y359D02*
X3315Y340D01*
X3207Y351D02*
X3223D01*
X3410Y227D02*
Y329D01*
X3372Y321D02*
X3418D01*
X3420Y227D02*
Y319D01*
X3386Y341D02*
X3405D01*
X3381Y331D02*
X3409D01*
X3340Y227D02*
Y315D01*
X3450Y220D02*
Y315D01*
X3380Y227D02*
Y329D01*
X3422Y221D02*
X3451D01*
X3370Y227D02*
Y319D01*
X3360Y227D02*
Y315D01*
X3350Y227D02*
Y313D01*
X3296Y341D02*
X3314D01*
X3291Y331D02*
X3319D01*
X3282Y321D02*
X3328D01*
X3206Y341D02*
X3225D01*
X3201Y331D02*
X3229D01*
X3192Y321D02*
X3238D01*
X3330Y227D02*
Y319D01*
X3328Y227D02*
X3422D01*
X2830Y221D02*
X3328D01*
X3540Y211D02*
Y315D01*
X3530Y193D02*
Y313D01*
X3517Y201D02*
X3533D01*
X3521Y191D02*
X3529D01*
X3520Y194D02*
Y315D01*
X3522Y181D02*
X3528D01*
X3518Y161D02*
X3532D01*
X3540Y20D02*
Y149D01*
X3530Y20D02*
Y167D01*
X3521Y171D02*
X3529D01*
X3520Y20D02*
Y166D01*
X3511Y211D02*
X3539D01*
X3440Y211D02*
Y313D01*
X3422Y211D02*
X3439D01*
X3512Y151D02*
X3538D01*
X3510Y20D02*
Y149D01*
X3440Y20D02*
Y149D01*
X3422Y141D02*
X3449D01*
X3570Y20D02*
Y133D01*
X2830Y131D02*
X3925D01*
X2830Y121D02*
X3922D01*
X3550Y20D02*
Y140D01*
X3501Y141D02*
X3549D01*
X3500Y20D02*
Y140D01*
X3560Y20D02*
Y135D01*
X3490Y20D02*
Y135D01*
X3480Y20D02*
Y133D01*
X3460Y20D02*
Y135D01*
X3450Y20D02*
Y140D01*
X3470Y20D02*
Y133D01*
X2830Y71D02*
X3929D01*
X2830Y81D02*
X3925D01*
X2830Y61D02*
X3935D01*
X2830Y101D02*
X3921D01*
X2830Y111D02*
X3921D01*
X2830Y91D02*
X3922D01*
X2830Y21D02*
X4070D01*
X2830Y31D02*
X3977D01*
X2830Y20D02*
X4070D01*
X2830Y51D02*
X3943D01*
X2830Y41D02*
X3955D01*
X3430Y193D02*
Y315D01*
X3422Y133D02*
Y227D01*
Y201D02*
X3433D01*
X3320Y20D02*
Y329D01*
X3310Y20D02*
Y345D01*
X3328Y133D02*
Y227D01*
X3300Y20D02*
Y355D01*
X3290Y20D02*
Y329D01*
X3280Y20D02*
Y319D01*
X3270Y20D02*
Y315D01*
X3250Y20D02*
Y315D01*
X3260Y20D02*
Y313D01*
X3180Y20D02*
Y315D01*
X2830Y211D02*
X3328D01*
X2830Y201D02*
X3328D01*
X3160Y20D02*
Y315D01*
X3150Y20D02*
Y319D01*
X3170Y20D02*
Y313D01*
X3230Y20D02*
Y329D01*
X3220Y20D02*
Y359D01*
X3240Y20D02*
Y319D01*
X3210Y20D02*
Y361D01*
X3200Y20D02*
Y329D01*
X3190Y20D02*
Y319D01*
X3430Y20D02*
Y167D01*
X3422Y161D02*
X3432D01*
X3422Y151D02*
X3438D01*
X3422Y181D02*
X3428D01*
X3422Y191D02*
X3429D01*
X3422Y171D02*
X3429D01*
X3410Y20D02*
Y133D01*
X3400Y20D02*
Y133D01*
X3420Y20D02*
Y133D01*
X3380Y20D02*
Y133D01*
X3370Y20D02*
Y133D01*
X3390Y20D02*
Y133D01*
X2830Y151D02*
X3328D01*
X2830Y161D02*
X3328D01*
X2830Y141D02*
X3328D01*
X2830Y181D02*
X3328D01*
X2830Y191D02*
X3328D01*
X2830Y171D02*
X3328D01*
X3360Y20D02*
Y133D01*
X3350Y20D02*
Y133D01*
X3328D02*
X3422D01*
X3330Y20D02*
Y133D01*
X3340Y20D02*
Y133D01*
X3140Y932D02*
Y1230D01*
X2922Y951D02*
X3019D01*
X3083Y931D02*
X3139D01*
X2980Y919D02*
Y1189D01*
X2922Y961D02*
X3019D01*
X2922Y941D02*
X3019D01*
X2990Y915D02*
Y1184D01*
X2970Y919D02*
Y1198D01*
X3000Y906D02*
Y1183D01*
X2960Y915D02*
Y1582D01*
X2950Y906D02*
Y1572D01*
X2940Y887D02*
Y1562D01*
X2921Y1051D02*
X3019D01*
X2918Y1041D02*
X3019D01*
X2912Y1031D02*
X3019D01*
X2921Y1071D02*
X3019D01*
X2917Y1081D02*
X3019D01*
X2922Y1061D02*
X3019D01*
X2922Y981D02*
X3019D01*
X2922Y991D02*
X3019D01*
X2922Y971D02*
X3019D01*
X2901Y1021D02*
X3019D01*
X2830Y1011D02*
X3019D01*
X2922Y1001D02*
X3019D01*
X3083Y901D02*
X3132D01*
X3083Y921D02*
X3133D01*
X3083Y891D02*
X3138D01*
X3083Y911D02*
X3131D01*
X3003Y901D02*
X3019D01*
X3004Y891D02*
X3019D01*
X3083Y871D02*
X3138D01*
X3083Y881D02*
X3138D01*
X3083Y851D02*
X3138D01*
X3003Y881D02*
X3019D01*
X2997Y871D02*
X3019D01*
X3083Y861D02*
X3138D01*
X2922Y921D02*
X3019D01*
X2922Y931D02*
X3019D01*
X2996Y911D02*
X3019D01*
X2830Y901D02*
X2947D01*
X2830Y911D02*
X2954D01*
X2830Y891D02*
X2943D01*
X2978Y861D02*
X3019D01*
X2968Y851D02*
X3019D01*
X2958Y841D02*
X3019D01*
X2830Y881D02*
X2933D01*
X2920Y1074D02*
Y1246D01*
X2830Y1073D02*
Y1247D01*
X2630Y1072D02*
Y1183D01*
X2600Y1061D02*
Y1153D01*
X2590Y1061D02*
Y1143D01*
X2580Y1061D02*
Y1133D01*
X2930Y877D02*
Y1552D01*
X2620Y1061D02*
Y1173D01*
X2610Y1061D02*
Y1163D01*
X2500Y1061D02*
Y1087D01*
X2490Y1061D02*
Y1087D01*
X2510Y1061D02*
Y1087D01*
X2470Y1061D02*
Y1087D01*
X2460Y1061D02*
Y1087D01*
X2480Y1061D02*
Y1087D01*
X2570Y1061D02*
Y1123D01*
X2560Y1061D02*
Y1113D01*
X2550Y1061D02*
Y1103D01*
X2540Y1061D02*
Y1093D01*
X2530Y1061D02*
Y1087D01*
X2520Y1061D02*
Y1087D01*
X2920Y1007D02*
Y1046D01*
X2910Y1007D02*
Y1029D01*
X2900Y1007D02*
Y1020D01*
X2860Y1007D02*
Y1015D01*
X2850Y1007D02*
Y1020D01*
X2890Y1007D02*
Y1015D01*
X2922Y913D02*
Y1007D01*
X2920Y867D02*
Y913D01*
X2910Y857D02*
Y913D01*
X2880Y1007D02*
Y1013D01*
X2870Y1007D02*
Y1013D01*
X2900Y847D02*
Y913D01*
X2830Y1007D02*
X2922D01*
X2830Y1021D02*
X2849D01*
X2830Y913D02*
X2922D01*
X2830Y1031D02*
X2838D01*
X2830Y1007D02*
Y1047D01*
X2840Y1007D02*
Y1029D01*
X2830Y861D02*
X2913D01*
X2830Y871D02*
X2923D01*
X2830Y851D02*
X2903D01*
X2628Y912D02*
Y937D01*
Y912D02*
X2710D01*
X3083Y841D02*
X3138D01*
X3083Y465D02*
Y1188D01*
Y831D02*
X3138D01*
X3019Y478D02*
Y1188D01*
X3010Y470D02*
Y1184D01*
X3000Y460D02*
Y874D01*
X3130Y411D02*
Y1220D01*
X3120Y401D02*
Y1210D01*
X3138Y419D02*
Y890D01*
X3110Y391D02*
Y1200D01*
X3100Y387D02*
Y1192D01*
X3090Y385D02*
Y1188D01*
X2948Y831D02*
X3019D01*
X2898Y781D02*
X2978Y861D01*
X2938Y821D02*
X3019D01*
X2890Y837D02*
Y913D01*
X2859Y806D02*
X2946Y893D01*
X2830Y841D02*
X2893D01*
X2990Y450D02*
Y865D01*
X2980Y440D02*
Y861D01*
X2970Y430D02*
Y852D01*
X2960Y414D02*
Y842D01*
X2950Y20D02*
Y832D01*
X2940Y20D02*
Y822D01*
X3083Y811D02*
X3138D01*
X3083Y821D02*
X3138D01*
X3083Y801D02*
X3138D01*
X3083Y791D02*
X3138D01*
X2928Y811D02*
X3019D01*
X3083Y781D02*
X3138D01*
X3083Y761D02*
X3138D01*
X3083Y771D02*
X3138D01*
X3083Y751D02*
X3138D01*
X3083Y741D02*
X3138D01*
X2930Y20D02*
Y812D01*
X3083Y731D02*
X3138D01*
X2898Y761D02*
X3019D01*
X2898Y771D02*
X3019D01*
X2898Y751D02*
X3019D01*
X2918Y801D02*
X3019D01*
X2908Y791D02*
X3019D01*
X2898Y781D02*
X3019D01*
X2920Y607D02*
Y802D01*
X2910Y607D02*
Y792D01*
X2898Y741D02*
X3019D01*
X2900Y607D02*
Y782D01*
X2898Y607D02*
Y781D01*
X2870Y817D02*
Y913D01*
X2860Y807D02*
Y913D01*
X2880Y827D02*
Y913D01*
X2840Y607D02*
Y913D01*
X2830Y607D02*
Y913D01*
X2850Y607D02*
Y913D01*
X2620Y570D02*
Y937D01*
X2610Y581D02*
Y937D01*
X2710Y592D02*
Y912D01*
X2590Y591D02*
Y937D01*
X2580Y592D02*
Y937D01*
X2600Y588D02*
Y937D01*
X2560Y588D02*
Y937D01*
X2550Y581D02*
Y937D01*
X2570Y591D02*
Y937D01*
X2530Y270D02*
Y937D01*
X2520Y263D02*
Y937D01*
X2540Y570D02*
Y937D01*
X2500Y245D02*
Y937D01*
X2490Y233D02*
Y937D01*
X2510Y255D02*
Y937D01*
X2470Y198D02*
Y937D01*
X2460Y160D02*
Y937D01*
X2480Y218D02*
Y937D01*
X2830Y821D02*
X2873D01*
X2830Y831D02*
X2883D01*
X2830Y811D02*
X2863D01*
X2830Y801D02*
X2855D01*
X2830Y791D02*
X2852D01*
X2830Y781D02*
X2852D01*
X2830Y751D02*
X2852D01*
Y607D02*
Y790D01*
X2830Y741D02*
X2852D01*
X2830Y731D02*
X2852D01*
X2830Y771D02*
X2852D01*
X2710Y592D02*
Y912D01*
X2830Y761D02*
X2852D01*
X2690Y592D02*
Y912D01*
X2680Y592D02*
Y912D01*
X2700Y592D02*
Y912D01*
X2660Y592D02*
Y912D01*
X2650Y592D02*
Y912D01*
X2670Y592D02*
Y912D01*
X2630Y294D02*
Y912D01*
X2640Y592D02*
Y912D01*
X2440Y1061D02*
Y1087D01*
X2430Y1061D02*
Y1087D01*
X2450Y1061D02*
Y1087D01*
X2410Y1061D02*
Y1087D01*
X2400Y1061D02*
Y1087D01*
X2420Y1061D02*
Y1087D01*
X2390Y1061D02*
Y1087D01*
X2380Y1061D02*
Y1087D01*
X2365Y1061D02*
X2628D01*
X2360Y1060D02*
Y1087D01*
X2350Y1055D02*
Y1087D01*
X2370Y1061D02*
Y1087D01*
X2321Y1071D02*
X2630D01*
X2317Y1081D02*
X2633D01*
X2322Y1061D02*
X2363D01*
X2320Y1073D02*
Y1087D01*
X2130Y1072D02*
Y1087D01*
X2340Y1045D02*
Y1087D01*
X2330Y1035D02*
Y1087D01*
X2403Y931D02*
X2628D01*
X2393Y921D02*
X2628D01*
X2383Y911D02*
X2710D01*
X2326Y1031D02*
X2349Y1054D01*
X2321Y1051D02*
X2346D01*
X2409Y937D02*
X2628D01*
X2373Y901D02*
X2710D01*
X2369Y896D02*
X2409Y937D01*
X2359Y891D02*
X2710D01*
X2320Y873D02*
Y890D01*
Y1031D02*
Y1045D01*
X2318Y1041D02*
X2336D01*
X2313Y1031D02*
X2326D01*
X2130D02*
Y1046D01*
Y934D02*
Y946D01*
X2310Y890D02*
X2353D01*
X2210D02*
X2240D01*
X2317Y881D02*
X2710D01*
X2230Y872D02*
Y890D01*
X2220Y873D02*
Y890D01*
X2217Y881D02*
X2233D01*
X2110Y1031D02*
Y1087D01*
X2100Y1031D02*
Y1087D01*
X2120Y1031D02*
Y1087D01*
X2080Y1031D02*
Y1087D01*
X2070Y1031D02*
Y1087D01*
X2090Y1031D02*
Y1087D01*
X2060Y1031D02*
Y1087D01*
X2050Y1031D02*
Y1087D01*
X2080Y934D02*
Y987D01*
X2030Y1031D02*
Y1087D01*
X2020Y1031D02*
Y1087D01*
X2040Y1031D02*
Y1087D01*
X1940Y1031D02*
Y1087D01*
X1930Y1031D02*
Y1087D01*
X1950Y1031D02*
Y1087D01*
X1910Y1031D02*
Y1087D01*
X1900Y1031D02*
Y1087D01*
X1920Y1031D02*
Y1087D01*
X2000Y1031D02*
Y1087D01*
X1990Y1031D02*
Y1087D01*
X2010Y1031D02*
Y1087D01*
X1970Y1031D02*
Y1087D01*
X1960Y1031D02*
Y1087D01*
X1980Y1031D02*
Y1087D01*
X2120Y934D02*
Y987D01*
X2110Y934D02*
Y987D01*
X2130Y972D02*
Y987D01*
X2090Y934D02*
Y987D01*
X2070Y934D02*
Y987D01*
X2100Y934D02*
Y987D01*
X2050Y934D02*
Y987D01*
X2040Y934D02*
Y987D01*
X2060Y934D02*
Y987D01*
X2020Y934D02*
Y987D01*
X2010Y934D02*
Y987D01*
X2030Y934D02*
Y987D01*
X1940Y934D02*
Y987D01*
X1930Y934D02*
Y987D01*
X1950Y934D02*
Y987D01*
X1910Y934D02*
Y987D01*
X1900Y934D02*
Y987D01*
X1920Y934D02*
Y987D01*
X1990Y934D02*
Y987D01*
X1980Y934D02*
Y987D01*
X2000Y934D02*
Y987D01*
X1960Y934D02*
Y987D01*
X1970Y934D02*
Y987D01*
X2390Y24D02*
Y918D01*
X2380Y24D02*
Y908D01*
X2370Y24D02*
Y898D01*
X2360Y24D02*
Y891D01*
X2350Y24D02*
Y890D01*
X2340Y24D02*
Y890D01*
X2440Y24D02*
Y937D01*
X2430Y24D02*
Y937D01*
X2450Y24D02*
Y937D01*
X2420Y24D02*
Y937D01*
X2410Y24D02*
Y937D01*
X2400Y24D02*
Y928D01*
X2322Y861D02*
X2710D01*
X2321Y871D02*
X2710D01*
X2321Y851D02*
X2710D01*
X2318Y841D02*
X2710D01*
X2218D02*
X2232D01*
X2330Y24D02*
Y890D01*
X2313Y831D02*
X2710D01*
X2320Y773D02*
Y845D01*
X2213Y831D02*
X2237D01*
X2240Y790D02*
Y827D01*
X2303Y821D02*
X2710D01*
X2296Y801D02*
X2710D01*
X2310Y791D02*
X2710D01*
X2310Y790D02*
Y827D01*
X2300Y799D02*
Y819D01*
X2317Y781D02*
X2710D01*
X2322Y761D02*
X2710D01*
X2321Y771D02*
X2710D01*
X2321Y751D02*
X2710D01*
X2320Y673D02*
Y745D01*
X2318Y741D02*
X2710D01*
X2313Y731D02*
X2710D01*
X2290Y803D02*
Y814D01*
X2270Y805D02*
Y812D01*
X2280Y805D02*
Y812D01*
X2260Y803D02*
Y814D01*
X2203Y821D02*
X2248D01*
X2196Y801D02*
X2254D01*
X2250Y798D02*
Y819D01*
X2210Y791D02*
X2241D01*
X2217Y781D02*
X2233D01*
X2213Y731D02*
X2237D01*
X2130Y872D02*
Y890D01*
X2110Y24D02*
Y890D01*
X2100Y24D02*
Y890D01*
X2120Y24D02*
Y890D01*
X2080Y24D02*
Y890D01*
X2070Y24D02*
Y890D01*
X2090Y24D02*
Y890D01*
X2050Y24D02*
Y890D01*
X2040Y24D02*
Y890D01*
X2060Y24D02*
Y890D01*
X1980Y505D02*
Y890D01*
X1970Y505D02*
Y890D01*
X2000Y499D02*
Y890D01*
X1950Y498D02*
Y890D01*
X1910Y490D02*
Y890D01*
X1960Y503D02*
Y890D01*
X2020Y473D02*
Y890D01*
X2010Y490D02*
Y890D01*
X2030Y24D02*
Y890D01*
X1930Y472D02*
Y890D01*
X1920Y473D02*
Y890D01*
X1940Y490D02*
Y890D01*
X2221Y851D02*
X2229D01*
X2221Y871D02*
X2230D01*
X2230Y772D02*
Y846D01*
X2222Y861D02*
X2228D01*
X2220Y773D02*
Y845D01*
X2210Y790D02*
Y827D01*
X2230Y672D02*
Y746D01*
X2221Y771D02*
X2230D01*
X2218Y741D02*
X2232D01*
X2222Y761D02*
X2228D01*
X2221Y751D02*
X2229D01*
X2220Y673D02*
Y745D01*
X2200Y799D02*
Y819D01*
X2190Y803D02*
Y814D01*
X2180Y805D02*
Y812D01*
X2160Y803D02*
Y814D01*
X2150Y798D02*
Y819D01*
X2170Y805D02*
Y812D01*
X2140Y790D02*
Y827D01*
X2130Y772D02*
Y846D01*
X1990Y503D02*
Y890D01*
X2130Y672D02*
Y746D01*
X3083Y681D02*
X3138D01*
X3083Y691D02*
X3138D01*
X3083Y671D02*
X3138D01*
X3083Y711D02*
X3138D01*
X3083Y721D02*
X3138D01*
X3083Y701D02*
X3138D01*
X3083Y621D02*
X3138D01*
X3083Y631D02*
X3138D01*
X3083Y611D02*
X3138D01*
X3083Y651D02*
X3138D01*
X3083Y661D02*
X3138D01*
X3083Y641D02*
X3138D01*
X2898Y681D02*
X3019D01*
X2898Y691D02*
X3019D01*
X2898Y671D02*
X3019D01*
X2898Y711D02*
X3019D01*
X2898Y731D02*
X3019D01*
X2898Y701D02*
X3019D01*
X2898Y621D02*
X3019D01*
X2898Y631D02*
X3019D01*
X2898Y611D02*
X3019D01*
X2898Y651D02*
X3019D01*
X2898Y661D02*
X3019D01*
X2898Y641D02*
X3019D01*
X3083Y551D02*
X3138D01*
X3083Y561D02*
X3138D01*
X3083Y541D02*
X3138D01*
X3083Y581D02*
X3138D01*
X3083Y591D02*
X3138D01*
X3083Y571D02*
X3138D01*
X3083Y481D02*
X3138D01*
X3083Y491D02*
X3138D01*
X3083Y471D02*
X3138D01*
X3083Y521D02*
X3138D01*
X3083Y531D02*
X3138D01*
X3083Y511D02*
X3138D01*
X3083Y601D02*
X3138D01*
X2922D02*
X3019D01*
X2922Y591D02*
X3019D01*
X2922Y571D02*
X3019D01*
X2922Y581D02*
X3019D01*
X2922Y561D02*
X3019D01*
X3083Y501D02*
X3138D01*
X2830Y511D02*
X3019D01*
X3082Y461D02*
X3138D01*
X2922Y551D02*
X3019D01*
X2899Y501D02*
X3019D01*
X2917Y481D02*
X3019D01*
X2898Y721D02*
X3019D01*
X2830Y691D02*
X2852D01*
X2898Y607D02*
X2922D01*
X2830Y671D02*
X2852D01*
X2830Y681D02*
X2852D01*
X2830Y661D02*
X2852D01*
X2922Y531D02*
X3019D01*
X2922Y541D02*
X3019D01*
X2922Y521D02*
X3019D01*
X2922Y513D02*
Y607D01*
X2880Y507D02*
Y513D01*
X2870Y507D02*
Y513D01*
X2830Y641D02*
X2852D01*
X2830Y651D02*
X2852D01*
X2830Y631D02*
X2852D01*
X2830Y711D02*
X2852D01*
X2830Y721D02*
X2852D01*
X2830Y701D02*
X2852D01*
X2830Y611D02*
X2852D01*
X2830Y621D02*
X2852D01*
X2830Y513D02*
X2922D01*
X2830Y607D02*
X2852D01*
X2900Y500D02*
Y513D01*
X2890Y505D02*
Y513D01*
X2910Y491D02*
Y513D01*
X2850Y500D02*
Y513D01*
X2840Y491D02*
Y513D01*
X2860Y505D02*
Y513D01*
X2921Y471D02*
X3011D01*
X2911Y491D02*
X3019D01*
X2922Y461D02*
X3001D01*
X2920Y474D02*
Y513D01*
X2830Y491D02*
X2839D01*
X2830Y501D02*
X2851D01*
X2691Y491D02*
X2710D01*
X2680Y492D02*
Y498D01*
X2670Y491D02*
Y498D01*
X2690Y491D02*
Y498D01*
X2830Y473D02*
Y513D01*
X2710Y481D02*
Y498D01*
X2700Y488D02*
Y498D01*
X2710Y481D02*
Y498D01*
X3079Y451D02*
X3138D01*
X3071Y441D02*
X3138D01*
X3051Y421D02*
X3138D01*
X3061Y431D02*
X3138D01*
X3105Y386D02*
X3138Y419D01*
X3080Y381D02*
Y452D01*
X3070Y371D02*
Y439D01*
X3060Y20D02*
Y429D01*
X3050Y20D02*
Y419D01*
X3041Y411D02*
X3130D01*
X3023Y392D02*
X3073Y442D01*
X3031Y401D02*
X3120D01*
X2968Y428D02*
X3019Y478D01*
X2921Y451D02*
X2991D01*
X2918Y441D02*
X2981D01*
X3023Y381D02*
X3080D01*
X3023Y391D02*
X3110D01*
X3023Y371D02*
X3070D01*
X3040Y20D02*
Y409D01*
X3030Y20D02*
Y399D01*
X3023Y293D02*
Y392D01*
X3140Y20D02*
Y329D01*
X3131Y331D02*
X3139D01*
X3122Y321D02*
X3148D01*
X3023Y331D02*
X3069D01*
X3023Y361D02*
X3065D01*
X3120Y20D02*
Y319D01*
X3130Y20D02*
Y329D01*
X3110Y20D02*
Y315D01*
X3100Y20D02*
Y313D01*
X3080Y20D02*
Y319D01*
X3070Y20D02*
Y329D01*
X3090Y20D02*
Y315D01*
X3023Y341D02*
X3065D01*
X3023Y351D02*
X3063D01*
X3023Y321D02*
X3078D01*
X2830Y251D02*
X2972D01*
X3020Y20D02*
Y262D01*
X3010Y20D02*
Y251D01*
X3000Y20D02*
Y247D01*
X2980Y20D02*
Y247D01*
X2990Y20D02*
Y246D01*
X2912Y431D02*
X2971D01*
X2901Y421D02*
X2963D01*
X2959Y293D02*
Y405D01*
X2920Y20D02*
Y446D01*
X2910Y20D02*
Y429D01*
X2900Y20D02*
Y420D01*
X2890Y20D02*
Y415D01*
X2870Y20D02*
Y413D01*
X2880Y20D02*
Y413D01*
X2830Y421D02*
X2849D01*
X2830Y411D02*
X2959D01*
X2830Y431D02*
X2838D01*
X2850Y20D02*
Y420D01*
X2840Y20D02*
Y429D01*
X2860Y20D02*
Y415D01*
X2830Y20D02*
Y447D01*
X2710Y261D02*
Y409D01*
X2710Y261D02*
Y409D01*
X2830Y361D02*
X2959D01*
X2830Y371D02*
X2959D01*
X2830Y351D02*
X2959D01*
X2830Y391D02*
X2959D01*
X2830Y401D02*
X2959D01*
X2830Y381D02*
X2959D01*
X2960Y20D02*
Y264D01*
X2830Y261D02*
X2962D01*
X2970Y20D02*
Y252D01*
X2830Y331D02*
X2959D01*
X2830Y341D02*
X2959D01*
X2830Y321D02*
X2959D01*
X2830Y301D02*
X2959D01*
X2830Y311D02*
X2959D01*
X2830Y291D02*
X2958D01*
X2830Y281D02*
X2956D01*
X2696Y401D02*
X2710D01*
X2678Y281D02*
X2710D01*
X2700Y268D02*
Y402D01*
X2696Y271D02*
X2710D01*
X2830D02*
X2957D01*
X2690Y275D02*
Y399D01*
X2680Y280D02*
Y398D01*
X2633Y592D02*
X2710D01*
X2591Y591D02*
X2633D01*
X2611Y581D02*
X2633D01*
X2624Y561D02*
X2633D01*
X2619Y571D02*
X2633D01*
X2627Y551D02*
X2633D01*
Y498D02*
Y592D01*
X2627Y541D02*
X2633D01*
X2321Y671D02*
X2710D01*
X2317Y681D02*
X2710D01*
X2322Y661D02*
X2710D01*
X2303Y721D02*
X2710D01*
X2296Y701D02*
X2710D01*
X2310Y691D02*
X2710D01*
X2321Y651D02*
X2710D01*
X2318Y641D02*
X2710D01*
X2313Y631D02*
X2710D01*
X2303Y621D02*
X2710D01*
X2660Y488D02*
Y498D01*
X2650Y481D02*
Y498D01*
X2633D02*
X2710D01*
X2625Y531D02*
X2633D01*
X2620Y521D02*
X2633D01*
X2619Y471D02*
X2641D01*
X2640Y470D02*
Y498D01*
X2624Y461D02*
X2636D01*
X2627Y451D02*
X2633D01*
X2620Y470D02*
Y520D01*
X2627Y441D02*
X2633D01*
X2612Y511D02*
X2633D01*
X2596Y501D02*
X2633D01*
X2591Y491D02*
X2669D01*
X2600Y488D02*
Y502D01*
X2590Y491D02*
Y499D01*
X2580Y492D02*
Y498D01*
X2611Y481D02*
X2649D01*
X2610Y481D02*
Y509D01*
X2300Y699D02*
Y719D01*
X2290Y703D02*
Y714D01*
X2280Y705D02*
Y712D01*
X2260Y703D02*
Y714D01*
X2250Y698D02*
Y719D01*
X2270Y705D02*
Y712D01*
X2310Y690D02*
Y727D01*
X2240Y690D02*
Y727D01*
X2221Y671D02*
X2230D01*
X2217Y681D02*
X2233D01*
X2222Y661D02*
X2228D01*
X2203Y721D02*
X2248D01*
X2190Y703D02*
Y714D01*
X2196Y701D02*
X2254D01*
X2170Y705D02*
Y712D01*
X2160Y703D02*
Y714D01*
X2180Y705D02*
Y712D01*
X2210Y690D02*
Y727D01*
X2210Y691D02*
X2241D01*
X2150Y698D02*
Y719D01*
X2140Y690D02*
Y727D01*
X2200Y699D02*
Y719D01*
X2560Y488D02*
Y502D01*
X2203Y621D02*
X2248D01*
X2570Y491D02*
Y499D01*
X2221Y651D02*
X2229D01*
X2218Y641D02*
X2232D01*
X2213Y631D02*
X2237D01*
X2550Y481D02*
Y509D01*
X2540Y470D02*
Y520D01*
X2021Y471D02*
X2541D01*
X2022Y461D02*
X2536D01*
X2021Y451D02*
X2533D01*
X2018Y441D02*
X2533D01*
X2010Y491D02*
X2569D01*
X1996Y501D02*
X2564D01*
X2017Y481D02*
X2549D01*
X1917D02*
X1933D01*
X1910Y491D02*
X1941D01*
X1921Y471D02*
X1930D01*
X1918Y441D02*
X1932D01*
X1913Y431D02*
X1937D01*
X2013D02*
X2535D01*
X1922Y461D02*
X1928D01*
X1921Y451D02*
X1929D01*
X2620Y421D02*
X2640D01*
X2612Y411D02*
X2648D01*
X2625Y431D02*
X2635D01*
X2610Y295D02*
Y409D01*
X2650Y290D02*
Y409D01*
X2640Y293D02*
Y420D01*
X2660Y288D02*
Y402D01*
X2620Y295D02*
Y420D01*
X2540Y276D02*
Y420D01*
X2550Y281D02*
Y409D01*
X2320Y24D02*
Y645D01*
X2003Y421D02*
X2540D01*
X2310Y24D02*
Y627D01*
X2300Y24D02*
Y619D01*
X2290Y24D02*
Y614D01*
X2270Y24D02*
Y612D01*
X2260Y24D02*
Y614D01*
X2280Y24D02*
Y612D01*
X2240Y24D02*
Y627D01*
X2230Y24D02*
Y646D01*
X2250Y24D02*
Y619D01*
X2600Y294D02*
Y402D01*
X2596Y401D02*
X2664D01*
X2649Y291D02*
X2710D01*
X2590Y293D02*
Y399D01*
X2570Y289D02*
Y399D01*
X2580Y291D02*
Y398D01*
X2670Y284D02*
Y399D01*
X2560Y285D02*
Y402D01*
X2500Y24D02*
Y35D01*
X2480Y24D02*
Y62D01*
X2470Y24D02*
Y82D01*
X2490Y24D02*
Y47D01*
X2022Y361D02*
X2710D01*
X2021Y371D02*
X2710D01*
X2021Y351D02*
X2710D01*
X2010Y391D02*
X2710D01*
X1996Y401D02*
X2564D01*
X2017Y381D02*
X2710D01*
X2018Y341D02*
X2710D01*
X2013Y331D02*
X2710D01*
X2003Y321D02*
X2710D01*
X2460Y24D02*
Y120D01*
X2150Y24D02*
Y619D01*
X2140Y24D02*
Y627D01*
X2160Y24D02*
Y614D01*
X2130Y24D02*
Y646D01*
X2020Y373D02*
Y445D01*
X2010Y390D02*
Y427D01*
X2220Y24D02*
Y645D01*
X2210Y24D02*
Y627D01*
X2200Y24D02*
Y619D01*
X2190Y24D02*
Y614D01*
X2170Y24D02*
Y612D01*
X2180Y24D02*
Y612D01*
X1990Y403D02*
Y414D01*
X1970Y405D02*
Y412D01*
X1903Y421D02*
X1948D01*
X1900Y399D02*
Y419D01*
X1960Y403D02*
Y414D01*
X1950Y398D02*
Y419D01*
X1940Y390D02*
Y427D01*
X2000Y399D02*
Y419D01*
X1930Y372D02*
Y446D01*
X1920Y373D02*
Y445D01*
X1910Y390D02*
Y427D01*
X2020Y24D02*
Y345D01*
X2000Y24D02*
Y319D01*
X1990Y24D02*
Y314D01*
X1980Y405D02*
Y412D01*
Y24D02*
Y312D01*
X2010Y24D02*
Y327D01*
X1960Y24D02*
Y314D01*
X1970Y24D02*
Y312D01*
X1940Y24D02*
Y327D01*
X1930Y24D02*
Y346D01*
X1950Y24D02*
Y319D01*
X1917Y381D02*
X1933D01*
X1910Y391D02*
X1941D01*
X1918Y341D02*
X1932D01*
X1922Y361D02*
X1928D01*
X1921Y371D02*
X1930D01*
X1921Y351D02*
X1929D01*
X1920Y24D02*
Y345D01*
X1913Y331D02*
X1937D01*
X1903Y321D02*
X1948D01*
X1910Y24D02*
Y327D01*
X1900Y24D02*
Y319D01*
X1880Y2405D02*
Y2594D01*
X1870Y2405D02*
Y2594D01*
X1890Y2403D02*
Y2594D01*
X1790Y2403D02*
Y2594D01*
X1780Y2405D02*
Y2594D01*
X1860Y2403D02*
Y2594D01*
X1840Y2390D02*
Y2594D01*
X1830Y2372D02*
Y2594D01*
X1850Y2398D02*
Y2594D01*
X1810Y2390D02*
Y2594D01*
X1800Y2399D02*
Y2594D01*
X1820Y2373D02*
Y2594D01*
X1760Y2403D02*
Y2594D01*
X1690Y2403D02*
Y2594D01*
X1770Y2405D02*
Y2594D01*
X1670Y2405D02*
Y2594D01*
X1660Y2403D02*
Y2594D01*
X1680Y2405D02*
Y2594D01*
X1740Y2390D02*
Y2594D01*
X1730Y2372D02*
Y2594D01*
X1750Y2398D02*
Y2594D01*
X1710Y2390D02*
Y2594D01*
X1700Y2399D02*
Y2594D01*
X1720Y2373D02*
Y2594D01*
X1896Y2401D02*
X1928D01*
X1796D02*
X1854D01*
X1810Y2391D02*
X1841D01*
X1821Y2371D02*
X1830D01*
X1817Y2381D02*
X1833D01*
X1822Y2361D02*
X1828D01*
X1803Y2321D02*
X1848D01*
X1880Y2305D02*
Y2312D01*
X1821Y2351D02*
X1829D01*
X1818Y2341D02*
X1832D01*
X1813Y2331D02*
X1837D01*
X1710Y2391D02*
X1741D01*
X1696Y2401D02*
X1754D01*
X1717Y2381D02*
X1733D01*
X1722Y2361D02*
X1728D01*
X1721Y2371D02*
X1730D01*
X1721Y2351D02*
X1729D01*
X1713Y2331D02*
X1737D01*
X1703Y2321D02*
X1748D01*
X1718Y2341D02*
X1732D01*
X1680Y2305D02*
Y2312D01*
X1600Y2399D02*
Y2594D01*
X1590Y2403D02*
Y2594D01*
X1650Y2398D02*
Y2594D01*
X1570Y2405D02*
Y2594D01*
X1560Y2403D02*
Y2594D01*
X1580Y2405D02*
Y2594D01*
X1630Y2372D02*
Y2594D01*
X1620Y2373D02*
Y2594D01*
X1640Y2390D02*
Y2594D01*
X1550Y2398D02*
Y2594D01*
X1540Y2390D02*
Y2594D01*
X1610Y2390D02*
Y2594D01*
X1490Y2403D02*
Y2594D01*
X1480Y2405D02*
Y2594D01*
X1500Y2399D02*
Y2594D01*
X1460Y2403D02*
Y2594D01*
X1450Y2398D02*
Y2594D01*
X1470Y2405D02*
Y2594D01*
X1530Y2372D02*
Y2594D01*
X1520Y2373D02*
Y2594D01*
X1440Y2390D02*
Y2594D01*
X1430Y2372D02*
Y2594D01*
X1510Y2390D02*
Y2594D01*
X1610Y2391D02*
X1641D01*
X1596Y2401D02*
X1654D01*
X1617Y2381D02*
X1633D01*
X1621Y2371D02*
X1630D01*
X1622Y2361D02*
X1628D01*
X1618Y2341D02*
X1632D01*
X1613Y2331D02*
X1637D01*
X1603Y2321D02*
X1648D01*
X1621Y2351D02*
X1629D01*
X1580Y2305D02*
Y2312D01*
X1510Y2391D02*
X1541D01*
X1496Y2401D02*
X1554D01*
X1521Y2371D02*
X1530D01*
X1517Y2381D02*
X1533D01*
X1522Y2361D02*
X1528D01*
X1513Y2331D02*
X1537D01*
X1503Y2321D02*
X1548D01*
X1521Y2351D02*
X1529D01*
X1518Y2341D02*
X1532D01*
X1890Y2303D02*
Y2314D01*
X1860Y2303D02*
Y2314D01*
X1870Y2305D02*
Y2312D01*
X1800Y2299D02*
Y2319D01*
X1790Y2303D02*
Y2314D01*
X1780Y2305D02*
Y2312D01*
X1850Y2298D02*
Y2319D01*
X1840Y2290D02*
Y2327D01*
X1830Y2272D02*
Y2346D01*
X1820Y2273D02*
Y2345D01*
X1810Y2290D02*
Y2327D01*
X1760Y2303D02*
Y2314D01*
X1750Y2298D02*
Y2319D01*
X1770Y2305D02*
Y2312D01*
X1700Y2299D02*
Y2319D01*
X1690Y2303D02*
Y2314D01*
X1670Y2305D02*
Y2312D01*
X1740Y2290D02*
Y2327D01*
X1730Y2272D02*
Y2346D01*
X1720Y2273D02*
Y2345D01*
X1710Y2290D02*
Y2327D01*
X1896Y2301D02*
X1954D01*
X1796D02*
X1854D01*
X1810Y2291D02*
X1841D01*
X1821Y2271D02*
X1830D01*
X1817Y2281D02*
X1833D01*
X1822Y2261D02*
X1828D01*
X1818Y2241D02*
X1832D01*
X1813Y2231D02*
X1837D01*
X1840Y1361D02*
Y2227D01*
X1830Y1361D02*
Y2246D01*
X1821Y2251D02*
X1829D01*
X1820Y1361D02*
Y2245D01*
X1710Y2291D02*
X1741D01*
X1696Y2301D02*
X1754D01*
X1717Y2281D02*
X1733D01*
X1722Y2261D02*
X1728D01*
X1721Y2271D02*
X1730D01*
X1721Y2251D02*
X1729D01*
X1718Y2241D02*
X1732D01*
X1713Y2231D02*
X1737D01*
X1740Y1361D02*
Y2227D01*
X1730Y1501D02*
Y2246D01*
X1720Y1501D02*
Y2245D01*
X1650Y2298D02*
Y2319D01*
X1600Y2299D02*
Y2319D01*
X1660Y2303D02*
Y2314D01*
X1590Y2303D02*
Y2314D01*
X1560Y2303D02*
Y2314D01*
X1570Y2305D02*
Y2312D01*
X1630Y2272D02*
Y2346D01*
X1620Y2273D02*
Y2345D01*
X1640Y2290D02*
Y2327D01*
X1610Y2290D02*
Y2327D01*
X1540Y2290D02*
Y2327D01*
X1550Y2298D02*
Y2319D01*
X1500Y2299D02*
Y2319D01*
X1490Y2303D02*
Y2314D01*
X1480Y2305D02*
Y2312D01*
X1460Y2303D02*
Y2314D01*
X1450Y2298D02*
Y2319D01*
X1470Y2305D02*
Y2312D01*
X1530Y2272D02*
Y2346D01*
X1520Y2273D02*
Y2345D01*
X1440Y2290D02*
Y2327D01*
X1430Y2272D02*
Y2346D01*
X1510Y2290D02*
Y2327D01*
X1610Y2291D02*
X1641D01*
X1596Y2301D02*
X1654D01*
X1617Y2281D02*
X1633D01*
X1622Y2261D02*
X1628D01*
X1621Y2271D02*
X1630D01*
X1621Y2251D02*
X1629D01*
X1630Y1696D02*
Y2246D01*
X1618Y2241D02*
X1632D01*
X1613Y2231D02*
X1637D01*
X1620Y1696D02*
Y2245D01*
X1530Y1690D02*
Y2246D01*
X1540Y1694D02*
Y2227D01*
X1510Y2291D02*
X1541D01*
X1496Y2301D02*
X1554D01*
X1517Y2281D02*
X1533D01*
X1522Y2261D02*
X1528D01*
X1521Y2271D02*
X1530D01*
X1521Y2251D02*
X1529D01*
X1520Y1682D02*
Y2245D01*
X1518Y2241D02*
X1532D01*
X1513Y2231D02*
X1537D01*
X1430Y1361D02*
Y2246D01*
X1440Y1361D02*
Y2227D01*
X1390Y2403D02*
Y2594D01*
X295Y2491D02*
X2459D01*
X295Y2481D02*
X2459D01*
X1370Y2405D02*
Y2594D01*
X1360Y2403D02*
Y2594D01*
X1380Y2405D02*
Y2594D01*
X1410Y2390D02*
Y2594D01*
X1400Y2399D02*
Y2594D01*
X1420Y2373D02*
Y2594D01*
X1340Y2390D02*
Y2594D01*
X1330Y2372D02*
Y2594D01*
X1350Y2398D02*
Y2594D01*
X252Y2591D02*
X2502D01*
X249Y2594D02*
X2505D01*
X260Y2581D02*
X2493D01*
X274Y2561D02*
X2479D01*
X268Y2571D02*
X2485D01*
X279Y2551D02*
X2474D01*
X287Y2531D02*
X2466D01*
X284Y2541D02*
X2470D01*
X290Y2521D02*
X2463D01*
X294Y2501D02*
X2460D01*
X292Y2511D02*
X2461D01*
X294Y2471D02*
X2459D01*
X1410Y2391D02*
X1441D01*
X1396Y2401D02*
X1454D01*
X1417Y2381D02*
X1433D01*
X1421Y2371D02*
X1430D01*
X1321D02*
X1330D01*
X1322Y2361D02*
X1328D01*
X1418Y2341D02*
X1432D01*
X1413Y2331D02*
X1437D01*
X1403Y2321D02*
X1448D01*
X1422Y2361D02*
X1428D01*
X1421Y2351D02*
X1429D01*
X1321D02*
X1329D01*
X286Y2431D02*
X2468D01*
X281Y2421D02*
X2472D01*
X277Y2411D02*
X2477D01*
X293Y2461D02*
X2460D01*
X291Y2451D02*
X2462D01*
X289Y2441D02*
X2465D01*
X1310Y2391D02*
X1341D01*
X1296Y2401D02*
X1354D01*
X1303Y2321D02*
X1348D01*
X1318Y2341D02*
X1332D01*
X1317Y2381D02*
X1333D01*
X1313Y2331D02*
X1337D01*
X1290Y2403D02*
Y2594D01*
X1280Y2405D02*
Y2594D01*
X1300Y2399D02*
Y2594D01*
X1260Y2403D02*
Y2594D01*
X1250Y2398D02*
Y2594D01*
X1270Y2405D02*
Y2594D01*
X1310Y2390D02*
Y2594D01*
X1240Y2390D02*
Y2594D01*
X1320Y2373D02*
Y2594D01*
X1220Y2373D02*
Y2594D01*
X1210Y2390D02*
Y2594D01*
X1230Y2372D02*
Y2594D01*
X1180Y2405D02*
Y2594D01*
X1170Y2405D02*
Y2594D01*
X1190Y2403D02*
Y2594D01*
X1090Y2403D02*
Y2594D01*
X1060Y2403D02*
Y2594D01*
X1160Y2403D02*
Y2594D01*
X1150Y2398D02*
Y2594D01*
X1120Y2373D02*
Y2594D01*
X1200Y2399D02*
Y2594D01*
X1100Y2399D02*
Y2594D01*
X1050Y2398D02*
Y2594D01*
X1110Y2390D02*
Y2594D01*
X1210Y2391D02*
X1241D01*
X1196Y2401D02*
X1254D01*
X1217Y2381D02*
X1233D01*
X1140Y2390D02*
Y2594D01*
X1130Y2372D02*
Y2594D01*
X1221Y2371D02*
X1230D01*
X1221Y2351D02*
X1229D01*
X1218Y2341D02*
X1232D01*
X1213Y2331D02*
X1237D01*
X1222Y2361D02*
X1228D01*
X1122D02*
X1128D01*
X1121Y2351D02*
X1129D01*
X1096Y2401D02*
X1154D01*
X1080Y2405D02*
Y2594D01*
X1110Y2391D02*
X1141D01*
X1070Y2405D02*
Y2594D01*
X996Y2401D02*
X1054D01*
X1010Y2391D02*
X1041D01*
X1117Y2381D02*
X1133D01*
X1113Y2331D02*
X1137D01*
X1103Y2321D02*
X1148D01*
X1121Y2371D02*
X1130D01*
X1118Y2341D02*
X1132D01*
X1390Y2303D02*
Y2314D01*
X1370Y2305D02*
Y2312D01*
X1360Y2303D02*
Y2314D01*
X1380Y2305D02*
Y2312D01*
X1420Y2273D02*
Y2345D01*
X1410Y2290D02*
Y2327D01*
X1400Y2299D02*
Y2319D01*
X1340Y2290D02*
Y2327D01*
X1330Y2272D02*
Y2346D01*
X1350Y2298D02*
Y2319D01*
X1290Y2303D02*
Y2314D01*
X25Y2311D02*
X2710D01*
X1270Y2305D02*
Y2312D01*
X1203Y2321D02*
X1248D01*
X1280Y2305D02*
Y2312D01*
X1320Y2273D02*
Y2345D01*
X1310Y2290D02*
Y2327D01*
X1300Y2299D02*
Y2319D01*
X1250Y2298D02*
Y2319D01*
X1260Y2303D02*
Y2314D01*
X1410Y2291D02*
X1441D01*
X1396Y2301D02*
X1454D01*
X1417Y2281D02*
X1433D01*
X1422Y2261D02*
X1428D01*
X1421Y2271D02*
X1430D01*
X1421Y2251D02*
X1429D01*
X1418Y2241D02*
X1432D01*
X1413Y2231D02*
X1437D01*
X1330Y1361D02*
Y2246D01*
X1420Y1361D02*
Y2245D01*
X1310Y2291D02*
X1341D01*
X1296Y2301D02*
X1354D01*
X1317Y2281D02*
X1333D01*
X1210Y2291D02*
X1241D01*
X1196Y2301D02*
X1254D01*
X1321Y2271D02*
X1330D01*
X1321Y2251D02*
X1329D01*
X1318Y2241D02*
X1332D01*
X1313Y2231D02*
X1337D01*
X1322Y2261D02*
X1328D01*
X1320Y1478D02*
Y2245D01*
X1200Y2299D02*
Y2319D01*
X1190Y2303D02*
Y2314D01*
X1180Y2305D02*
Y2312D01*
X1160Y2303D02*
Y2314D01*
X1150Y2298D02*
Y2319D01*
X1170Y2305D02*
Y2312D01*
X1230Y2272D02*
Y2346D01*
X1220Y2273D02*
Y2345D01*
X1240Y2290D02*
Y2327D01*
X1140Y2290D02*
Y2327D01*
X1130Y2272D02*
Y2346D01*
X1210Y2290D02*
Y2327D01*
X1090Y2303D02*
Y2314D01*
X1070Y2305D02*
Y2312D01*
X1003Y2321D02*
X1048D01*
X1080Y2305D02*
Y2312D01*
X1120Y2273D02*
Y2345D01*
X1110Y2290D02*
Y2327D01*
X1100Y2299D02*
Y2319D01*
X1050Y2298D02*
Y2319D01*
X1060Y2303D02*
Y2314D01*
X1218Y2241D02*
X1232D01*
X1217Y2281D02*
X1233D01*
X1213Y2231D02*
X1237D01*
X1222Y2261D02*
X1228D01*
X1221Y2271D02*
X1230D01*
X1221Y2251D02*
X1229D01*
X1230Y1470D02*
Y2246D01*
X1240Y1485D02*
Y2227D01*
X1220Y1361D02*
Y2245D01*
X1130Y1361D02*
Y2246D01*
X1140Y1361D02*
Y2227D01*
X1110Y2291D02*
X1141D01*
X1096Y2301D02*
X1154D01*
X1117Y2281D02*
X1133D01*
X1010Y2291D02*
X1041D01*
X996Y2301D02*
X1054D01*
X1121Y2271D02*
X1130D01*
X1121Y2251D02*
X1129D01*
X1118Y2241D02*
X1132D01*
X1113Y2231D02*
X1137D01*
X1122Y2261D02*
X1128D01*
X1120Y1361D02*
Y2245D01*
X1700Y1681D02*
X2133D01*
X1700Y1691D02*
X2141D01*
X1700Y1671D02*
X2130D01*
X1803Y2221D02*
X1848D01*
X1703D02*
X1748D01*
X1700Y1661D02*
X2128D01*
X1700Y1621D02*
X2148D01*
X1700Y1631D02*
X2137D01*
X1700Y1611D02*
X2596D01*
X1710Y1501D02*
Y2227D01*
X1700Y1501D02*
Y2219D01*
X1700Y1602D02*
Y1696D01*
X1690D02*
Y2214D01*
X1670Y1696D02*
Y2212D01*
X1680Y1696D02*
Y2212D01*
X1640Y1696D02*
Y2227D01*
X1603Y2221D02*
X1648D01*
X1660Y1696D02*
Y2214D01*
X1700Y1651D02*
X2129D01*
X1606Y1696D02*
X1700D01*
Y1641D02*
X2132D01*
X1650Y1501D02*
Y1602D01*
Y1696D02*
Y2219D01*
X1640Y1501D02*
Y1602D01*
X1737Y1491D02*
X1930D01*
X1737Y1501D02*
X1957D01*
X1737Y1481D02*
X1920D01*
X1737Y1461D02*
X1910D01*
X1737Y1471D02*
X1913D01*
X1737Y1451D02*
X1909D01*
X1737Y1411D02*
X1925D01*
X1737Y1421D02*
X1917D01*
X1737Y1401D02*
X1941D01*
X1737Y1441D02*
X1909D01*
X1737Y1397D02*
Y1501D01*
Y1431D02*
X1912D01*
X1690Y1501D02*
Y1602D01*
X1606D02*
X1700D01*
X1633Y1501D02*
X1737D01*
X1670D02*
Y1602D01*
X1660Y1501D02*
Y1602D01*
X1680Y1501D02*
Y1602D01*
X1605Y1401D02*
X1633D01*
X1605Y1431D02*
X1633D01*
Y1397D02*
X1737D01*
X1605Y1451D02*
X1633D01*
X1605Y1461D02*
X1633D01*
X1605Y1441D02*
X1633D01*
X1610Y1696D02*
Y2227D01*
X1587Y1681D02*
X1606D01*
X1594Y1671D02*
X1606D01*
X1598Y1661D02*
X1606D01*
X1590Y1678D02*
Y2214D01*
X1600Y1651D02*
X1606D01*
X1599Y1641D02*
X1606D01*
X1596Y1631D02*
X1606D01*
X1591Y1621D02*
X1606D01*
Y1602D02*
Y1696D01*
X1600Y1501D02*
Y2219D01*
X1590Y1501D02*
Y1620D01*
X1570Y1693D02*
Y2212D01*
X1560Y1695D02*
Y2214D01*
X1574Y1691D02*
X1606D01*
X1503Y2221D02*
X1548D01*
X1403D02*
X1448D01*
X1550Y1696D02*
Y2219D01*
X1580Y1687D02*
Y2212D01*
X1520Y1501D02*
Y1615D01*
X1510Y1668D02*
Y2227D01*
X1310Y1489D02*
Y2227D01*
X1510Y1501D02*
Y1630D01*
X1580Y1611D02*
X1606D01*
X1580Y1501D02*
Y1610D01*
X1605Y1501D02*
X1633D01*
X1570Y1501D02*
Y1605D01*
X1560Y1501D02*
Y1602D01*
X1550Y1501D02*
Y1602D01*
X1633Y1397D02*
Y1501D01*
X1605Y1421D02*
X1633D01*
X1605Y1411D02*
X1633D01*
X1605Y1481D02*
X1633D01*
X1605Y1491D02*
X1633D01*
X1605Y1471D02*
X1633D01*
X1540Y1501D02*
Y1604D01*
X1530Y1501D02*
Y1608D01*
X1501Y1501D02*
X1605D01*
X1324Y1471D02*
X1501D01*
X1318Y1481D02*
X1501D01*
X1328Y1461D02*
X1501D01*
X1326Y1431D02*
X1501D01*
X1321Y1421D02*
X1501D01*
X1313Y1411D02*
X1501D01*
X1329Y1451D02*
X1501D01*
X1329Y1441D02*
X1501D01*
X1800Y1361D02*
Y2219D01*
X1790Y1361D02*
Y2214D01*
X1780Y1361D02*
Y2212D01*
X1760Y1361D02*
Y2214D01*
X1750Y1361D02*
Y2219D01*
X1770Y1361D02*
Y2212D01*
X1890Y1361D02*
Y2214D01*
X1870Y1361D02*
Y2212D01*
X1880Y1361D02*
Y2212D01*
X1850Y1361D02*
Y2219D01*
X1810Y1361D02*
Y2227D01*
X1860Y1361D02*
Y2214D01*
X1670Y1361D02*
Y1397D01*
X1660Y1361D02*
Y1397D01*
X1680Y1361D02*
Y1397D01*
X1640Y1361D02*
Y1397D01*
X1630Y1361D02*
Y1602D01*
X1650Y1361D02*
Y1397D01*
X1730Y1361D02*
Y1397D01*
X1720Y1361D02*
Y1397D01*
X1740Y1169D02*
Y1288D01*
X1700Y1361D02*
Y1397D01*
X1690Y1361D02*
Y1397D01*
X1710Y1361D02*
Y1397D01*
X1680Y1288D02*
X1880D01*
X1680D02*
X1880D01*
X2138D01*
X1720Y1169D02*
Y1288D01*
X1710Y1169D02*
Y1288D01*
X1730Y1169D02*
Y1288D01*
X1747Y1161D02*
X2128D01*
X1700Y1169D02*
Y1288D01*
X1747Y1151D02*
X2129D01*
X1680Y1169D02*
Y1288D01*
X1670Y1169D02*
Y1288D01*
X1690Y1169D02*
Y1288D01*
X1423Y1221D02*
X2148D01*
X1418Y1211D02*
X2596D01*
X1404Y1201D02*
X2154D01*
X1422Y1241D02*
X2132D01*
X1415Y1251D02*
X2129D01*
X1424Y1231D02*
X2137D01*
X1660Y1169D02*
Y1288D01*
X1650Y1169D02*
Y1288D01*
X1643Y1169D02*
X1747D01*
X1319Y1151D02*
X1643D01*
X1339Y1141D02*
X1643D01*
X1610Y1361D02*
Y1602D01*
X1605Y1397D02*
Y1501D01*
X1501Y1397D02*
X1605D01*
X1580Y1361D02*
Y1397D01*
X1501D02*
Y1501D01*
X1590Y1361D02*
Y1397D01*
X1620Y1361D02*
Y1602D01*
X1520Y1361D02*
Y1397D01*
X1510Y1361D02*
Y1397D01*
X1500Y1361D02*
Y2219D01*
X1490Y1361D02*
Y2214D01*
X1480Y1361D02*
Y2212D01*
X1370Y1361D02*
Y2212D01*
X1360Y1361D02*
Y2214D01*
X1380Y1361D02*
Y2212D01*
X1350Y1361D02*
Y2219D01*
X1340Y1361D02*
Y2227D01*
X1320Y1361D02*
Y1419D01*
X1460Y1361D02*
Y2214D01*
X1450Y1361D02*
Y2219D01*
X1470Y1361D02*
Y2212D01*
X1410Y1361D02*
Y2227D01*
X1400Y1361D02*
Y2219D01*
X1390Y1361D02*
Y2214D01*
X1570Y1361D02*
Y1397D01*
X1560Y1361D02*
Y1397D01*
X1600Y1361D02*
Y1397D01*
X1540Y1361D02*
Y1397D01*
X1530Y1361D02*
Y1397D01*
X1550Y1361D02*
Y1397D01*
X1420Y1245D02*
Y1288D01*
X1410Y1254D02*
Y1288D01*
X1390Y1258D02*
Y1288D01*
X1380Y1255D02*
Y1288D01*
X1400Y1258D02*
Y1288D01*
X1360Y1255D02*
Y1288D01*
X1350Y1255D02*
Y1288D01*
X1370Y1255D02*
Y1288D01*
X1330Y1255D02*
Y1288D01*
X1320Y1255D02*
Y1288D01*
X1340Y1255D02*
Y1288D01*
X1330Y1146D02*
Y1211D01*
X1310Y1159D02*
X1321Y1148D01*
X1310Y1159D02*
Y1211D01*
X1320Y1149D02*
Y1211D01*
X410Y2091D02*
X2141D01*
X396Y2101D02*
X2154D01*
X403Y2021D02*
X2148D01*
X418Y2041D02*
X2132D01*
X417Y2081D02*
X2133D01*
X413Y2031D02*
X2137D01*
X410Y1991D02*
X2141D01*
X396Y2001D02*
X2154D01*
X403Y1921D02*
X2148D01*
X418Y1941D02*
X2132D01*
X417Y1981D02*
X2133D01*
X413Y1931D02*
X2137D01*
X25Y2171D02*
X2710D01*
X25Y2181D02*
X2710D01*
X25Y2161D02*
X2710D01*
X25Y2201D02*
X2710D01*
X25Y2211D02*
X2710D01*
X25Y2191D02*
X2710D01*
X25Y2111D02*
X2710D01*
X25Y2121D02*
X2710D01*
X25Y2011D02*
X2710D01*
X25Y2141D02*
X2710D01*
X25Y2151D02*
X2710D01*
X25Y2131D02*
X2710D01*
X417Y1881D02*
X2133D01*
X413Y1831D02*
X2137D01*
X417Y1781D02*
X2133D01*
X421Y1871D02*
X2130D01*
X418Y1841D02*
X2132D01*
X418Y1741D02*
X2132D01*
X1044Y1521D02*
X2148D01*
X413Y1731D02*
X2137D01*
X1055Y1511D02*
X2578D01*
X418Y1541D02*
X2132D01*
X417Y1581D02*
X2133D01*
X413Y1531D02*
X2137D01*
X396Y1901D02*
X2154D01*
X25Y1911D02*
X2710D01*
X25Y1811D02*
X2710D01*
X410Y1891D02*
X2141D01*
X403Y1821D02*
X2148D01*
X396Y1801D02*
X2154D01*
X396Y1701D02*
X2154D01*
X25Y1711D02*
X2710D01*
X396Y1601D02*
X2154D01*
X410Y1791D02*
X2141D01*
X403Y1721D02*
X2148D01*
X410Y1591D02*
X2141D01*
X1303Y2221D02*
X1348D01*
X1203D02*
X1248D01*
X422Y2061D02*
X2128D01*
X1103Y2221D02*
X1148D01*
X1003D02*
X1048D01*
X1050Y1517D02*
Y2219D01*
X1300Y1496D02*
Y2219D01*
X1290Y1499D02*
Y2214D01*
X1280Y1501D02*
Y2212D01*
X1260Y1498D02*
Y2214D01*
X1250Y1493D02*
Y2219D01*
X1270Y1500D02*
Y2212D01*
X421Y2051D02*
X2129D01*
X421Y2071D02*
X2130D01*
X421Y1971D02*
X2130D01*
X422Y1961D02*
X2128D01*
X421Y1951D02*
X2129D01*
X422Y1861D02*
X2128D01*
X421Y1851D02*
X2129D01*
X421Y1771D02*
X2130D01*
X421Y1751D02*
X2129D01*
X422Y1761D02*
X2128D01*
X410Y1691D02*
X1532D01*
X417Y1681D02*
X1518D01*
X422Y1561D02*
X2128D01*
X422Y1661D02*
X1507D01*
X1280Y1501D02*
X1501D01*
X1059D02*
X1274D01*
X1308Y1491D02*
X1501D01*
X1059D02*
X1246D01*
X1056Y1481D02*
X1236D01*
X1047Y1471D02*
X1230D01*
X942Y1434D02*
X1041D01*
Y1431D02*
X1228D01*
X421Y1671D02*
X1511D01*
X403Y1621D02*
X1515D01*
X25Y1611D02*
X1525D01*
X421Y1651D02*
X1506D01*
X418Y1641D02*
X1507D01*
X413Y1631D02*
X1509D01*
X421Y1551D02*
X2129D01*
X421Y1571D02*
X2130D01*
X422Y1461D02*
X1227D01*
X421Y1451D02*
X1225D01*
X418Y1441D02*
X1226D01*
X1310Y1361D02*
Y1408D01*
X1300Y1361D02*
Y1402D01*
X1297Y1401D02*
X1501D01*
X1290Y1361D02*
Y1398D01*
X1270Y1361D02*
Y1397D01*
X1280Y1361D02*
Y1397D01*
X1300Y1255D02*
Y1288D01*
X1290Y1255D02*
Y1288D01*
X1310Y1255D02*
Y1288D01*
X1270Y1255D02*
Y1288D01*
X1260Y1255D02*
Y1288D01*
X1280Y1255D02*
Y1288D01*
X1041Y1381D02*
X2055D01*
X1041Y1391D02*
X2065D01*
X1041Y1371D02*
X2045D01*
X1041Y1411D02*
X1242D01*
X1041Y1401D02*
X1257D01*
X1260Y1361D02*
Y1400D01*
X1086Y1361D02*
X2036D01*
X1237Y1288D02*
X1680D01*
X1250Y1361D02*
Y1404D01*
X1240Y1361D02*
Y1413D01*
X1250Y1255D02*
Y1288D01*
X1249Y1261D02*
X2128D01*
X1248Y1271D02*
X2130D01*
X1248Y1255D02*
X1381D01*
X1280Y1166D02*
Y1211D01*
X1270Y1166D02*
Y1211D01*
X1290Y1166D02*
Y1211D01*
X1309Y1161D02*
X1643D01*
X1260Y1166D02*
Y1211D01*
X1250Y1166D02*
Y1211D01*
X1300Y1165D02*
Y1211D01*
X1244Y1281D02*
X2133D01*
X910Y1211D02*
X1372D01*
X910Y1201D02*
X1386D01*
X910Y1211D02*
X1372D01*
X910Y1181D02*
X2133D01*
X910Y1191D02*
X2141D01*
X1090Y1171D02*
X2130D01*
X1240Y1166D02*
Y1211D01*
X1094Y1166D02*
X1294D01*
X1150Y1361D02*
Y2219D01*
X1110Y1361D02*
Y2227D01*
X1160Y1361D02*
Y2214D01*
X1100Y1361D02*
Y2219D01*
X1090Y1361D02*
Y2214D01*
X1080Y1364D02*
Y2212D01*
X1210Y1361D02*
Y2227D01*
X1200Y1361D02*
Y2219D01*
X1230Y1361D02*
Y1427D01*
X1190Y1361D02*
Y2214D01*
X1170Y1361D02*
Y2212D01*
X1180Y1361D02*
Y2212D01*
X1070Y1365D02*
Y2212D01*
X1060Y1363D02*
Y2214D01*
X1041Y1421D02*
X1233D01*
X1050Y1357D02*
Y1473D01*
X1041Y1361D02*
X1054D01*
X1041Y1351D02*
X1045D01*
X1041Y1340D02*
Y1434D01*
X1040Y1332D02*
Y1335D01*
X942D02*
X1041D01*
X1160Y1166D02*
Y1211D01*
X1150Y1166D02*
Y1211D01*
X1170Y1166D02*
Y1211D01*
X1130Y1166D02*
Y1211D01*
X1120Y1166D02*
Y1211D01*
X1140Y1166D02*
Y1211D01*
X1220Y1166D02*
Y1211D01*
X1210Y1166D02*
Y1211D01*
X1230Y1166D02*
Y1211D01*
X1190Y1166D02*
Y1211D01*
X1180Y1166D02*
Y1211D01*
X1200Y1166D02*
Y1211D01*
X1080Y1177D02*
Y1211D01*
X1070Y1178D02*
Y1211D01*
X1090Y1171D02*
Y1211D01*
X1060Y1176D02*
Y1211D01*
X941Y1332D02*
X1041D01*
X909Y1171D02*
X1050D01*
X1100Y1166D02*
Y1211D01*
X1050Y1170D02*
Y1211D01*
X1110Y1166D02*
Y1211D01*
X903Y1161D02*
X1043D01*
X893Y1151D02*
X1041D01*
X990Y2403D02*
Y2594D01*
X980Y2405D02*
Y2594D01*
X1000Y2399D02*
Y2594D01*
X960Y2403D02*
Y2594D01*
X950Y2398D02*
Y2594D01*
X970Y2405D02*
Y2594D01*
X1030Y2372D02*
Y2594D01*
X1020Y2373D02*
Y2594D01*
X1040Y2390D02*
Y2594D01*
X940Y2390D02*
Y2594D01*
X930Y2372D02*
Y2594D01*
X1010Y2390D02*
Y2594D01*
X890Y2403D02*
Y2594D01*
X880Y2405D02*
Y2594D01*
X896Y2401D02*
X954D01*
X870Y2405D02*
Y2594D01*
X860Y2403D02*
Y2594D01*
X796Y2401D02*
X854D01*
X910Y2391D02*
X941D01*
X910Y2390D02*
Y2594D01*
X900Y2399D02*
Y2594D01*
X920Y2373D02*
Y2594D01*
X1021Y2371D02*
X1030D01*
X1017Y2381D02*
X1033D01*
X1021Y2351D02*
X1029D01*
X1022Y2361D02*
X1028D01*
X922D02*
X928D01*
X921Y2351D02*
X929D01*
X1018Y2341D02*
X1032D01*
X1013Y2331D02*
X1037D01*
X990Y2303D02*
Y2314D01*
X970Y2305D02*
Y2312D01*
X960Y2303D02*
Y2314D01*
X980Y2305D02*
Y2312D01*
X917Y2381D02*
X933D01*
X913Y2331D02*
X937D01*
X903Y2321D02*
X948D01*
X921Y2371D02*
X930D01*
X918Y2341D02*
X932D01*
X880Y2305D02*
Y2312D01*
X900Y2299D02*
Y2319D01*
X890Y2303D02*
Y2314D01*
X896Y2301D02*
X954D01*
X870Y2305D02*
Y2312D01*
X860Y2303D02*
Y2314D01*
X796Y2301D02*
X854D01*
X800Y2399D02*
Y2594D01*
X790Y2403D02*
Y2594D01*
X850Y2398D02*
Y2594D01*
X770Y2405D02*
Y2594D01*
X760Y2403D02*
Y2594D01*
X780Y2405D02*
Y2594D01*
X840Y2390D02*
Y2594D01*
X830Y2372D02*
Y2594D01*
X810Y2391D02*
X841D01*
X810Y2390D02*
Y2594D01*
X750Y2398D02*
Y2594D01*
X820Y2373D02*
Y2594D01*
X700Y2399D02*
Y2594D01*
X690Y2403D02*
Y2594D01*
X696Y2401D02*
X754D01*
X670Y2405D02*
Y2594D01*
X660Y2403D02*
Y2594D01*
X680Y2405D02*
Y2594D01*
X740Y2390D02*
Y2594D01*
X710Y2391D02*
X741D01*
X720Y2373D02*
Y2594D01*
X710Y2390D02*
Y2594D01*
X730Y2372D02*
Y2594D01*
X821Y2371D02*
X830D01*
X817Y2381D02*
X833D01*
X818Y2341D02*
X832D01*
X822Y2361D02*
X828D01*
X722D02*
X728D01*
X821Y2351D02*
X829D01*
X813Y2331D02*
X837D01*
X803Y2321D02*
X848D01*
X790Y2303D02*
Y2314D01*
X770Y2305D02*
Y2312D01*
X760Y2303D02*
Y2314D01*
X780Y2305D02*
Y2312D01*
X717Y2381D02*
X733D01*
X713Y2331D02*
X737D01*
X703Y2321D02*
X748D01*
X721Y2351D02*
X729D01*
X721Y2371D02*
X730D01*
X718Y2341D02*
X732D01*
X690Y2303D02*
Y2314D01*
X680Y2305D02*
Y2312D01*
X696Y2301D02*
X754D01*
X660Y2303D02*
Y2314D01*
X670Y2305D02*
Y2312D01*
X1040Y2290D02*
Y2327D01*
X1010Y2290D02*
Y2327D01*
X1017Y2281D02*
X1033D01*
X950Y2298D02*
Y2319D01*
X940Y2290D02*
Y2327D01*
X1000Y2299D02*
Y2319D01*
X1030Y2272D02*
Y2346D01*
X1021Y2271D02*
X1030D01*
X1030Y1524D02*
Y2246D01*
X1022Y2261D02*
X1028D01*
X1020Y2273D02*
Y2345D01*
X1021Y2251D02*
X1029D01*
X930Y2272D02*
Y2346D01*
X910Y2291D02*
X941D01*
X917Y2281D02*
X933D01*
X920Y2273D02*
Y2345D01*
X910Y2290D02*
Y2327D01*
X850Y2298D02*
Y2319D01*
X921Y2271D02*
X930D01*
X930Y1338D02*
Y2246D01*
X922Y2261D02*
X928D01*
X921Y2251D02*
X929D01*
X1018Y2241D02*
X1032D01*
X1013Y2231D02*
X1037D01*
X1040Y1523D02*
Y2227D01*
X1020Y1522D02*
Y2245D01*
X990Y1522D02*
Y2214D01*
X980Y1523D02*
Y2212D01*
X1010Y1516D02*
Y2227D01*
X1000Y1518D02*
Y2219D01*
X970Y1520D02*
Y2212D01*
X950Y1434D02*
Y2219D01*
X940Y1332D02*
Y2227D01*
X960Y1512D02*
Y2214D01*
X918Y2241D02*
X932D01*
X913Y2231D02*
X937D01*
X903Y2221D02*
X948D01*
X920Y1339D02*
Y2245D01*
X910Y1337D02*
Y2227D01*
X900Y1330D02*
Y2219D01*
X890Y1307D02*
Y2214D01*
X870Y1307D02*
Y2212D01*
X880Y1307D02*
Y2212D01*
X850Y1307D02*
Y2219D01*
X860Y1307D02*
Y2214D01*
X840Y2290D02*
Y2327D01*
X810Y2291D02*
X841D01*
X817Y2281D02*
X833D01*
X810Y2290D02*
Y2327D01*
X750Y2298D02*
Y2319D01*
X800Y2299D02*
Y2319D01*
X830Y2272D02*
Y2346D01*
X821Y2271D02*
X830D01*
X830Y1307D02*
Y2246D01*
X822Y2261D02*
X828D01*
X820Y2273D02*
Y2345D01*
X821Y2251D02*
X829D01*
X740Y2290D02*
Y2327D01*
X710Y2291D02*
X741D01*
X717Y2281D02*
X733D01*
X720Y2273D02*
Y2345D01*
X710Y2290D02*
Y2327D01*
X700Y2299D02*
Y2319D01*
X730Y2272D02*
Y2346D01*
Y1307D02*
Y2246D01*
X722Y2261D02*
X728D01*
X721Y2271D02*
X730D01*
X721Y2251D02*
X729D01*
X840Y1307D02*
Y2227D01*
X813Y2231D02*
X837D01*
X803Y2221D02*
X848D01*
X818Y2241D02*
X832D01*
X750Y1307D02*
Y2219D01*
X760Y1307D02*
Y2214D01*
X820Y1307D02*
Y2245D01*
X810Y1307D02*
Y2227D01*
X800Y1307D02*
Y2219D01*
X790Y1307D02*
Y2214D01*
X770Y1307D02*
Y2212D01*
X780Y1307D02*
Y2212D01*
X740Y1307D02*
Y2227D01*
X713Y2231D02*
X737D01*
X703Y2221D02*
X748D01*
X718Y2241D02*
X732D01*
X660Y1307D02*
Y2214D01*
X670Y1307D02*
Y2212D01*
X720Y1307D02*
Y2245D01*
X710Y1307D02*
Y2227D01*
X700Y1307D02*
Y2219D01*
X690Y1307D02*
Y2214D01*
X680Y1307D02*
Y2212D01*
X650Y2398D02*
Y2594D01*
X640Y2390D02*
Y2594D01*
X617Y2381D02*
X633D01*
X630Y2372D02*
Y2594D01*
X620Y2373D02*
Y2594D01*
X621Y2371D02*
X630D01*
X630Y2272D02*
Y2346D01*
X618Y2341D02*
X632D01*
X622Y2361D02*
X628D01*
X621Y2351D02*
X629D01*
X620Y2273D02*
Y2345D01*
X590Y2403D02*
Y2594D01*
X580Y2405D02*
Y2594D01*
X596Y2401D02*
X654D01*
X570Y2405D02*
Y2594D01*
X560Y2403D02*
Y2594D01*
X271Y2401D02*
X554D01*
X610Y2391D02*
X641D01*
X613Y2331D02*
X637D01*
X600Y2399D02*
Y2594D01*
X550Y2398D02*
Y2594D01*
X610Y2390D02*
Y2594D01*
X650Y2298D02*
Y2319D01*
X603Y2321D02*
X648D01*
X610Y2291D02*
X641D01*
X640Y2290D02*
Y2327D01*
X610Y2290D02*
Y2327D01*
X617Y2281D02*
X633D01*
X618Y2241D02*
X632D01*
X613Y2231D02*
X637D01*
X622Y2261D02*
X628D01*
X621Y2271D02*
X630D01*
X621Y2251D02*
X629D01*
X590Y2303D02*
Y2314D01*
X580Y2305D02*
Y2312D01*
X596Y2301D02*
X654D01*
X560Y2303D02*
Y2314D01*
X25Y2321D02*
X548D01*
X570Y2305D02*
Y2312D01*
X600Y2299D02*
Y2319D01*
X603Y2221D02*
X648D01*
X550Y2298D02*
Y2319D01*
X25Y2301D02*
X554D01*
X25Y2221D02*
X548D01*
X530Y2372D02*
Y2594D01*
X320Y2106D02*
Y2594D01*
X540Y2390D02*
Y2594D01*
X300Y2106D02*
Y2594D01*
X290Y2522D02*
Y2594D01*
Y2106D02*
Y2445D01*
X390Y2103D02*
Y2594D01*
X380Y2105D02*
Y2594D01*
X400Y2099D02*
Y2594D01*
X360Y2103D02*
Y2594D01*
X310Y2106D02*
Y2594D01*
X370Y2105D02*
Y2594D01*
X264Y2391D02*
X541D01*
X256Y2381D02*
X533D01*
X270Y2568D02*
Y2594D01*
X260Y2581D02*
Y2594D01*
X280Y2550D02*
Y2594D01*
Y2106D02*
Y2417D01*
X246Y2371D02*
X530D01*
X270Y2106D02*
Y2399D01*
X260Y2106D02*
Y2386D01*
X250Y2106D02*
Y2374D01*
X220Y2351D02*
X529D01*
X200Y2341D02*
X532D01*
X165Y2331D02*
X537D01*
X234Y2361D02*
X528D01*
X25Y2351D02*
X60D01*
X25Y2341D02*
X80D01*
X540Y2290D02*
Y2327D01*
X530Y2272D02*
Y2346D01*
X322Y2101D02*
X354D01*
X240Y2106D02*
Y2365D01*
X230Y2106D02*
Y2357D01*
X228Y2106D02*
X322D01*
X25Y2281D02*
X533D01*
X25Y2291D02*
X541D01*
X25Y2271D02*
X530D01*
X25Y2361D02*
X46D01*
X25Y2371D02*
X34D01*
X25Y2331D02*
X115D01*
X25Y2241D02*
X532D01*
X25Y2251D02*
X529D01*
X25Y2231D02*
X537D01*
X25Y2261D02*
X528D01*
X25Y2101D02*
X228D01*
X610Y1314D02*
Y2227D01*
X420Y2073D02*
Y2594D01*
Y1973D02*
Y2045D01*
X410Y1990D02*
Y2027D01*
Y2090D02*
Y2594D01*
X400Y1999D02*
Y2019D01*
X640Y1307D02*
Y2227D01*
X630Y1307D02*
Y2246D01*
X650Y1307D02*
Y2219D01*
X620Y1313D02*
Y2245D01*
X600Y1312D02*
Y2219D01*
X590Y1306D02*
Y2214D01*
X350Y2098D02*
Y2594D01*
X340Y2090D02*
Y2594D01*
X322Y2091D02*
X341D01*
X330Y2072D02*
Y2594D01*
X322Y2081D02*
X333D01*
X322Y2041D02*
X332D01*
X322Y2021D02*
X348D01*
X350Y1998D02*
Y2019D01*
X330Y1972D02*
Y2046D01*
X322Y2031D02*
X337D01*
X340Y1990D02*
Y2027D01*
X390Y2003D02*
Y2014D01*
X380Y2005D02*
Y2012D01*
Y1905D02*
Y1912D01*
X370Y2005D02*
Y2012D01*
X360Y2003D02*
Y2014D01*
X370Y1905D02*
Y1912D01*
X420Y1873D02*
Y1945D01*
X410Y1890D02*
Y1927D01*
X400Y1899D02*
Y1919D01*
X360Y1903D02*
Y1914D01*
X350Y1898D02*
Y1919D01*
X390Y1903D02*
Y1914D01*
X310Y1991D02*
X341D01*
X296Y2001D02*
X354D01*
X313Y1931D02*
X337D01*
X321Y1971D02*
X330D01*
X317Y1981D02*
X333D01*
X318Y1941D02*
X332D01*
X303Y1921D02*
X348D01*
X330Y1872D02*
Y1946D01*
X340Y1890D02*
Y1927D01*
X322Y2061D02*
X328D01*
X322Y2071D02*
X330D01*
X322Y2051D02*
X329D01*
X322Y2012D02*
Y2106D01*
X280Y2005D02*
Y2012D01*
X270Y2005D02*
Y2012D01*
X310Y1990D02*
Y2012D01*
X300Y1999D02*
Y2012D01*
X320Y1973D02*
Y2012D01*
X260Y2003D02*
Y2012D01*
X250Y1998D02*
Y2012D01*
X290Y2003D02*
Y2012D01*
X25Y2051D02*
X228D01*
X25Y2061D02*
X228D01*
X25Y2041D02*
X228D01*
X25Y2081D02*
X228D01*
X25Y2091D02*
X228D01*
X25Y2071D02*
X228D01*
X240Y1990D02*
Y2012D01*
X230Y1972D02*
Y2012D01*
X228D02*
X322D01*
X228D02*
Y2106D01*
X25Y2031D02*
X228D01*
X25Y2021D02*
X228D01*
X322Y1961D02*
X328D01*
X321Y1951D02*
X329D01*
X290Y1903D02*
Y1914D01*
X270Y1905D02*
Y1912D01*
X260Y1903D02*
Y1914D01*
X280Y1905D02*
Y1912D01*
X320Y1873D02*
Y1945D01*
X310Y1890D02*
Y1927D01*
X300Y1899D02*
Y1919D01*
X240Y1890D02*
Y1927D01*
X230Y1872D02*
Y1946D01*
X250Y1898D02*
Y1919D01*
X25Y1991D02*
X241D01*
X25Y2001D02*
X254D01*
X25Y1981D02*
X233D01*
X25Y1961D02*
X228D01*
X25Y1971D02*
X230D01*
X25Y1951D02*
X229D01*
X25Y1921D02*
X248D01*
X25Y1941D02*
X232D01*
X25Y1931D02*
X237D01*
X420Y1673D02*
Y1745D01*
Y1773D02*
Y1845D01*
Y1573D02*
Y1645D01*
X410Y1690D02*
Y1727D01*
Y1790D02*
Y1827D01*
Y1590D02*
Y1627D01*
X995Y1521D02*
X1016D01*
X1003Y1516D02*
X1009D01*
X420Y1473D02*
Y1545D01*
X410Y1490D02*
Y1527D01*
X403Y1521D02*
X971D01*
X400Y1799D02*
Y1819D01*
Y1699D02*
Y1719D01*
X390Y1803D02*
Y1814D01*
X380Y1805D02*
Y1812D01*
X390Y1703D02*
Y1714D01*
X400Y1599D02*
Y1619D01*
X390Y1603D02*
Y1614D01*
X380Y1605D02*
Y1612D01*
X400Y1499D02*
Y1519D01*
X1020Y1434D02*
Y1467D01*
X1001Y1471D02*
X1013D01*
X1040Y1434D02*
Y1467D01*
X1010Y1434D02*
Y1472D01*
X1003D02*
X1012D01*
X421Y1471D02*
X965D01*
X1030Y1434D02*
Y1465D01*
X1000Y1434D02*
Y1470D01*
X990Y1434D02*
Y1465D01*
X970Y1434D02*
Y1467D01*
X960Y1434D02*
Y1475D01*
X980Y1434D02*
Y1464D01*
X410Y1491D02*
X954D01*
X396Y1501D02*
X954D01*
X417Y1481D02*
X957D01*
X413Y1431D02*
X942D01*
X390Y1503D02*
Y1514D01*
X403Y1421D02*
X942D01*
X396Y1401D02*
X942D01*
X410Y1391D02*
X942D01*
X410Y1390D02*
Y1427D01*
X400Y1399D02*
Y1419D01*
X390Y1403D02*
Y1414D01*
X370Y1805D02*
Y1812D01*
X360Y1803D02*
Y1814D01*
X380Y1705D02*
Y1712D01*
X340Y1790D02*
Y1827D01*
X330Y1772D02*
Y1846D01*
X350Y1798D02*
Y1819D01*
X360Y1703D02*
Y1714D01*
X350Y1698D02*
Y1719D01*
X370Y1705D02*
Y1712D01*
X340Y1690D02*
Y1727D01*
X330Y1672D02*
Y1746D01*
Y1572D02*
Y1646D01*
X321Y1851D02*
X329D01*
X321Y1871D02*
X330D01*
X321Y1771D02*
X330D01*
X322Y1861D02*
X328D01*
X320Y1773D02*
Y1845D01*
X322Y1761D02*
X328D01*
X321Y1671D02*
X330D01*
X318Y1741D02*
X332D01*
X321Y1651D02*
X329D01*
X321Y1751D02*
X329D01*
X320Y1673D02*
Y1745D01*
X322Y1661D02*
X328D01*
X370Y1505D02*
Y1512D01*
Y1605D02*
Y1612D01*
X380Y1505D02*
Y1512D01*
X350Y1598D02*
Y1619D01*
X340Y1590D02*
Y1627D01*
X360Y1603D02*
Y1614D01*
X370Y1405D02*
Y1412D01*
X360Y1503D02*
Y1514D01*
X380Y1405D02*
Y1412D01*
X350Y1398D02*
Y1419D01*
Y1498D02*
Y1519D01*
X360Y1403D02*
Y1414D01*
X321Y1571D02*
X330D01*
X318Y1641D02*
X332D01*
X340Y1490D02*
Y1527D01*
X322Y1561D02*
X328D01*
X320Y1573D02*
Y1645D01*
X321Y1551D02*
X329D01*
X330Y1472D02*
Y1546D01*
X321Y1471D02*
X330D01*
X321Y1451D02*
X329D01*
X320Y1473D02*
Y1545D01*
X322Y1461D02*
X328D01*
X1020Y1332D02*
Y1335D01*
X1010Y1332D02*
Y1335D01*
X1030Y1332D02*
Y1335D01*
X990Y1332D02*
Y1335D01*
X942D02*
Y1434D01*
X1000Y1332D02*
Y1335D01*
X970Y1332D02*
Y1335D01*
X960Y1332D02*
Y1335D01*
X980Y1332D02*
Y1335D01*
X950Y1332D02*
Y1335D01*
X421Y1371D02*
X942D01*
X417Y1381D02*
X942D01*
X422Y1361D02*
X942D01*
X421Y1351D02*
X942D01*
X418Y1341D02*
X942D01*
X413Y1331D02*
X900D01*
X624Y1311D02*
X892D01*
X403Y1321D02*
X894D01*
X630Y1307D02*
X892D01*
X630Y1263D02*
X654D01*
X421Y1251D02*
X654D01*
X418Y1241D02*
X659D01*
X910Y1177D02*
Y1211D01*
X827Y1182D02*
X829Y1185D01*
X718D02*
X829D01*
X940Y1143D02*
Y1211D01*
X930Y1143D02*
Y1211D01*
X891Y1141D02*
X923D01*
X891Y1149D02*
X904Y1161D01*
X696Y1197D02*
X702Y1191D01*
X410Y1191D02*
X703D01*
X413Y1231D02*
X669D01*
X403Y1221D02*
X669D01*
X396Y1201D02*
X684D01*
X421Y1171D02*
X820D01*
X417Y1181D02*
X825D01*
X421Y1151D02*
X820D01*
X422Y1161D02*
X820D01*
X420Y1373D02*
Y1445D01*
X390Y1303D02*
Y1314D01*
X396Y1301D02*
X585D01*
X370Y1305D02*
Y1312D01*
X360Y1303D02*
Y1314D01*
X380Y1305D02*
Y1312D01*
X420Y1273D02*
Y1345D01*
X410Y1291D02*
X581D01*
X410Y1290D02*
Y1327D01*
X350Y1298D02*
Y1319D01*
X400Y1299D02*
Y1319D01*
X340Y1390D02*
Y1427D01*
X330Y1372D02*
Y1446D01*
X321Y1371D02*
X330D01*
X322Y1361D02*
X328D01*
X320Y1373D02*
Y1445D01*
X321Y1351D02*
X329D01*
X340Y1290D02*
Y1327D01*
X330Y1272D02*
Y1346D01*
X320Y1273D02*
Y1345D01*
X318Y1341D02*
X332D01*
X422Y1261D02*
X593D01*
X421Y1271D02*
X584D01*
X627Y1261D02*
X654D01*
X417Y1281D02*
X581D01*
X370Y1205D02*
Y1212D01*
X380Y1205D02*
Y1212D01*
X420Y1173D02*
Y1245D01*
X410Y1190D02*
Y1227D01*
X400Y1199D02*
Y1219D01*
X360Y1203D02*
Y1214D01*
X350Y1198D02*
Y1219D01*
X390Y1203D02*
Y1214D01*
X321Y1271D02*
X330D01*
X318Y1241D02*
X332D01*
X340Y1190D02*
Y1227D01*
X322Y1261D02*
X328D01*
X321Y1251D02*
X329D01*
X320Y1173D02*
Y1245D01*
X330Y1172D02*
Y1246D01*
X321Y1171D02*
X330D01*
X318Y1141D02*
X332D01*
X322Y1161D02*
X328D01*
X321Y1151D02*
X329D01*
X313Y1831D02*
X337D01*
X310Y1891D02*
X341D01*
X303Y1821D02*
X348D01*
X318Y1841D02*
X332D01*
X317Y1881D02*
X333D01*
X300Y1799D02*
Y1819D01*
X313Y1731D02*
X337D01*
X310Y1791D02*
X341D01*
X303Y1721D02*
X348D01*
X317Y1781D02*
X333D01*
X310Y1790D02*
Y1827D01*
Y1690D02*
Y1727D01*
X296Y1901D02*
X354D01*
X290Y1803D02*
Y1814D01*
X296Y1801D02*
X354D01*
X270Y1805D02*
Y1812D01*
X260Y1803D02*
Y1814D01*
X280Y1805D02*
Y1812D01*
X300Y1699D02*
Y1719D01*
X290Y1703D02*
Y1714D01*
X270Y1705D02*
Y1712D01*
X260Y1703D02*
Y1714D01*
X280Y1705D02*
Y1712D01*
X310Y1691D02*
X341D01*
X296Y1701D02*
X354D01*
X303Y1621D02*
X348D01*
X317Y1681D02*
X333D01*
X313Y1631D02*
X337D01*
X300Y1599D02*
Y1619D01*
X313Y1531D02*
X337D01*
X310Y1591D02*
X341D01*
X303Y1521D02*
X348D01*
X317Y1581D02*
X333D01*
X310Y1590D02*
Y1627D01*
X318Y1541D02*
X332D01*
X296Y1601D02*
X354D01*
X290Y1603D02*
Y1614D01*
X270Y1605D02*
Y1612D01*
X280Y1605D02*
Y1612D01*
X290Y1503D02*
Y1514D01*
X280Y1505D02*
Y1512D01*
X25Y1511D02*
X959D01*
X260Y1503D02*
Y1514D01*
X270Y1505D02*
Y1512D01*
X25Y1891D02*
X241D01*
X25Y1901D02*
X254D01*
X25Y1831D02*
X237D01*
X25Y1851D02*
X229D01*
X25Y1881D02*
X233D01*
X25Y1841D02*
X232D01*
X250Y1798D02*
Y1819D01*
X240Y1790D02*
Y1827D01*
X250Y1698D02*
Y1719D01*
X230Y1672D02*
Y1746D01*
Y1772D02*
Y1846D01*
X240Y1690D02*
Y1727D01*
X25Y1801D02*
X254D01*
X25Y1821D02*
X248D01*
X25Y1791D02*
X241D01*
X25Y1861D02*
X228D01*
X25Y1871D02*
X230D01*
X25Y1781D02*
X233D01*
X25Y1731D02*
X237D01*
X25Y1741D02*
X232D01*
X25Y1721D02*
X248D01*
X25Y1761D02*
X228D01*
X25Y1771D02*
X230D01*
X25Y1751D02*
X229D01*
X25Y1691D02*
X241D01*
X25Y1701D02*
X254D01*
X25Y1681D02*
X233D01*
X25Y1661D02*
X228D01*
X25Y1671D02*
X230D01*
X25Y1651D02*
X229D01*
X250Y1598D02*
Y1619D01*
X240Y1590D02*
Y1627D01*
X260Y1603D02*
Y1614D01*
X230Y1572D02*
Y1646D01*
X25Y1641D02*
X232D01*
X25Y1631D02*
X237D01*
X25Y1601D02*
X254D01*
X25Y1621D02*
X248D01*
X25Y1591D02*
X241D01*
X25Y1571D02*
X230D01*
X25Y1581D02*
X233D01*
X25Y1561D02*
X228D01*
X25Y1521D02*
X248D01*
X25Y1531D02*
X237D01*
X25Y1501D02*
X254D01*
X25Y1551D02*
X229D01*
X25Y1541D02*
X232D01*
X313Y1431D02*
X337D01*
X310Y1491D02*
X341D01*
X303Y1421D02*
X348D01*
X317Y1481D02*
X333D01*
X310Y1490D02*
Y1527D01*
X318Y1441D02*
X332D01*
X313Y1331D02*
X337D01*
X310Y1391D02*
X341D01*
X303Y1321D02*
X348D01*
X317Y1381D02*
X333D01*
X310Y1390D02*
Y1427D01*
Y1290D02*
Y1327D01*
X296Y1501D02*
X354D01*
X25Y1411D02*
X942D01*
X300Y1499D02*
Y1519D01*
X270Y1405D02*
Y1412D01*
X280Y1405D02*
Y1412D01*
X300Y1399D02*
Y1419D01*
X296Y1401D02*
X354D01*
X300Y1299D02*
Y1319D01*
X290Y1403D02*
Y1414D01*
Y1303D02*
Y1314D01*
X310Y1291D02*
X341D01*
X296Y1301D02*
X354D01*
X303Y1221D02*
X348D01*
X317Y1281D02*
X333D01*
X280Y1305D02*
Y1312D01*
X313Y1231D02*
X337D01*
X310Y1191D02*
X341D01*
X296Y1201D02*
X354D01*
X317Y1181D02*
X333D01*
X310Y1190D02*
Y1227D01*
X300Y1199D02*
Y1219D01*
X290Y1203D02*
Y1214D01*
X25Y1311D02*
X596D01*
X270Y1305D02*
Y1312D01*
X280Y1205D02*
Y1212D01*
X25Y1211D02*
X673D01*
X260Y1203D02*
Y1214D01*
X270Y1205D02*
Y1212D01*
X240Y1490D02*
Y1527D01*
X230Y1472D02*
Y1546D01*
X250Y1498D02*
Y1519D01*
X25Y1461D02*
X228D01*
X25Y1471D02*
X230D01*
X25Y1451D02*
X229D01*
X250Y1398D02*
Y1419D01*
X240Y1390D02*
Y1427D01*
X260Y1403D02*
Y1414D01*
X230Y1272D02*
Y1346D01*
Y1372D02*
Y1446D01*
X25Y1341D02*
X232D01*
X25Y1421D02*
X248D01*
X25Y1491D02*
X241D01*
X25Y1401D02*
X254D01*
X25Y1441D02*
X232D01*
X25Y1481D02*
X233D01*
X25Y1431D02*
X237D01*
X25Y1381D02*
X233D01*
X25Y1391D02*
X241D01*
X25Y1331D02*
X237D01*
X25Y1361D02*
X228D01*
X25Y1371D02*
X230D01*
X25Y1351D02*
X229D01*
X260Y1303D02*
Y1314D01*
X250Y1298D02*
Y1319D01*
X25Y1301D02*
X254D01*
X240Y1290D02*
Y1327D01*
X25Y1321D02*
X248D01*
X25Y1281D02*
X233D01*
X240Y1190D02*
Y1227D01*
X230Y1172D02*
Y1246D01*
X250Y1198D02*
Y1219D01*
X25Y1261D02*
X228D01*
X25Y1271D02*
X230D01*
X25Y1251D02*
X229D01*
X25Y1221D02*
X248D01*
X25Y1291D02*
X241D01*
X25Y1201D02*
X254D01*
X25Y1231D02*
X237D01*
X25Y1241D02*
X232D01*
X25Y1191D02*
X241D01*
X25Y1171D02*
X230D01*
X25Y1181D02*
X233D01*
X25Y1141D02*
X232D01*
X25Y1161D02*
X228D01*
X25Y1151D02*
X229D01*
X1880Y1131D02*
Y1288D01*
X1870Y1131D02*
Y1288D01*
X1890Y1131D02*
Y1288D01*
X1850Y1131D02*
Y1288D01*
X1840Y1131D02*
Y1288D01*
X1860Y1131D02*
Y1288D01*
X1880Y1031D02*
Y1087D01*
X1850Y1031D02*
Y1087D01*
X1890Y1031D02*
Y1087D01*
X1840Y1031D02*
Y1087D01*
X1830Y1131D02*
Y1288D01*
Y1031D02*
Y1087D01*
X1820Y1131D02*
Y1288D01*
X1810Y1131D02*
Y1288D01*
X1747Y1141D02*
X2132D01*
X1790Y1131D02*
Y1288D01*
X1780Y1131D02*
Y1288D01*
X1800Y1131D02*
Y1288D01*
X1770Y1131D02*
Y1288D01*
X1747Y1131D02*
X2137D01*
X1747Y1087D02*
X2137D01*
X1760Y1131D02*
Y1288D01*
X1750Y1131D02*
Y1288D01*
X1747Y1131D02*
Y1169D01*
X1860Y1031D02*
Y1087D01*
X1820Y1031D02*
Y1087D01*
X1870Y1031D02*
Y1087D01*
X1800Y1031D02*
Y1087D01*
X1780Y1031D02*
Y1087D01*
X1810Y1031D02*
Y1087D01*
X1840Y934D02*
Y987D01*
X1830Y934D02*
Y987D01*
X1890Y934D02*
Y987D01*
X1800Y934D02*
Y987D01*
X1790Y1031D02*
Y1087D01*
Y934D02*
Y987D01*
X1770Y1031D02*
Y1087D01*
X1747Y1081D02*
X2133D01*
X1747Y1071D02*
X2130D01*
X1760Y1031D02*
Y1087D01*
X1747Y1065D02*
Y1087D01*
X1643Y1065D02*
X1747D01*
X1770Y934D02*
Y987D01*
X1760Y934D02*
Y987D01*
X1780Y934D02*
Y987D01*
X1750Y934D02*
Y987D01*
Y1031D02*
Y1087D01*
X1740Y934D02*
Y987D01*
X1640Y1031D02*
Y1288D01*
X1630Y1031D02*
Y1288D01*
X1643Y1065D02*
Y1169D01*
X1610Y1031D02*
Y1288D01*
X1600Y1031D02*
Y1288D01*
X1620Y1031D02*
Y1288D01*
X1580Y1031D02*
Y1288D01*
X1570Y1031D02*
Y1288D01*
X1590Y1031D02*
Y1288D01*
X1550Y1031D02*
Y1288D01*
X1540Y1031D02*
Y1288D01*
X1560Y1031D02*
Y1288D01*
X1460Y1031D02*
Y1288D01*
X1450Y1031D02*
Y1288D01*
X1470Y1031D02*
Y1288D01*
X1440Y1031D02*
Y1288D01*
X1430Y1031D02*
Y1288D01*
X1420Y1031D02*
Y1213D01*
X1520Y1031D02*
Y1288D01*
X1510Y1031D02*
Y1288D01*
X1530Y1031D02*
Y1288D01*
X1490Y1031D02*
Y1288D01*
X1480Y1031D02*
Y1288D01*
X1500Y1031D02*
Y1288D01*
X1730Y1031D02*
Y1065D01*
X1720Y1031D02*
Y1065D01*
X1740Y1031D02*
Y1065D01*
X1680Y1031D02*
Y1065D01*
X1670Y1031D02*
Y1065D01*
X1710Y1031D02*
Y1065D01*
X1720Y934D02*
Y987D01*
X1710Y934D02*
Y987D01*
X1730Y934D02*
Y987D01*
X1700Y1031D02*
Y1065D01*
X1690Y1031D02*
Y1065D01*
X1700Y934D02*
Y987D01*
X1660Y1031D02*
Y1065D01*
X1650Y1031D02*
Y1065D01*
X1640Y934D02*
Y987D01*
X1590Y934D02*
Y987D01*
X1580Y934D02*
Y987D01*
X1600Y934D02*
Y987D01*
X1460Y934D02*
Y987D01*
X1450Y934D02*
Y987D01*
X1490Y934D02*
Y987D01*
X1430Y934D02*
Y987D01*
X1440Y934D02*
Y987D01*
X1880Y934D02*
Y987D01*
X1870Y934D02*
Y987D01*
X1880Y505D02*
Y890D01*
X1860Y934D02*
Y987D01*
X1850Y934D02*
Y987D01*
X1870Y505D02*
Y890D01*
X1890Y503D02*
Y890D01*
X1860Y503D02*
Y890D01*
X1900Y499D02*
Y890D01*
X1840Y490D02*
Y890D01*
X1830Y472D02*
Y890D01*
X1850Y498D02*
Y890D01*
X1820Y934D02*
Y987D01*
X1810Y934D02*
Y987D01*
X1713Y890D02*
X2140D01*
X1730Y879D02*
Y890D01*
X1720Y887D02*
Y890D01*
X1740Y867D02*
Y890D01*
X1810Y490D02*
Y890D01*
X1800Y499D02*
Y890D01*
X1820Y473D02*
Y890D01*
X1790Y503D02*
Y890D01*
X1747Y841D02*
X2132D01*
X1746Y831D02*
X2137D01*
X1743Y821D02*
X2148D01*
X1743Y861D02*
X2128D01*
X1738Y871D02*
X2130D01*
X1746Y851D02*
X2129D01*
X1780Y505D02*
Y890D01*
X1770Y505D02*
Y890D01*
X1737Y811D02*
X2710D01*
X1760Y503D02*
Y890D01*
X1750Y498D02*
Y890D01*
X1740Y490D02*
Y815D01*
X1729Y881D02*
X2133D01*
X1728Y801D02*
X2154D01*
X1708Y791D02*
X2141D01*
X1730Y472D02*
Y802D01*
X1720Y473D02*
Y795D01*
X1710Y490D02*
Y791D01*
X1690Y503D02*
Y789D01*
X1700Y499D02*
Y789D01*
X1680Y934D02*
Y987D01*
X1670Y934D02*
Y987D01*
X1690Y934D02*
Y987D01*
X1650Y934D02*
Y987D01*
X1630Y934D02*
Y987D01*
X1660Y934D02*
Y987D01*
X1650Y867D02*
Y890D01*
X1640Y490D02*
Y890D01*
X1670Y886D02*
Y890D01*
X1630Y472D02*
Y890D01*
X1620Y934D02*
Y987D01*
Y473D02*
Y890D01*
X1570Y934D02*
Y987D01*
X1560Y934D02*
Y987D01*
X1610Y934D02*
Y987D01*
X1540Y934D02*
Y987D01*
X1530Y934D02*
Y987D01*
X1550Y934D02*
Y987D01*
X1510Y934D02*
Y987D01*
X1500Y934D02*
Y987D01*
X1520Y934D02*
Y987D01*
X1480Y934D02*
Y987D01*
X1470Y934D02*
Y987D01*
Y505D02*
Y890D01*
X1670Y505D02*
Y795D01*
X1660Y879D02*
Y890D01*
X1680Y505D02*
Y791D01*
X1580Y505D02*
Y890D01*
X1570Y505D02*
Y890D01*
X1590Y503D02*
Y890D01*
X1650Y498D02*
Y815D01*
X1610Y490D02*
Y890D01*
X1660Y503D02*
Y803D01*
X1560Y503D02*
Y890D01*
X1550Y498D02*
Y890D01*
X1600Y499D02*
Y890D01*
X1500Y499D02*
Y890D01*
X1490Y503D02*
Y890D01*
X1510Y490D02*
Y890D01*
X1460Y503D02*
Y890D01*
X1450Y498D02*
Y890D01*
X1480Y505D02*
Y890D01*
X1530Y472D02*
Y890D01*
X1520Y473D02*
Y890D01*
X1540Y490D02*
Y890D01*
X1430Y472D02*
Y890D01*
X1440Y490D02*
Y890D01*
X1349Y1121D02*
X1643D01*
X1346Y1131D02*
X1643D01*
X1348Y1111D02*
X1643D01*
X1350Y1034D02*
Y1211D01*
X1343Y1101D02*
X1643D01*
X1340Y1044D02*
Y1098D01*
X1410Y1031D02*
Y1203D01*
X1390Y1031D02*
Y1200D01*
X1400Y1031D02*
Y1200D01*
X1370Y1031D02*
Y1211D01*
X1360Y1031D02*
Y1211D01*
X1380Y1031D02*
Y1203D01*
X1340Y1140D02*
Y1211D01*
X1283Y1101D02*
X1296D01*
X1290Y1094D02*
Y1117D01*
X1285Y1122D02*
X1290Y1117D01*
X1273Y1111D02*
X1291D01*
X1262Y1122D02*
X1353Y1031D01*
X1330Y1054D02*
Y1091D01*
X1300Y1084D02*
Y1097D01*
X1230Y1092D02*
X1328Y993D01*
X1310Y1074D02*
Y1091D01*
X1323Y1061D02*
X2128D01*
X1303Y1081D02*
X1643D01*
X1333Y1051D02*
X2129D01*
X1328Y1091D02*
X1643D01*
X1320Y1064D02*
Y1089D01*
X1313Y1071D02*
X1643D01*
X1353Y1031D02*
X2137D01*
X1343Y1041D02*
X2132D01*
X1344Y987D02*
X2137D01*
X1300Y934D02*
Y1022D01*
X1149Y1001D02*
X1321D01*
X1140Y1011D02*
X1311D01*
X1159Y991D02*
X1332D01*
X1293Y1091D02*
X1310D01*
X1131Y1031D02*
X1291D01*
X1138Y1021D02*
X1301D01*
X1179Y971D02*
X2130D01*
X1169Y981D02*
X2133D01*
X1209Y941D02*
X2132D01*
X1290Y934D02*
Y1032D01*
X1189Y961D02*
X2128D01*
X1199Y951D02*
X2129D01*
X1280Y1104D02*
Y1122D01*
X1262D02*
X1285D01*
X1263Y1121D02*
X1286D01*
X1270Y1114D02*
Y1122D01*
X1170Y980D02*
Y1092D01*
X1160Y1083D02*
Y1092D01*
X1230Y934D02*
Y1092D01*
X1210Y940D02*
Y1092D01*
X1240Y934D02*
Y1082D01*
X1190Y960D02*
Y1092D01*
X1180Y970D02*
Y1092D01*
X1200Y950D02*
Y1092D01*
X1156D02*
X1230D01*
X955D02*
X1097D01*
X1157Y1091D02*
X1231D01*
X1090Y1085D02*
Y1092D01*
X953Y1091D02*
X1096D01*
X1080Y1075D02*
Y1092D01*
X891Y1081D02*
X1086D01*
X1060Y1055D02*
Y1092D01*
X1050Y1045D02*
Y1092D01*
X1070Y1065D02*
Y1092D01*
X1160Y1071D02*
X1251D01*
X1156Y1061D02*
X1261D01*
X1145Y1051D02*
X1271D01*
X1160Y1081D02*
X1241D01*
X1150Y1000D02*
Y1054D01*
X1270Y934D02*
Y1052D01*
X1250Y934D02*
Y1072D01*
X1280Y934D02*
Y1042D01*
X1160Y990D02*
Y1071D01*
X1110Y1038D02*
Y1043D01*
X1108Y1041D02*
X1281D01*
X891Y1061D02*
X1066D01*
X891Y1071D02*
X1076D01*
X891Y1051D02*
X1056D01*
X1140Y1015D02*
Y1049D01*
X1130Y1031D02*
Y1047D01*
X1105Y1038D02*
X1118Y1050D01*
X1120Y1037D02*
Y1049D01*
X1410Y934D02*
Y987D01*
X1400Y934D02*
Y987D01*
X1420Y934D02*
Y987D01*
X1380Y934D02*
Y987D01*
X1370Y934D02*
Y987D01*
X1390Y934D02*
Y987D01*
X1410Y490D02*
Y890D01*
X1400Y499D02*
Y890D01*
X1420Y473D02*
Y890D01*
X1380Y505D02*
Y890D01*
X1370Y505D02*
Y890D01*
X1390Y503D02*
Y890D01*
X1216Y934D02*
X2135D01*
X1207Y890D02*
X1677D01*
X1157Y881D02*
X1661D01*
X1360Y934D02*
Y987D01*
X1157Y871D02*
X1652D01*
X1157Y861D02*
X1647D01*
X1157Y821D02*
X1647D01*
X1157Y831D02*
X1644D01*
X1157Y811D02*
X1653D01*
X1360Y503D02*
Y890D01*
X1157Y851D02*
X1644D01*
X1157Y841D02*
X1643D01*
X1157Y771D02*
X2130D01*
X1157Y781D02*
X2133D01*
X1157Y751D02*
X2129D01*
X1157Y791D02*
X1682D01*
X1157Y801D02*
X1662D01*
X1157Y761D02*
X2128D01*
X1157Y711D02*
X2710D01*
X1157Y721D02*
X2148D01*
X1157Y701D02*
X2154D01*
X1157Y731D02*
X2137D01*
X1157Y741D02*
X2132D01*
X1157Y691D02*
X2141D01*
X1157Y681D02*
X2133D01*
X1127Y641D02*
X2132D01*
X1117Y631D02*
X2137D01*
X1155Y671D02*
X2130D01*
X1147Y661D02*
X2128D01*
X1137Y651D02*
X2129D01*
X1097Y611D02*
X2710D01*
X1097Y601D02*
X2710D01*
X1097Y591D02*
X2569D01*
X1107Y621D02*
X2148D01*
X1097Y581D02*
X2549D01*
X1340Y934D02*
Y987D01*
X1330Y934D02*
Y992D01*
X1350Y934D02*
Y987D01*
X1310Y934D02*
Y1012D01*
X1260Y934D02*
Y1062D01*
X1320Y934D02*
Y1002D01*
X1290Y503D02*
Y890D01*
X1220Y934D02*
Y1092D01*
X1300Y499D02*
Y890D01*
X1200Y499D02*
Y891D01*
X1157Y931D02*
X1191Y896D01*
X1151Y999D02*
X1216Y934D01*
X1157Y891D02*
X1201D01*
X1157Y911D02*
X1177D01*
X1157Y921D02*
X1167D01*
X1157Y901D02*
X1187D01*
X1180Y505D02*
Y908D01*
X1170Y505D02*
Y918D01*
X1190Y503D02*
Y898D01*
X1157Y680D02*
Y931D01*
X891Y886D02*
X1097Y1092D01*
X1160Y503D02*
Y928D01*
X1310Y490D02*
Y890D01*
X1280Y505D02*
Y890D01*
X1350Y498D02*
Y890D01*
X1260Y503D02*
Y890D01*
X1250Y498D02*
Y890D01*
X1270Y505D02*
Y890D01*
X1330Y472D02*
Y890D01*
X1320Y473D02*
Y890D01*
X1340Y490D02*
Y890D01*
X1230Y472D02*
Y890D01*
X1220Y473D02*
Y890D01*
X1240Y490D02*
Y890D01*
X1097Y611D02*
X1151Y664D01*
X1150Y498D02*
Y664D01*
X1100Y499D02*
Y614D01*
X1097Y500D02*
Y611D01*
X1210Y490D02*
Y890D01*
X1140Y490D02*
Y654D01*
X1130Y472D02*
Y644D01*
X1120Y473D02*
Y634D01*
X1110Y490D02*
Y624D01*
X1896Y501D02*
X1954D01*
X1796D02*
X1854D01*
X1810Y491D02*
X1841D01*
X1821Y471D02*
X1830D01*
X1817Y481D02*
X1833D01*
X1822Y461D02*
X1828D01*
X1813Y431D02*
X1837D01*
X1840Y390D02*
Y427D01*
X1821Y451D02*
X1829D01*
X1818Y441D02*
X1832D01*
X1810Y390D02*
Y427D01*
X1710Y491D02*
X1741D01*
X1696Y501D02*
X1754D01*
X1717Y481D02*
X1733D01*
X1722Y461D02*
X1728D01*
X1721Y471D02*
X1730D01*
X1721Y451D02*
X1729D01*
X1713Y431D02*
X1737D01*
X1740Y390D02*
Y427D01*
X1718Y441D02*
X1732D01*
X1710Y390D02*
Y427D01*
X1890Y403D02*
Y414D01*
X1870Y405D02*
Y412D01*
X1880Y405D02*
Y412D01*
X1860Y403D02*
Y414D01*
X1803Y421D02*
X1848D01*
X1790Y403D02*
Y414D01*
X1850Y398D02*
Y419D01*
X1796Y401D02*
X1854D01*
X1896D02*
X1954D01*
X1810Y391D02*
X1841D01*
X1800Y399D02*
Y419D01*
X1817Y381D02*
X1833D01*
X1770Y405D02*
Y412D01*
X1703Y421D02*
X1748D01*
X1780Y405D02*
Y412D01*
X1690Y403D02*
Y414D01*
X1670Y405D02*
Y412D01*
X1680Y405D02*
Y412D01*
X1760Y403D02*
Y414D01*
X1750Y398D02*
Y419D01*
X1696Y401D02*
X1754D01*
X1700Y399D02*
Y419D01*
X1660Y403D02*
Y414D01*
X1710Y391D02*
X1741D01*
X1610Y491D02*
X1641D01*
X1596Y501D02*
X1654D01*
X1617Y481D02*
X1633D01*
X1621Y471D02*
X1630D01*
X1521D02*
X1530D01*
X1522Y461D02*
X1528D01*
X1621Y451D02*
X1629D01*
X1618Y441D02*
X1632D01*
X1613Y431D02*
X1637D01*
X1622Y461D02*
X1628D01*
X1521Y451D02*
X1529D01*
X1510Y491D02*
X1541D01*
X1496Y501D02*
X1554D01*
X1517Y481D02*
X1533D01*
X1421Y471D02*
X1430D01*
X1417Y481D02*
X1433D01*
X1422Y461D02*
X1428D01*
X1518Y441D02*
X1532D01*
X1513Y431D02*
X1537D01*
X1421Y451D02*
X1429D01*
X1418Y441D02*
X1432D01*
X1440Y390D02*
Y427D01*
X1603Y421D02*
X1648D01*
X1590Y403D02*
Y414D01*
X1596Y401D02*
X1654D01*
X1570Y405D02*
Y412D01*
X1560Y403D02*
Y414D01*
X1580Y405D02*
Y412D01*
X1650Y398D02*
Y419D01*
X1640Y390D02*
Y427D01*
X1610Y391D02*
X1641D01*
X1610Y390D02*
Y427D01*
X1550Y398D02*
Y419D01*
X1600Y399D02*
Y419D01*
X1503Y421D02*
X1548D01*
X1490Y403D02*
Y414D01*
X1496Y401D02*
X1554D01*
X1470Y405D02*
Y412D01*
X1460Y403D02*
Y414D01*
X1480Y405D02*
Y412D01*
X1540Y390D02*
Y427D01*
X1510Y390D02*
Y427D01*
X1510Y391D02*
X1541D01*
X1450Y398D02*
Y419D01*
X1500Y399D02*
Y419D01*
X1830Y372D02*
Y446D01*
X1821Y371D02*
X1830D01*
X1818Y341D02*
X1832D01*
X1822Y361D02*
X1828D01*
X1820Y373D02*
Y445D01*
X1821Y351D02*
X1829D01*
X1813Y331D02*
X1837D01*
X1840Y24D02*
Y327D01*
X1830Y24D02*
Y346D01*
X1730Y24D02*
Y346D01*
X1820Y24D02*
Y345D01*
X1730Y372D02*
Y446D01*
X1717Y381D02*
X1733D01*
X1721Y371D02*
X1730D01*
X1722Y361D02*
X1728D01*
X1720Y373D02*
Y445D01*
X1721Y351D02*
X1729D01*
X1718Y341D02*
X1732D01*
X1713Y331D02*
X1737D01*
X1720Y24D02*
Y345D01*
X1640Y24D02*
Y327D01*
X1890Y24D02*
Y314D01*
X1870Y24D02*
Y312D01*
X1880Y24D02*
Y312D01*
X1850Y24D02*
Y319D01*
X1803Y321D02*
X1848D01*
X1860Y24D02*
Y314D01*
X1810Y24D02*
Y327D01*
X1800Y24D02*
Y319D01*
X1790Y24D02*
Y314D01*
X1770Y24D02*
Y312D01*
X1760Y24D02*
Y314D01*
X1780Y24D02*
Y312D01*
X1740Y24D02*
Y327D01*
X1703Y321D02*
X1748D01*
X1750Y24D02*
Y319D01*
X1710Y24D02*
Y327D01*
X1603Y321D02*
X1648D01*
X1700Y24D02*
Y319D01*
X1690Y24D02*
Y314D01*
X1670Y24D02*
Y312D01*
X1680Y24D02*
Y312D01*
X1650Y24D02*
Y319D01*
X1660Y24D02*
Y314D01*
X1630Y372D02*
Y446D01*
X1617Y381D02*
X1633D01*
X1621Y371D02*
X1630D01*
X1620Y373D02*
Y445D01*
X1530Y372D02*
Y446D01*
X1522Y361D02*
X1528D01*
X1622D02*
X1628D01*
X1621Y351D02*
X1629D01*
X1630Y24D02*
Y346D01*
X1530Y24D02*
Y346D01*
X1620Y24D02*
Y345D01*
X1520Y373D02*
Y445D01*
X1517Y381D02*
X1533D01*
X1521Y371D02*
X1530D01*
X1430Y372D02*
Y446D01*
X1420Y373D02*
Y445D01*
X1421Y371D02*
X1430D01*
X1521Y351D02*
X1529D01*
X1430Y24D02*
Y346D01*
X1422Y361D02*
X1428D01*
X1421Y351D02*
X1429D01*
X1420Y24D02*
Y345D01*
X1618Y341D02*
X1632D01*
X1613Y331D02*
X1637D01*
X1610Y24D02*
Y327D01*
X1600Y24D02*
Y319D01*
X1518Y341D02*
X1532D01*
X1590Y24D02*
Y314D01*
X1570Y24D02*
Y312D01*
X1560Y24D02*
Y314D01*
X1580Y24D02*
Y312D01*
X1540Y24D02*
Y327D01*
X1520Y24D02*
Y345D01*
X1550Y24D02*
Y319D01*
X1513Y331D02*
X1537D01*
X1510Y24D02*
Y327D01*
X1503Y321D02*
X1548D01*
X1500Y24D02*
Y319D01*
X1418Y341D02*
X1432D01*
X1490Y24D02*
Y314D01*
X1470Y24D02*
Y312D01*
X1460Y24D02*
Y314D01*
X1480Y24D02*
Y312D01*
X1440Y24D02*
Y327D01*
X1450Y24D02*
Y319D01*
X1410Y491D02*
X1441D01*
X1396Y501D02*
X1454D01*
X1317Y481D02*
X1333D01*
X1322Y461D02*
X1328D01*
X1321Y471D02*
X1330D01*
X1321Y451D02*
X1329D01*
X1413Y431D02*
X1437D01*
X1340Y390D02*
Y427D01*
X1330Y372D02*
Y446D01*
X1320Y373D02*
Y445D01*
X1318Y441D02*
X1332D01*
X1097Y561D02*
X2536D01*
X1097Y571D02*
X2541D01*
X1097Y521D02*
X2540D01*
X1097Y541D02*
X2533D01*
X1097Y551D02*
X2533D01*
X1097Y531D02*
X2535D01*
X1296Y501D02*
X1354D01*
X1097Y511D02*
X2548D01*
X1310Y491D02*
X1341D01*
X1196Y501D02*
X1254D01*
X1313Y431D02*
X1337D01*
X1403Y421D02*
X1448D01*
X1390Y403D02*
Y414D01*
X1396Y401D02*
X1454D01*
X1370Y405D02*
Y412D01*
X1360Y403D02*
Y414D01*
X1380Y405D02*
Y412D01*
X1410Y390D02*
Y427D01*
X1410Y391D02*
X1441D01*
X1417Y381D02*
X1433D01*
X1400Y399D02*
Y419D01*
X1350Y398D02*
Y419D01*
X1317Y381D02*
X1333D01*
X1303Y421D02*
X1348D01*
X1290Y403D02*
Y414D01*
X1054Y411D02*
X2548D01*
X1270Y405D02*
Y412D01*
X1260Y403D02*
Y414D01*
X1280Y405D02*
Y412D01*
X1310Y390D02*
Y427D01*
X1296Y401D02*
X1354D01*
X1310Y391D02*
X1341D01*
X1300Y399D02*
Y419D01*
X1250Y398D02*
Y419D01*
X1196Y401D02*
X1254D01*
X1217Y481D02*
X1233D01*
X1210Y491D02*
X1241D01*
X1218Y441D02*
X1232D01*
X1222Y461D02*
X1228D01*
X1221Y471D02*
X1230D01*
X1221Y451D02*
X1229D01*
X1230Y372D02*
Y446D01*
X1213Y431D02*
X1237D01*
X1240Y390D02*
Y427D01*
X1220Y373D02*
Y445D01*
X1130Y372D02*
Y446D01*
X1140Y390D02*
Y427D01*
X1110Y491D02*
X1141D01*
X1097Y501D02*
X1154D01*
X1117Y481D02*
X1133D01*
X1121Y471D02*
X1130D01*
X1122Y461D02*
X1128D01*
X1118Y441D02*
X1132D01*
X1113Y431D02*
X1137D01*
X1121Y451D02*
X1129D01*
X1120Y373D02*
Y445D01*
X1203Y421D02*
X1248D01*
X1200Y399D02*
Y419D01*
X1190Y403D02*
Y414D01*
X1170Y405D02*
Y412D01*
X1160Y403D02*
Y414D01*
X1180Y405D02*
Y412D01*
X1217Y381D02*
X1233D01*
X1210Y391D02*
X1241D01*
X1221Y371D02*
X1230D01*
X1210Y390D02*
Y427D01*
X1150Y398D02*
Y419D01*
X1121Y371D02*
X1130D01*
X1103Y421D02*
X1148D01*
X1090Y403D02*
Y414D01*
X1080Y405D02*
Y412D01*
X1060Y405D02*
Y414D01*
X1047Y418D02*
X1061Y404D01*
X1070Y405D02*
Y412D01*
X1110Y391D02*
X1141D01*
X1096Y401D02*
X1154D01*
X1117Y381D02*
X1133D01*
X1110Y390D02*
Y427D01*
X1100Y399D02*
Y419D01*
X1413Y331D02*
X1437D01*
X1403Y321D02*
X1448D01*
X1400Y24D02*
Y319D01*
X1410Y24D02*
Y327D01*
X1390Y24D02*
Y314D01*
X1380Y24D02*
Y312D01*
X1360Y24D02*
Y314D01*
X1350Y24D02*
Y319D01*
X1370Y24D02*
Y312D01*
X25Y311D02*
X2710D01*
X25Y301D02*
X2710D01*
X1313Y331D02*
X1337D01*
X1303Y321D02*
X1348D01*
X205Y281D02*
X2549D01*
X176Y291D02*
X2578D01*
X223Y271D02*
X2530D01*
X1340Y24D02*
Y327D01*
X237Y261D02*
X2516D01*
X248Y251D02*
X2505D01*
X289Y181D02*
X2464D01*
X286Y191D02*
X2467D01*
X292Y171D02*
X2462D01*
X294Y151D02*
X2459D01*
X293Y161D02*
X2460D01*
X295Y141D02*
X2459D01*
X290Y101D02*
X2464D01*
X287Y91D02*
X2467D01*
X283Y81D02*
X2470D01*
X295Y131D02*
X2459D01*
X294Y121D02*
X2460D01*
X292Y111D02*
X2461D01*
X265Y231D02*
X2488D01*
X258Y241D02*
X2496D01*
X272Y221D02*
X2481D01*
X282Y201D02*
X2471D01*
X278Y211D02*
X2476D01*
X278Y71D02*
X2475D01*
X259Y41D02*
X2495D01*
X250Y31D02*
X2504D01*
X243Y24D02*
X2510D01*
X273Y61D02*
X2480D01*
X266Y51D02*
X2487D01*
X1321Y351D02*
X1329D01*
X1321Y371D02*
X1330D01*
X1318Y341D02*
X1332D01*
X1322Y361D02*
X1328D01*
X1222D02*
X1228D01*
X1221Y351D02*
X1229D01*
X1330Y24D02*
Y346D01*
X1320Y24D02*
Y345D01*
X1230Y24D02*
Y346D01*
X1220Y24D02*
Y345D01*
X1240Y24D02*
Y327D01*
X1218Y341D02*
X1232D01*
X1118D02*
X1132D01*
X1213Y331D02*
X1237D01*
X1122Y361D02*
X1128D01*
X1121Y351D02*
X1129D01*
X1113Y331D02*
X1137D01*
X1140Y24D02*
Y327D01*
X1130Y24D02*
Y346D01*
X1120Y24D02*
Y345D01*
X1310Y24D02*
Y327D01*
X1300Y24D02*
Y319D01*
X1290Y24D02*
Y314D01*
X1270Y24D02*
Y312D01*
X1203Y321D02*
X1248D01*
X1280Y24D02*
Y312D01*
X1250Y24D02*
Y319D01*
X1210Y24D02*
Y327D01*
X1260Y24D02*
Y314D01*
X1200Y24D02*
Y319D01*
X1190Y24D02*
Y314D01*
X1180Y24D02*
Y312D01*
X1160Y24D02*
Y314D01*
X1150Y24D02*
Y319D01*
X1170Y24D02*
Y312D01*
X1110Y24D02*
Y327D01*
X1103Y321D02*
X1148D01*
X1100Y24D02*
Y319D01*
X1090Y24D02*
Y314D01*
X1070Y24D02*
Y312D01*
X1080Y24D02*
Y312D01*
X1050Y24D02*
Y319D01*
X1060Y24D02*
Y314D01*
X1030Y1136D02*
Y1211D01*
X1020Y1136D02*
Y1211D01*
X1040Y1136D02*
Y1211D01*
X1000Y1136D02*
Y1211D01*
X980Y1136D02*
Y1211D01*
X1010Y1136D02*
Y1211D01*
Y1005D02*
Y1092D01*
X1000Y995D02*
Y1092D01*
X1020Y1015D02*
Y1092D01*
X990Y985D02*
Y1092D01*
Y1136D02*
Y1211D01*
X980Y975D02*
Y1092D01*
X970Y1136D02*
Y1211D01*
X947Y1141D02*
X1042D01*
X955Y1136D02*
X1044D01*
X950Y1139D02*
Y1211D01*
X920Y1139D02*
Y1211D01*
X960Y1136D02*
Y1211D01*
X910Y1129D02*
Y1175D01*
X891Y1131D02*
X911D01*
X891Y1101D02*
X909D01*
X891Y1121D02*
X906D01*
X910Y905D02*
Y1098D01*
X1040Y1035D02*
Y1092D01*
X1030Y1025D02*
Y1092D01*
X891Y1041D02*
X1046D01*
X970Y965D02*
Y1092D01*
X960Y955D02*
Y1092D01*
X950Y945D02*
Y1088D01*
X940Y935D02*
Y1085D01*
X894Y941D02*
X946D01*
X896Y931D02*
X936D01*
X930Y925D02*
Y1085D01*
X920Y915D02*
Y1088D01*
X893Y921D02*
X926D01*
X891Y1021D02*
X1026D01*
X891Y1031D02*
X1036D01*
X891Y1011D02*
X1016D01*
X891Y1001D02*
X1006D01*
X891Y1091D02*
X917D01*
X891Y991D02*
X996D01*
X891Y971D02*
X976D01*
X891Y981D02*
X986D01*
X891Y961D02*
X966D01*
X891Y951D02*
X956D01*
X887Y911D02*
X916D01*
X449Y901D02*
X906D01*
X810Y1114D02*
Y1185D01*
X796Y1131D02*
X820D01*
X807Y1121D02*
X820D01*
X790Y1133D02*
Y1185D01*
X780Y1134D02*
Y1185D01*
X800Y1128D02*
Y1185D01*
X900Y895D02*
Y1158D01*
X891Y947D02*
Y1149D01*
Y1111D02*
X906D01*
X820Y1110D02*
Y1167D01*
X820Y1110D02*
Y1185D01*
X770Y1132D02*
Y1185D01*
X760Y1124D02*
Y1185D01*
X740Y1108D02*
Y1185D01*
X730Y1099D02*
Y1185D01*
X750Y1111D02*
Y1185D01*
X460Y890D02*
Y2594D01*
X450Y900D02*
Y2594D01*
X440Y910D02*
Y2594D01*
X430Y920D02*
Y2594D01*
X420Y1073D02*
Y1145D01*
X732Y1052D02*
Y1062D01*
X890Y886D02*
Y914D01*
X880Y886D02*
Y906D01*
X870Y886D02*
Y902D01*
X840Y886D02*
Y918D01*
X830Y886D02*
Y930D01*
X860Y886D02*
Y903D01*
X422Y1061D02*
X732D01*
X421Y971D02*
X788D01*
X730Y1050D02*
Y1065D01*
X421Y1071D02*
X727D01*
X421Y1051D02*
X731D01*
X439Y911D02*
X845D01*
X429Y921D02*
X839D01*
X459Y891D02*
X896D01*
X422Y961D02*
X797D01*
X421Y951D02*
X812D01*
X981Y715D02*
Y825D01*
X948Y811D02*
X981D01*
X938Y801D02*
X981D01*
X968Y831D02*
X975D01*
X958Y821D02*
X981D01*
X980Y715D02*
Y825D01*
X970Y705D02*
Y833D01*
X960Y695D02*
Y823D01*
X950Y685D02*
Y813D01*
X940Y675D02*
Y803D01*
X930Y665D02*
Y793D01*
X820Y886D02*
Y937D01*
X810Y886D02*
Y956D01*
X850Y886D02*
Y907D01*
X790Y886D02*
Y968D01*
X750Y886D02*
Y1004D01*
X800Y886D02*
Y959D01*
X906Y768D02*
X972Y835D01*
X464Y886D02*
X891D01*
X928Y791D02*
X981D01*
X770Y886D02*
Y983D01*
X760Y886D02*
Y993D01*
X780Y886D02*
Y980D01*
X920Y655D02*
Y783D01*
X918Y781D02*
X981D01*
X908Y771D02*
X981D01*
X910Y645D02*
Y773D01*
X900Y635D02*
Y764D01*
X890Y625D02*
Y762D01*
X880Y615D02*
Y762D01*
X860Y595D02*
Y762D01*
X850Y585D02*
Y762D01*
X870Y605D02*
Y762D01*
X840Y575D02*
Y762D01*
X830Y565D02*
Y762D01*
X484D02*
X890D01*
X810Y545D02*
Y762D01*
X800Y535D02*
Y762D01*
X820Y555D02*
Y762D01*
X780Y515D02*
Y762D01*
X770Y505D02*
Y762D01*
X790Y525D02*
Y762D01*
X750Y498D02*
Y762D01*
X760Y503D02*
Y762D01*
X640Y886D02*
Y1263D01*
X630Y886D02*
Y1263D01*
X620Y886D02*
Y1257D01*
X600Y886D02*
Y1257D01*
X590Y886D02*
Y1263D01*
X610Y886D02*
Y1255D01*
X690Y886D02*
Y1198D01*
X680Y886D02*
Y1203D01*
X700Y886D02*
Y1194D01*
X660Y886D02*
Y1239D01*
X650Y886D02*
Y1263D01*
X670Y886D02*
Y1218D01*
X510Y886D02*
Y2594D01*
X500Y886D02*
Y2594D01*
X520Y886D02*
Y2594D01*
X480Y886D02*
Y2594D01*
X470Y886D02*
Y2594D01*
X490Y886D02*
Y2594D01*
X570Y886D02*
Y2212D01*
X560Y886D02*
Y2214D01*
X580Y886D02*
Y2212D01*
X540Y886D02*
Y2227D01*
X530Y886D02*
Y2246D01*
X550Y886D02*
Y2219D01*
X730Y886D02*
Y1016D01*
X720Y886D02*
Y1185D01*
X740Y886D02*
Y1007D01*
X710Y886D02*
Y1186D01*
X680Y505D02*
Y762D01*
X670Y505D02*
Y762D01*
X730Y472D02*
Y762D01*
X720Y473D02*
Y762D01*
X740Y490D02*
Y762D01*
X700Y499D02*
Y762D01*
X690Y503D02*
Y762D01*
X710Y490D02*
Y762D01*
X650Y498D02*
Y762D01*
X610Y490D02*
Y762D01*
X660Y503D02*
Y762D01*
X570Y505D02*
Y762D01*
X550Y498D02*
Y762D01*
X580Y505D02*
Y762D01*
X630Y472D02*
Y762D01*
X620Y473D02*
Y762D01*
X640Y490D02*
Y762D01*
X520Y24D02*
Y762D01*
X530Y472D02*
Y762D01*
X418Y1141D02*
X820D01*
X413Y1131D02*
X768D01*
X403Y1121D02*
X757D01*
X390Y1103D02*
Y1114D01*
X370Y1105D02*
Y1112D01*
X380Y1105D02*
Y1112D01*
X410Y1091D02*
X726D01*
X396Y1101D02*
X731D01*
X417Y1081D02*
X725D01*
X410Y1090D02*
Y1127D01*
X400Y1099D02*
Y1119D01*
X420Y973D02*
Y1045D01*
X360Y1103D02*
Y1114D01*
X25Y1111D02*
X748D01*
X313Y1131D02*
X337D01*
X303Y1121D02*
X348D01*
X296Y1101D02*
X354D01*
X350Y1098D02*
Y1119D01*
X310Y1091D02*
X341D01*
X340Y1090D02*
Y1127D01*
X330Y1072D02*
Y1146D01*
X317Y1081D02*
X333D01*
X418Y1041D02*
X726D01*
X403Y1021D02*
X727D01*
X396Y1001D02*
X757D01*
X413Y1031D02*
X725D01*
X390Y1003D02*
Y1014D01*
X380Y1005D02*
Y1012D01*
X417Y981D02*
X776D01*
X410Y991D02*
X762D01*
X418Y941D02*
X817D01*
X410Y990D02*
Y1027D01*
X400Y999D02*
Y1019D01*
X370Y1005D02*
Y1012D01*
X360Y1003D02*
Y1014D01*
X25Y1011D02*
X734D01*
X318Y1041D02*
X332D01*
X313Y1031D02*
X337D01*
X303Y1021D02*
X348D01*
X350Y998D02*
Y1019D01*
X296Y1001D02*
X354D01*
X310Y991D02*
X341D01*
X340Y990D02*
Y1027D01*
X317Y981D02*
X333D01*
X318Y941D02*
X332D01*
X300Y1099D02*
Y1119D01*
X290Y1103D02*
Y1114D01*
X280Y1105D02*
Y1112D01*
X260Y1103D02*
Y1114D01*
X250Y1098D02*
Y1119D01*
X270Y1105D02*
Y1112D01*
X321Y1051D02*
X329D01*
X321Y1071D02*
X330D01*
X330Y972D02*
Y1046D01*
X320Y1073D02*
Y1145D01*
X310Y1090D02*
Y1127D01*
X322Y1061D02*
X328D01*
X25Y1121D02*
X248D01*
X25Y1101D02*
X254D01*
X240Y1090D02*
Y1127D01*
X25Y1131D02*
X237D01*
X25Y1091D02*
X241D01*
X230Y1072D02*
Y1146D01*
X25Y1081D02*
X233D01*
X25Y1061D02*
X228D01*
X25Y1071D02*
X230D01*
X25Y1051D02*
X229D01*
X300Y999D02*
Y1019D01*
X290Y1003D02*
Y1014D01*
X280Y1005D02*
Y1012D01*
X260Y1003D02*
Y1014D01*
X250Y998D02*
Y1019D01*
X270Y1005D02*
Y1012D01*
X322Y961D02*
X328D01*
X321Y971D02*
X330D01*
X321Y951D02*
X329D01*
X320Y973D02*
Y1045D01*
X240Y990D02*
Y1027D01*
X310Y990D02*
Y1027D01*
X25Y1001D02*
X254D01*
X25Y1021D02*
X248D01*
X25Y991D02*
X241D01*
X25Y1031D02*
X237D01*
X25Y1041D02*
X232D01*
X25Y981D02*
X233D01*
X230Y972D02*
Y1046D01*
X25Y971D02*
X230D01*
X25Y941D02*
X232D01*
X25Y961D02*
X228D01*
X25Y951D02*
X229D01*
X420Y930D02*
Y945D01*
X419Y931D02*
X829D01*
X370Y905D02*
Y912D01*
X360Y903D02*
Y914D01*
X376Y912D02*
X383Y905D01*
X415Y935D02*
X464Y886D01*
X350Y898D02*
Y919D01*
X330Y872D02*
Y946D01*
X320Y873D02*
Y945D01*
X340Y890D02*
Y927D01*
X313Y931D02*
X337D01*
X303Y921D02*
X348D01*
X25Y911D02*
X377D01*
X290Y903D02*
Y914D01*
X280Y905D02*
Y912D01*
X310Y891D02*
X341D01*
X296Y901D02*
X354D01*
X317Y881D02*
X333D01*
X310Y890D02*
Y927D01*
X300Y899D02*
Y919D01*
X330Y835D02*
Y846D01*
X324Y841D02*
X332D01*
X334Y831D02*
X337D01*
X322Y861D02*
X328D01*
X321Y871D02*
X330D01*
X321Y851D02*
X329D01*
X325Y787D02*
X337D01*
X416Y693D02*
X484Y762D01*
X330Y772D02*
Y787D01*
X320Y845D02*
X334Y831D01*
X321Y771D02*
X330D01*
X289Y814D02*
X309Y793D01*
X296Y801D02*
X302D01*
X290Y803D02*
Y813D01*
X25Y811D02*
X292D01*
X300Y799D02*
Y803D01*
X317Y781D02*
X333D01*
X320Y773D02*
Y787D01*
X230Y872D02*
Y946D01*
X160Y294D02*
Y2330D01*
X240Y890D02*
Y927D01*
X150Y294D02*
Y2329D01*
X130Y294D02*
Y2329D01*
X140Y295D02*
Y2329D01*
X220Y273D02*
Y2351D01*
X210Y278D02*
Y2345D01*
X200Y283D02*
Y2341D01*
X190Y287D02*
Y2337D01*
X180Y290D02*
Y2334D01*
X170Y292D02*
Y2332D01*
X120Y293D02*
Y2330D01*
X110Y292D02*
Y2332D01*
X25Y931D02*
X237D01*
X90Y286D02*
Y2337D01*
X80Y283D02*
Y2341D01*
X100Y290D02*
Y2334D01*
X60Y272D02*
Y2351D01*
X50Y266D02*
Y2358D01*
X70Y278D02*
Y2345D01*
X30Y249D02*
Y2375D01*
X25Y244D02*
Y2380D01*
X40Y258D02*
Y2365D01*
X260Y903D02*
Y914D01*
X250Y898D02*
Y919D01*
X270Y905D02*
Y912D01*
X25Y881D02*
X233D01*
X25Y921D02*
X248D01*
X25Y871D02*
X230D01*
X270Y805D02*
Y812D01*
X260Y803D02*
Y814D01*
X280Y805D02*
Y812D01*
X240Y790D02*
Y827D01*
X230Y772D02*
Y846D01*
X250Y798D02*
Y819D01*
X25Y891D02*
X241D01*
X25Y901D02*
X254D01*
X25Y831D02*
X237D01*
X25Y851D02*
X229D01*
X25Y861D02*
X228D01*
X25Y841D02*
X232D01*
X25Y801D02*
X254D01*
X25Y821D02*
X248D01*
X25Y791D02*
X241D01*
X25Y781D02*
X233D01*
X25Y771D02*
X230D01*
X1047Y418D02*
Y421D01*
X1003Y409D02*
Y421D01*
X1050Y415D02*
Y419D01*
X947Y418D02*
Y421D01*
X950Y415D02*
Y419D01*
X1000Y399D02*
Y419D01*
X947Y418D02*
X961Y404D01*
X990Y403D02*
Y414D01*
X903Y409D02*
Y421D01*
X900Y399D02*
Y419D01*
X960Y405D02*
Y414D01*
X771Y506D02*
X981Y715D01*
X850Y415D02*
Y419D01*
X696Y501D02*
X754D01*
X847Y418D02*
Y421D01*
X860Y405D02*
Y414D01*
X847Y418D02*
X861Y404D01*
X890Y403D02*
Y414D01*
X803Y409D02*
Y421D01*
X800Y399D02*
Y419D01*
X760Y403D02*
Y414D01*
X954Y411D02*
X1003D01*
X996Y401D02*
X1005D01*
X980Y405D02*
Y412D01*
X970Y405D02*
Y412D01*
X1020Y373D02*
Y383D01*
X1017Y381D02*
X1022D01*
X920Y373D02*
Y383D01*
X917Y381D02*
X922D01*
X880Y405D02*
Y412D01*
X870Y405D02*
Y412D01*
X854Y411D02*
X903D01*
X790Y403D02*
Y414D01*
X770Y405D02*
Y412D01*
X780Y405D02*
Y412D01*
X896Y401D02*
X905D01*
X820Y373D02*
Y383D01*
X817Y381D02*
X822D01*
X796Y401D02*
X805D01*
X717Y481D02*
X733D01*
X710Y491D02*
X741D01*
X721Y471D02*
X730D01*
X722Y461D02*
X728D01*
X622D02*
X628D01*
X621Y451D02*
X629D01*
X718Y441D02*
X732D01*
X713Y431D02*
X737D01*
X740Y390D02*
Y427D01*
X721Y451D02*
X729D01*
X640Y390D02*
Y427D01*
X600Y499D02*
Y762D01*
X596Y501D02*
X654D01*
X610Y491D02*
X641D01*
X560Y503D02*
Y762D01*
X540Y490D02*
Y762D01*
X590Y503D02*
Y762D01*
X618Y441D02*
X632D01*
X617Y481D02*
X633D01*
X613Y431D02*
X637D01*
X621Y471D02*
X630D01*
X620Y406D02*
Y445D01*
X540Y406D02*
Y427D01*
X703Y421D02*
X748D01*
X690Y403D02*
Y414D01*
X696Y401D02*
X754D01*
X670Y405D02*
Y412D01*
X660Y403D02*
Y414D01*
X680Y405D02*
Y412D01*
X750Y398D02*
Y419D01*
X710Y391D02*
X741D01*
X717Y381D02*
X733D01*
X710Y390D02*
Y427D01*
X650Y398D02*
Y419D01*
X700Y399D02*
Y419D01*
X610Y406D02*
Y427D01*
X603Y421D02*
X648D01*
X600Y406D02*
Y419D01*
X560Y406D02*
Y414D01*
X550Y406D02*
Y419D01*
X590Y406D02*
Y414D01*
X622Y391D02*
X641D01*
X622Y401D02*
X654D01*
X622Y381D02*
X633D01*
X570Y406D02*
Y412D01*
X580Y406D02*
Y412D01*
X1021Y371D02*
X1030D01*
X1010Y393D02*
X1030Y373D01*
X1022Y361D02*
X1028D01*
X922D02*
X928D01*
X921Y351D02*
X929D01*
X1030Y24D02*
Y346D01*
X1021Y351D02*
X1029D01*
X1018Y341D02*
X1032D01*
X930Y24D02*
Y346D01*
X1020Y24D02*
Y345D01*
X910Y393D02*
X930Y373D01*
X921Y371D02*
X930D01*
X821D02*
X830D01*
X810Y393D02*
X830Y373D01*
X822Y361D02*
X828D01*
X920Y24D02*
Y345D01*
X918Y341D02*
X932D01*
X830Y24D02*
Y346D01*
X821Y351D02*
X829D01*
X818Y341D02*
X832D01*
X1040Y24D02*
Y327D01*
X1013Y331D02*
X1037D01*
X1003Y321D02*
X1048D01*
X1010Y24D02*
Y327D01*
X913Y331D02*
X937D01*
X1000Y24D02*
Y319D01*
X990Y24D02*
Y314D01*
X970Y24D02*
Y312D01*
X980Y24D02*
Y312D01*
X950Y24D02*
Y319D01*
X940Y24D02*
Y327D01*
X960Y24D02*
Y314D01*
X910Y24D02*
Y327D01*
X903Y321D02*
X948D01*
X900Y24D02*
Y319D01*
X813Y331D02*
X837D01*
X803Y321D02*
X848D01*
X890Y24D02*
Y314D01*
X870Y24D02*
Y312D01*
X860Y24D02*
Y314D01*
X880Y24D02*
Y312D01*
X840Y24D02*
Y327D01*
X850Y24D02*
Y319D01*
X730Y372D02*
Y446D01*
X721Y371D02*
X730D01*
X718Y341D02*
X732D01*
X722Y361D02*
X728D01*
X720Y373D02*
Y445D01*
X721Y351D02*
X729D01*
X820Y24D02*
Y345D01*
X810Y24D02*
Y327D01*
X730Y24D02*
Y346D01*
X720Y24D02*
Y345D01*
X740Y24D02*
Y327D01*
X630Y372D02*
Y446D01*
X622Y341D02*
X632D01*
X713Y331D02*
X737D01*
X622Y361D02*
X628D01*
X622Y371D02*
X630D01*
X622Y351D02*
X629D01*
X640Y24D02*
Y327D01*
X710Y24D02*
Y327D01*
X630Y24D02*
Y346D01*
X622Y312D02*
Y406D01*
Y331D02*
X637D01*
X800Y24D02*
Y319D01*
X790Y24D02*
Y314D01*
X780Y24D02*
Y312D01*
X760Y24D02*
Y314D01*
X703Y321D02*
X748D01*
X770Y24D02*
Y312D01*
X750Y24D02*
Y319D01*
X700Y24D02*
Y319D01*
X690Y24D02*
Y314D01*
X670Y24D02*
Y312D01*
X660Y24D02*
Y314D01*
X680Y24D02*
Y312D01*
X650Y24D02*
Y319D01*
X622Y321D02*
X648D01*
X620Y24D02*
Y312D01*
X600Y24D02*
Y312D01*
X590Y24D02*
Y312D01*
X610Y24D02*
Y312D01*
X570Y24D02*
Y312D01*
X560Y24D02*
Y312D01*
X580Y24D02*
Y312D01*
X540Y24D02*
Y312D01*
X550Y24D02*
Y312D01*
X483Y761D02*
X981D01*
X473Y751D02*
X981D01*
X463Y741D02*
X981D01*
X453Y731D02*
X981D01*
X443Y721D02*
X981D01*
X433Y711D02*
X976D01*
X423Y701D02*
X966D01*
X413Y691D02*
X956D01*
X417Y681D02*
X946D01*
X421Y671D02*
X936D01*
X420Y673D02*
Y697D01*
X422Y661D02*
X926D01*
X334Y731D02*
X337D01*
X330Y735D02*
Y746D01*
X320Y745D02*
X334Y731D01*
X324Y741D02*
X332D01*
X325Y687D02*
X337D01*
X330Y672D02*
Y687D01*
X317Y681D02*
X333D01*
X321Y671D02*
X330D01*
X421Y651D02*
X916D01*
X418Y641D02*
X906D01*
X413Y631D02*
X896D01*
X403Y621D02*
X886D01*
X380Y606D02*
Y612D01*
X370Y606D02*
X380D01*
X420Y584D02*
Y645D01*
X401Y601D02*
X866D01*
X415Y591D02*
X856D01*
X410Y595D02*
Y627D01*
X400Y601D02*
Y619D01*
X390Y605D02*
Y614D01*
X370Y606D02*
Y612D01*
X360Y605D02*
Y614D01*
X25Y611D02*
X876D01*
X318Y641D02*
X332D01*
X313Y631D02*
X337D01*
X303Y621D02*
X348D01*
X350Y601D02*
Y619D01*
X340Y595D02*
Y627D01*
X301Y601D02*
X349D01*
X330Y583D02*
Y646D01*
X315Y591D02*
X336D01*
X322Y761D02*
X328D01*
X321Y751D02*
X329D01*
X290Y703D02*
Y713D01*
X270Y705D02*
Y712D01*
X280Y705D02*
Y712D01*
X289Y714D02*
X309Y693D01*
X300Y699D02*
Y703D01*
X260Y703D02*
Y714D01*
X296Y701D02*
X302D01*
X25Y721D02*
X248D01*
X25Y731D02*
X237D01*
X25Y711D02*
X292D01*
X25Y751D02*
X229D01*
X25Y761D02*
X228D01*
X25Y741D02*
X232D01*
X250Y698D02*
Y719D01*
X25Y701D02*
X254D01*
X240Y690D02*
Y727D01*
X230Y672D02*
Y746D01*
X25Y691D02*
X241D01*
X322Y661D02*
X328D01*
X320Y673D02*
Y687D01*
X321Y651D02*
X329D01*
X280Y606D02*
Y612D01*
X270Y606D02*
Y612D01*
X270Y606D02*
X280D01*
X320Y584D02*
Y645D01*
X310Y595D02*
Y627D01*
X300Y601D02*
Y619D01*
X260Y605D02*
Y614D01*
X250Y601D02*
Y619D01*
X290Y605D02*
Y614D01*
X25Y641D02*
X232D01*
X25Y681D02*
X233D01*
X25Y631D02*
X237D01*
X25Y661D02*
X228D01*
X25Y671D02*
X230D01*
X25Y651D02*
X229D01*
X240Y595D02*
Y627D01*
X25Y621D02*
X248D01*
X25Y601D02*
X249D01*
X230Y583D02*
Y646D01*
X25Y591D02*
X236D01*
X427Y561D02*
X826D01*
X426Y551D02*
X816D01*
X510Y24D02*
Y762D01*
X490Y24D02*
Y762D01*
X480Y24D02*
Y757D01*
X500Y24D02*
Y762D01*
X470Y24D02*
Y747D01*
X460Y24D02*
Y737D01*
X450Y24D02*
Y727D01*
X440Y24D02*
Y717D01*
X430Y24D02*
Y707D01*
X426Y571D02*
X836D01*
X422Y581D02*
X846D01*
X423Y541D02*
X806D01*
X418Y531D02*
X796D01*
X408Y521D02*
X786D01*
X25Y511D02*
X776D01*
X25Y501D02*
X554D01*
X420Y24D02*
Y534D01*
X410Y24D02*
Y522D01*
X400Y24D02*
Y516D01*
X25Y481D02*
X533D01*
X25Y491D02*
X541D01*
X25Y431D02*
X537D01*
X25Y451D02*
X529D01*
X25Y461D02*
X528D01*
X25Y441D02*
X532D01*
X528Y406D02*
X622D01*
X25Y421D02*
X548D01*
X528Y312D02*
X622D01*
X530Y406D02*
Y446D01*
X528Y312D02*
Y406D01*
X530Y24D02*
Y312D01*
X25Y411D02*
X803D01*
X25Y471D02*
X530D01*
X25Y401D02*
X528D01*
X25Y381D02*
X528D01*
X25Y391D02*
X528D01*
X25Y371D02*
X528D01*
X25Y331D02*
X528D01*
X25Y341D02*
X528D01*
X25Y321D02*
X528D01*
X25Y361D02*
X528D01*
X25Y351D02*
X528D01*
X308Y521D02*
X343D01*
X323Y541D02*
X327D01*
X322Y581D02*
X328D01*
X318Y531D02*
X332D01*
X340Y24D02*
Y523D01*
X330Y24D02*
Y534D01*
X350Y24D02*
Y516D01*
X320Y24D02*
Y534D01*
X310Y24D02*
Y522D01*
X25Y581D02*
X228D01*
X25Y541D02*
X227D01*
X25Y561D02*
X223D01*
X25Y571D02*
X225D01*
X25Y551D02*
X224D01*
X25Y521D02*
X243D01*
X250Y249D02*
Y516D01*
X230Y266D02*
Y534D01*
X25Y531D02*
X232D01*
X240Y258D02*
Y523D01*
X370Y24D02*
Y512D01*
X290Y178D02*
Y513D01*
X370Y512D02*
X380D01*
X280Y206D02*
Y512D01*
X270Y224D02*
Y512D01*
X270Y512D02*
X280D01*
X390Y24D02*
Y513D01*
X360Y24D02*
Y513D01*
X380Y24D02*
Y512D01*
X300Y24D02*
Y516D01*
X290Y24D02*
Y102D01*
X280Y24D02*
Y74D01*
X260Y238D02*
Y513D01*
X25Y291D02*
X104D01*
X25Y281D02*
X75D01*
X25Y261D02*
X43D01*
X25Y271D02*
X57D01*
X25Y251D02*
X32D01*
X270Y24D02*
Y56D01*
X260Y24D02*
Y42D01*
X250Y24D02*
Y31D01*
X2600Y1584D02*
X2675Y1659D01*
X2600Y1484D02*
Y1584D01*
X2525Y1409D02*
X2600Y1484D01*
X2115Y1409D02*
X2525D01*
X2353Y912D02*
X2400Y959D01*
X1207Y912D02*
X2353D01*
X2400Y959D02*
X2675D01*
X2335Y1009D02*
X2365Y1039D01*
X1344Y1009D02*
X2335D01*
X2365Y1039D02*
X2655D01*
X2045Y1339D02*
X2115Y1409D01*
X1075Y1339D02*
X2045D01*
X1135Y984D02*
X1207Y912D01*
X1082Y984D02*
X1135D01*
X1294Y1144D02*
X1319Y1119D01*
X862Y1201D02*
Y1206D01*
X842Y959D02*
Y1167D01*
X869Y1158D02*
X888Y1177D01*
X869Y941D02*
Y1158D01*
X888Y1177D02*
Y1229D01*
X842Y1167D02*
X862Y1187D01*
Y1201D01*
X698Y1227D02*
X718Y1207D01*
X1239Y1114D02*
X1344Y1009D01*
X935Y1114D02*
X1239D01*
X2526Y1310D02*
X2675Y1459D01*
X1680Y1310D02*
X2526D01*
X1680D02*
X1880D01*
X921D02*
X1680D01*
X920D02*
X921D01*
X983Y1494D02*
X1029D01*
X1000Y894D02*
X1044D01*
X890Y784D02*
X1000Y894D01*
X475Y784D02*
X890D01*
X1113Y1077D02*
X1131D01*
X900Y864D02*
X1113Y1077D01*
X455Y864D02*
X900D01*
X1076Y1009D02*
X1111D01*
X876Y809D02*
X1076Y1009D01*
X325Y809D02*
X876D01*
X1048Y950D02*
X1082Y984D01*
X1048Y894D02*
Y950D01*
X984Y1258D02*
X1209D01*
X2655Y1039D02*
X2675Y1059D01*
X2525Y1109D02*
X2675Y1259D01*
X3250Y436D02*
Y905D01*
X3280Y448D02*
Y715D01*
X3310Y461D02*
Y740D01*
X3370Y641D02*
Y760D01*
X3881Y350D02*
X3890D01*
X3791D02*
X3800D01*
X3220Y390D02*
X3260Y350D01*
X3190Y370D02*
Y890D01*
X3220Y390D02*
Y910D01*
X3170Y350D02*
X3190Y370D01*
X3100Y350D02*
X3160Y410D01*
Y910D01*
X3340Y629D02*
X3425Y544D01*
X3370Y641D02*
X3437Y574D01*
X3400Y654D02*
X3450Y604D01*
X3430Y666D02*
X3462Y634D01*
X3340Y629D02*
Y715D01*
X3250Y905D02*
X3260Y915D01*
X3462Y634D02*
X3541D01*
X3425Y544D02*
X3503D01*
X3437Y574D02*
X3516D01*
X3450Y604D02*
X3528D01*
X3541Y634D02*
X3777Y398D01*
X3503Y544D02*
X3620Y427D01*
X3516Y574D02*
X3710Y380D01*
X3528Y604D02*
X3782Y350D01*
X3620D02*
Y427D01*
X3710Y350D02*
Y380D01*
X3782Y350D02*
X3800D01*
X3777Y398D02*
X3842D01*
X3890Y350D01*
X3310Y461D02*
X3348Y423D01*
X3250Y436D02*
X3336Y350D01*
X3280Y448D02*
X3335Y393D01*
X3348Y423D02*
X3457D01*
X3335Y393D02*
X3397D01*
X3336Y350D02*
X3350D01*
X3397Y393D02*
X3440Y350D01*
X3457Y423D02*
X3530Y350D01*
X325Y709D02*
X400D01*
X400D02*
X475Y784D01*
X1075Y620D02*
X1135Y680D01*
X1075Y459D02*
Y620D01*
X825Y490D02*
X1040Y705D01*
X825Y409D02*
Y490D01*
X775Y479D02*
X1003Y706D01*
X925Y549D02*
X1081Y705D01*
X925Y409D02*
Y549D01*
X1003Y706D02*
Y846D01*
X855Y834D02*
X860D01*
X775Y459D02*
Y479D01*
X1040Y705D02*
Y854D01*
X1135Y680D02*
Y936D01*
X1086Y943D02*
X1105Y924D01*
Y690D02*
Y924D01*
X1025Y610D02*
X1105Y690D01*
X275Y859D02*
X325Y809D01*
X275Y759D02*
X325Y709D01*
X1081Y943D02*
X1086D01*
X1025Y409D02*
Y610D01*
Y409D02*
X1075Y359D01*
X925Y409D02*
X975Y359D01*
X825Y409D02*
X875Y359D01*
X754Y1036D02*
Y1082D01*
X683Y1258D02*
X984D01*
D34*
X3755Y2125D02*
D03*
Y2225D02*
D03*
X2875Y460D02*
D03*
Y1060D02*
D03*
X3575Y180D02*
D03*
X3675D02*
D03*
X3775D02*
D03*
X3875D02*
D03*
X3475D02*
D03*
X2875Y1560D02*
D03*
Y1460D02*
D03*
Y1360D02*
D03*
Y1260D02*
D03*
Y1660D02*
D03*
X1553Y1649D02*
D03*
X2675Y1059D02*
D03*
Y1559D02*
D03*
Y1459D02*
D03*
Y1359D02*
D03*
Y1259D02*
D03*
Y1659D02*
D03*
X2575Y2059D02*
D03*
X2675D02*
D03*
Y1959D02*
D03*
X2680Y445D02*
D03*
X2580D02*
D03*
Y545D02*
D03*
X375Y659D02*
D03*
X275D02*
D03*
X375Y759D02*
D03*
X275D02*
D03*
X375Y859D02*
D03*
X275D02*
D03*
X375Y959D02*
D03*
X275D02*
D03*
X375Y1059D02*
D03*
X275D02*
D03*
X375Y1159D02*
D03*
X275D02*
D03*
X375Y1259D02*
D03*
X275D02*
D03*
X375Y1359D02*
D03*
X275D02*
D03*
X375Y1459D02*
D03*
X275D02*
D03*
X375Y1559D02*
D03*
X275D02*
D03*
X375Y1659D02*
D03*
X275D02*
D03*
X375Y1759D02*
D03*
X275D02*
D03*
X375Y1859D02*
D03*
X275D02*
D03*
X375Y1959D02*
D03*
X275D02*
D03*
X375Y2059D02*
D03*
X575Y2259D02*
D03*
Y2359D02*
D03*
X675Y2259D02*
D03*
Y2359D02*
D03*
X775Y2259D02*
D03*
Y2359D02*
D03*
X875Y2259D02*
D03*
Y2359D02*
D03*
X975Y2259D02*
D03*
Y2359D02*
D03*
X1075Y2259D02*
D03*
Y2359D02*
D03*
X1175Y2259D02*
D03*
Y2359D02*
D03*
X1275Y2259D02*
D03*
Y2359D02*
D03*
X1375Y2259D02*
D03*
Y2359D02*
D03*
X1475Y2259D02*
D03*
Y2359D02*
D03*
X1575Y2259D02*
D03*
Y2359D02*
D03*
X1675Y2259D02*
D03*
Y2359D02*
D03*
X1775Y2259D02*
D03*
Y2359D02*
D03*
X1875Y2259D02*
D03*
Y2359D02*
D03*
X1975Y2259D02*
D03*
X2175Y2059D02*
D03*
X2275D02*
D03*
X2175Y1959D02*
D03*
X2275D02*
D03*
X2175Y1859D02*
D03*
X2275D02*
D03*
X2175Y1759D02*
D03*
X2275D02*
D03*
X2175Y1659D02*
D03*
X2275D02*
D03*
X2175Y1559D02*
D03*
X2275D02*
D03*
X2175Y1459D02*
D03*
X2275D02*
D03*
X2175Y1359D02*
D03*
X2275D02*
D03*
X2175Y1259D02*
D03*
X2275D02*
D03*
X2175Y1159D02*
D03*
X2275D02*
D03*
X2175Y1059D02*
D03*
X2275D02*
D03*
X2175Y959D02*
D03*
X2275D02*
D03*
X2175Y859D02*
D03*
X2275D02*
D03*
X2175Y759D02*
D03*
X2275D02*
D03*
X2175Y659D02*
D03*
X2275D02*
D03*
X1975Y459D02*
D03*
Y359D02*
D03*
X1875Y459D02*
D03*
Y359D02*
D03*
X1775Y459D02*
D03*
Y359D02*
D03*
X1675Y459D02*
D03*
Y359D02*
D03*
X1575Y459D02*
D03*
Y359D02*
D03*
X1475Y459D02*
D03*
Y359D02*
D03*
X1375Y459D02*
D03*
Y359D02*
D03*
X1275Y459D02*
D03*
Y359D02*
D03*
X1175Y459D02*
D03*
Y359D02*
D03*
X1075Y459D02*
D03*
Y359D02*
D03*
X975Y459D02*
D03*
Y359D02*
D03*
X875Y459D02*
D03*
Y359D02*
D03*
X775Y459D02*
D03*
Y359D02*
D03*
X675Y459D02*
D03*
Y359D02*
D03*
X575Y459D02*
D03*
D51*
X2995Y2390D02*
X3105D01*
X3175Y2460D01*
X3275D02*
X3335Y2520D01*
X3615D01*
X2875Y560D02*
Y790D01*
X2975Y890D01*
X3350Y1280D02*
Y1681D01*
X3326Y1705D02*
X3350Y1681D01*
X2935Y1705D02*
X3326D01*
X3345Y1275D02*
X3350Y1280D01*
X3615Y2520D02*
X3675Y2460D01*
X2880Y1760D02*
X2935Y1705D01*
X2875Y1760D02*
X2880D01*
X3075Y2460D02*
X3165Y2550D01*
X3785D02*
X3875Y2460D01*
X3165Y2550D02*
X3785D01*
D53*
X3065Y1620D02*
X3250D01*
X3051Y1220D02*
X3085D01*
X3000D02*
X3051D01*
Y1220D01*
Y465D02*
Y1220D01*
X2991Y405D02*
X3051Y465D01*
X2991Y280D02*
Y405D01*
X3085Y1220D02*
X3185Y1320D01*
Y1530D01*
X2953Y1620D02*
X3065D01*
X2893Y1561D02*
X2953Y1620D01*
D54*
X3575Y2413D02*
Y2460D01*
X2875Y1360D02*
Y1402D01*
Y1360D02*
X2917D01*
X2875Y1318D02*
Y1360D01*
X2675Y1359D02*
Y1401D01*
Y1317D02*
Y1359D01*
X2633D02*
X2675D01*
X1961Y1449D02*
X2008D01*
X1961D02*
Y1496D01*
X1914Y1449D02*
X1961D01*
X2275Y1159D02*
Y1201D01*
Y1159D02*
X2317D01*
X2233D02*
X2275D01*
X1961Y1402D02*
Y1449D01*
X3992Y864D02*
Y899D01*
X3949D02*
X3992D01*
X4036D01*
X3992D02*
Y935D01*
X3828Y899D02*
X3881D01*
X3828D02*
Y945D01*
X3774Y899D02*
X3828D01*
X3992Y559D02*
Y595D01*
Y559D02*
X4036D01*
X3992Y523D02*
Y559D01*
X3949D02*
X3992D01*
X3828D02*
X3881D01*
X3828Y514D02*
Y559D01*
X3774D02*
X3828D01*
X3475Y180D02*
X3517D01*
X3433D02*
X3475D01*
Y222D01*
Y138D02*
Y180D01*
X2680Y545D02*
Y587D01*
Y503D02*
Y545D01*
X2875Y460D02*
Y502D01*
Y460D02*
X2917D01*
X2875Y418D02*
Y460D01*
X2680Y403D02*
Y445D01*
Y487D01*
X2638Y545D02*
X2680D01*
X2580D02*
X2622D01*
X2580D02*
Y587D01*
Y503D02*
Y545D01*
X2538D02*
X2580D01*
X2638Y445D02*
X2680D01*
X2580D02*
X2622D01*
X2580D02*
Y487D01*
X2538Y445D02*
X2580D01*
Y403D02*
Y445D01*
X1575Y2359D02*
Y2401D01*
Y2317D02*
Y2359D01*
X1533D02*
X1575D01*
X1617D01*
X275Y1259D02*
X317D01*
X275Y1217D02*
Y1259D01*
Y1301D01*
X233Y1259D02*
X275D01*
X1695Y794D02*
Y841D01*
X1648D02*
X1695D01*
X1742D01*
X1375Y359D02*
X1417D01*
X1375Y317D02*
Y359D01*
Y401D01*
X1333Y359D02*
X1375D01*
X3290Y1665D02*
X3300Y1655D01*
X2970Y1665D02*
X3290D01*
D59*
X1553Y1449D02*
D03*
X1685D02*
D03*
D60*
X1277D02*
D03*
X1961D02*
D03*
X1695Y841D02*
D03*
D61*
X3847Y843D02*
D03*
Y615D02*
D03*
D62*
X3992Y559D02*
D03*
Y899D02*
D03*
D63*
X3828D02*
D03*
Y559D02*
D03*
D64*
X3135Y1990D02*
D03*
D65*
X3450D02*
D03*
D66*
X3755Y2025D02*
D03*
X2875Y560D02*
D03*
Y960D02*
D03*
Y1760D02*
D03*
X2675Y959D02*
D03*
Y1759D02*
D03*
X275Y2059D02*
D03*
X1975Y2359D02*
D03*
X575Y359D02*
D03*
D67*
X3275Y2460D02*
D03*
X3175D02*
D03*
X3075D02*
D03*
D68*
X2975D02*
D03*
D69*
X3375Y180D02*
D03*
X1653Y1649D02*
D03*
X2575Y1959D02*
D03*
X2680Y545D02*
D03*
D70*
X3875Y2460D02*
D03*
X3475D02*
D03*
X3575D02*
D03*
X3675D02*
D03*
X3775D02*
D03*
D71*
X3975D02*
D03*
D72*
X3998Y105D02*
D03*
D73*
X1695Y1117D02*
D03*
D74*
X140Y140D02*
D03*
X2613D02*
D03*
X2613Y2483D02*
D03*
X140D02*
D03*
D75*
X375Y559D02*
D03*
X275D02*
D03*
D76*
X991Y1385D02*
D03*
D77*
X2995Y2390D02*
D03*
X1070Y1149D02*
D03*
X1319Y1119D02*
D03*
X921Y1310D02*
D03*
X935Y1114D02*
D03*
X1395Y1229D02*
D03*
X1219Y1264D02*
D03*
X3260Y915D02*
D03*
X3340Y716D02*
D03*
X3401Y655D02*
D03*
X3310Y740D02*
D03*
X3431Y685D02*
D03*
X3280Y716D02*
D03*
X3160Y910D02*
D03*
X3386Y775D02*
D03*
X3220Y910D02*
D03*
X3190Y890D02*
D03*
X3345Y1275D02*
D03*
X2975Y890D02*
D03*
X3441Y1379D02*
D03*
X3427Y1172D02*
D03*
X3456Y952D02*
D03*
X3008Y1050D02*
D03*
X3227Y1396D02*
D03*
X3585Y1381D02*
D03*
X3347Y1173D02*
D03*
X951Y1283D02*
D03*
X610Y1285D02*
D03*
X698Y1227D02*
D03*
X1131Y1077D02*
D03*
X1111Y1009D02*
D03*
X855Y834D02*
D03*
X754Y1033D02*
D03*
X1111Y958D02*
D03*
X1081Y943D02*
D03*
X1078Y910D02*
D03*
X1040Y854D02*
D03*
X1048Y894D02*
D03*
X754Y1082D02*
D03*
X785Y1009D02*
D03*
X782Y1105D02*
D03*
X814Y985D02*
D03*
X809Y1083D02*
D03*
X841Y958D02*
D03*
X862Y1201D02*
D03*
X866Y932D02*
D03*
X885Y1232D02*
D03*
X1070Y1336D02*
D03*
X732Y1233D02*
D03*
X984Y1258D02*
D03*
X683D02*
D03*
X983Y1494D02*
D03*
X1030Y1495D02*
D03*
D78*
X2350Y461D02*
D03*
X1740Y974D02*
D03*
X1390Y1119D02*
D03*
X1740Y1051D02*
D03*
X1715Y1211D02*
D03*
X1330Y1481D02*
D03*
X1650Y1389D02*
D03*
X1725Y1381D02*
D03*
X1740Y1601D02*
D03*
X1445Y1701D02*
D03*
X1740Y1814D02*
D03*
X970Y1544D02*
D03*
X1185Y1511D02*
D03*
X1310Y959D02*
D03*
X720Y1499D02*
D03*
X1820Y519D02*
D03*
X3396Y740D02*
D03*
X3648Y52D02*
D03*
X3716Y580D02*
D03*
X4056Y672D02*
D03*
X3906Y1032D02*
D03*
X2970Y520D02*
D03*
X2880Y75D02*
D03*
X3925Y1339D02*
D03*
X4041Y1162D02*
D03*
X3206Y192D02*
D03*
X3650Y1725D02*
D03*
X3795Y1732D02*
D03*
X3940Y1730D02*
D03*
X3955Y1616D02*
D03*
X3315Y1576D02*
D03*
X3230Y2070D02*
D03*
X3610Y2352D02*
D03*
X2932Y1269D02*
D03*
X2845Y620D02*
D03*
X3000Y930D02*
D03*
X3265Y1260D02*
D03*
X4020Y1405D02*
D03*
X3820Y2222D02*
D03*
X4050Y2535D02*
D03*
X3170Y2308D02*
D03*
X3070Y2072D02*
D03*
X3065Y1812D02*
D03*
X3380Y2000D02*
D03*
X3140Y1750D02*
D03*
X3575Y1222D02*
D03*
X3290Y1112D02*
D03*
X3525Y1032D02*
D03*
X3310Y940D02*
D03*
X3105Y952D02*
D03*
X2860Y1866D02*
D03*
X2858Y2152D02*
D03*
X2865Y2572D02*
D03*
X3520Y2582D02*
D03*
X3830Y2016D02*
D03*
X3820Y1926D02*
D03*
X2970Y756D02*
D03*
X3125Y752D02*
D03*
X3278Y846D02*
D03*
X2930Y1475D02*
D03*
X3831Y788D02*
D03*
X3654Y722D02*
D03*
X3691Y977D02*
D03*
X3713Y874D02*
D03*
X3814Y1059D02*
D03*
X3678Y1058D02*
D03*
X3625Y1170D02*
D03*
X3766Y1144D02*
D03*
X3803Y976D02*
D03*
X3851Y693D02*
D03*
X3629Y892D02*
D03*
X3235Y1572D02*
D03*
X3597Y232D02*
D03*
X3340Y518D02*
D03*
X3527Y402D02*
D03*
X3480Y285D02*
D03*
X3198Y317D02*
D03*
X3323Y316D02*
D03*
X3525Y1139D02*
D03*
X3696Y825D02*
D03*
X550Y914D02*
D03*
X460Y921D02*
D03*
X2365Y864D02*
D03*
X2465Y1781D02*
D03*
X1975Y1651D02*
D03*
X2110Y1541D02*
D03*
X2355Y1561D02*
D03*
X1595Y801D02*
D03*
X455Y511D02*
D03*
X660Y1081D02*
D03*
X550Y1034D02*
D03*
X470Y1144D02*
D03*
X530Y1594D02*
D03*
X535Y1891D02*
D03*
X2100Y2004D02*
D03*
Y2209D02*
D03*
X1775Y2201D02*
D03*
X630Y2219D02*
D03*
X1130Y2211D02*
D03*
X1630Y2214D02*
D03*
X1950Y2561D02*
D03*
X1445D02*
D03*
X820Y2559D02*
D03*
X325Y2561D02*
D03*
X70Y2289D02*
D03*
Y1854D02*
D03*
X75Y1331D02*
D03*
Y321D02*
D03*
X350Y49D02*
D03*
X1115Y51D02*
D03*
X1675D02*
D03*
X1465Y541D02*
D03*
X1715Y581D02*
D03*
X1195Y881D02*
D03*
X1130Y534D02*
D03*
X860Y649D02*
D03*
X970Y819D02*
D03*
X1240Y959D02*
D03*
X644Y1461D02*
D03*
X1235Y1611D02*
D03*
X1066Y1496D02*
D03*
X1740Y1904D02*
D03*
X1375Y1611D02*
D03*
X1490Y1849D02*
D03*
X1130Y1859D02*
D03*
X1270Y1749D02*
D03*
X1355Y1891D02*
D03*
X1010Y1809D02*
D03*
X780Y1804D02*
D03*
X860Y1911D02*
D03*
X995Y1951D02*
D03*
X1225Y2121D02*
D03*
X715D02*
D03*
X1500Y2014D02*
D03*
X1860Y1874D02*
D03*
X1865Y1991D02*
D03*
X2605Y2121D02*
D03*
X2690Y2321D02*
D03*
X2380Y2069D02*
D03*
X2570Y1599D02*
D03*
X2640Y1154D02*
D03*
X2510Y704D02*
D03*
X2700Y294D02*
D03*
X2475Y31D02*
D03*
X2090Y234D02*
D03*
X2115Y319D02*
D03*
X2345Y611D02*
D03*
X1870Y619D02*
D03*
X2100Y939D02*
D03*
X1110Y1396D02*
D03*
D79*
X3430Y1521D02*
D03*
D80*
X3185Y1530D02*
D03*
X3000Y1220D02*
D03*
X3065Y1620D02*
D03*
D81*
X3125Y1572D02*
D03*
X3573Y2150D02*
D03*
X3080Y1515D02*
D03*
X3896Y502D02*
D03*
X4040Y182D02*
D03*
X3140Y1407D02*
D03*
X2970Y1665D02*
D03*
X3300Y1655D02*
D03*
X3800Y1511D02*
D03*
X3501Y1582D02*
D03*
X3610Y1600D02*
D03*
X3967Y2017D02*
D03*
X4006Y2309D02*
D03*
X3955Y2177D02*
D03*
X3726Y2292D02*
D03*
X3275Y1762D02*
D03*
X4050Y1795D02*
D03*
X3700Y1875D02*
D03*
X3250Y1620D02*
D03*
X2420Y2539D02*
D03*
D82*
X2991Y280D02*
D03*
D83*
X3751Y1389D02*
D03*
D84*
X1000Y849D02*
D03*
D85*
X3260Y350D02*
D03*
X3350D02*
D03*
X3170D02*
D03*
X3100D02*
D03*
X3890D02*
D03*
X3800D02*
D03*
X3620D02*
D03*
X3440D02*
D03*
X3710D02*
D03*
X3530D02*
D03*
M02*
