M48
;Layer_Color=9474304
;FILE_FORMAT=2:3
INCH,LZ
;TYPE=PLATED
T1F00S00C0.012
T2F00S00C0.016
T3F00S00C0.020
T5F00S00C0.031
T6F00S00C0.037
T7F00S00C0.039
T8F00S00C0.047
;TYPE=NON_PLATED
T9F00S00C0.028
T10F00S00C0.120
T11F00S00C0.126
%
T01
X03648Y00052
X03597Y00232
X0348Y00285
X03527Y00402
X03716Y0058
X03654Y00722
X03696Y00825
X03713Y00874
X03629Y00892
X03691Y00977
X03678Y01058
X03814Y01059
X03803Y00976
X03906Y01032
X03831Y00788
X03851Y00693
X04056Y00672
X03896Y00502
X0404Y00182
X03456Y00952
X03525Y01032
X0331Y0094
X03278Y00846
X03396Y0074
X0334Y00518
X03323Y00316
X03198Y00317
X03206Y00192
X0288Y00075
X027Y00294
X02845Y0062
X0297Y0052
Y00756
X03125Y00752
X03105Y00952
X03Y0093
X03008Y0105
X02365Y00864
X02345Y00611
X0235Y00461
X02115Y00319
X0209Y00234
X02475Y00031
X0251Y00704
X021Y00939
X0187Y00619
X0182Y00519
X01715Y00581
X01465Y00541
X0113Y00534
X0086Y00649
X0097Y00819
X01195Y00881
X0124Y00959
X0131
X01595Y00801
X0174Y00974
X0174Y01051
X01675Y00051
X01115
X0035Y00049
X00455Y00511
X0046Y00921
X0055Y00914
Y01034
X0066Y01081
X00075Y00321
Y01331
X0007Y01854
Y02289
X00325Y02561
X0082Y02559
X0063Y02219
X00715Y02121
X0086Y01911
X00995Y01951
X0101Y01809
X0113Y01859
X0127Y01749
X01235Y01611
X01375
X01445Y01701
X0149Y01849
X015Y02014
X01355Y01891
X01225Y02121
X0113Y02211
X0163Y02214
X01775Y02201
X0174Y01904
Y01814
X0186Y01874
X0174Y01601
X01725Y01381
X0165Y01389
X01715Y01211
X0139Y01119
X0133Y01481
X01185Y01511
X01066Y01496
X0111Y01396
X0097Y01544
X0072Y01499
X00644Y01461
X0053Y01594
X00535Y01891
X0078Y01804
X0047Y01144
X01445Y02561
X0195
X0242Y02539
X02865Y02572
X0269Y02321
X02605Y02121
X0238Y02069
X021Y02004
Y02209
X01865Y01991
X01975Y01651
X0211Y01541
X02355Y01561
X0257Y01599
X02465Y01781
X0286Y01866
X03065Y01812
X0314Y0175
X03275Y01762
X03315Y01576
X03235Y01572
X03125
X0308Y01515
X0314Y01407
X03227Y01396
X03265Y0126
X03347Y01173
X0329Y01112
X02932Y01269
X0293Y01475
X0264Y01154
X02858Y02152
X0307Y02072
X0323Y0207
X0338Y02
X0317Y02308
X0361Y02352
X03726Y02292
X0382Y02222
X03955Y02177
X03967Y02017
X0383Y02016
X0382Y01926
X037Y01875
X0365Y01725
X03795Y01732
X0394Y0173
X03955Y01616
X038Y01511
X03751Y01389
X03585Y01381
X03441Y01379
X0343Y01521
X03501Y01582
X0361Y016
X03575Y01222
X03625Y0117
X03525Y01139
X03427Y01172
X03766Y01144
X04041Y01162
X0402Y01405
X03925Y01339
X0405Y01795
X04006Y02309
X0405Y02535
X0352Y02582
X03573Y0215
T02
X03431Y00685
X03401Y00655
X0334Y00716
X0331Y0074
X0328Y00716
X03386Y00775
X0326Y00915
X0322Y0091
X0319Y0089
X0316Y0091
X02975Y0089
X01078Y0091
X01081Y00943
X01111Y00958
Y01009
X01131Y01077
X01048Y00894
X0104Y00854
X01Y00849
X00855Y00834
X00866Y00932
X00841Y00958
X00814Y00985
X00785Y01009
X00754Y01033
Y01082
X00809Y01083
X00782Y01105
X00935Y01114
X00862Y01201
X00885Y01232
X00921Y0131
X00951Y01283
X00984Y01258
X0107Y01336
Y01149
X01219Y01264
X01395Y01229
X01319Y01119
X0103Y01495
X00983Y01494
X00732Y01233
X00698Y01227
X00683Y01258
X0061Y01285
X0297Y01665
X0325Y0162
X033Y01655
X03345Y01275
X02995Y0239
T03
X02991Y0028
X03Y0122
X03065Y0162
X03185Y0153
T05
X03135Y0199
X0345
T06
X01875Y00359
X01975
Y00459
X01875
X02175Y00659
Y00759
Y00859
Y00959
Y01059
X02275
Y00959
Y00859
Y00759
Y00659
X01775Y00459
Y00359
X01675
Y00459
X01575
Y00359
X01475
Y00459
X01375
Y00359
X01275
Y00459
X01175
Y00359
X01075
Y00459
X00975
Y00359
X00875
Y00459
X00775
Y00359
X00675
Y00459
X00575
Y00359
X00375Y00559
Y00659
Y00759
Y00859
Y00959
Y01059
X00275
Y00959
Y00859
Y00759
Y00659
Y00559
Y01159
Y01259
Y01359
Y01459
Y01559
Y01659
Y01759
Y01859
Y01959
Y02059
X00375
Y01959
Y01859
Y01759
Y01659
Y01559
Y01459
Y01359
Y01259
Y01159
X00575Y02259
Y02359
X00675
Y02259
X00775
Y02359
X00875
Y02259
X00975
Y02359
X01075
Y02259
X01175
Y02359
X01275
Y02259
X01375
Y02359
X01475
Y02259
X01575
Y02359
X01675
Y02259
X01775
Y02359
X01875
Y02259
X01975
Y02359
X02175Y02059
X02275
Y01959
X02175
Y01859
X02275
Y01759
X02175
Y01659
X02275
Y01559
X02175
Y01459
X02275
Y01359
X02175
Y01259
X02275
Y01159
X02175
T07
X03475Y0018
X03575
X03675
X03775
X03875
X03375
X02875Y0046
Y0056
X0268Y00545
Y00445
X0258
Y00545
X02675Y00959
Y01059
X02875Y0106
Y0096
X01653Y01649
X01553
X00991Y01385
X02675Y01359
Y01459
Y01559
Y01659
Y01759
Y01959
Y02059
X02575
Y01959
X02875Y0176
Y0166
Y0156
Y0146
Y0136
Y0126
X02675Y01259
X02975Y0246
X03075
X03175
X03275
X03475
X03575
X03675
X03775
X03875
X03975
X03755Y02225
Y02125
Y02025
T08
X01695Y00841
Y01117
X01685Y01449
X01553
X01277
X01961
T09
X03847Y00615
Y00843
T10
X03998Y00105
T11
X02613Y0014
X0014
X0014Y02483
X02613
M30
